<?xml version="1.0" standalone="no"?>
<!DOCTYPE svg PUBLIC "-//W3C//DTD SVG 1.1//EN" "http://www.w3.org/Graphics/SVG/1.1/DTD/svg11.dtd" >
<svg xmlns="http://www.w3.org/2000/svg" xmlns:xlink="http://www.w3.org/1999/xlink" version="1.1">
<metadata></metadata>
<defs>
<font id="chevin_stdlight" horiz-adv-x="1146" >
<font-face units-per-em="2048" ascent="1536" descent="-512" />
<missing-glyph horiz-adv-x="589" />
<glyph unicode="&#xfb01;" horiz-adv-x="913" d="M764 55q0 -29 -19.5 -47t-46.5 -18q-29 0 -47 18.5t-18 46.5v912q0 29 18.5 47t46.5 18q27 0 46.5 -18.5t19.5 -46.5v-912zM567 1427q0 -25 -17.5 -42t-43.5 -17h-29q-55 0 -90 -14.5t-54.5 -47t-26.5 -86t-7 -130.5v-70h145q25 0 42.5 -17.5t17.5 -41.5 q0 -23 -17.5 -40.5t-42.5 -17.5h-145v-848q0 -29 -19.5 -47t-46.5 -18q-29 0 -47 18.5t-18 46.5v848h-72q-25 0 -42 17.5t-17 40.5q0 25 17.5 42t41.5 17h72v76q0 86 11 157.5t43 124t90.5 82t150.5 29.5h43q25 0 43 -17.5t18 -44.5zM788 1366q0 -37 -25.5 -61.5 t-62.5 -24.5t-62.5 24.5t-25.5 61.5t26 62.5t62 25.5q37 0 62.5 -25.5t25.5 -62.5z" />
<glyph unicode="&#xfb02;" horiz-adv-x="931" d="M850 49q0 -29 -18.5 -44t-45.5 -15q-20 0 -48.5 11t-51.5 32q-35 33 -50 76t-15 88v1222q0 29 19 47.5t46 18.5q29 0 47.5 -18.5t18.5 -47.5v-1186q0 -68 15 -93t50 -40q33 -18 33 -51zM567 1427q0 -25 -17.5 -42t-43.5 -17h-29q-55 0 -90 -14.5t-54.5 -47t-26.5 -86 t-7 -130.5v-70h145q25 0 42.5 -17.5t17.5 -41.5q0 -23 -17.5 -40.5t-42.5 -17.5h-145v-848q0 -29 -19.5 -47t-46.5 -18q-29 0 -47 18.5t-18 46.5v848h-72q-25 0 -42 17.5t-17 40.5q0 25 17.5 42t41.5 17h72v76q0 86 11 157.5t43 124t90.5 82t150.5 29.5h43q25 0 43 -17.5 t18 -44.5z" />
<glyph horiz-adv-x="0" />
<glyph horiz-adv-x="0" />
<glyph horiz-adv-x="604" />
<glyph unicode=" "  horiz-adv-x="589" />
<glyph unicode="&#x09;" horiz-adv-x="589" />
<glyph unicode="&#xa0;" horiz-adv-x="589" />
<glyph unicode="!" horiz-adv-x="536" d="M338 457q-4 -68 -59 -68t-60 68l-16 975q-2 33 17.5 56t58.5 23q41 0 59 -23.5t16 -55.5zM385 88q0 -47 -31.5 -79t-74.5 -32q-47 0 -79 32t-32 79q0 43 31.5 75t79.5 32q43 0 74.5 -32t31.5 -75z" />
<glyph unicode="&#x22;" horiz-adv-x="669" d="M555 1165q-6 -61 -59 -61t-58 61l-14 269q-2 29 15.5 53t56.5 24t57 -24.5t14 -52.5zM225 1165q-4 -61 -57 -61t-57 61l-15 269q-4 29 14.5 53t57.5 24q41 0 58.5 -24.5t13.5 -52.5z" />
<glyph unicode="#" horiz-adv-x="1540" d="M1460 1030q0 -27 -18.5 -44t-44.5 -17h-269l-69 -451h250q27 0 45 -18.5t18 -44.5q0 -25 -18.5 -43.5t-44.5 -18.5h-269l-55 -358q-4 -29 -25.5 -44.5t-46.5 -10.5q-29 4 -43 25.5t-10 47.5l51 340h-411l-56 -358q-4 -29 -24.5 -44.5t-46.5 -10.5q-27 4 -42.5 25.5 t-11.5 47.5l52 340h-252q-27 0 -45.5 18.5t-18.5 43.5q0 27 18.5 45t45.5 18h270l70 451h-252q-27 0 -45.5 17.5t-18.5 43.5q0 27 18.5 45.5t45.5 18.5h270l55 364q4 27 26 42.5t48 10.5q27 -4 42.5 -24.5t10.5 -48.5l-53 -344h410l55 364q4 27 25.5 42.5t48.5 10.5 q27 -4 42 -24.5t11 -48.5l-51 -344h250q27 0 45 -18.5t18 -45.5zM586 969l-66 -451h410l67 451h-411z" />
<glyph unicode="$" d="M1055 426q0 -195 -119 -310.5t-334 -131.5v-152q0 -25 -17.5 -42t-41.5 -17q-25 0 -42.5 17t-17.5 42v148q-104 4 -187 19t-161 50q-23 10 -32 26.5t-9 35.5q0 25 16.5 45t45.5 20q12 0 25.5 -5t32.5 -13t48 -18.5t72 -18.5q37 -6 84 -11.5t106 -5.5q203 0 299.5 87.5 t96.5 226.5q0 106 -52.5 160.5t-144.5 83.5q-43 14 -100.5 24t-118 21.5t-119.5 26t-104 34.5q-84 39 -135.5 111.5t-51.5 205.5q0 180 107.5 289t281.5 131v156q0 23 17.5 41t42.5 18t42 -18.5t17 -40.5v-152q86 -2 160 -14t143 -47q23 -8 33 -24.5t10 -32.5 q0 -27 -17.5 -47.5t-45.5 -20.5q-10 0 -22.5 5t-31 12.5t-44 15.5t-62.5 16q-31 6 -70 10t-90 4q-160 0 -248 -79.5t-88 -212.5q0 -109 55.5 -160t149.5 -78q51 -16 115.5 -26.5t131.5 -22.5t128 -31.5t109 -50.5q66 -45 101.5 -116.5t35.5 -182.5z" />
<glyph unicode="%" horiz-adv-x="1126" d="M555 1151q0 -104 -61.5 -164.5t-155.5 -60.5q-96 0 -157.5 60.5t-61.5 164.5v135q0 104 61.5 164.5t157.5 60.5q94 0 155.5 -60t61.5 -165v-135zM348 12q-6 -18 -25.5 -27.5t-39.5 -0.5q-18 6 -26.5 24.5t-0.5 38.5l522 1434q8 18 26.5 26.5t37.5 1.5q20 -8 28.5 -25.5 t1.5 -37.5zM1008 207q0 -104 -61.5 -164.5t-158.5 -60.5q-92 0 -154.5 60t-62.5 165v135q0 104 62.5 164.5t154.5 60.5q96 0 158 -60.5t62 -164.5v-135zM457 1292q0 61 -33 95t-86 34t-87 -33.5t-34 -95.5v-149q0 -59 34 -93t87 -34t86 33.5t33 93.5v149zM911 348 q0 59 -32.5 93t-90.5 34q-53 0 -84.5 -33.5t-31.5 -93.5v-147q0 -61 32.5 -95t83.5 -34q55 0 89 33.5t34 95.5v147z" />
<glyph unicode="&#x26;" horiz-adv-x="1263" d="M1200 45q0 -29 -19.5 -47t-45.5 -18q-33 0 -54 28l-118 156q-74 -82 -181.5 -133t-255.5 -51q-109 0 -187.5 35.5t-131.5 95t-79 134t-26 154.5q0 86 29 155t76 124t106.5 99t120.5 81q-31 37 -59.5 78t-52 83t-38 87t-14.5 92q0 82 31 141.5t80 97.5t108.5 56t116.5 18 q137 0 232 -51q29 -16 52 -37.5t40.5 -44t27 -43t9.5 -35.5q0 -29 -20.5 -47t-45.5 -18q-23 0 -33 14.5t-24 32.5q-10 12 -24.5 26.5t-37.5 30.5q-35 23 -77.5 37.5t-98.5 14.5q-35 0 -70.5 -12.5t-64.5 -37t-47 -61.5t-18 -86q0 -37 16 -76t39.5 -76.5t51.5 -72.5t50 -64 l398 -522q37 72 55 152.5t22 158.5q2 29 21.5 44.5t44.5 15.5t44 -18.5t19 -49.5q-4 -90 -31.5 -203.5t-88.5 -212.5l139 -182q14 -16 14 -43zM510 760q-57 -33 -108.5 -69t-89.5 -80t-59.5 -95t-21.5 -115q0 -59 18.5 -112t56.5 -94t94.5 -66t129.5 -25q123 0 209 45.5 t146 116.5z" />
<glyph unicode="'" horiz-adv-x="350" d="M231 1165q-4 -61 -55 -61q-53 0 -57 61l-17 269q-4 29 14.5 53t59.5 24q39 0 57.5 -24.5t14.5 -52.5z" />
<glyph unicode="(" horiz-adv-x="559" d="M461 -301q0 -31 -18.5 -49.5t-47.5 -18.5q-14 0 -28.5 6.5t-24.5 24.5q-68 113 -115 237t-75.5 252t-41 256t-12.5 250q0 123 12.5 252t41 257t75.5 252t115 235q10 18 24.5 25.5t28.5 7.5q29 0 47.5 -19.5t18.5 -48.5q0 -20 -10 -47q-61 -102 -102.5 -214t-67 -228.5 t-37 -235.5t-11.5 -236t11.5 -234.5t37 -234t66.5 -229.5t103 -215q10 -25 10 -45z" />
<glyph unicode=")" horiz-adv-x="559" d="M461 657q0 -123 -12.5 -250.5t-40 -255.5t-74.5 -252t-115 -237q-12 -18 -25.5 -24.5t-29.5 -6.5q-29 0 -47.5 18.5t-18.5 49.5q0 23 13 45q59 102 100 215t66.5 229.5t37 234.5t11.5 234q0 117 -11.5 236t-37 235.5t-66.5 228t-100 214.5q-12 25 -13 47q0 29 18.5 48.5 t47.5 19.5q33 0 55 -33q68 -111 115 -235t74.5 -252t40 -257t12.5 -252z" />
<glyph unicode="*" horiz-adv-x="980" d="M877 1229q4 -16 4 -23q0 -25 -15.5 -38t-36.5 -19l-258 -72l168 -211q18 -23 19 -45q0 -20 -22.5 -40.5t-45.5 -20.5q-31 0 -51 35l-150 223l-147 -223q-20 -35 -51 -35q-23 0 -45.5 20.5t-22.5 40.5q0 23 19 45l168 211l-260 72q-20 4 -35 19.5t-15 37.5q0 35 20.5 51.5 t39.5 16.5q12 0 28 -6l252 -97l-12 271q-2 25 12.5 46t48.5 21q35 0 50.5 -21.5t13.5 -45.5l-12 -271l252 97q12 6 26 6q18 0 34 -11t24 -34z" />
<glyph unicode="+" horiz-adv-x="1095" d="M971 559q0 -27 -18.5 -45t-45.5 -18h-297v-297q0 -27 -18.5 -45.5t-42.5 -18.5q-27 0 -45.5 18.5t-18.5 45.5v297h-297q-27 0 -45 18t-18 45t18.5 44.5t44.5 17.5h297v299q0 27 18.5 45t45.5 18q25 0 43 -18.5t18 -44.5v-299h297q27 0 45.5 -17.5t18.5 -44.5z" />
<glyph unicode="," horiz-adv-x="466" d="M350 51q0 -72 -20.5 -124t-48 -86t-58 -51t-49.5 -17q-14 0 -25.5 8t-11.5 24q0 20 14.5 35t31 31t31.5 41t19 63q-45 2 -74.5 33t-29.5 76q0 47 32 79t77 32q53 0 82.5 -40.5t29.5 -103.5z" />
<glyph unicode="-" horiz-adv-x="985" d="M831 600q0 -27 -17 -44t-44 -17h-555q-25 0 -43 17t-18 44t18 45.5t43 18.5h555q27 0 44 -18.5t17 -45.5z" />
<glyph unicode="." horiz-adv-x="477" d="M346 88q0 -47 -30.5 -79t-75.5 -32t-77 32t-32 79q0 43 32 75t77 32t75.5 -32t30.5 -75z" />
<glyph unicode="/" horiz-adv-x="630" d="M96 -113q-8 -25 -30.5 -37t-49.5 -6q-25 10 -37 34t-4 48l539 1678q8 25 31.5 37t48.5 4t37 -32t4 -48z" />
<glyph unicode="0" d="M1036 522q0 -106 -25.5 -203.5t-81 -172t-143.5 -119.5t-213 -45t-213 45t-143 119.5t-80.5 172t-25.5 203.5v449q0 106 25.5 203.5t80.5 172t143.5 119.5t212.5 45q125 0 213 -45t143.5 -119.5t81 -172t25.5 -203.5v-449zM903 965q0 90 -19.5 166.5t-60.5 133t-102.5 88 t-147.5 31.5t-148.5 -31.5t-102 -88t-59 -133t-19.5 -166.5v-439q0 -90 19.5 -166.5t59 -132t102 -87t148.5 -31.5t147.5 31.5t102.5 87t60.5 132t19.5 166.5v439z" />
<glyph unicode="1" d="M999 63q0 -27 -18 -45t-47 -18h-733q-27 0 -45.5 18.5t-18.5 44.5q0 29 18.5 47.5t45.5 18.5h372v1196l-401 -276q-23 -16 -47.5 -11.5t-40.5 27.5t-11 49.5t27 40.5l496 342q12 6 22.5 10t22.5 4q29 0 48.5 -19t19.5 -46v-1317h225q29 0 47 -18.5t18 -47.5z" />
<glyph unicode="2" d="M1006 63q0 -27 -18.5 -45t-45.5 -18h-743q-29 0 -47.5 17.5t-18.5 45.5q0 70 16.5 130.5t45 112.5t66.5 96t81 83q82 74 174 138.5t171 132t131 146.5t52 181q0 61 -17 116.5t-53 96.5t-92.5 65.5t-132.5 24.5q-70 0 -122 -12t-93 -35q-59 -31 -81.5 -54t-49.5 -23 t-47 18t-20 47q0 12 5 24.5t19 22.5q72 66 168.5 101.5t223.5 35.5q111 0 191.5 -35.5t132.5 -95t78 -137.5t26 -160q0 -119 -49.5 -208t-124 -160.5t-164.5 -135t-171 -129t-141.5 -142.5t-79.5 -177h666q27 0 45.5 -19.5t18.5 -48.5z" />
<glyph unicode="3" d="M979 406q0 -84 -28.5 -160t-87 -135.5t-144.5 -94t-203 -34.5q-125 0 -219 31.5t-184 119.5q-20 20 -21 49q0 25 17.5 42.5t42.5 17.5q23 0 45 -22.5t77 -57.5q53 -35 109.5 -48.5t128.5 -13.5q84 0 146.5 26t104.5 69t62.5 99t20.5 120q0 84 -30 139t-79 89t-114.5 48.5 t-139.5 16.5q-20 0 -43.5 11t-23.5 48t24.5 48t42.5 13q51 2 109.5 16.5t109 45.5t83 82t32.5 129q0 51 -14.5 103t-48 94t-90 68t-138.5 26q-68 0 -123 -16.5t-98 -41.5q-53 -33 -72.5 -57.5t-46.5 -24.5q-25 0 -42 17.5t-17 46.5q0 25 25 49q53 59 149 103t227 44 q117 0 197 -36.5t128 -95t68.5 -129t20.5 -138.5q0 -137 -67.5 -217t-176.5 -119q63 -18 114.5 -48t88.5 -74t57.5 -105t20.5 -143z" />
<glyph unicode="4" d="M1030 371q0 -27 -18.5 -45.5t-44.5 -18.5h-131v-260q0 -29 -18.5 -47t-47.5 -18t-47 18t-18 47v260h-527q-27 0 -45 17.5t-18 46.5q0 10 2 18t6 17l469 1064q10 25 35.5 35.5t52.5 -0.5q25 -10 35 -36.5t-2 -51.5l-430 -983h422v336q0 29 18 47.5t47 18.5t47.5 -18.5 t18.5 -47.5v-336h131q27 0 45 -18t18 -45z" />
<glyph unicode="5" d="M995 444q0 -86 -26.5 -170t-84 -148.5t-145.5 -104t-213 -39.5q-92 0 -171 19t-154 77q-29 23 -29 55q0 27 17.5 47.5t46.5 20.5q18 0 38 -17q102 -78 252 -78q90 0 153.5 28t103.5 75t58.5 108.5t18.5 126.5q0 174 -81 256t-222 82q-53 0 -94 -13t-76 -38 q-25 -18 -40 -33.5t-27.5 -27t-23.5 -18.5t-28 -7q-29 0 -47 18.5t-18 49.5l26 717q0 29 19.5 46t46.5 17h553q29 0 47 -17.5t18 -45.5q0 -29 -18 -47.5t-47 -18.5h-494l-18 -533q51 41 106.5 58.5t120.5 17.5q205 0 318.5 -120t113.5 -343z" />
<glyph unicode="6" d="M1012 444q0 -106 -33 -192t-91.5 -145.5t-140 -92t-180.5 -32.5q-98 0 -179 37.5t-138 108.5t-88 172t-31 230q0 135 43 268.5t112.5 256.5t157.5 233.5t181 200.5q23 20 47 20q31 0 50 -20.5t19 -48.5q0 -25 -20 -45q-59 -57 -116.5 -123t-110 -139.5t-96.5 -153.5 t-74 -164q59 41 123.5 59.5t123.5 18.5q88 0 168 -27.5t140.5 -83t96.5 -139.5t36 -199zM877 442q0 82 -24 144.5t-66 102.5t-98 60.5t-124 20.5q-98 0 -169.5 -38t-119.5 -79q-6 -29 -8 -60.5t-2 -62.5q0 -113 24.5 -192.5t65.5 -130.5t95.5 -76t115.5 -25q143 0 226.5 88 t83.5 248z" />
<glyph unicode="7" d="M1016 1430q0 -10 -3 -21.5t-7 -22.5l-533 -1361q-10 -27 -34.5 -38.5t-51.5 -0.5q-29 10 -39 35.5t0 50.5l510 1292h-676q-27 0 -45 18.5t-18 47.5t18.5 46t44.5 17h768q29 0 47.5 -17t18.5 -46z" />
<glyph unicode="8" d="M1053 383q0 -92 -35 -167t-97.5 -127t-151.5 -79.5t-196 -27.5q-102 0 -189 26.5t-151.5 76.5t-101.5 125t-37 173q0 80 26.5 140.5t73 106.5t106.5 80.5t128 65.5q-53 25 -101 55.5t-84 72.5t-57.5 96.5t-21.5 127.5q0 96 32.5 168t89 119t131.5 70.5t156 23.5 q84 0 158 -24.5t129 -72.5t87 -118.5t32 -163.5q0 -129 -72.5 -206.5t-187.5 -135.5q66 -29 126 -61.5t106 -78.5t74 -110.5t28 -154.5zM846 1122q0 131 -77 197.5t-196 66.5q-57 0 -108 -16t-89 -49t-59.5 -82t-21.5 -115q0 -59 22.5 -103t61.5 -77t90 -57.5t109 -44.5 q55 23 103 49.5t85 59t58.5 74.5t21.5 97zM918 389q0 74 -29 124t-78 87t-111.5 63.5t-130.5 51.5q-66 -25 -127 -53.5t-109 -66.5t-77 -87t-29 -117t26 -121t72 -90t108.5 -56.5t137.5 -19.5q164 0 255.5 78t91.5 207z" />
<glyph unicode="9" d="M1026 961q0 -135 -43 -268.5t-112.5 -256.5t-158.5 -233.5t-182 -200.5q-20 -20 -47 -20q-29 0 -49 20.5t-20 48.5q0 25 22 45q57 57 115.5 123t111 139.5t96.5 153.5t75 164q-61 -41 -126 -59.5t-124 -18.5q-88 0 -168 27.5t-139.5 83t-95.5 139.5t-36 199q0 106 32 192 t90.5 146.5t140 92t180.5 31.5q100 0 181 -37.5t138.5 -108.5t88 -172t30.5 -230zM891 961q0 113 -24.5 192.5t-66.5 130.5t-96.5 75.5t-115.5 24.5q-141 0 -224 -88t-83 -247q0 -84 23.5 -145.5t64.5 -101.5t98 -60.5t123 -20.5q98 0 169.5 38t119.5 79q8 31 10 61.5 t2 61.5z" />
<glyph unicode=":" horiz-adv-x="477" d="M346 88q0 -47 -30.5 -79t-75.5 -32t-77 32t-32 79q0 43 32 75t77 32t75.5 -32t30.5 -75zM346 922q0 -47 -30.5 -79t-75.5 -32t-77 31.5t-32 79.5q0 43 32 74.5t77 31.5t75.5 -31.5t30.5 -74.5z" />
<glyph unicode=";" horiz-adv-x="477" d="M354 51q0 -72 -20.5 -124t-48 -86t-58 -51t-49.5 -17q-14 0 -25.5 8t-11.5 24q0 20 14.5 35t31 31t31.5 41t20 63q-45 2 -75 33t-30 76q0 47 32 79t77 32q53 0 82.5 -40.5t29.5 -103.5zM346 922q0 -47 -30.5 -79t-75.5 -32t-77 31.5t-32 79.5q0 43 32 74.5t77 31.5 t75.5 -31.5t30.5 -74.5z" />
<glyph unicode="&#x3c;" horiz-adv-x="1120" d="M985 141q-16 -33 -51 -32q-14 0 -29 8l-745 391q-33 14 -33 53q0 16 8 31.5t25 21.5l745 392q20 8 29 8q23 0 41 -17.5t18 -46.5q0 -33 -32 -49l-648 -340l648 -340q33 -16 32 -51q0 -9 -8 -29z" />
<glyph unicode="=" horiz-adv-x="1105" d="M975 748q0 -27 -17.5 -45.5t-44.5 -18.5h-720q-27 0 -44.5 18.5t-17.5 45.5q0 25 17.5 43t44.5 18h720q27 0 44.5 -18t17.5 -43zM975 381q0 -27 -17.5 -45.5t-44.5 -18.5h-720q-27 0 -44.5 18.5t-17.5 45.5q0 25 17.5 43t44.5 18h720q27 0 44.5 -18t17.5 -43z" />
<glyph unicode="&#x3e;" horiz-adv-x="1120" d="M993 561q0 -39 -32 -53l-746 -391q-14 -8 -31 -8q-23 0 -40 17t-17 44q0 35 33 51l647 340l-647 340q-33 16 -33 49q0 29 17.5 46.5t39.5 17.5q10 0 31 -8l746 -392q16 -6 24 -21.5t8 -31.5z" />
<glyph unicode="?" horiz-adv-x="999" d="M881 1122q0 -72 -16.5 -124t-47.5 -96t-74 -83t-94 -82q-57 -47 -90 -84t-49 -68.5t-20.5 -62t-4.5 -61.5q0 -29 -17 -45.5t-46 -16.5q-27 0 -45.5 16.5t-18.5 47.5q0 43 6.5 84t26 83t56 86t98.5 95q51 43 89 76t62.5 66.5t36.5 71.5t12 91q0 72 -24.5 124t-64.5 85 t-89 48.5t-98 15.5q-96 0 -159.5 -27t-114.5 -80q-14 -14 -41 -14t-45.5 17.5t-18.5 43.5q0 27 23.5 50.5t46.5 39.5q66 47 141.5 69.5t175.5 22.5q68 0 139.5 -21.5t130 -68.5t96.5 -121t38 -178zM530 88q0 -47 -31.5 -79t-74.5 -32q-47 0 -79 32t-32 79q0 43 32 75t79 32 q43 0 74.5 -32t31.5 -75z" />
<glyph unicode="@" horiz-adv-x="1701" d="M1561 788q0 -92 -27 -177t-75 -150.5t-115.5 -104.5t-151.5 -39q-59 0 -114.5 30t-84.5 116q-47 -68 -115.5 -104.5t-146.5 -36.5q-55 0 -95 22.5t-65.5 58t-37 82.5t-11.5 97q0 76 24.5 155.5t73 144t117 105.5t156.5 41q66 0 118 -9t105 -28q23 -8 31 -26.5t4 -40.5 l-43 -193q-8 -33 -16.5 -83t-8.5 -81q0 -80 31 -114.5t82 -34.5q55 0 102.5 28.5t83 78.5t56 118t20.5 143q0 94 -28.5 186.5t-98 165t-183.5 117.5t-282 45q-158 0 -274.5 -61t-194.5 -157.5t-115.5 -217.5t-37.5 -239q0 -119 30.5 -224.5t98 -185.5t176 -127t266.5 -47 q59 0 110.5 5t96.5 15q31 8 48 13.5t30 5.5q25 0 37 -15.5t12 -37.5q0 -16 -10.5 -29.5t-34.5 -20.5q-61 -16 -131 -26t-158 -10q-182 0 -310 55t-209 148.5t-119 217t-38 261.5q0 139 45 278t136.5 250t226.5 180.5t317 69.5q195 0 328 -53.5t215 -140.5t118 -196.5 t36 -222.5zM1036 903q-68 23 -145 23q-59 0 -106.5 -32t-81 -81t-52 -109.5t-18.5 -117.5q0 -72 28.5 -112t81.5 -40q49 0 90 20.5t72 55.5t51.5 81t30.5 97z" />
<glyph unicode="A" horiz-adv-x="1150" d="M1118 63q8 -37 -15.5 -59t-51.5 -22q-20 0 -39 12t-27 41q-23 84 -46.5 167t-45.5 165h-639q-25 -82 -48.5 -165t-45.5 -167q-6 -29 -23.5 -41t-38.5 -12q-29 0 -52 21.5t-13 59.5q94 369 208.5 706t247.5 665q20 49 42 62t44 13q23 0 43.5 -13t43.5 -62 q133 -330 245.5 -665t210.5 -706zM856 494q-66 207 -135.5 403.5t-147.5 390.5q-78 -195 -148.5 -391.5t-133.5 -402.5h565z" />
<glyph unicode="B" horiz-adv-x="1280" d="M1155 381q0 -84 -23.5 -153.5t-77 -121t-140.5 -79t-214 -27.5h-458q-29 0 -48.5 19.5t-19.5 48.5v1357q0 29 19.5 48.5t48.5 19.5h420q113 0 194.5 -28.5t133.5 -78t77 -116t25 -142.5v-63q0 -117 -55.5 -188.5t-147.5 -108.5q121 -35 193.5 -119t72.5 -213v-55z M956 1118q0 51 -16 96.5t-51 79t-91.5 52t-138.5 18.5h-350v-547h242q92 0 168 11.5t128 39t80.5 73.5t28.5 114v63zM1020 442q0 121 -95.5 185.5t-262.5 64.5h-353v-565h391q96 0 158 19.5t97.5 54.5t50 83t14.5 105v53z" />
<glyph unicode="C" horiz-adv-x="1126" d="M1038 1325q0 -23 -16 -43t-47 -20q-23 -2 -36 13t-36 32q-92 80 -241 79q-203 0 -295.5 -134t-92.5 -384v-245q0 -262 87.5 -389.5t289.5 -127.5q66 0 132.5 19.5t121.5 64.5q27 20 41.5 33t36.5 15q29 2 44 -18.5t15 -43.5q0 -27 -22 -49q-76 -82 -177.5 -113.5 t-191.5 -31.5q-141 0 -238.5 46t-158.5 131t-88 202.5t-27 261.5v247q0 137 29 255t91.5 204t161.5 134t241 48q98 0 193 -30.5t161 -110.5q22 -20 22 -45z" />
<glyph unicode="D" horiz-adv-x="1312" d="M1174 555q0 -84 -18.5 -180t-74 -180t-159 -139.5t-273.5 -55.5h-407q-29 0 -48.5 19.5t-19.5 48.5v1357q0 29 19.5 48.5t48.5 19.5h407q170 0 273.5 -55.5t159 -139.5t74 -181t18.5 -181v-381zM1038 934q0 76 -14 151.5t-56 137t-120 100.5t-205 39h-334v-1235h334 q127 0 205 39t120 101.5t56 139t14 150.5v377z" />
<glyph unicode="E" horiz-adv-x="1122" d="M1040 63q0 -27 -18 -45t-45 -18h-737q-29 0 -47.5 18.5t-18.5 44.5v1364q0 27 18.5 46.5t47.5 19.5h706q27 0 46.5 -19.5t19.5 -46.5q0 -29 -19.5 -47t-46.5 -18h-637v-553h580q27 0 45 -18.5t18 -45.5t-18.5 -45t-44.5 -18h-580v-551h668q27 0 45 -19.5t18 -48.5z" />
<glyph unicode="F" horiz-adv-x="1017" d="M993 1427q0 -29 -18.5 -47t-46.5 -18h-619v-553h520q27 0 45.5 -18.5t18.5 -45.5t-18.5 -45t-45.5 -18h-520v-633q0 -29 -19.5 -48t-47.5 -19q-29 0 -48.5 19t-19.5 48v1378q0 27 18.5 46.5t47.5 19.5h688q27 0 46 -19.5t19 -46.5z" />
<glyph unicode="G" horiz-adv-x="1247" d="M1124 489q0 -113 -28.5 -206t-88 -160.5t-148.5 -104t-208 -36.5q-141 0 -238.5 46t-158.5 130t-88 201.5t-27 263.5v249q0 137 29 254t91.5 203t162.5 134t242 48q98 0 193 -29.5t163 -111.5q23 -23 22 -47q0 -23 -16 -42t-47 -21q-23 0 -38 15t-38 32q-47 41 -107.5 60 t-131.5 19q-203 0 -296.5 -134t-93.5 -382v-247q0 -262 87.5 -389.5t289.5 -127.5q174 0 257 100.5t83 280.5v131h-299q-27 0 -45 17.5t-18 46.5q0 27 18.5 45t44.5 18h365q29 0 48 -19t19 -48v-189v0z" />
<glyph unicode="H" horiz-adv-x="1370" d="M1196 49q0 -29 -20.5 -48t-47.5 -19q-29 0 -48 19t-19 48v621h-752v-621q0 -29 -19.5 -48t-47.5 -19q-29 0 -48.5 19t-19.5 48v1395q0 29 19.5 48t48.5 19t48 -19t19 -48v-647h752v647q0 29 19.5 48t47.5 19q27 0 47.5 -19t20.5 -48v-1395v0z" />
<glyph unicode="I" horiz-adv-x="485" d="M309 49q0 -29 -19.5 -48t-47.5 -19q-29 0 -48.5 19t-19.5 48v1395q0 29 19.5 48t48.5 19t48 -19t19 -48v-1395v0z" />
<glyph unicode="J" horiz-adv-x="870" d="M717 520q0 -127 -26.5 -227t-83 -170t-147.5 -105.5t-220 -35.5q-94 0 -177 18q-29 6 -41 23.5t-12 39.5q0 27 16.5 46.5t47.5 19.5q10 0 22.5 -3t44.5 -7q41 -8 99 -8q186 0 264 96t78 313v924q0 29 19.5 48t47.5 19q29 0 48.5 -19t19.5 -48v-924v0z" />
<glyph unicode="K" horiz-adv-x="1136" d="M1090 82q8 -16 8 -33q0 -2 -1 -13t-11.5 -24.5t-27 -21.5t-32.5 -8t-30.5 8t-24.5 26q-111 186 -226.5 367.5t-244.5 361.5l-191 -229v-467q0 -29 -19.5 -48t-47.5 -19q-29 0 -48.5 19t-19.5 48v1395q0 29 19.5 48t48.5 19t48 -19t19 -48v-744l637 787q20 25 53 24 q20 0 43 -16q20 -16 21.5 -32.5t1.5 -18.5q0 -23 -14 -43l-461 -551q137 -193 261 -382t239 -386z" />
<glyph unicode="L" horiz-adv-x="1052" d="M1038 63q0 -27 -18.5 -45t-44.5 -18h-735q-29 0 -47.5 18.5t-18.5 44.5v1381q0 29 19.5 48t48.5 19t48 -19t19 -48v-1313h666q27 0 45 -19.5t18 -48.5z" />
<glyph unicode="M" horiz-adv-x="1587" d="M1411 45q0 -27 -18.5 -45t-44.5 -18q-27 0 -45.5 18t-18.5 45v1159l-430 -919q-18 -39 -63 -39q-18 0 -35 10t-27 29l-428 917v-1157q0 -27 -18.5 -45t-44.5 -18q-27 0 -45.5 18t-18.5 45v1403q0 27 19.5 45t48.5 18q47 0 65 -41l488 -1036l489 1039q10 25 27.5 31.5 t34.5 6.5q29 0 47 -18t18 -45v-1403v0z" />
<glyph unicode="N" horiz-adv-x="1363" d="M1190 45q0 -25 -17.5 -44t-52.5 -19q-18 0 -35.5 8t-27.5 26l-756 1219v-1190q0 -27 -18.5 -45t-44.5 -18q-27 0 -45.5 18t-18.5 45v1403q0 27 18.5 45t49.5 18q43 0 67 -38l754 -1217v1192q0 27 18.5 45t44.5 18q27 0 45.5 -18t18.5 -45v-1403v0z" />
<glyph unicode="O" horiz-adv-x="1282" d="M1141 535q0 -104 -25.5 -204t-84 -177.5t-154 -124.5t-236.5 -47t-237.5 47t-155 124.5t-84 177t-25.5 204.5v423q0 104 25.5 204t84 177.5t155 124.5t237.5 47t236.5 -47t154 -124.5t84 -177t25.5 -204.5v-423zM1006 958q0 88 -18.5 166t-61.5 136.5t-113 92t-172 33.5 t-173 -33.5t-114 -92t-61.5 -136t-18.5 -166.5v-423q0 -88 18.5 -166t61.5 -136.5t114 -92.5t173 -34t172 34t113 92.5t61.5 136t18.5 166.5v423z" />
<glyph unicode="P" horiz-adv-x="1198" d="M1110 995q0 -84 -30.5 -154.5t-89 -121.5t-141.5 -80t-190 -29h-350v-561q0 -29 -19.5 -48t-47.5 -19q-29 0 -48.5 19t-19.5 48v1376q0 29 19.5 48.5t48.5 19.5h393q131 0 222 -35t147.5 -90t81 -126t24.5 -142v-105zM975 1098q0 45 -16.5 93t-55.5 87t-106.5 63.5 t-167.5 24.5h-320v-631h346q82 0 142.5 20.5t99.5 56.5t58.5 84t19.5 101v101z" />
<glyph unicode="Q" horiz-adv-x="1282" d="M1180 -41q-16 -20 -42 -23.5t-48 17.5l-136 125q-57 -45 -134 -70.5t-179 -25.5q-141 0 -237.5 47t-155 124.5t-84 177t-25.5 204.5v423q0 104 25.5 204t84 177.5t155 124.5t237.5 47t236.5 -47t154 -124.5t84 -177t25.5 -204.5v-423q0 -100 -23.5 -195.5t-77.5 -171.5 l136 -121q23 -20 21.5 -45t-17.5 -43zM1006 958q0 88 -18.5 166t-61.5 136.5t-113 92t-172 33.5t-173 -33.5t-114 -92t-61.5 -136t-18.5 -166.5v-423q0 -88 18.5 -166t61.5 -136.5t114 -92.5t173 -34q70 0 123 17.5t94 48.5l-86 76q-20 20 -19 43.5t17 40.5q16 16 36.5 19 t39.5 -13l88 -78q39 53 55.5 125t16.5 150v423z" />
<glyph unicode="R" horiz-adv-x="1226" d="M1114 80q10 -20 8 -37.5t-12 -31t-26.5 -21.5t-32.5 -8t-31.5 8t-26.5 30q-82 154 -172 306.5t-192 306.5h-320v-584q0 -29 -19.5 -48t-47.5 -19q-29 0 -48.5 19t-19.5 48v1376q0 29 19.5 48.5t48.5 19.5h393q127 0 217 -30.5t146.5 -83t83 -120t26.5 -143.5v-92 q0 -61 -18.5 -120.5t-58.5 -110t-103.5 -87t-151.5 -53.5q94 -143 178 -286.5t160 -286.5zM973 1116q0 45 -16.5 90t-55.5 80t-104.5 57.5t-161.5 22.5h-326v-606h326q94 0 158.5 23.5t104.5 62.5t57.5 85t17.5 93v92z" />
<glyph unicode="S" horiz-adv-x="1173" d="M1071 428q0 -104 -37 -187t-104.5 -140.5t-164.5 -88t-218 -30.5t-215 15t-180 54q-23 10 -32 26.5t-9 33.5q0 27 16 47t43 20q12 0 26.5 -5t34 -13t48 -18.5t71.5 -18.5q37 -8 84 -13.5t107 -5.5q203 0 299 88.5t96 227.5q0 106 -52.5 159.5t-144.5 82.5q-43 14 -100 25 t-117.5 22.5t-120 25t-104.5 35.5q-84 39 -135 110.5t-51 204.5q0 100 34.5 179t97 134.5t147.5 84t188 28.5q98 0 182 -13t162 -50q23 -8 33 -24.5t10 -32.5q0 -27 -17.5 -47.5t-46.5 -20.5q-10 0 -22.5 5t-31 12.5t-44 15.5t-62.5 16q-31 6 -69.5 10t-89.5 4 q-160 0 -248 -79.5t-88 -212.5q0 -109 55 -160t150 -78q51 -16 116.5 -26.5t131 -23.5t127 -31.5t108.5 -49.5q66 -45 101.5 -115.5t35.5 -181.5z" />
<glyph unicode="T" horiz-adv-x="1142" d="M1128 1425q0 -27 -18 -45t-47 -18h-424v-1313q0 -29 -19.5 -48t-48.5 -19t-48 19t-19 48v1313h-424q-29 0 -47.5 18.5t-18.5 44.5q0 29 18.5 48.5t47.5 19.5h983q29 0 47 -19.5t18 -48.5z" />
<glyph unicode="U" horiz-adv-x="1282" d="M1141 485q0 -104 -30 -195t-91.5 -160t-155.5 -108.5t-223 -39.5t-224 39.5t-156.5 108.5t-91.5 160t-30 195v959q0 29 19.5 48t48.5 19t48 -19t19 -48v-957q0 -80 20.5 -149.5t64.5 -121.5t114 -82t168 -30t167 30t113 82t64.5 122t20.5 149v957q0 29 20.5 48t46.5 19 q29 0 48.5 -19t19.5 -48v-959v0z" />
<glyph unicode="V" horiz-adv-x="1150" d="M1118 1432q-96 -326 -214 -670t-255 -715q-23 -66 -76 -65q-55 0 -81 65q-135 369 -249 711t-210 667q-12 39 11.5 62.5t53.5 23.5q20 0 38 -12t26 -39q86 -293 189.5 -607t226.5 -646q123 334 228 648t191 611q8 23 24.5 34t35.5 11q29 0 50 -22t11 -57z" />
<glyph unicode="W" horiz-adv-x="1759" d="M1718 1430q-41 -172 -82 -340t-84 -336t-91 -340t-99 -355q-10 -35 -31.5 -56t-56.5 -21t-56.5 21.5t-31.5 55.5q-90 311 -164 597t-143 577q-68 -291 -144 -576.5t-164 -597.5q-10 -35 -30.5 -56t-55.5 -21t-56 21.5t-32 55.5q-53 182 -100 354.5t-90 340.5t-85 335.5 t-81 340.5q-2 6 -2 18q0 29 21.5 46t48.5 17q23 0 40 -12t23 -41q70 -311 146.5 -612t170.5 -629q88 322 163 617.5t145 597.5q8 37 28.5 58t55.5 21q63 0 82 -79q68 -301 142.5 -597t164.5 -618q92 328 169 629t148 612q6 29 23.5 41t40.5 12q27 0 48 -17t21 -46z" />
<glyph unicode="X" horiz-adv-x="1105" d="M1092 47q0 -29 -21.5 -47t-48.5 -18q-35 0 -55 34q-98 164 -199.5 325t-214.5 321q-111 -160 -214 -321t-200 -325q-20 -35 -55 -34q-27 0 -48.5 18t-21.5 47q0 18 11 37q104 178 215.5 350t230.5 346q-215 311 -389 631q-8 16 -8 37q0 27 20.5 45t46.5 18q37 0 56 -36 q82 -147 170 -291t186 -289q98 145 185 288.5t169 291.5q18 37 58 36q27 0 47 -18t20 -47q0 -18 -8 -35q-90 -164 -186.5 -319.5t-204.5 -313.5q121 -174 232.5 -346t215.5 -350q11 -21 11 -35z" />
<glyph unicode="Y" horiz-adv-x="1007" d="M1008 1446q0 -12 -7 -27q-80 -186 -187 -403t-245 -471v-496q0 -29 -19.5 -48t-47.5 -19q-29 0 -48.5 19t-19.5 48v496q-135 252 -241.5 468t-186.5 402q-6 14 -6 31q0 29 21.5 47t48.5 18q16 0 32.5 -9t26.5 -32q72 -166 165 -357t210 -413q119 221 212 413t165 357 q18 41 57 41q27 0 48.5 -18t21.5 -47z" />
<glyph unicode="Z" horiz-adv-x="1024" d="M987 63q0 -27 -18.5 -45t-44.5 -18h-828q-29 0 -47 18.5t-18 44.5q0 18 6 34t14 30l752 1235h-705q-27 0 -45 18.5t-18 46.5q0 27 18.5 46.5t44.5 19.5h824q29 0 46 -18.5t17 -47.5q0 -14 -6 -28.5t-14 -26.5l-756 -1241h715q27 0 45 -19.5t18 -48.5z" />
<glyph unicode="[" horiz-adv-x="505" d="M412 -311q0 -29 -18.5 -47.5t-47.5 -18.5h-180q-27 0 -45.5 18.5t-18.5 47.5v1931q0 29 18.5 47.5t45.5 18.5h180q29 0 47.5 -19.5t18.5 -46.5t-18.5 -45.5t-47.5 -18.5h-108v-1802h108q29 0 47.5 -18t18.5 -47z" />
<glyph unicode="\" horiz-adv-x="722" d="M735 -45q10 -23 -1 -46.5t-34 -33.5q-25 -10 -49 1t-35 34l-620 1636q-10 25 1 48.5t36 33.5t48 -1t34 -36l620 -1636v0z" />
<glyph unicode="]" horiz-adv-x="505" d="M403 -311q0 -29 -18 -47.5t-47 -18.5h-180q-27 0 -45.5 18.5t-18.5 47.5t18.5 47t45.5 18h110v1802h-110q-27 0 -45.5 18.5t-18.5 45.5t18.5 46.5t45.5 19.5h180q29 0 47 -18.5t18 -47.5v-1931v0z" />
<glyph unicode="^" horiz-adv-x="1001" d="M897 942q14 -23 9 -47.5t-27 -38.5q-23 -14 -47.5 -9t-38.5 25l-293 465l-289 -465q-16 -20 -41 -25t-45 9q-23 14 -29 39t8 47l332 524q20 41 64 41q43 0 67 -41l330 -524v0z" />
<glyph unicode="_" horiz-adv-x="950" d="M1010 -272q0 -25 -17.5 -43.5t-42.5 -18.5h-950q-25 0 -42 18.5t-17 43.5q0 27 17 44t42 17h950q25 0 42.5 -17t17.5 -44z" />
<glyph unicode="`" horiz-adv-x="1085" d="M426 1634q14 8 33 8q37 0 53 -32l172 -310q6 -12 6 -26q0 -35 -28 -47q-10 -8 -27 -8q-31 0 -49 30l-183 303q-8 10 -8 31q0 14 7.5 28.5t23.5 22.5z" />
<glyph unicode="a" horiz-adv-x="1001" d="M922 47q0 -29 -18.5 -44t-45.5 -15q-23 0 -50.5 11t-47.5 32q-16 14 -25.5 32.5t-15.5 38.5q-29 -35 -63.5 -57t-73.5 -34.5t-78 -17.5t-74 -5q-96 0 -162.5 23.5t-108.5 63.5t-61.5 93t-19.5 113v16q0 59 20.5 112.5t63.5 92.5t112.5 61.5t167.5 22.5h256v55 q0 70 -9 122t-35.5 86t-72.5 51.5t-120 17.5q-78 0 -129 -16.5t-92 -39.5q-18 -10 -33 -10q-8 0 -23.5 5t-27 23.5t-7 42t28.5 40.5q113 70 287 69q109 0 179.5 -26.5t111.5 -77.5t57 -126t16 -169v-402q0 -66 13.5 -92t46.5 -43q33 -12 33 -49zM698 477h-247 q-74 0 -121 -15.5t-74 -41t-37 -58t-10 -65.5v-18q0 -35 10 -68t37 -57.5t73 -40t117 -15.5q121 0 187.5 60.5t64.5 183.5v135z" />
<glyph unicode="b" horiz-adv-x="1040" d="M926 397q0 -188 -89 -298.5t-284 -110.5q-78 0 -147.5 23.5t-129.5 66.5q-12 -29 -34 -47q-23 -23 -49.5 -33t-47.5 -10q-27 0 -46 15t-19 44q0 37 33 49q33 14 46 41t13 94v1186q0 29 18.5 47.5t47.5 18.5t47 -18.5t18 -47.5v-489q59 53 130 78.5t142 25.5 q98 0 166 -31.5t109 -88t58.5 -135.5t17.5 -173v-207zM795 616q0 143 -53.5 220t-184.5 77q-61 0 -131 -29.5t-123 -97.5v-591q51 -41 111.5 -65t126.5 -24q135 0 194.5 73t59.5 212v225z" />
<glyph unicode="c" horiz-adv-x="849" d="M778 891q-10 -18 -30.5 -25.5t-45.5 4.5q-41 23 -87 33t-101 10q-129 0 -199.5 -91t-70.5 -236v-152q0 -156 66.5 -243t201.5 -87q51 0 99 10.5t96 37.5q27 12 47 3.5t30 -28.5q10 -23 4 -45.5t-28 -32.5q-59 -35 -124 -48t-130 -13q-102 0 -176 33.5t-122 93 t-70.5 142.5t-22.5 181v142q0 92 24.5 174t73.5 143t123 97t172 36q63 0 128.5 -12t121.5 -47q23 -12 28.5 -34.5t-8.5 -45.5z" />
<glyph unicode="d" horiz-adv-x="1038" d="M958 47q0 -29 -18 -44t-45 -15q-23 0 -49.5 10t-48.5 33q-25 23 -35 55q-66 -51 -137.5 -74.5t-139.5 -23.5q-201 0 -285.5 105.5t-84.5 297.5v195q0 98 19.5 179t62.5 140.5t111.5 92t168.5 32.5q57 0 126 -18.5t132 -69.5v475q0 29 19.5 47.5t46.5 18.5q29 0 47 -18.5 t18 -47.5v-1186q0 -68 12.5 -93t47.5 -40q32 -14 32 -51zM735 805q-57 63 -124.5 86.5t-118.5 23.5q-131 0 -189.5 -82.5t-58.5 -234.5v-213q0 -141 57 -210t199 -69q53 0 114.5 23t120.5 76v600z" />
<glyph unicode="e" horiz-adv-x="989" d="M891 524q0 -27 -15.5 -41t-37.5 -14h-594v-61q0 -137 61.5 -220.5t200.5 -83.5q92 0 155.5 18.5t114.5 47.5q23 14 44.5 5t31.5 -32q10 -20 5 -40.5t-28 -34.5q-70 -41 -150.5 -60.5t-174.5 -19.5q-106 0 -181 33.5t-121 92t-66.5 136.5t-20.5 164v190q0 86 21.5 164 t67.5 136.5t119.5 93t180.5 34.5q109 0 183.5 -33.5t119.5 -92t64.5 -135.5t19.5 -163v-84zM764 621q0 135 -57.5 216t-202.5 81q-139 0 -199.5 -82t-60.5 -218v-38h520v41z" />
<glyph unicode="f" horiz-adv-x="589" d="M649 1427q0 -27 -17.5 -44t-43.5 -17h-53q-74 0 -120 -16.5t-72 -51t-35 -89t-9 -132.5v-59h190q25 0 41.5 -16.5t16.5 -40.5q0 -25 -16.5 -42.5t-41.5 -17.5h-190v-848q0 -29 -19.5 -47t-46.5 -18q-29 0 -47 18.5t-18 46.5v848h-72q-25 0 -42 17.5t-17 42.5t17.5 41 t41.5 16h72v59q0 94 14.5 170t54 129.5t109.5 82t180 28.5h62q27 0 44 -17.5t17 -42.5z" />
<glyph unicode="g" horiz-adv-x="1017" d="M868 68q0 -90 -19.5 -171t-65.5 -141.5t-120.5 -95.5t-185.5 -35q-78 0 -147.5 12.5t-128.5 38.5q-39 16 -39 54q0 27 21.5 47t52.5 10q47 -16 102 -30.5t133 -14.5q76 0 127 22.5t82 64.5t44 101.5t13 132.5v60q-66 -47 -139.5 -68.5t-130.5 -21.5q-98 0 -166 29.5 t-109.5 83t-59 130t-17.5 168.5v164q0 92 19.5 170t61.5 134.5t110.5 88t166.5 31.5q59 0 131 -22.5t137 -81.5l2 55q0 23 18.5 36t41.5 13q29 0 47 -18.5t18 -46.5v-899zM737 795q-59 70 -128.5 93t-121.5 23q-129 0 -186 -75.5t-57 -217.5v-182q0 -139 53 -210.5 t186 -71.5q49 0 123 22.5t131 75.5v543z" />
<glyph unicode="h" horiz-adv-x="1062" d="M915 53q0 -29 -18 -47t-47 -18q-27 0 -46.5 18.5t-19.5 46.5v602q0 57 -9 103.5t-33.5 79t-66.5 50t-108 17.5q-104 0 -177 -41t-109 -110v-701q0 -29 -19.5 -47t-46.5 -18q-29 0 -47 18.5t-18 46.5v1364q0 29 18 47.5t47 18.5q27 0 46.5 -18.5t19.5 -47.5v-499 q51 53 125.5 82.5t179.5 29.5q98 0 161.5 -28.5t100.5 -78t52 -117t15 -142.5v-611v0z" />
<glyph unicode="i" horiz-adv-x="428" d="M303 1366q0 -37 -25.5 -61.5t-62.5 -24.5t-62.5 24.5t-25.5 61.5t25.5 62.5t62.5 25.5t62.5 -25.5t25.5 -62.5zM281 53q0 -29 -19.5 -47t-46.5 -18q-29 0 -47 18.5t-18 46.5v912q0 29 18 47t47 18q27 0 46.5 -18.5t19.5 -46.5v-912z" />
<glyph unicode="j" horiz-adv-x="428" d="M279 -16q0 -358 -306 -359q-29 0 -44 18.5t-15 41.5t15.5 40t43.5 19q43 0 76 11.5t54.5 38t32.5 71.5t11 115v985q0 29 19.5 47t46.5 18q29 0 47.5 -18.5t18.5 -46.5v-981zM125 1366q0 37 25.5 62.5t62.5 25.5t62.5 -25.5t25.5 -62.5t-25.5 -61.5t-62.5 -24.5 t-62.5 24.5t-25.5 61.5z" />
<glyph unicode="k" horiz-adv-x="913" d="M874 80q8 -18 9 -35q0 -16 -17.5 -36.5t-50.5 -20.5q-16 0 -30.5 8t-24.5 29q-68 131 -151 259t-171 244l-157 -161v-314q0 -29 -19.5 -47t-46.5 -18q-29 0 -47 18.5t-18 46.5v1364q0 29 18 47.5t47 18.5q27 0 46.5 -18.5t19.5 -47.5v-887l471 484q18 16 43 16t43 -16 q16 -16 16 -43q0 -25 -18 -41l-306 -312q94 -125 183 -261t161 -277z" />
<glyph unicode="l" horiz-adv-x="452" d="M371 47q0 -29 -17.5 -44t-46.5 -15q-18 0 -47 11t-51 32q-35 33 -50.5 76t-15.5 90v1220q0 29 18.5 47.5t45.5 18.5q29 0 47 -18.5t18 -47.5v-1186q0 -68 16.5 -93t51.5 -40q31 -14 31 -51z" />
<glyph unicode="m" horiz-adv-x="1679" d="M1532 53q0 -29 -19.5 -47t-46.5 -18q-29 0 -47 18.5t-18 46.5v602q0 57 -9.5 104.5t-34 80t-65.5 50t-104 17.5q-104 0 -171 -44t-102 -111q6 -43 7 -86v-613q0 -29 -18.5 -47t-47.5 -18t-47 18.5t-18 46.5v602q0 57 -9.5 104.5t-33 80t-64.5 50t-104 17.5 q-102 0 -168 -39t-101 -102v-713q0 -29 -18.5 -47t-46.5 -18q-27 0 -46.5 18.5t-19.5 46.5v723q0 66 -15 91.5t-50 41.5q-35 20 -35 49q0 31 19.5 45.5t47.5 14.5q20 0 48 -10.5t51 -30.5q31 -27 43 -66q53 57 128 88t181 31q113 0 178.5 -39t100.5 -106q51 70 133 107.5 t198 37.5q94 0 156.5 -28.5t99.5 -78t52.5 -116t15.5 -141.5v-613v0z" />
<glyph unicode="n" horiz-adv-x="1095" d="M946 57q2 -35 -17.5 -52t-47.5 -17q-29 0 -47.5 18.5t-18.5 46.5v602q0 57 -9 103.5t-33.5 79t-66.5 51t-108 18.5q-104 0 -176 -42t-113 -111v-701q0 -29 -18.5 -47t-46.5 -18q-27 0 -46.5 18.5t-19.5 46.5v723q0 66 -15.5 91.5t-49.5 41.5q-33 20 -33 49 q0 31 18.5 45.5t46.5 14.5q20 0 48 -10.5t51 -30.5q33 -31 47 -76q53 61 133 95t192 34q96 0 160 -28.5t101.5 -78t53 -117t15.5 -142.5v-607z" />
<glyph unicode="o" horiz-adv-x="1024" d="M909 406q0 -86 -22.5 -162t-69.5 -133.5t-123 -90t-182 -32.5t-182 32.5t-123 90t-69.5 133t-22.5 162.5v206q0 86 22.5 163t69.5 133.5t123 89t182 32.5t182 -32.5t123 -89t69.5 -133.5t22.5 -163v-206zM780 612q0 135 -62.5 215t-205.5 80q-145 0 -206.5 -81 t-61.5 -214v-206q0 -133 61.5 -214t206.5 -81q143 0 205.5 79.5t62.5 215.5v206z" />
<glyph unicode="p" horiz-adv-x="1038" d="M926 432q0 -96 -19.5 -178t-62.5 -141.5t-112.5 -92t-168.5 -32.5q-57 0 -125.5 19.5t-134.5 68.5v-385q0 -29 -18.5 -47.5t-46.5 -18.5q-27 0 -46.5 18.5t-19.5 47.5v1097q0 66 -13.5 91.5t-45.5 42.5q-33 20 -33 51q0 29 18.5 43t46.5 14q20 0 47 -10t52 -31 q20 -20 35 -53q66 47 136 70.5t138 23.5q201 0 287 -105.5t86 -295.5v-197zM795 635q0 139 -56.5 209.5t-197.5 70.5q-53 0 -116 -23.5t-122 -76.5v-602q59 -61 127 -84t117 -23q131 0 189.5 82t58.5 232v215z" />
<glyph unicode="q" horiz-adv-x="1040" d="M958 971q0 -35 -32 -49q-16 -8 -27.5 -17.5t-19 -24t-10.5 -37t-3 -55.5v-1097q0 -29 -18.5 -47.5t-46.5 -18.5q-27 0 -45.5 18.5t-18.5 47.5v401q-59 -53 -130.5 -78.5t-141.5 -25.5q-98 0 -166 30.5t-108.5 88t-58 135t-17.5 174.5v207q0 94 21.5 169.5t66.5 129 t115.5 82t168.5 28.5q78 0 148 -24.5t129 -65.5q14 29 33 47q23 23 50 33t48 10q27 0 45 -15t18 -46zM737 823q-53 43 -112.5 66.5t-124.5 23.5q-135 0 -195.5 -72.5t-60.5 -211.5v-226q0 -145 54 -221t185 -76q61 0 131 29t123 96v592z" />
<glyph unicode="r" horiz-adv-x="761" d="M756 952q0 -29 -16.5 -47t-45.5 -18q-14 0 -25.5 2t-25.5 5t-32.5 6t-47.5 3q-33 0 -71.5 -7t-74.5 -29.5t-64.5 -65.5t-43.5 -115v-633q0 -29 -18.5 -47t-46.5 -18q-27 0 -46.5 18.5t-19.5 46.5v723q0 66 -15.5 91.5t-49.5 41.5q-33 20 -33 49q0 59 67 60q59 0 97.5 -42 t50.5 -89q33 49 69.5 76.5t75.5 43t75 19.5t65 4t60.5 -4t57 -13t42 -23.5t16.5 -37.5z" />
<glyph unicode="s" horiz-adv-x="864" d="M778 293q0 -150 -101.5 -227.5t-270.5 -77.5q-96 0 -162 11t-125 34q-27 10 -35 32.5t2 45.5q8 23 29.5 33t46.5 -1q51 -18 105.5 -28.5t140.5 -10.5q129 0 186 51.5t57 133.5q0 53 -24.5 83.5t-65.5 49t-93 28t-108 21.5q-53 12 -102 28.5t-87 45t-61.5 76t-23.5 118.5 q0 70 25.5 124.5t69.5 91t105.5 56t135.5 19.5q80 0 138 -9t116 -34q27 -10 35 -33.5t-2 -46.5q-10 -20 -31 -30.5t-45 0.5q-51 20 -97.5 29t-111.5 9q-104 0 -158.5 -48t-54.5 -124q0 -47 22.5 -76.5t59.5 -47t84 -27.5t98 -21q55 -12 109.5 -27.5t97.5 -45t69.5 -78.5 t26.5 -127z" />
<glyph unicode="t" horiz-adv-x="645" d="M621 61q0 -27 -17.5 -44t-44.5 -17h-51q-104 0 -170 30.5t-102.5 87t-50 135.5t-13.5 175v473h-72q-25 0 -42 17.5t-17 42.5t17.5 41t41.5 16h72v248q0 29 18.5 47t47.5 18t47 -18.5t18 -46.5v-248h205q25 0 42 -16.5t17 -40.5q0 -25 -17.5 -42.5t-41.5 -17.5h-205v-473 q0 -84 8 -141.5t32 -94t65 -53t108 -16.5h43q27 0 44.5 -18.5t17.5 -43.5z" />
<glyph unicode="u" horiz-adv-x="1095" d="M1016 47q0 -29 -19.5 -44t-46.5 -15q-20 0 -49 11t-49 32q-39 35 -51 84q-53 -59 -132 -93t-190 -34q-96 0 -160.5 28.5t-102.5 78.5t-53.5 117t-15.5 144v609q0 29 19.5 47t46.5 18q29 0 47.5 -18.5t18.5 -46.5v-600q0 -59 9 -105.5t33.5 -78t67.5 -49t109 -17.5 q111 0 181.5 44t104.5 117v689q0 29 18.5 47t47.5 18t47 -18.5t18 -46.5v-734q0 -68 15.5 -93t50.5 -40q35 -16 35 -51z" />
<glyph unicode="v" horiz-adv-x="913" d="M868 948q-74 -219 -156.5 -444t-174.5 -451q-16 -41 -37 -53t-47 -12q-29 0 -49.5 12t-36.5 53q-88 227 -169 452.5t-153 444.5q-10 37 11.5 58.5t49.5 21.5q18 0 35 -9t23 -32q66 -199 138.5 -405.5t150.5 -413.5q80 207 153.5 414t138.5 405q10 23 26.5 32t33.5 9 q29 0 51 -22.5t12 -59.5z" />
<glyph unicode="w" horiz-adv-x="1427" d="M1378 956q-61 -227 -129.5 -458.5t-142.5 -452.5q-10 -33 -31.5 -45t-48.5 -12t-48.5 13t-31.5 44q-63 193 -119.5 381t-113.5 383q-53 -195 -110.5 -384t-121.5 -380q-10 -31 -31.5 -44t-48.5 -13t-48 12t-31 45q-72 221 -140.5 452.5t-130.5 458.5q-8 35 12.5 54.5 t49.5 19.5q20 0 36.5 -10t20.5 -35q55 -199 113.5 -400.5t122.5 -400.5q63 199 120.5 392.5t112.5 398.5q6 25 24.5 40t51.5 15t51 -15.5t22 -39.5q55 -205 112.5 -398.5t121.5 -392.5q63 199 121.5 400.5t113.5 400.5q4 25 21.5 35t38.5 10q27 0 48 -19.5t13 -54.5z" />
<glyph unicode="x" horiz-adv-x="901" d="M836 84q8 -16 8 -33q0 -29 -21.5 -46t-48.5 -17q-23 0 -34 9t-21 28q-59 109 -128 204t-145 193q-72 -98 -143.5 -196.5t-126.5 -202.5q-18 -35 -53 -35q-27 0 -47.5 17.5t-20.5 43.5q0 16 8 31q63 119 143.5 228.5t162.5 215.5q-76 100 -147.5 201.5t-129.5 212.5 q-8 14 -8 29q0 27 21.5 45t48.5 18q39 0 57 -35q51 -98 112.5 -187t127.5 -177q66 88 128 178t113 188q10 16 23.5 23.5t32.5 9.5q25 0 45 -15.5t22 -43.5q-2 -14 -8 -29q-59 -111 -130 -213t-149 -201q86 -111 165.5 -218t142.5 -226z" />
<glyph unicode="y" horiz-adv-x="909" d="M584 139q-47 -133 -97.5 -229t-110 -159.5t-132 -94.5t-164.5 -31q-35 0 -49.5 19.5t-14.5 44.5q0 23 15.5 44t46.5 21q47 0 89 11.5t81 39t74.5 72.5t70.5 115q-111 270 -201 511.5t-155 446.5q-4 12 -4 21q0 29 20.5 44t44.5 15q18 0 35 -10t25 -33q59 -180 134 -388 t167 -443l284 831q8 25 25.5 34t34.5 9q27 0 47 -16.5t20 -44.5q0 -8 -4 -25z" />
<glyph unicode="z" horiz-adv-x="847" d="M807 958q0 -20 -16 -47l-570 -790h527q25 0 42 -17.5t17 -42.5q0 -27 -17.5 -44t-41.5 -17h-644q-25 0 -43 17.5t-18 45.5q0 23 12 39l572 795h-486q-25 0 -43 17.5t-18 43.5q0 25 18.5 42.5t42.5 17.5h604q23 0 42.5 -14.5t19.5 -45.5z" />
<glyph unicode="{" horiz-adv-x="579" d="M498 -309q0 -29 -17.5 -48.5t-48.5 -19.5h-14q-115 0 -184.5 90t-69.5 238q0 57 13 115.5t28.5 117t29 114.5t13.5 112q0 53 -12.5 89t-31 57.5t-39 30.5t-34.5 9h-12q-29 0 -43.5 17.5t-14.5 41.5q0 25 14.5 41.5t43.5 16.5h12q14 0 34.5 9t39 30.5t31 58.5t12.5 90 q0 55 -13.5 111.5t-29 114t-28.5 114.5t-13 117q0 150 69.5 239t184.5 89h14q31 0 48.5 -18.5t17.5 -47.5t-16.5 -46.5t-45.5 -17.5h-12q-51 0 -88 -51t-37 -151q0 -55 12.5 -110.5t27.5 -112t27.5 -112.5t12.5 -116q0 -174 -119 -244v-8q119 -70 119 -243 q0 -59 -12.5 -115.5t-27.5 -113t-27.5 -112t-12.5 -110.5q0 -102 37 -152.5t88 -50.5h12q29 0 45.5 -18t16.5 -45z" />
<glyph unicode="|" horiz-adv-x="438" d="M287 -307q0 -29 -19.5 -48.5t-48.5 -19.5t-48 19.5t-19 48.5v1929q0 29 19 48.5t48 19.5t48.5 -19.5t19.5 -48.5v-1929v0z" />
<glyph unicode="}" horiz-adv-x="579" d="M518 655q0 -25 -15.5 -42t-41.5 -17h-12q-16 0 -37 -9t-38.5 -30.5t-29.5 -57.5t-12 -89q0 -55 12 -111.5t27.5 -115t29 -117t13.5 -115.5q0 -147 -69 -237.5t-185 -90.5h-15q-29 0 -46 19.5t-17 48.5q0 27 16.5 45t44.5 18h13q49 0 86 50.5t37 152.5q0 55 -12.5 110.5 t-27 112t-26.5 112.5t-12 116q0 174 118 243v8q-119 70 -118 244q0 59 12 115.5t26.5 113t27 111.5t12.5 111q0 100 -37 151t-86 51h-13q-29 0 -45 17.5t-16 46.5t17.5 47.5t45.5 18.5h15q117 0 185.5 -89.5t68.5 -238.5q0 -59 -13.5 -116.5t-29 -115t-27.5 -114t-12 -111.5 q0 -53 12 -90t29.5 -58.5t38 -30.5t37.5 -9h12q27 0 42 -16.5t15 -41.5z" />
<glyph unicode="~" horiz-adv-x="1028" d="M899 582q0 -29 -18.5 -52.5t-49 -40t-70.5 -26.5t-83 -10q-53 0 -93 14t-76 30.5t-71 31t-76 14.5q-39 0 -61 -9.5t-38.5 -20.5t-31 -20.5t-32.5 -9.5q-29 0 -49.5 20.5t-20.5 49.5q0 27 18.5 50.5t50 39.5t71.5 26.5t83 10.5q51 0 92 -14.5t77 -31t71 -30.5t76 -14 q39 0 62.5 9t38.5 21.5t28.5 21.5t33.5 9q29 0 48.5 -20t19.5 -49z" />
<glyph unicode="&#xa1;" horiz-adv-x="516" d="M199.021 555.028q4 67.9951 58.9961 67.9951q54.9971 0 59.9971 -67.9951l15.999 -974.94q2 -32.998 -17.499 -55.9971t-58.4971 -22.999q-40.9971 0 -58.9961 23.499t-15.999 55.4971zM152.023 924.006q0 46.9971 31.498 78.9951t74.4951 31.998 q46.9971 0 78.9951 -31.998t31.998 -78.9951q0 -42.998 -31.498 -74.9961t-79.4951 -31.998q-42.9971 0 -74.4951 31.998t-31.498 74.9961z" />
<glyph unicode="&#xa2;" horiz-adv-x="849" d="M778 891q-16 -31 -47 -31q-14 0 -29 8q-82 45 -188 45q-129 0 -199.5 -92t-70.5 -235v-152q0 -156 66.5 -243t201.5 -87q51 0 99 10.5t96 37.5q14 6 28 6q23 0 39.5 -18.5t16.5 -41.5q0 -27 -26 -46t-60.5 -31.5t-72.5 -20.5t-65 -10v-115q0 -27 -17.5 -43t-41.5 -16 q-25 0 -42 16t-17 43v117q-86 8 -149.5 45t-104.5 96.5t-60.5 137t-19.5 167.5v140q0 84 20.5 160.5t61.5 137t104.5 100.5t147.5 50v119q0 23 17 41t42 18t42 -18.5t17 -40.5v-119q31 -4 69 -11t71.5 -19.5t57 -30t23.5 -41.5q0 -17 -10 -33z" />
<glyph unicode="&#xa3;" d="M1047 63q0 -27 -18.5 -45t-45.5 -18h-819q-27 0 -45.5 17.5t-18.5 45.5q0 20 10.5 31.5t26 20t32.5 14.5t34 16q61 41 101 106.5t40 172.5q-2 55 -16.5 106.5t-34.5 98.5h-100q-27 0 -44.5 17.5t-17.5 43.5q0 25 17.5 42.5t44.5 17.5h59q-29 70 -50.5 144.5t-21.5 162.5 q0 80 28 159.5t85 144t146 104.5t214 40q80 0 153 -11t152 -40q49 -16 50 -59q0 -29 -16.5 -48.5t-45.5 -19.5q-16 0 -33.5 7t-64.5 20q-84 20 -189 20q-94 0 -159.5 -29.5t-106.5 -75.5t-59.5 -102.5t-18.5 -109.5q0 -84 25 -159t53 -148h355q27 0 44 -17.5t17 -42.5 q0 -27 -17.5 -44t-43.5 -17h-316q20 -47 32.5 -98.5t12.5 -106.5q2 -94 -31.5 -166t-93.5 -129h631q27 0 45.5 -18.5t18.5 -47.5z" />
<glyph unicode="&#xa4;" horiz-adv-x="1411" d="M291 469q-53 68 -84 150.5t-31 175.5q0 92 31 176t86 149l-172 174q-18 14 -19 43q0 23 18.5 42.5t45.5 19.5q23 0 43 -17l172 -174q66 53 149.5 85t176.5 32q92 0 176 -31.5t149 -85.5l172 174q16 16 39 17q23 0 44.5 -18.5t21.5 -45.5q0 -25 -17 -41l-174 -174 q57 -66 88 -148.5t31 -176.5q0 -92 -30.5 -176t-86.5 -152l172 -168q16 -20 17 -43q0 -23 -19.5 -43t-44.5 -20q-23 0 -41 18l-172 170q-66 -55 -148.5 -86t-176.5 -31t-177.5 32t-150.5 85l-170 -170q-18 -18 -43 -18t-44.5 19t-19.5 44t19 43zM287 795q0 -88 32.5 -165 t90 -134.5t134.5 -89t163 -31.5q88 0 163.5 31.5t133 89t90 134.5t32.5 165q0 86 -32.5 162.5t-90 134t-133 90t-163.5 32.5q-86 0 -163 -32.5t-134.5 -90t-90 -134t-32.5 -162.5z" />
<glyph unicode="&#xa5;" d="M1077 1446q0 -12 -6 -27q-59 -135 -130 -285.5t-161 -322.5h181q23 0 40 -17.5t17 -39.5q0 -27 -17.5 -44.5t-39.5 -17.5h-242q-37 -72 -80 -147v-53h322q23 0 40 -16.5t17 -43.5q0 -25 -17.5 -42t-39.5 -17h-322v-324q0 -29 -19.5 -48t-48.5 -19t-48 19t-19 48v324h-320 q-25 0 -41 17.5t-16 41.5q0 27 16.5 43.5t40.5 16.5h320v53l-78 147h-242q-25 0 -41 17.5t-16 44.5q0 23 16.5 40t40.5 17h181q-88 172 -160 321.5t-129 282.5q-6 14 -6 31q0 29 21.5 47t47.5 18q16 0 32.5 -9t27.5 -32q72 -166 165 -357t209 -413q119 221 212.5 413 t164.5 357q18 41 58 41q27 0 48 -18t21 -47z" />
<glyph unicode="&#xa6;" horiz-adv-x="438" d="M287 940q0 -27 -19.5 -47.5t-48.5 -20.5t-48 20.5t-19 47.5v682q0 29 19 47.5t48 18.5t48.5 -18.5t19.5 -47.5v-682zM287 -129q0 -29 -19.5 -48.5t-48.5 -19.5t-48 19.5t-19 48.5v680q0 29 19 48t48 19t48.5 -19t19.5 -48v-680z" />
<glyph unicode="&#xa7;" horiz-adv-x="1114" d="M1012 514q0 -98 -39 -171t-103 -120q35 -37 57.5 -87t22.5 -122q0 -102 -36.5 -173.5t-97 -117t-137.5 -65.5t-157 -20q-66 0 -128 11t-115 32q-35 12 -53.5 26t-18.5 41q0 25 15.5 44.5t43.5 19.5q16 0 32.5 -8.5t55.5 -20.5q37 -10 77 -18.5t87 -8.5q63 0 118.5 14.5 t96.5 45t65.5 79t24.5 113.5q0 78 -44 121t-115 72q-37 14 -90.5 30.5t-109.5 33t-109.5 35.5t-90.5 40q-72 37 -113.5 99.5t-41.5 164.5q0 100 38.5 173t102.5 120q-37 35 -58.5 85t-21.5 122q0 102 37 174t97.5 117t137 65.5t154.5 20.5q133 0 246 -39q35 -12 53 -28.5 t18 -41.5q0 -27 -15 -46t-44 -19q-16 0 -33.5 9t-54.5 19q-37 12 -78 20.5t-88 8.5q-61 0 -116.5 -14.5t-96.5 -45t-64.5 -78.5t-23.5 -114q0 -78 43 -121t115 -71q37 -16 90 -32t109.5 -33t109.5 -35.5t90 -39.5q70 -39 113 -100.5t43 -165.5zM885 508q0 63 -28 102 t-73 63.5t-99 40t-107 31.5q-57 18 -116 37t-110 47q-51 -33 -83.5 -87t-32.5 -130q0 -63 27.5 -102t71.5 -63.5t99 -41t109 -32.5q57 -16 115.5 -35t109.5 -47q51 33 84 87t33 130z" />
<glyph unicode="&#xa8;" horiz-adv-x="1085" d="M305 1370q0 35 24.5 59.5t59.5 24.5t59.5 -24.5t24.5 -59.5t-24.5 -58.5t-59.5 -23.5t-59.5 23.5t-24.5 58.5zM612 1370q0 35 25 59.5t59 24.5q35 0 59.5 -24.5t24.5 -59.5t-24.5 -58.5t-59.5 -23.5t-59.5 23.5t-24.5 58.5z" />
<glyph unicode="&#xa9;" horiz-adv-x="1810" d="M1669 745q0 -158 -60.5 -297t-165 -242.5t-243.5 -163.5t-297 -60t-297 60t-242.5 163.5t-164 243t-60.5 296.5q0 158 60.5 297.5t164 244t242.5 164.5t297 60t297 -60t243.5 -164.5t165 -244t60.5 -297.5zM1561 745q0 135 -52.5 255t-141.5 209t-209 141.5t-255 52.5 t-254 -52.5t-208 -141.5t-140 -208.5t-51 -255.5q0 -135 51 -254.5t140 -208.5t208 -140.5t254 -51.5t255 51.5t209 140.5t141.5 208.5t52.5 254.5zM1141 408q0 -35 -33 -50q-53 -25 -105.5 -33t-101.5 -8q-84 0 -146.5 29t-102.5 80t-59.5 118.5t-19.5 145.5v113 q0 74 20.5 141.5t62.5 118.5t103.5 82t143.5 31q45 0 97.5 -8.5t105.5 -32.5q33 -14 33 -45q0 -23 -15.5 -40.5t-38.5 -17.5q-10 0 -22 6q-39 16 -80 23.5t-78 7.5q-102 0 -161.5 -72.5t-59.5 -193.5v-113q0 -115 50 -190.5t171 -75.5q41 0 81 7t79 26q8 4 22 4 q25 0 39.5 -16.5t14.5 -36.5z" />
<glyph unicode="&#xaa;" horiz-adv-x="854" d="M772 664q0 -27 -16.5 -40.5t-38.5 -13.5q-20 0 -43 9.5t-39 25.5q-12 10 -20.5 24.5t-12.5 28.5q-47 -53 -112.5 -70.5t-120.5 -17.5q-80 0 -135.5 19.5t-90 52.5t-50 77t-15.5 93v14q0 49 16.5 93.5t53 76t94 51t137.5 19.5h205v41q0 55 -7.5 97t-29 69.5t-58 41 t-96.5 13.5q-61 0 -103 -12.5t-75 -32.5q-23 -14 -43 -5t-31 25q-8 16 -5 35t24 33q94 57 237 57q90 0 148.5 -22.5t92.5 -64.5t47 -103t13 -137v-328q0 -53 10.5 -74.5t34.5 -31.5q29 -12 29 -43zM584 1010h-199q-59 0 -97 -12.5t-59.5 -33t-30 -46t-8.5 -52.5v-14 q0 -29 8.5 -54.5t30 -46t58.5 -32.5t94 -12q98 0 150.5 48t52.5 146v109z" />
<glyph unicode="&#xab;" horiz-adv-x="1193" d="M573 184q16 -16 17 -43q0 -25 -17.5 -44t-44.5 -19q-25 0 -45 20l-395 410q-18 18 -18 43t18 43l395 410q18 18 45 18t44.5 -18.5t17.5 -45.5q0 -25 -17 -40l-354 -367zM1077 184q16 -16 17 -43q0 -25 -17.5 -44t-44.5 -19q-25 0 -45 20l-395 410q-18 18 -18 43t18 43 l395 410q18 18 45 18t44.5 -18.5t17.5 -45.5q0 -25 -17 -40l-354 -367z" />
<glyph unicode="&#xac;" horiz-adv-x="1132" d="M1010 514q0 -27 -18.5 -45t-45.5 -18t-44 18t-17 45v203h-699q-27 0 -45 18.5t-18 44.5q0 27 18.5 45.5t44.5 18.5h760q27 0 45.5 -18.5t18.5 -45.5v-266v0z" />
<glyph unicode="&#xad;" horiz-adv-x="985" d="M831 600q0 -27 -17 -44t-44 -17h-555q-25 0 -43 17t-18 44t18 45.5t43 18.5h555q27 0 44 -18.5t17 -45.5z" />
<glyph unicode="&#xae;" horiz-adv-x="1810" d="M1669 745q0 -158 -60.5 -297t-165 -242.5t-243.5 -163.5t-297 -60t-297 60t-242.5 163.5t-164 243t-60.5 296.5q0 158 60.5 297.5t164 244t242.5 164.5t297 60t297 -60t243.5 -164.5t165 -244t60.5 -297.5zM1561 745q0 135 -52.5 255t-141.5 209t-209 141.5t-255 52.5 t-254 -52.5t-208 -141.5t-140 -208.5t-51 -255.5q0 -135 51 -254.5t140 -208.5t208 -140.5t254 -51.5t255 51.5t209 140.5t141.5 208.5t52.5 254.5zM1186 899q0 -66 -42 -124t-132 -81l157 -291q6 -10 7 -22q0 -27 -16.5 -42t-39.5 -15q-35 0 -47 30l-176 328h-152v-301 q0 -25 -16 -40t-39 -15t-39 15t-16 40v731q0 23 16.5 39t38.5 16h228q74 0 125 -18.5t82.5 -49t46 -69.5t14.5 -78v-53zM1075 948q0 18 -6 40t-24.5 40.5t-49 30.5t-80.5 12h-170v-293h168q47 0 79 12.5t50.5 31t25.5 40t7 39.5v47z" />
<glyph unicode="&#xaf;" horiz-adv-x="1085" d="M813 1391q0 -25 -17.5 -42.5t-41.5 -17.5h-422q-25 0 -42.5 17.5t-17.5 42.5q0 27 17.5 44t42.5 17h422q25 0 42 -17t17 -44z" />
<glyph unicode="&#xb0;" horiz-adv-x="808" d="M735 1184q0 -68 -26.5 -128.5t-71.5 -104.5t-105.5 -69.5t-128.5 -25.5t-128 25.5t-104 69.5t-70.5 104.5t-26.5 128.5t26.5 128t70.5 104t104.5 69.5t127.5 25.5q68 0 128.5 -25.5t105.5 -69.5t71.5 -104t26.5 -128zM614 1184q0 43 -16 81t-45 67.5t-68 46t-82 16.5 t-80.5 -16.5t-66.5 -46t-45 -67.5t-16 -81t16 -82t45 -67.5t66.5 -45t80.5 -16.5t82 16.5t68 45t45 67.5t16 82z" />
<glyph unicode="&#xb1;" horiz-adv-x="1095" d="M971 786q0 -27 -18.5 -45t-45.5 -18h-297v-297q0 -27 -18.5 -45.5t-42.5 -18.5q-27 0 -45.5 18.5t-18.5 45.5v297h-297q-27 0 -45 18.5t-18 44.5q0 27 18.5 44.5t44.5 17.5h297v299q0 27 18.5 45t45.5 18q25 0 43 -18t18 -45v-299h297q27 0 45.5 -17.5t18.5 -44.5z M971 63q0 -27 -18.5 -45t-45.5 -18h-719q-27 0 -45 18.5t-18 44.5q0 25 18.5 43.5t44.5 18.5h719q27 0 45.5 -18.5t18.5 -43.5z" />
<glyph unicode="&#xb2;" horiz-adv-x="921" d="M725 643q0 -18 -14.5 -31.5t-32.5 -13.5h-434q-47 0 -47 45q0 61 22.5 111.5t55 90.5t69.5 68.5t66 51.5q39 31 78.5 60.5t71.5 62t51.5 69.5t19.5 84q0 70 -40 120t-128 50q-39 0 -66.5 -7t-54.5 -20q-33 -16 -46 -31.5t-36 -15.5q-16 0 -30.5 13.5t-14.5 31.5 q0 20 14 35q45 41 102.5 61.5t133.5 20.5q68 0 117 -21.5t80.5 -58.5t47 -83t15.5 -95q0 -55 -18.5 -99t-47 -80t-65.5 -66.5t-76 -59.5q-80 -59 -142.5 -114.5t-78.5 -133.5h381q18 0 32.5 -13.5t14.5 -31.5z" />
<glyph unicode="&#xb3;" horiz-adv-x="921" d="M729 844q0 -51 -17.5 -97.5t-53 -82t-88 -56t-121.5 -20.5q-72 0 -129.5 19.5t-110.5 72.5q-16 10 -16 33q0 16 13 29.5t30 13.5q18 0 29 -13.5t46 -35.5q29 -20 63 -27.5t75 -7.5q96 0 142 52t46 124q0 47 -16.5 77.5t-44 50t-65.5 28t-81 8.5q-12 0 -28.5 7t-16.5 34 q0 29 16.5 37t28.5 8q31 2 63.5 10t60.5 25.5t46 46t18 71.5q0 31 -8 59.5t-26.5 51t-50 37t-78.5 14.5q-37 0 -69 -9t-56 -24q-29 -18 -41.5 -32.5t-32.5 -14.5q-16 0 -28.5 11.5t-12.5 31.5q0 18 16 33q33 37 90.5 62.5t135.5 25.5q70 0 118 -22.5t77.5 -57.5t42 -78 t12.5 -82q0 -78 -35 -125t-92 -71q68 -25 108.5 -75t40.5 -142z" />
<glyph unicode="&#xb4;" horiz-adv-x="1085" d="M659 1634q16 -8 23.5 -22.5t7.5 -28.5q0 -20 -8 -31l-182 -303q-18 -31 -49 -30q-16 0 -27 8q-29 12 -29 47q0 14 6 26l172 310q16 33 54 32q18 0 32 -8z" />
<glyph unicode="&#xb5;" horiz-adv-x="1095" d="M1016 47q0 -29 -19.5 -44t-46.5 -15q-20 0 -49 11t-49 32q-39 35 -51 84q-53 -59 -132 -93t-190 -34q-72 0 -120 18.5t-80 50.5v-411q0 -29 -18.5 -47.5t-47.5 -18.5q-27 0 -46.5 18.5t-19.5 47.5v1319q0 29 19.5 47t46.5 18q29 0 47.5 -18.5t18.5 -46.5v-600 q0 -59 9 -105.5t33.5 -78t67.5 -49t109 -17.5q111 0 181.5 44t104.5 117v689q0 29 18.5 47t47.5 18t47 -18.5t18 -46.5v-734q0 -68 15.5 -93t50.5 -40q35 -16 35 -51z" />
<glyph unicode="&#xb6;" horiz-adv-x="1255" d="M1188 1440q0 -25 -17.5 -42.5t-42.5 -17.5h-104v-1642q0 -29 -19.5 -48.5t-48.5 -19.5t-48 19.5t-19 48.5v1642h-258v-1642q0 -29 -19.5 -48.5t-48.5 -19.5t-48 19.5t-19 48.5v985q-80 2 -150 33.5t-122 84t-81.5 122t-29.5 147.5q0 82 30.5 152.5t85 123t126 83 t153.5 30.5h620q25 0 42.5 -16t17.5 -43z" />
<glyph unicode="&#xb7;" horiz-adv-x="458" d="M319 604q0 -41 -28.5 -70.5t-69.5 -29.5t-69.5 29.5t-28.5 70.5t28.5 69.5t69.5 28.5t69.5 -28.5t28.5 -69.5z" />
<glyph unicode="&#xb8;" horiz-adv-x="1085" d="M727 -242q0 -78 -62.5 -124t-175.5 -46q-131 0 -131 47q0 23 27 29t76 6q78 0 114.5 25.5t36.5 66.5q0 47 -34.5 66.5t-100.5 24.5q-41 4 -55 15t-12 40l6 100h82v-84q127 0 178 -47t51 -119z" />
<glyph unicode="&#xb9;" horiz-adv-x="921" d="M737 643q0 -18 -13 -31.5t-32 -13.5h-430q-18 0 -31.5 13.5t-13.5 31.5t13.5 31.5t31.5 13.5h211v680l-223 -154q-10 -8 -27 -8q-16 0 -30.5 12.5t-14.5 32.5t23 37l288 201q16 10 29 10q20 0 33.5 -13t13.5 -34v-764h127q18 0 31.5 -13.5t13.5 -31.5z" />
<glyph unicode="&#xba;" horiz-adv-x="884" d="M770 954q0 -72 -18.5 -134t-57.5 -108t-101.5 -74t-150.5 -28t-150.5 28t-101 74t-57 108.5t-18.5 133.5v170q0 70 18.5 133.5t57 110.5t101 74.5t150.5 27.5t150.5 -27.5t101.5 -74.5t57.5 -110.5t18.5 -133.5v-170zM657 1124q0 109 -49 173.5t-166 64.5t-166 -64.5 t-49 -173.5v-170q0 -109 49.5 -173t165.5 -64q117 0 166 64.5t49 172.5v170z" />
<glyph unicode="&#xbb;" horiz-adv-x="1193" d="M621 551q0 -23 -19 -43l-395 -412q-18 -18 -45 -18t-45.5 17.5t-18.5 45.5q0 25 19 43l354 367l-354 364q-18 18 -19 43q0 25 17.5 44.5t44.5 19.5q29 0 47 -18l395 -410q19 -18 19 -43zM1125 551q0 -23 -19 -43l-395 -412q-18 -18 -45 -18t-45.5 17.5t-18.5 45.5 q0 25 19 43l354 367l-354 364q-18 18 -19 43q0 25 17.5 44.5t44.5 19.5q29 0 47 -18l395 -410q19 -18 19 -43z" />
<glyph unicode="&#xbc;" horiz-adv-x="921" d="M711 709q0 -16 -12.5 -28.5t-30.5 -12.5h-398q-16 0 -27.5 12t-11.5 29q0 16 11.5 28.5t27.5 12.5h197v628l-207 -143q-14 -10 -30.5 -6t-26.5 18t-7 30.5t17 27.5l270 184q10 10 25 10q18 0 31.5 -12t13.5 -31v-706h115q18 0 30.5 -12.5t12.5 -28.5zM836 524 q0 -16 -13.5 -29.5t-29.5 -13.5h-664q-16 0 -29.5 13.5t-13.5 29.5t13.5 28.5t29.5 12.5h664q16 0 29.5 -12.5t13.5 -28.5zM688 -223q0 -18 -11 -30.5t-28 -12.5h-63v-133q0 -18 -12.5 -30.5t-30.5 -12.5t-30.5 12t-12.5 31v133h-279q-16 0 -27.5 11t-11.5 32q0 10 4 18 l254 578q8 16 23.5 22t32.5 0q16 -8 23 -24.5t-1 -32.5l-229 -520h211v174q0 16 12 28.5t31 12.5q18 0 30.5 -12.5t12.5 -28.5v-174h63q16 0 27.5 -12.5t11.5 -28.5z" />
<glyph unicode="&#xbd;" horiz-adv-x="921" d="M711 709q0 -16 -12.5 -28.5t-30.5 -12.5h-398q-16 0 -27.5 12t-11.5 29q0 16 11.5 28.5t27.5 12.5h197v628l-207 -143q-14 -10 -30.5 -6t-26.5 18t-7 30.5t17 27.5l270 184q10 10 25 10q18 0 31.5 -12t13.5 -31v-706h115q18 0 30.5 -12.5t12.5 -28.5zM836 524 q0 -16 -13.5 -29.5t-29.5 -13.5h-664q-16 0 -29.5 13.5t-13.5 29.5t13.5 28.5t29.5 12.5h664q16 0 29.5 -12.5t13.5 -28.5zM705 -389q0 -18 -12.5 -30.5t-28.5 -12.5h-404q-18 0 -29.5 12t-11.5 31q0 57 20.5 103t51.5 82t64.5 63.5t58.5 48.5q37 29 73.5 55.5t65.5 56 t47 64.5t18 78q0 66 -36.5 111.5t-116.5 45.5q-35 0 -62.5 -7t-50.5 -19q-29 -14 -42 -27.5t-31 -13.5q-16 0 -29.5 12t-13.5 29q0 18 14 31q78 76 217 75q61 0 106 -20.5t74 -53t43.5 -75.5t14.5 -88q0 -51 -16.5 -91t-43.5 -74t-60.5 -62.5t-68.5 -55.5q-76 -53 -132 -104 t-73 -123h353q16 0 28.5 -12.5t12.5 -28.5z" />
<glyph unicode="&#xbe;" horiz-adv-x="921" d="M723 893q0 -47 -16.5 -89t-49 -75t-81 -52.5t-111.5 -19.5q-68 0 -121 17.5t-102 66.5q-14 12 -15 31q0 16 12.5 28.5t28.5 12.5t26.5 -13.5t43.5 -33.5q51 -31 125 -31q90 0 132 48t42 114q0 43 -15.5 71.5t-41 46t-60.5 26t-74 8.5q-10 2 -25 8t-15 30q0 27 15 34t25 7 q27 2 58 9.5t57.5 24t43 43t16.5 65.5q0 27 -7.5 54.5t-25 48t-47 33.5t-72.5 13q-35 0 -63.5 -8t-51.5 -22q-29 -16 -40 -29.5t-27 -13.5t-27.5 11t-11.5 27q0 18 14 33q31 35 84 57.5t125 22.5q66 0 111 -20.5t71.5 -53t37.5 -71.5t11 -76q0 -72 -31.5 -115t-84.5 -67 q61 -23 99 -69t38 -132zM836 524q0 -16 -13.5 -29.5t-29.5 -13.5h-664q-16 0 -29.5 13.5t-13.5 29.5t13.5 28.5t29.5 12.5h664q16 0 29.5 -12.5t13.5 -28.5zM694 -223q0 -18 -12 -30.5t-31 -12.5h-63v-133q0 -18 -12.5 -30.5t-28.5 -12.5t-29.5 12t-13.5 31v133h-277 q-18 0 -30.5 11t-12.5 32q0 6 2 10l4 8l254 578q8 16 24.5 22t33.5 0q16 -8 22 -24.5t-2 -32.5l-229 -520h211v174q0 16 13 28.5t30 12.5q16 0 28.5 -12.5t12.5 -28.5v-174h63q18 0 30.5 -12.5t12.5 -28.5z" />
<glyph unicode="&#xbf;" horiz-adv-x="931" d="M118.054 -109.932q0 71.9961 16.499 123.992q16.499 51.9971 47.4971 95.9941q30.998 43.998 73.9951 82.9951q42.998 38.998 93.9951 81.9951q56.9961 46.9971 89.9941 83.9951q32.998 36.9971 48.9971 68.4961q15.999 31.498 20.499 61.9961 q4.49902 30.498 4.49902 61.4961q0 28.998 16.999 45.4971t45.9971 16.499q26.999 0 45.498 -16.499q18.498 -16.499 18.498 -47.4971q0 -42.9971 -6.49902 -83.9951q-6.5 -40.9971 -25.999 -82.9951q-19.498 -41.9971 -55.9961 -85.9941t-98.4941 -94.9941 q-50.9971 -42.998 -88.9941 -75.9961q-37.998 -32.9971 -62.4961 -66.4951q-24.499 -33.498 -36.498 -71.4961t-11.999 -90.9941q0 -71.9961 24.498 -123.992q24.499 -51.9971 64.4961 -84.9951t88.9941 -48.4971t97.9941 -15.499q95.9941 0 159.49 26.998t114.493 79.9951 q13.999 13.999 40.998 13.999q26.998 0 45.4971 -17.499t18.499 -43.4971q0 -26.998 -23.499 -50.4971q-23.498 -23.498 -46.4971 -39.4971q-65.9961 -46.9971 -141.491 -69.4961t-175.489 -22.499q-67.9961 0 -139.491 21.499q-71.4961 21.499 -129.992 68.4961 q-58.4971 46.9971 -96.4941 120.992q-37.998 73.9961 -37.998 177.989zM469.032 924.006q0 46.9971 31.498 78.9951t74.4951 31.998q46.998 0 78.9961 -31.998t31.998 -78.9951q0 -42.998 -31.998 -74.9961t-78.9961 -31.998q-42.9971 0 -74.4951 31.998t-31.498 74.9961z " />
<glyph unicode="&#xc0;" horiz-adv-x="1150" d="M1118 63q8 -37 -15.5 -59t-51.5 -22q-20 0 -39 12t-27 41q-23 84 -46.5 167t-45.5 165h-639q-25 -82 -48.5 -165t-45.5 -167q-6 -29 -23.5 -41t-38.5 -12q-29 0 -52 21.5t-13 59.5q94 369 208.5 706t247.5 665q20 49 42 62t44 13q23 0 43.5 -13t43.5 -62 q133 -330 245.5 -665t210.5 -706zM856 494q-66 207 -135.5 403.5t-147.5 390.5q-78 -195 -148.5 -391.5t-133.5 -402.5h565zM455 2042q14 8 33 8q37 0 53 -32l172 -310q6 -12 6 -26q0 -35 -28 -47q-10 -8 -27 -8q-31 0 -49 30l-183 303q-8 10 -8 31q0 14 7.5 28.5t23.5 22.5 z" />
<glyph unicode="&#xc1;" horiz-adv-x="1150" d="M1118 63q8 -37 -15.5 -59t-51.5 -22q-20 0 -39 12t-27 41q-23 84 -46.5 167t-45.5 165h-639q-25 -82 -48.5 -165t-45.5 -167q-6 -29 -23.5 -41t-38.5 -12q-29 0 -52 21.5t-13 59.5q94 369 208.5 706t247.5 665q20 49 42 62t44 13q23 0 43.5 -13t43.5 -62 q133 -330 245.5 -665t210.5 -706zM856 494q-66 207 -135.5 403.5t-147.5 390.5q-78 -195 -148.5 -391.5t-133.5 -402.5h565zM682 2042q16 -8 23.5 -22.5t7.5 -28.5q0 -20 -8 -31l-182 -303q-18 -31 -49 -30q-16 0 -27 8q-29 12 -29 47q0 14 6 26l172 310q16 33 54 32 q18 0 32 -8z" />
<glyph unicode="&#xc2;" horiz-adv-x="1150" d="M1118 63q8 -37 -15.5 -59t-51.5 -22q-20 0 -39 12t-27 41q-23 84 -46.5 167t-45.5 165h-639q-25 -82 -48.5 -165t-45.5 -167q-6 -29 -23.5 -41t-38.5 -12q-29 0 -52 21.5t-13 59.5q94 369 208.5 706t247.5 665q20 49 42 62t44 13q23 0 43.5 -13t43.5 -62 q133 -330 245.5 -665t210.5 -706zM856 494q-66 207 -135.5 403.5t-147.5 390.5q-78 -195 -148.5 -391.5t-133.5 -402.5h565zM568 2042q29 0 43 -18l266 -266q18 -18 18 -41t-14 -39q-16 -18 -41 -19q-20 0 -37 15l-235 225l-236 -223q-16 -16 -37 -17q-25 0 -41 21 q-14 14 -14 37q0 25 18 41l267 268q12 16 43 16z" />
<glyph unicode="&#xc3;" horiz-adv-x="1150" d="M1118 63q8 -37 -15.5 -59t-51.5 -22q-20 0 -39 12t-27 41q-23 84 -46.5 167t-45.5 165h-639q-25 -82 -48.5 -165t-45.5 -167q-6 -29 -23.5 -41t-38.5 -12q-29 0 -52 21.5t-13 59.5q94 369 208.5 706t247.5 665q20 49 42 62t44 13q23 0 43.5 -13t43.5 -62 q133 -330 245.5 -665t210.5 -706zM856 494q-66 207 -135.5 403.5t-147.5 390.5q-78 -195 -148.5 -391.5t-133.5 -402.5h565zM893 1840q0 -25 -14 -47.5t-41 -40t-59.5 -26.5t-69.5 -9q-45 0 -80 12t-65.5 27.5t-60.5 28t-64 12.5q-33 0 -51.5 -9.5t-32 -19.5t-24.5 -20.5 t-30 -10.5q-23 0 -38 18.5t-17 43.5q0 25 14.5 47t41 38.5t59.5 26.5t69 10q45 0 79 -12t65 -27.5t61.5 -27.5t65.5 -12q33 0 51 10t31.5 20.5t25 19.5t29.5 9q23 0 38 -18t17 -43z" />
<glyph unicode="&#xc4;" horiz-adv-x="1150" d="M1118 63q8 -37 -15.5 -59t-51.5 -22q-20 0 -39 12t-27 41q-23 84 -46.5 167t-45.5 165h-639q-25 -82 -48.5 -165t-45.5 -167q-6 -29 -23.5 -41t-38.5 -12q-29 0 -52 21.5t-13 59.5q94 369 208.5 706t247.5 665q20 49 42 62t44 13q23 0 43.5 -13t43.5 -62 q133 -330 245.5 -665t210.5 -706zM856 494q-66 207 -135.5 403.5t-147.5 390.5q-78 -195 -148.5 -391.5t-133.5 -402.5h565zM336 1792q0 35 24.5 59.5t59.5 24.5t59.5 -24.5t24.5 -59.5t-24.5 -58.5t-59.5 -23.5t-59.5 23.5t-24.5 58.5zM643 1792q0 35 25 59.5t59 24.5 q35 0 59.5 -24.5t24.5 -59.5t-24.5 -58.5t-59.5 -23.5t-59.5 23.5t-24.5 58.5z" />
<glyph unicode="&#xc5;" horiz-adv-x="1150" d="M1118 63q8 -37 -15.5 -59t-51.5 -22q-20 0 -39 12t-27 41q-23 84 -46.5 167t-45.5 165h-639q-25 -82 -48.5 -165t-45.5 -167q-6 -29 -23.5 -41t-38.5 -12q-29 0 -52 21.5t-13 59.5q94 369 208.5 706t247.5 665q20 49 42 62t44 13q23 0 43.5 -13t43.5 -62 q133 -330 245.5 -665t210.5 -706zM856 494q-66 207 -135.5 403.5t-147.5 390.5q-78 -195 -148.5 -391.5t-133.5 -402.5h565zM809 1817q0 -49 -18.5 -93t-51 -76t-75.5 -50.5t-92 -18.5t-92 18.5t-76 50.5t-51.5 76t-18.5 93t18.5 93t51.5 76t76 50.5t92 18.5t92 -18.5 t75.5 -50.5t51 -76t18.5 -93zM721 1817q0 63 -45 106.5t-104 43.5t-104.5 -43t-45.5 -107q0 -63 45 -106t105 -43q59 0 104 43t45 106z" />
<glyph unicode="&#xc6;" horiz-adv-x="1792" d="M1710 63q0 -27 -18.5 -45t-46.5 -18h-691q-27 0 -45 18.5t-18 44.5v304h-557q-45 -84 -89 -166t-85 -166q-10 -23 -25.5 -31t-34.5 -8q-29 0 -49 18.5t-20 46.5q0 16 8 33q168 330 353.5 663t393.5 677q16 29 39 44t56 15h733q29 0 47 -19.5t18 -46.5q0 -29 -18.5 -47 t-46.5 -18h-588v-553h533q27 0 45 -18.5t18 -45.5t-18.5 -45t-44.5 -18h-533v-551h619q29 0 47 -19.5t18 -48.5zM891 1341q-264 -430 -492 -847h492v847z" />
<glyph unicode="&#xc7;" horiz-adv-x="1126" d="M1038 1325q0 -23 -16 -43t-47 -20q-23 -2 -36 13t-36 32q-92 80 -241 79q-203 0 -295.5 -134t-92.5 -384v-245q0 -262 87.5 -389.5t289.5 -127.5q66 0 132.5 19.5t121.5 64.5q27 20 41.5 33t36.5 15q29 2 44 -18.5t15 -43.5q0 -27 -22 -49q-72 -78 -164 -109.5 t-182 -35.5v-66q125 0 177 -47t52 -119q0 -78 -63.5 -124t-173.5 -46q-63 0 -98.5 10.5t-35.5 38.5q0 23 28 28t75 5q80 0 115.5 26.5t35.5 67.5q0 47 -33.5 65.5t-101.5 22.5q-41 4 -54 15.5t-11 42.5l4 82q-123 10 -209 60t-140.5 133t-78 196.5t-23.5 249.5v247 q0 137 29 255t91.5 204t161.5 134t241 48q98 0 193 -30.5t161 -110.5q22 -20 22 -45z" />
<glyph unicode="&#xc8;" horiz-adv-x="1122" d="M1040 63q0 -27 -18 -45t-45 -18h-737q-29 0 -47.5 18.5t-18.5 44.5v1364q0 27 18.5 46.5t47.5 19.5h706q27 0 46.5 -19.5t19.5 -46.5q0 -29 -19.5 -47t-46.5 -18h-637v-553h580q27 0 45 -18.5t18 -45.5t-18.5 -45t-44.5 -18h-580v-551h668q27 0 45 -19.5t18 -48.5z M487 2042q14 8 33 8q37 0 53 -32l172 -310q6 -12 6 -26q0 -35 -28 -47q-10 -8 -27 -8q-31 0 -49 30l-183 303q-8 10 -8 31q0 14 7.5 28.5t23.5 22.5z" />
<glyph unicode="&#xc9;" horiz-adv-x="1122" d="M1040 63q0 -27 -18 -45t-45 -18h-737q-29 0 -47.5 18.5t-18.5 44.5v1364q0 27 18.5 46.5t47.5 19.5h706q27 0 46.5 -19.5t19.5 -46.5q0 -29 -19.5 -47t-46.5 -18h-637v-553h580q27 0 45 -18.5t18 -45.5t-18.5 -45t-44.5 -18h-580v-551h668q27 0 45 -19.5t18 -48.5z M722 2042q16 -8 23.5 -22.5t7.5 -28.5q0 -20 -8 -31l-182 -303q-18 -31 -49 -30q-16 0 -27 8q-29 12 -29 47q0 14 6 26l172 310q16 33 54 32q18 0 32 -8z" />
<glyph unicode="&#xca;" horiz-adv-x="1122" d="M1040 63q0 -27 -18 -45t-45 -18h-737q-29 0 -47.5 18.5t-18.5 44.5v1364q0 27 18.5 46.5t47.5 19.5h706q27 0 46.5 -19.5t19.5 -46.5q0 -29 -19.5 -47t-46.5 -18h-637v-553h580q27 0 45 -18.5t18 -45.5t-18.5 -45t-44.5 -18h-580v-551h668q27 0 45 -19.5t18 -48.5z M592 2042q29 0 43 -18l266 -266q18 -18 18 -41t-14 -39q-16 -18 -41 -19q-20 0 -37 15l-235 225l-236 -223q-16 -16 -37 -17q-25 0 -41 21q-14 14 -14 37q0 25 18 41l267 268q12 16 43 16z" />
<glyph unicode="&#xcb;" horiz-adv-x="1122" d="M1040 63q0 -27 -18 -45t-45 -18h-737q-29 0 -47.5 18.5t-18.5 44.5v1364q0 27 18.5 46.5t47.5 19.5h706q27 0 46.5 -19.5t19.5 -46.5q0 -29 -19.5 -47t-46.5 -18h-637v-553h580q27 0 45 -18.5t18 -45.5t-18.5 -45t-44.5 -18h-580v-551h668q27 0 45 -19.5t18 -48.5z M350 1792q0 35 24.5 59.5t59.5 24.5t59.5 -24.5t24.5 -59.5t-24.5 -58.5t-59.5 -23.5t-59.5 23.5t-24.5 58.5zM657 1792q0 35 25 59.5t59 24.5q35 0 59.5 -24.5t24.5 -59.5t-24.5 -58.5t-59.5 -23.5t-59.5 23.5t-24.5 58.5z" />
<glyph unicode="&#xcc;" horiz-adv-x="485" d="M309 49q0 -29 -19.5 -48t-47.5 -19q-29 0 -48.5 19t-19.5 48v1395q0 29 19.5 48t48.5 19t48 -19t19 -48v-1395v0zM147 2042q14 8 33 8q37 0 53 -32l172 -310q6 -12 6 -26q0 -35 -28 -47q-10 -8 -27 -8q-31 0 -49 30l-183 303q-8 10 -8 31q0 14 7.5 28.5t23.5 22.5z" />
<glyph unicode="&#xcd;" horiz-adv-x="485" d="M309 49q0 -29 -19.5 -48t-47.5 -19q-29 0 -48.5 19t-19.5 48v1395q0 29 19.5 48t48.5 19t48 -19t19 -48v-1395v0zM360 2042q16 -8 23.5 -22.5t7.5 -28.5q0 -20 -8 -31l-182 -303q-18 -31 -49 -30q-16 0 -27 8q-29 12 -29 47q0 14 6 26l172 310q16 33 54 32q18 0 32 -8z " />
<glyph unicode="&#xce;" horiz-adv-x="485" d="M309 49q0 -29 -19.5 -48t-47.5 -19q-29 0 -48.5 19t-19.5 48v1395q0 29 19.5 48t48.5 19t48 -19t19 -48v-1395v0zM246 2042q29 0 43 -18l266 -266q18 -18 18 -41t-14 -39q-16 -18 -41 -19q-20 0 -37 15l-235 225l-236 -223q-16 -16 -37 -17q-25 0 -41 21q-14 14 -14 37 q0 25 18 41l267 268q12 16 43 16z" />
<glyph unicode="&#xcf;" horiz-adv-x="485" d="M309 49q0 -29 -19.5 -48t-47.5 -19q-29 0 -48.5 19t-19.5 48v1395q0 29 19.5 48t48.5 19t48 -19t19 -48v-1395v0zM8 1792q0 35 24.5 59.5t59.5 24.5t59.5 -24.5t24.5 -59.5t-24.5 -58.5t-59.5 -23.5t-59.5 23.5t-24.5 58.5zM315 1792q0 35 25 59.5t59 24.5 q35 0 59.5 -24.5t24.5 -59.5t-24.5 -58.5t-59.5 -23.5t-59.5 23.5t-24.5 58.5z" />
<glyph unicode="&#xd0;" horiz-adv-x="1345" d="M1206 555q0 -84 -18.5 -180t-73.5 -180t-158.5 -139.5t-275.5 -55.5h-404q-29 0 -48 19.5t-19 48.5v602h-115q-27 0 -45 18.5t-18 44.5q0 27 18.5 45.5t44.5 18.5h115v628q0 29 19.5 48.5t47.5 19.5h404q172 0 275.5 -55.5t159.5 -139.5t73.5 -181t17.5 -181v-381z M1071 934q0 76 -14.5 151.5t-56.5 137t-119.5 100.5t-206.5 39h-332v-565h248q27 0 45 -18.5t18 -45.5t-18.5 -45t-44.5 -18h-248v-543h332q129 0 206.5 39t119.5 101.5t56.5 139t14.5 150.5v377z" />
<glyph unicode="&#xd1;" horiz-adv-x="1363" d="M1190 45q0 -25 -17.5 -44t-52.5 -19q-18 0 -35.5 8t-27.5 26l-756 1219v-1190q0 -27 -18.5 -45t-44.5 -18q-27 0 -45.5 18t-18.5 45v1403q0 27 18.5 45t49.5 18q43 0 67 -38l754 -1217v1192q0 27 18.5 45t44.5 18q27 0 45.5 -18t18.5 -45v-1403v0zM1003 1840 q0 -25 -14 -47.5t-41 -40t-59.5 -26.5t-69.5 -9q-45 0 -80 12t-65.5 27.5t-60.5 28t-64 12.5q-33 0 -51.5 -9.5t-32 -19.5t-24.5 -20.5t-30 -10.5q-23 0 -38 18.5t-17 43.5q0 25 14.5 47t41 38.5t59.5 26.5t69 10q45 0 79 -12t65 -27.5t61.5 -27.5t65.5 -12q33 0 51 10 t31.5 20.5t25 19.5t29.5 9q23 0 38 -18t17 -43z" />
<glyph unicode="&#xd2;" horiz-adv-x="1282" d="M1141 535q0 -104 -25.5 -204t-84 -177.5t-154 -124.5t-236.5 -47t-237.5 47t-155 124.5t-84 177t-25.5 204.5v423q0 104 25.5 204t84 177.5t155 124.5t237.5 47t236.5 -47t154 -124.5t84 -177t25.5 -204.5v-423zM1006 958q0 88 -18.5 166t-61.5 136.5t-113 92t-172 33.5 t-173 -33.5t-114 -92t-61.5 -136t-18.5 -166.5v-423q0 -88 18.5 -166t61.5 -136.5t114 -92.5t173 -34t172 34t113 92.5t61.5 136t18.5 166.5v423zM559 2042q14 8 33 8q37 0 53 -32l172 -310q6 -12 6 -26q0 -35 -28 -47q-10 -8 -27 -8q-31 0 -49 30l-183 303q-8 10 -8 31 q0 14 7.5 28.5t23.5 22.5z" />
<glyph unicode="&#xd3;" horiz-adv-x="1282" d="M1141 535q0 -104 -25.5 -204t-84 -177.5t-154 -124.5t-236.5 -47t-237.5 47t-155 124.5t-84 177t-25.5 204.5v423q0 104 25.5 204t84 177.5t155 124.5t237.5 47t236.5 -47t154 -124.5t84 -177t25.5 -204.5v-423zM1006 958q0 88 -18.5 166t-61.5 136.5t-113 92t-172 33.5 t-173 -33.5t-114 -92t-61.5 -136t-18.5 -166.5v-423q0 -88 18.5 -166t61.5 -136.5t114 -92.5t173 -34t172 34t113 92.5t61.5 136t18.5 166.5v423zM739 2042q16 -8 23.5 -22.5t7.5 -28.5q0 -20 -8 -31l-182 -303q-18 -31 -49 -30q-16 0 -27 8q-29 12 -29 47q0 14 6 26 l172 310q16 33 54 32q18 0 32 -8z" />
<glyph unicode="&#xd4;" horiz-adv-x="1282" d="M1141 535q0 -104 -25.5 -204t-84 -177.5t-154 -124.5t-236.5 -47t-237.5 47t-155 124.5t-84 177t-25.5 204.5v423q0 104 25.5 204t84 177.5t155 124.5t237.5 47t236.5 -47t154 -124.5t84 -177t25.5 -204.5v-423zM1006 958q0 88 -18.5 166t-61.5 136.5t-113 92t-172 33.5 t-173 -33.5t-114 -92t-61.5 -136t-18.5 -166.5v-423q0 -88 18.5 -166t61.5 -136.5t114 -92.5t173 -34t172 34t113 92.5t61.5 136t18.5 166.5v423zM635 2042q29 0 43 -18l266 -266q18 -18 18 -41t-14 -39q-16 -18 -41 -19q-20 0 -37 15l-235 225l-236 -223q-16 -16 -37 -17 q-25 0 -41 21q-14 14 -14 37q0 25 18 41l267 268q12 16 43 16z" />
<glyph unicode="&#xd5;" horiz-adv-x="1282" d="M1141 535q0 -104 -25.5 -204t-84 -177.5t-154 -124.5t-236.5 -47t-237.5 47t-155 124.5t-84 177t-25.5 204.5v423q0 104 25.5 204t84 177.5t155 124.5t237.5 47t236.5 -47t154 -124.5t84 -177t25.5 -204.5v-423zM1006 958q0 88 -18.5 166t-61.5 136.5t-113 92t-172 33.5 t-173 -33.5t-114 -92t-61.5 -136t-18.5 -166.5v-423q0 -88 18.5 -166t61.5 -136.5t114 -92.5t173 -34t172 34t113 92.5t61.5 136t18.5 166.5v423zM958 1840q0 -25 -14 -47.5t-41 -40t-59.5 -26.5t-69.5 -9q-45 0 -80 12t-65.5 27.5t-60.5 28t-64 12.5q-33 0 -51.5 -9.5 t-32 -19.5t-24.5 -20.5t-30 -10.5q-23 0 -38 18.5t-17 43.5q0 25 14.5 47t41 38.5t59.5 26.5t69 10q45 0 79 -12t65 -27.5t61.5 -27.5t65.5 -12q33 0 51 10t31.5 20.5t25 19.5t29.5 9q23 0 38 -18t17 -43z" />
<glyph unicode="&#xd6;" horiz-adv-x="1282" d="M1141 535q0 -104 -25.5 -204t-84 -177.5t-154 -124.5t-236.5 -47t-237.5 47t-155 124.5t-84 177t-25.5 204.5v423q0 104 25.5 204t84 177.5t155 124.5t237.5 47t236.5 -47t154 -124.5t84 -177t25.5 -204.5v-423zM1006 958q0 88 -18.5 166t-61.5 136.5t-113 92t-172 33.5 t-173 -33.5t-114 -92t-61.5 -136t-18.5 -166.5v-423q0 -88 18.5 -166t61.5 -136.5t114 -92.5t173 -34t172 34t113 92.5t61.5 136t18.5 166.5v423zM399 1792q0 35 24.5 59.5t59.5 24.5t59.5 -24.5t24.5 -59.5t-24.5 -58.5t-59.5 -23.5t-59.5 23.5t-24.5 58.5zM706 1792 q0 35 25 59.5t59 24.5q35 0 59.5 -24.5t24.5 -59.5t-24.5 -58.5t-59.5 -23.5t-59.5 23.5t-24.5 58.5z" />
<glyph unicode="&#xd7;" horiz-adv-x="860" d="M727 262q-18 -18 -43 -18q-27 0 -45 18l-207 207l-211 -207q-18 -18 -45 -18q-23 0 -42 17.5t-19 43.5q0 27 18 45l209 207l-209 211q-18 18 -18 43q0 27 18.5 45t42.5 18q27 0 45 -18l211 -209l207 209q18 18 45 18q25 0 43 -19t18 -44t-18 -43l-209 -211l209 -207 q18 -18 18 -45q0 -29 -18 -43z" />
<glyph unicode="&#xd8;" horiz-adv-x="1282" d="M1141 535q0 -104 -25.5 -204t-84 -177.5t-154 -124.5t-236.5 -47q-78 0 -141.5 15t-116.5 44l-37 -86q-10 -20 -29.5 -28.5t-40.5 -0.5q-18 10 -26 30.5t2 39.5l45 106q-86 80 -122 195t-36 238v423q0 104 25.5 204t84 177.5t155 124.5t237.5 47q78 0 142.5 -15 t113.5 -44l39 82q10 23 29.5 31t40.5 -2q18 -10 26 -30t-2 -40l-45 -102q86 -80 121 -195t35 -238v-423zM846 1333q-41 25 -90 39t-115 14q-102 0 -173 -33.5t-114 -92t-61.5 -136t-18.5 -166.5v-423q0 -86 19.5 -161t66.5 -130zM1006 958q0 86 -19.5 161t-64.5 128 l-486 -1089q80 -51 205 -52q102 0 172 34t113 92.5t61.5 136t18.5 166.5v423z" />
<glyph unicode="&#xd9;" horiz-adv-x="1282" d="M1141 485q0 -104 -30 -195t-91.5 -160t-155.5 -108.5t-223 -39.5t-224 39.5t-156.5 108.5t-91.5 160t-30 195v959q0 29 19.5 48t48.5 19t48 -19t19 -48v-957q0 -80 20.5 -149.5t64.5 -121.5t114 -82t168 -30t167 30t113 82t64.5 122t20.5 149v957q0 29 20.5 48t46.5 19 q29 0 48.5 -19t19.5 -48v-959v0zM524 2042q14 8 33 8q37 0 53 -32l172 -310q6 -12 6 -26q0 -35 -28 -47q-10 -8 -27 -8q-31 0 -49 30l-183 303q-8 10 -8 31q0 14 7.5 28.5t23.5 22.5z" />
<glyph unicode="&#xda;" horiz-adv-x="1282" d="M1141 485q0 -104 -30 -195t-91.5 -160t-155.5 -108.5t-223 -39.5t-224 39.5t-156.5 108.5t-91.5 160t-30 195v959q0 29 19.5 48t48.5 19t48 -19t19 -48v-957q0 -80 20.5 -149.5t64.5 -121.5t114 -82t168 -30t167 30t113 82t64.5 122t20.5 149v957q0 29 20.5 48t46.5 19 q29 0 48.5 -19t19.5 -48v-959v0zM761 2042q16 -8 23.5 -22.5t7.5 -28.5q0 -20 -8 -31l-182 -303q-18 -31 -49 -30q-16 0 -27 8q-29 12 -29 47q0 14 6 26l172 310q16 33 54 32q18 0 32 -8z" />
<glyph unicode="&#xdb;" horiz-adv-x="1282" d="M1141 485q0 -104 -30 -195t-91.5 -160t-155.5 -108.5t-223 -39.5t-224 39.5t-156.5 108.5t-91.5 160t-30 195v959q0 29 19.5 48t48.5 19t48 -19t19 -48v-957q0 -80 20.5 -149.5t64.5 -121.5t114 -82t168 -30t167 30t113 82t64.5 122t20.5 149v957q0 29 20.5 48t46.5 19 q29 0 48.5 -19t19.5 -48v-959v0zM631 2042q29 0 43 -18l266 -266q18 -18 18 -41t-14 -39q-16 -18 -41 -19q-20 0 -37 15l-235 225l-236 -223q-16 -16 -37 -17q-25 0 -41 21q-14 14 -14 37q0 25 18 41l267 268q12 16 43 16z" />
<glyph unicode="&#xdc;" horiz-adv-x="1282" d="M1141 485q0 -104 -30 -195t-91.5 -160t-155.5 -108.5t-223 -39.5t-224 39.5t-156.5 108.5t-91.5 160t-30 195v959q0 29 19.5 48t48.5 19t48 -19t19 -48v-957q0 -80 20.5 -149.5t64.5 -121.5t114 -82t168 -30t167 30t113 82t64.5 122t20.5 149v957q0 29 20.5 48t46.5 19 q29 0 48.5 -19t19.5 -48v-959v0zM401 1792q0 35 24.5 59.5t59.5 24.5t59.5 -24.5t24.5 -59.5t-24.5 -58.5t-59.5 -23.5t-59.5 23.5t-24.5 58.5zM708 1792q0 35 25 59.5t59 24.5q35 0 59.5 -24.5t24.5 -59.5t-24.5 -58.5t-59.5 -23.5t-59.5 23.5t-24.5 58.5z" />
<glyph unicode="&#xdd;" horiz-adv-x="1007" d="M1008 1446q0 -12 -7 -27q-80 -186 -187 -403t-245 -471v-496q0 -29 -19.5 -48t-47.5 -19q-29 0 -48.5 19t-19.5 48v496q-135 252 -241.5 468t-186.5 402q-6 14 -6 31q0 29 21.5 47t48.5 18q16 0 32.5 -9t26.5 -32q72 -166 165 -357t210 -413q119 221 212 413t165 357 q18 41 57 41q27 0 48.5 -18t21.5 -47zM632 2042q16 -8 23.5 -22.5t7.5 -28.5q0 -20 -8 -31l-182 -303q-18 -31 -49 -30q-16 0 -27 8q-29 12 -29 47q0 14 6 26l172 310q16 33 54 32q18 0 32 -8z" />
<glyph unicode="&#xde;" horiz-adv-x="1198" d="M1110 653q0 -84 -30.5 -154.5t-89 -121.5t-141.5 -80t-190 -29h-350v-561q0 -29 -19.5 -48t-47.5 -19q-29 0 -48.5 19t-19.5 48v1940q0 29 19.5 48t48.5 19t48 -19.5t19 -47.5v-496h326q131 0 222 -35t147.5 -90t81 -126t24.5 -142v-105zM975 756q0 45 -16.5 93t-55.5 87 t-106.5 63.5t-167.5 24.5h-320v-631h346q82 0 142.5 20.5t100.5 56.5t58.5 84t18.5 101v101z" />
<glyph unicode="&#xdf;" horiz-adv-x="1134" d="M1020 334q0 -88 -29.5 -152.5t-82 -107.5t-124 -63.5t-155.5 -20.5q-82 0 -139.5 8t-112.5 31q-29 10 -36 33.5t3 46.5q6 16 22.5 27t39.5 3q47 -14 97 -22t126 -8q129 0 196.5 55t67.5 168q0 74 -34 117t-87 68.5t-117.5 41.5t-126.5 37q-76 27 -123 71t-47 124 q0 63 30 98t76 57.5t98 37.5t98.5 37.5t76 59.5t29.5 103q0 98 -56.5 142t-148.5 44q-66 0 -117 -20.5t-88 -66.5t-56 -119.5t-19 -178.5v-1048q0 -31 -19.5 -48.5t-46.5 -17.5t-46 17.5t-19 48.5v1048q0 131 29.5 227.5t83.5 158t130 91t170 29.5q70 0 130.5 -18.5 t104.5 -56.5t69.5 -95t25.5 -133q0 -82 -29.5 -133t-76 -82t-98.5 -47.5t-98 -31.5t-76 -35.5t-30 -57.5q0 -55 55.5 -80t131.5 -45q61 -16 123.5 -38t112.5 -59.5t81 -96t31 -148.5z" />
<glyph unicode="&#xe0;" horiz-adv-x="1003" d="M922 47q0 -29 -18.5 -44t-45.5 -15q-23 0 -50.5 11t-47.5 32q-16 14 -25.5 32.5t-15.5 38.5q-29 -35 -63.5 -57t-73.5 -34.5t-78 -17.5t-74 -5q-96 0 -162.5 23.5t-108.5 63.5t-61.5 93t-19.5 113v16q0 59 20.5 112.5t63.5 92.5t112.5 61.5t167.5 22.5h256v55 q0 70 -9 122t-35.5 86t-72.5 51.5t-120 17.5q-78 0 -129 -16.5t-92 -39.5q-18 -10 -33 -10q-8 0 -23.5 5t-27 23.5t-7 42t28.5 40.5q113 70 287 69q109 0 179.5 -26.5t111.5 -77.5t57 -126t16 -169v-402q0 -66 13.5 -92t46.5 -43q33 -12 33 -49zM698 477h-247 q-74 0 -121 -15.5t-74 -41t-37 -58t-10 -65.5v-18q0 -35 10 -68t37 -57.5t73 -40t117 -15.5q121 0 187.5 60.5t64.5 183.5v135zM358 1634q14 8 33 8q37 0 53 -32l172 -310q6 -12 6 -26q0 -35 -28 -47q-10 -8 -27 -8q-31 0 -49 30l-183 303q-8 10 -8 31q0 14 7.5 28.5 t23.5 22.5z" />
<glyph unicode="&#xe1;" horiz-adv-x="1003" d="M922 47q0 -29 -18.5 -44t-45.5 -15q-23 0 -50.5 11t-47.5 32q-16 14 -25.5 32.5t-15.5 38.5q-29 -35 -63.5 -57t-73.5 -34.5t-78 -17.5t-74 -5q-96 0 -162.5 23.5t-108.5 63.5t-61.5 93t-19.5 113v16q0 59 20.5 112.5t63.5 92.5t112.5 61.5t167.5 22.5h256v55 q0 70 -9 122t-35.5 86t-72.5 51.5t-120 17.5q-78 0 -129 -16.5t-92 -39.5q-18 -10 -33 -10q-8 0 -23.5 5t-27 23.5t-7 42t28.5 40.5q113 70 287 69q109 0 179.5 -26.5t111.5 -77.5t57 -126t16 -169v-402q0 -66 13.5 -92t46.5 -43q33 -12 33 -49zM698 477h-247 q-74 0 -121 -15.5t-74 -41t-37 -58t-10 -65.5v-18q0 -35 10 -68t37 -57.5t73 -40t117 -15.5q121 0 187.5 60.5t64.5 183.5v135zM608 1634q16 -8 23.5 -22.5t7.5 -28.5q0 -20 -8 -31l-182 -303q-18 -31 -49 -30q-16 0 -27 8q-29 12 -29 47q0 14 6 26l172 310q16 33 54 32 q18 0 32 -8z" />
<glyph unicode="&#xe2;" horiz-adv-x="1003" d="M922 47q0 -29 -18.5 -44t-45.5 -15q-23 0 -50.5 11t-47.5 32q-16 14 -25.5 32.5t-15.5 38.5q-29 -35 -63.5 -57t-73.5 -34.5t-78 -17.5t-74 -5q-96 0 -162.5 23.5t-108.5 63.5t-61.5 93t-19.5 113v16q0 59 20.5 112.5t63.5 92.5t112.5 61.5t167.5 22.5h256v55 q0 70 -9 122t-35.5 86t-72.5 51.5t-120 17.5q-78 0 -129 -16.5t-92 -39.5q-18 -10 -33 -10q-8 0 -23.5 5t-27 23.5t-7 42t28.5 40.5q113 70 287 69q109 0 179.5 -26.5t111.5 -77.5t57 -126t16 -169v-402q0 -66 13.5 -92t46.5 -43q33 -12 33 -49zM698 477h-247 q-74 0 -121 -15.5t-74 -41t-37 -58t-10 -65.5v-18q0 -35 10 -68t37 -57.5t73 -40t117 -15.5q121 0 187.5 60.5t64.5 183.5v135zM480 1634q29 0 43 -18l266 -266q18 -18 18 -41t-14 -39q-16 -18 -41 -19q-20 0 -37 15l-235 225l-236 -223q-16 -16 -37 -17q-25 0 -41 21 q-14 14 -14 37q0 25 18 41l267 268q12 16 43 16z" />
<glyph unicode="&#xe3;" horiz-adv-x="1003" d="M922 47q0 -29 -18.5 -44t-45.5 -15q-23 0 -50.5 11t-47.5 32q-16 14 -25.5 32.5t-15.5 38.5q-29 -35 -63.5 -57t-73.5 -34.5t-78 -17.5t-74 -5q-96 0 -162.5 23.5t-108.5 63.5t-61.5 93t-19.5 113v16q0 59 20.5 112.5t63.5 92.5t112.5 61.5t167.5 22.5h256v55 q0 70 -9 122t-35.5 86t-72.5 51.5t-120 17.5q-78 0 -129 -16.5t-92 -39.5q-18 -10 -33 -10q-8 0 -23.5 5t-27 23.5t-7 42t28.5 40.5q113 70 287 69q109 0 179.5 -26.5t111.5 -77.5t57 -126t16 -169v-402q0 -66 13.5 -92t46.5 -43q33 -12 33 -49zM698 477h-247 q-74 0 -121 -15.5t-74 -41t-37 -58t-10 -65.5v-18q0 -35 10 -68t37 -57.5t73 -40t117 -15.5q121 0 187.5 60.5t64.5 183.5v135zM796 1432q0 -25 -14 -47.5t-41 -40t-59.5 -26.5t-69.5 -9q-45 0 -80 12t-65.5 27.5t-60.5 28t-64 12.5q-33 0 -51.5 -9.5t-32 -19.5t-24.5 -20.5 t-30 -10.5q-23 0 -38 18.5t-17 43.5q0 25 14.5 47t41 38.5t59.5 26.5t69 10q45 0 79 -12t65 -27.5t61.5 -27.5t65.5 -12q33 0 51 10t31.5 20.5t25 19.5t29.5 9q23 0 38 -18t17 -43z" />
<glyph unicode="&#xe4;" horiz-adv-x="1003" d="M922 47q0 -29 -18.5 -44t-45.5 -15q-23 0 -50.5 11t-47.5 32q-16 14 -25.5 32.5t-15.5 38.5q-29 -35 -63.5 -57t-73.5 -34.5t-78 -17.5t-74 -5q-96 0 -162.5 23.5t-108.5 63.5t-61.5 93t-19.5 113v16q0 59 20.5 112.5t63.5 92.5t112.5 61.5t167.5 22.5h256v55 q0 70 -9 122t-35.5 86t-72.5 51.5t-120 17.5q-78 0 -129 -16.5t-92 -39.5q-18 -10 -33 -10q-8 0 -23.5 5t-27 23.5t-7 42t28.5 40.5q113 70 287 69q109 0 179.5 -26.5t111.5 -77.5t57 -126t16 -169v-402q0 -66 13.5 -92t46.5 -43q33 -12 33 -49zM698 477h-247 q-74 0 -121 -15.5t-74 -41t-37 -58t-10 -65.5v-18q0 -35 10 -68t37 -57.5t73 -40t117 -15.5q121 0 187.5 60.5t64.5 183.5v135zM239 1370q0 35 24.5 59.5t59.5 24.5t59.5 -24.5t24.5 -59.5t-24.5 -58.5t-59.5 -23.5t-59.5 23.5t-24.5 58.5zM546 1370q0 35 25 59.5t59 24.5 q35 0 59.5 -24.5t24.5 -59.5t-24.5 -58.5t-59.5 -23.5t-59.5 23.5t-24.5 58.5z" />
<glyph unicode="&#xe5;" horiz-adv-x="1003" d="M922 47q0 -29 -18.5 -44t-45.5 -15q-23 0 -50.5 11t-47.5 32q-16 14 -25.5 32.5t-15.5 38.5q-29 -35 -63.5 -57t-73.5 -34.5t-78 -17.5t-74 -5q-96 0 -162.5 23.5t-108.5 63.5t-61.5 93t-19.5 113v16q0 59 20.5 112.5t63.5 92.5t112.5 61.5t167.5 22.5h256v55 q0 70 -9 122t-35.5 86t-72.5 51.5t-120 17.5q-78 0 -129 -16.5t-92 -39.5q-18 -10 -33 -10q-8 0 -23.5 5t-27 23.5t-7 42t28.5 40.5q113 70 287 69q109 0 179.5 -26.5t111.5 -77.5t57 -126t16 -169v-402q0 -66 13.5 -92t46.5 -43q33 -12 33 -49zM698 477h-247 q-74 0 -121 -15.5t-74 -41t-37 -58t-10 -65.5v-18q0 -35 10 -68t37 -57.5t73 -40t117 -15.5q121 0 187.5 60.5t64.5 183.5v135zM704 1409q0 -49 -18.5 -93t-51 -76t-75.5 -50.5t-92 -18.5t-92 18.5t-76 50.5t-51.5 76t-18.5 93t18.5 93t51.5 76t76 50.5t92 18.5t92 -18.5 t75.5 -50.5t51 -76t18.5 -93zM616 1409q0 63 -45 106.5t-104 43.5t-104.5 -43t-45.5 -107q0 -63 45 -106t105 -43q59 0 104 43t45 106z" />
<glyph unicode="&#xe6;" horiz-adv-x="1574" d="M1477 528q0 -25 -15.5 -40t-38.5 -15h-594v-65q0 -137 61.5 -220.5t201.5 -83.5q92 0 155.5 18.5t114.5 47.5q23 14 44 5t32 -32q10 -20 4 -40.5t-29 -34.5q-131 -80 -326 -80q-123 0 -201.5 46t-121.5 124q-25 -51 -65 -84t-86 -52.5t-93 -26.5t-90 -7 q-96 0 -162.5 23.5t-108.5 63.5t-61.5 93t-19.5 113v14q0 59 20.5 111.5t63.5 91.5t112.5 61.5t167.5 22.5h256v59q0 70 -9 122t-35.5 86t-72.5 51.5t-120 17.5q-78 0 -129 -15.5t-92 -40.5q-18 -10 -33 -10q-10 -2 -25.5 5t-25.5 30q-10 16 -6 37.5t28 38.5q113 70 287 69 q131 0 205.5 -40t109.5 -111q43 70 118 110.5t192 40.5q109 0 183.5 -33.5t119.5 -92t64.5 -135.5t19.5 -163v-80zM1350 621q0 68 -13.5 123t-44 92.5t-80 59.5t-122.5 22q-139 0 -200 -82t-61 -218v-36h521v39zM698 473h-247q-74 0 -121 -15.5t-74 -41t-37 -58t-10 -65.5 v-14q0 -35 10 -68t37 -57.5t73 -40t117 -15.5q121 0 187.5 60.5t64.5 183.5v131z" />
<glyph unicode="&#xe7;" horiz-adv-x="849" d="M778 891q-10 -18 -30.5 -25.5t-45.5 4.5q-41 23 -87 33t-101 10q-129 0 -199.5 -91t-70.5 -236v-152q0 -154 66.5 -241t201.5 -87q51 0 99 10.5t96 37.5q27 12 47 4t30 -29q10 -23 4 -45.5t-28 -34.5q-53 -29 -110.5 -43t-112.5 -16v-66q63 0 106 -12t69.5 -34.5 t39 -53.5t12.5 -66q0 -78 -62.5 -124t-173.5 -46q-133 0 -133 47q0 23 28 29t75 6q78 0 114.5 27t36.5 67q0 47 -33.5 65.5t-101.5 23.5q-41 4 -54.5 15t-10.5 42l6 82q-90 8 -153.5 45t-105.5 95t-61.5 136t-19.5 170v142q0 92 24.5 174t73.5 143t123 97t172 36 q63 0 128.5 -12t121.5 -47q23 -12 28.5 -34.5t-8.5 -45.5z" />
<glyph unicode="&#xe8;" horiz-adv-x="989" d="M891 524q0 -27 -15.5 -41t-37.5 -14h-594v-61q0 -137 61.5 -220.5t200.5 -83.5q92 0 155.5 18.5t114.5 47.5q23 14 44.5 5t31.5 -32q10 -20 5 -40.5t-28 -34.5q-70 -41 -150.5 -60.5t-174.5 -19.5q-106 0 -181 33.5t-121 92t-66.5 136.5t-20.5 164v190q0 86 21.5 164 t67.5 136.5t119.5 93t180.5 34.5q109 0 183.5 -33.5t119.5 -92t64.5 -135.5t19.5 -163v-84zM764 621q0 135 -57.5 216t-202.5 81q-139 0 -199.5 -82t-60.5 -218v-38h520v41zM399 1634q14 8 33 8q37 0 53 -32l172 -310q6 -12 6 -26q0 -35 -28 -47q-10 -8 -27 -8q-31 0 -49 30 l-183 303q-8 10 -8 31q0 14 7.5 28.5t23.5 22.5z" />
<glyph unicode="&#xe9;" horiz-adv-x="989" d="M891 524q0 -27 -15.5 -41t-37.5 -14h-594v-61q0 -137 61.5 -220.5t200.5 -83.5q92 0 155.5 18.5t114.5 47.5q23 14 44.5 5t31.5 -32q10 -20 5 -40.5t-28 -34.5q-70 -41 -150.5 -60.5t-174.5 -19.5q-106 0 -181 33.5t-121 92t-66.5 136.5t-20.5 164v190q0 86 21.5 164 t67.5 136.5t119.5 93t180.5 34.5q109 0 183.5 -33.5t119.5 -92t64.5 -135.5t19.5 -163v-84zM764 621q0 135 -57.5 216t-202.5 81q-139 0 -199.5 -82t-60.5 -218v-38h520v41zM624 1634q16 -8 23.5 -22.5t7.5 -28.5q0 -20 -8 -31l-182 -303q-18 -31 -49 -30q-16 0 -27 8 q-29 12 -29 47q0 14 6 26l172 310q16 33 54 32q18 0 32 -8z" />
<glyph unicode="&#xea;" horiz-adv-x="989" d="M891 524q0 -27 -15.5 -41t-37.5 -14h-594v-61q0 -137 61.5 -220.5t200.5 -83.5q92 0 155.5 18.5t114.5 47.5q23 14 44.5 5t31.5 -32q10 -20 5 -40.5t-28 -34.5q-70 -41 -150.5 -60.5t-174.5 -19.5q-106 0 -181 33.5t-121 92t-66.5 136.5t-20.5 164v190q0 86 21.5 164 t67.5 136.5t119.5 93t180.5 34.5q109 0 183.5 -33.5t119.5 -92t64.5 -135.5t19.5 -163v-84zM764 621q0 135 -57.5 216t-202.5 81q-139 0 -199.5 -82t-60.5 -218v-38h520v41zM510 1634q29 0 43 -18l266 -266q18 -18 18 -41t-14 -39q-16 -18 -41 -19q-20 0 -37 15l-235 225 l-236 -223q-16 -16 -37 -17q-25 0 -41 21q-14 14 -14 37q0 25 18 41l267 268q12 16 43 16z" />
<glyph unicode="&#xeb;" horiz-adv-x="989" d="M891 524q0 -27 -15.5 -41t-37.5 -14h-594v-61q0 -137 61.5 -220.5t200.5 -83.5q92 0 155.5 18.5t114.5 47.5q23 14 44.5 5t31.5 -32q10 -20 5 -40.5t-28 -34.5q-70 -41 -150.5 -60.5t-174.5 -19.5q-106 0 -181 33.5t-121 92t-66.5 136.5t-20.5 164v190q0 86 21.5 164 t67.5 136.5t119.5 93t180.5 34.5q109 0 183.5 -33.5t119.5 -92t64.5 -135.5t19.5 -163v-84zM764 621q0 135 -57.5 216t-202.5 81q-139 0 -199.5 -82t-60.5 -218v-38h520v41zM266 1370q0 35 24.5 59.5t59.5 24.5t59.5 -24.5t24.5 -59.5t-24.5 -58.5t-59.5 -23.5t-59.5 23.5 t-24.5 58.5zM573 1370q0 35 25 59.5t59 24.5q35 0 59.5 -24.5t24.5 -59.5t-24.5 -58.5t-59.5 -23.5t-59.5 23.5t-24.5 58.5z" />
<glyph unicode="&#xec;" horiz-adv-x="428" d="M281 53q0 -29 -19.5 -47t-46.5 -18q-29 0 -47 18.5t-18 46.5v912q0 29 18 47t47 18q27 0 46.5 -18.5t19.5 -46.5v-912v0zM115 1634q14 8 33 8q37 0 53 -32l172 -310q6 -12 6 -26q0 -35 -28 -47q-10 -8 -27 -8q-31 0 -49 30l-183 303q-8 10 -8 31q0 14 7.5 28.5t23.5 22.5 z" />
<glyph unicode="&#xed;" horiz-adv-x="428" d="M281 53q0 -29 -19.5 -47t-46.5 -18q-29 0 -47 18.5t-18 46.5v912q0 29 18 47t47 18q27 0 46.5 -18.5t19.5 -46.5v-912v0zM329 1634q16 -8 23.5 -22.5t7.5 -28.5q0 -20 -8 -31l-182 -303q-18 -31 -49 -30q-16 0 -27 8q-29 12 -29 47q0 14 6 26l172 310q16 33 54 32 q18 0 32 -8z" />
<glyph unicode="&#xee;" horiz-adv-x="428" d="M281 53q0 -29 -19.5 -47t-46.5 -18q-29 0 -47 18.5t-18 46.5v912q0 29 18 47t47 18q27 0 46.5 -18.5t19.5 -46.5v-912v0zM217 1634q29 0 43 -18l266 -266q18 -18 18 -41t-14 -39q-16 -18 -41 -19q-20 0 -37 15l-235 225l-236 -223q-16 -16 -37 -17q-25 0 -41 21 q-14 14 -14 37q0 25 18 41l267 268q12 16 43 16z" />
<glyph unicode="&#xef;" horiz-adv-x="428" d="M281 53q0 -29 -19.5 -47t-46.5 -18q-29 0 -47 18.5t-18 46.5v912q0 29 18 47t47 18q27 0 46.5 -18.5t19.5 -46.5v-912v0zM-19 1370q0 35 24.5 59.5t59.5 24.5t59.5 -24.5t24.5 -59.5t-24.5 -58.5t-59.5 -23.5t-59.5 23.5t-24.5 58.5zM288 1370q0 35 25 59.5t59 24.5 q35 0 59.5 -24.5t24.5 -59.5t-24.5 -58.5t-59.5 -23.5t-59.5 23.5t-24.5 58.5z" />
<glyph unicode="&#xf0;" horiz-adv-x="1112" d="M1010 492q0 -129 -37 -225.5t-100.5 -159t-147.5 -94t-176 -31.5q-100 0 -182 33.5t-140.5 96t-91.5 150.5t-33 195q0 111 40 192.5t103.5 136t142.5 82t155 27.5q72 0 141.5 -20.5t128.5 -57.5q-41 111 -103.5 209t-148.5 184l-188 -143q-18 -14 -40 -11t-36 21 q-12 16 -9 38t19 36l174 131q-57 55 -119 100q-29 20 -28 52q0 29 19.5 48t45.5 19q23 0 39 -14q41 -29 78 -59.5t72 -63.5l172 129q18 12 39.5 9t36.5 -19q12 -18 9 -40t-22 -36l-155 -119q160 -166 251 -365.5t91 -430.5zM879 492q0 84 -17 172q-66 57 -143.5 83.5 t-163.5 26.5q-57 0 -114.5 -20.5t-103.5 -60.5t-75 -99t-29 -137q0 -162 86.5 -256.5t229.5 -94.5q66 0 126 23t105 69t72 119t27 175z" />
<glyph unicode="&#xf1;" horiz-adv-x="1095" d="M946 57q2 -35 -17.5 -52t-47.5 -17q-29 0 -47.5 18.5t-18.5 46.5v602q0 57 -9 103.5t-33.5 79t-66.5 51t-108 18.5q-104 0 -176 -42t-113 -111v-701q0 -29 -18.5 -47t-46.5 -18q-27 0 -46.5 18.5t-19.5 46.5v723q0 66 -15.5 91.5t-49.5 41.5q-33 20 -33 49 q0 31 18.5 45.5t46.5 14.5q20 0 48 -10.5t51 -30.5q33 -31 47 -76q53 61 133 95t192 34q96 0 160 -28.5t101.5 -78t53 -117t15.5 -142.5v-607zM876 1432q0 -25 -14 -47.5t-41 -40t-59.5 -26.5t-69.5 -9q-45 0 -80 12t-65.5 27.5t-60.5 28t-64 12.5q-33 0 -51.5 -9.5 t-32 -19.5t-24.5 -20.5t-30 -10.5q-23 0 -38 18.5t-17 43.5q0 25 14.5 47t41 38.5t59.5 26.5t69 10q45 0 79 -12t65 -27.5t61.5 -27.5t65.5 -12q33 0 51 10t31.5 20.5t25 19.5t29.5 9q23 0 38 -18t17 -43z" />
<glyph unicode="&#xf2;" horiz-adv-x="1024" d="M909 406q0 -86 -22.5 -162t-69.5 -133.5t-123 -90t-182 -32.5t-182 32.5t-123 90t-69.5 133t-22.5 162.5v206q0 86 22.5 163t69.5 133.5t123 89t182 32.5t182 -32.5t123 -89t69.5 -133.5t22.5 -163v-206zM780 612q0 135 -62.5 215t-205.5 80q-145 0 -206.5 -81 t-61.5 -214v-206q0 -133 61.5 -214t206.5 -81q143 0 205.5 79.5t62.5 215.5v206zM412 1634q14 8 33 8q37 0 53 -32l172 -310q6 -12 6 -26q0 -35 -28 -47q-10 -8 -27 -8q-31 0 -49 30l-183 303q-8 10 -8 31q0 14 7.5 28.5t23.5 22.5z" />
<glyph unicode="&#xf3;" horiz-adv-x="1024" d="M909 406q0 -86 -22.5 -162t-69.5 -133.5t-123 -90t-182 -32.5t-182 32.5t-123 90t-69.5 133t-22.5 162.5v206q0 86 22.5 163t69.5 133.5t123 89t182 32.5t182 -32.5t123 -89t69.5 -133.5t22.5 -163v-206zM780 612q0 135 -62.5 215t-205.5 80q-145 0 -206.5 -81 t-61.5 -214v-206q0 -133 61.5 -214t206.5 -81q143 0 205.5 79.5t62.5 215.5v206zM620 1634q16 -8 23.5 -22.5t7.5 -28.5q0 -20 -8 -31l-182 -303q-18 -31 -49 -30q-16 0 -27 8q-29 12 -29 47q0 14 6 26l172 310q16 33 54 32q18 0 32 -8z" />
<glyph unicode="&#xf4;" horiz-adv-x="1024" d="M909 406q0 -86 -22.5 -162t-69.5 -133.5t-123 -90t-182 -32.5t-182 32.5t-123 90t-69.5 133t-22.5 162.5v206q0 86 22.5 163t69.5 133.5t123 89t182 32.5t182 -32.5t123 -89t69.5 -133.5t22.5 -163v-206zM780 612q0 135 -62.5 215t-205.5 80q-145 0 -206.5 -81 t-61.5 -214v-206q0 -133 61.5 -214t206.5 -81q143 0 205.5 79.5t62.5 215.5v206zM512 1634q29 0 43 -18l266 -266q18 -18 18 -41t-14 -39q-16 -18 -41 -19q-20 0 -37 15l-235 225l-236 -223q-16 -16 -37 -17q-25 0 -41 21q-14 14 -14 37q0 25 18 41l267 268q12 16 43 16z " />
<glyph unicode="&#xf5;" horiz-adv-x="1024" d="M909 406q0 -86 -22.5 -162t-69.5 -133.5t-123 -90t-182 -32.5t-182 32.5t-123 90t-69.5 133t-22.5 162.5v206q0 86 22.5 163t69.5 133.5t123 89t182 32.5t182 -32.5t123 -89t69.5 -133.5t22.5 -163v-206zM780 612q0 135 -62.5 215t-205.5 80q-145 0 -206.5 -81 t-61.5 -214v-206q0 -133 61.5 -214t206.5 -81q143 0 205.5 79.5t62.5 215.5v206zM837 1432q0 -25 -14 -47.5t-41 -40t-59.5 -26.5t-69.5 -9q-45 0 -80 12t-65.5 27.5t-60.5 28t-64 12.5q-33 0 -51.5 -9.5t-32 -19.5t-24.5 -20.5t-30 -10.5q-23 0 -38 18.5t-17 43.5 q0 25 14.5 47t41 38.5t59.5 26.5t69 10q45 0 79 -12t65 -27.5t61.5 -27.5t65.5 -12q33 0 51 10t31.5 20.5t25 19.5t29.5 9q23 0 38 -18t17 -43z" />
<glyph unicode="&#xf6;" horiz-adv-x="1024" d="M909 406q0 -86 -22.5 -162t-69.5 -133.5t-123 -90t-182 -32.5t-182 32.5t-123 90t-69.5 133t-22.5 162.5v206q0 86 22.5 163t69.5 133.5t123 89t182 32.5t182 -32.5t123 -89t69.5 -133.5t22.5 -163v-206zM780 612q0 135 -62.5 215t-205.5 80q-145 0 -206.5 -81 t-61.5 -214v-206q0 -133 61.5 -214t206.5 -81q143 0 205.5 79.5t62.5 215.5v206zM272 1370q0 35 24.5 59.5t59.5 24.5t59.5 -24.5t24.5 -59.5t-24.5 -58.5t-59.5 -23.5t-59.5 23.5t-24.5 58.5zM579 1370q0 35 25 59.5t59 24.5q35 0 59.5 -24.5t24.5 -59.5t-24.5 -58.5 t-59.5 -23.5t-59.5 23.5t-24.5 58.5z" />
<glyph unicode="&#xf7;" horiz-adv-x="1144" d="M670 911q0 -41 -29 -69.5t-70 -28.5t-69.5 28.5t-28.5 69.5t28.5 70t69.5 29t70 -29t29 -70zM965 559q0 -27 -18.5 -45t-45.5 -18h-657q-27 0 -45.5 18t-18.5 45t18.5 44.5t45.5 17.5h657q27 0 45.5 -17.5t18.5 -44.5zM670 205q0 -41 -29 -70t-70 -29t-69.5 29t-28.5 70 t28.5 70.5t69.5 29.5t70 -29.5t29 -70.5z" />
<glyph unicode="&#xf8;" horiz-adv-x="1024" d="M909 406q0 -86 -22.5 -162t-69.5 -133.5t-123 -90t-182 -32.5q-49 0 -91 7t-77 19l-33 -73q-10 -16 -27.5 -23.5t-35.5 0.5t-25.5 26.5t0.5 35.5l37 81q-78 55 -111.5 145.5t-33.5 199.5v206q0 86 22.5 163t69.5 133.5t123 89t182 32.5q100 0 168 -26l33 75 q10 18 27.5 24.5t35.5 0.5q18 -10 25.5 -27.5t-0.5 -36.5l-37 -79q78 -59 111.5 -149.5t33.5 -199.5v-206zM629 889q-49 18 -117 18q-145 0 -206.5 -81t-61.5 -214v-206q0 -70 17.5 -124.5t55.5 -88.5zM780 612q0 70 -18.5 125.5t-56.5 89.5l-312 -696q27 -10 55.5 -15 t63.5 -5q143 0 205.5 79.5t62.5 215.5v206z" />
<glyph unicode="&#xf9;" horiz-adv-x="1095" d="M1016 47q0 -29 -19.5 -44t-46.5 -15q-20 0 -49 11t-49 32q-39 35 -51 84q-53 -59 -132 -93t-190 -34q-96 0 -160.5 28.5t-102.5 78.5t-53.5 117t-15.5 144v609q0 29 19.5 47t46.5 18q29 0 47.5 -18.5t18.5 -46.5v-600q0 -59 9 -105.5t33.5 -78t67.5 -49t109 -17.5 q111 0 181.5 44t104.5 117v689q0 29 18.5 47t47.5 18t47 -18.5t18 -46.5v-734q0 -68 15.5 -93t50.5 -40q35 -16 35 -51zM412 1634q14 8 33 8q37 0 53 -32l172 -310q6 -12 6 -26q0 -35 -28 -47q-10 -8 -27 -8q-31 0 -49 30l-183 303q-8 10 -8 31q0 14 7.5 28.5t23.5 22.5z " />
<glyph unicode="&#xfa;" horiz-adv-x="1095" d="M1016 47q0 -29 -19.5 -44t-46.5 -15q-20 0 -49 11t-49 32q-39 35 -51 84q-53 -59 -132 -93t-190 -34q-96 0 -160.5 28.5t-102.5 78.5t-53.5 117t-15.5 144v609q0 29 19.5 47t46.5 18q29 0 47.5 -18.5t18.5 -46.5v-600q0 -59 9 -105.5t33.5 -78t67.5 -49t109 -17.5 q111 0 181.5 44t104.5 117v689q0 29 18.5 47t47.5 18t47 -18.5t18 -46.5v-734q0 -68 15.5 -93t50.5 -40q35 -16 35 -51zM647 1634q16 -8 23.5 -22.5t7.5 -28.5q0 -20 -8 -31l-182 -303q-18 -31 -49 -30q-16 0 -27 8q-29 12 -29 47q0 14 6 26l172 310q16 33 54 32q18 0 32 -8 z" />
<glyph unicode="&#xfb;" horiz-adv-x="1095" d="M1016 47q0 -29 -19.5 -44t-46.5 -15q-20 0 -49 11t-49 32q-39 35 -51 84q-53 -59 -132 -93t-190 -34q-96 0 -160.5 28.5t-102.5 78.5t-53.5 117t-15.5 144v609q0 29 19.5 47t46.5 18q29 0 47.5 -18.5t18.5 -46.5v-600q0 -59 9 -105.5t33.5 -78t67.5 -49t109 -17.5 q111 0 181.5 44t104.5 117v689q0 29 18.5 47t47.5 18t47 -18.5t18 -46.5v-734q0 -68 15.5 -93t50.5 -40q35 -16 35 -51zM535 1634q29 0 43 -18l266 -266q18 -18 18 -41t-14 -39q-16 -18 -41 -19q-20 0 -37 15l-235 225l-236 -223q-16 -16 -37 -17q-25 0 -41 21 q-14 14 -14 37q0 25 18 41l267 268q12 16 43 16z" />
<glyph unicode="&#xfc;" horiz-adv-x="1095" d="M1016 47q0 -29 -19.5 -44t-46.5 -15q-20 0 -49 11t-49 32q-39 35 -51 84q-53 -59 -132 -93t-190 -34q-96 0 -160.5 28.5t-102.5 78.5t-53.5 117t-15.5 144v609q0 29 19.5 47t46.5 18q29 0 47.5 -18.5t18.5 -46.5v-600q0 -59 9 -105.5t33.5 -78t67.5 -49t109 -17.5 q111 0 181.5 44t104.5 117v689q0 29 18.5 47t47.5 18t47 -18.5t18 -46.5v-734q0 -68 15.5 -93t50.5 -40q35 -16 35 -51zM295 1370q0 35 24.5 59.5t59.5 24.5t59.5 -24.5t24.5 -59.5t-24.5 -58.5t-59.5 -23.5t-59.5 23.5t-24.5 58.5zM602 1370q0 35 25 59.5t59 24.5 q35 0 59.5 -24.5t24.5 -59.5t-24.5 -58.5t-59.5 -23.5t-59.5 23.5t-24.5 58.5z" />
<glyph unicode="&#xfd;" horiz-adv-x="909" d="M584 139q-47 -133 -97.5 -229t-110 -159.5t-132 -94.5t-164.5 -31q-35 0 -49.5 19.5t-14.5 44.5q0 23 15.5 44t46.5 21q47 0 89 11.5t81 39t74.5 72.5t70.5 115q-111 270 -201 511.5t-155 446.5q-4 12 -4 21q0 29 20.5 44t44.5 15q18 0 35 -10t25 -33q59 -180 134 -388 t167 -443l284 831q8 25 25.5 34t34.5 9q27 0 47 -16.5t20 -44.5q0 -8 -4 -25zM606 1634q16 -8 23.5 -22.5t7.5 -28.5q0 -20 -8 -31l-182 -303q-18 -31 -49 -30q-16 0 -27 8q-29 12 -29 47q0 14 6 26l172 310q16 33 54 32q18 0 32 -8z" />
<glyph unicode="&#xfe;" horiz-adv-x="999" d="M885 432q0 -98 -19.5 -180t-62.5 -141.5t-111.5 -92t-169.5 -32.5q-55 0 -124.5 19.5t-133.5 70.5v-387q0 -27 -19.5 -46.5t-45.5 -19.5q-29 0 -47.5 19.5t-18.5 46.5v1761q0 29 18.5 47.5t47.5 18.5q27 0 46 -18.5t19 -47.5v-502q121 82 252 82q199 0 284 -105.5 t85 -295.5v-197zM756 633q0 139 -56.5 208.5t-197.5 69.5q-53 0 -115.5 -22.5t-122.5 -73.5v-602q59 -63 126 -86t118 -23q131 0 189.5 81t58.5 233v215z" />
<glyph unicode="&#xff;" horiz-adv-x="909" d="M584 139q-47 -133 -97.5 -229t-110 -159.5t-132 -94.5t-164.5 -31q-35 0 -49.5 19.5t-14.5 44.5q0 23 15.5 44t46.5 21q47 0 89 11.5t81 39t74.5 72.5t70.5 115q-111 270 -201 511.5t-155 446.5q-4 12 -4 21q0 29 20.5 44t44.5 15q18 0 35 -10t25 -33q59 -180 134 -388 t167 -443l284 831q8 25 25.5 34t34.5 9q27 0 47 -16.5t20 -44.5q0 -8 -4 -25zM223 1370q0 35 24.5 59.5t59.5 24.5t59.5 -24.5t24.5 -59.5t-24.5 -58.5t-59.5 -23.5t-59.5 23.5t-24.5 58.5zM530 1370q0 35 25 59.5t59 24.5q35 0 59.5 -24.5t24.5 -59.5t-24.5 -58.5 t-59.5 -23.5t-59.5 23.5t-24.5 58.5z" />
<glyph unicode="&#x131;" horiz-adv-x="428" d="M281 53q0 -29 -19.5 -47t-46.5 -18q-29 0 -47 18.5t-18 46.5v912q0 29 18 47t47 18q27 0 46.5 -18.5t19.5 -46.5v-912v0z" />
<glyph unicode="&#x152;" horiz-adv-x="1953" d="M1872 66q0 -29 -18.5 -47.5t-45.5 -18.5h-737q-29 0 -47 18.5t-18 44.5v76q-55 -68 -142.5 -111.5t-222.5 -43.5q-141 0 -237.5 47t-155 124.5t-84 177t-25.5 204.5v421q0 104 25.5 204t84 177.5t155 124.5t237.5 47q137 0 224 -46t141 -111v73q0 27 18 46.5t47 19.5h707 q27 0 45 -19.5t18 -46.5q0 -29 -18.5 -47t-44.5 -18h-637v-553h579q27 0 45.5 -18.5t18.5 -45.5t-18.5 -45t-45.5 -18h-579v-553h667q27 0 45.5 -18t18.5 -45zM1006 958q0 88 -18.5 166t-61.5 136.5t-113 92t-172 33.5t-173 -33.5t-114 -92t-61.5 -136t-18.5 -166.5v-421 q0 -88 18.5 -167t61.5 -137.5t114 -92.5t173 -34t172 34t113 92.5t61.5 137.5t18.5 167v421z" />
<glyph unicode="&#x153;" horiz-adv-x="1654" d="M1556 524q0 -27 -15 -41t-38 -14h-594v-61q0 -135 61.5 -219.5t200.5 -84.5q92 0 156 17.5t115 48.5q23 12 44 4t32 -31q10 -20 4 -41.5t-29 -33.5q-131 -80 -326 -80q-123 0 -201.5 48t-119.5 126q-45 -78 -125 -126t-209 -48q-106 0 -182 32.5t-123 90t-69.5 133 t-22.5 162.5v206q0 86 22.5 163t69.5 133.5t123 89t182 32.5q129 0 210 -48t124 -128q41 80 118.5 128t202.5 48q111 0 184.5 -33.5t120 -91t65.5 -134.5t19 -163v-84zM1427 621q0 135 -56 217t-202 82q-139 0 -199.5 -83t-60.5 -219v-38h518v41zM780 612q0 135 -62.5 215 t-205.5 80q-145 0 -206.5 -81t-61.5 -214v-206q0 -133 61.5 -214t206.5 -81q143 0 205.5 79.5t62.5 215.5v206z" />
<glyph unicode="&#x178;" horiz-adv-x="1007" d="M1008 1446q0 -12 -7 -27q-80 -186 -187 -403t-245 -471v-496q0 -29 -19.5 -48t-47.5 -19q-29 0 -48.5 19t-19.5 48v496q-135 252 -241.5 468t-186.5 402q-6 14 -6 31q0 29 21.5 47t48.5 18q16 0 32.5 -9t26.5 -32q72 -166 165 -357t210 -413q119 221 212 413t165 357 q18 41 57 41q27 0 48.5 -18t21.5 -47zM262 1792q0 35 24.5 59.5t59.5 24.5t59.5 -24.5t24.5 -59.5t-24.5 -58.5t-59.5 -23.5t-59.5 23.5t-24.5 58.5zM569 1792q0 35 25 59.5t59 24.5q35 0 59.5 -24.5t24.5 -59.5t-24.5 -58.5t-59.5 -23.5t-59.5 23.5t-24.5 58.5z" />
<glyph unicode="&#x2c6;" horiz-adv-x="1085" d="M543 1634q29 0 43 -18l266 -266q18 -18 18 -41t-14 -39q-16 -18 -41 -19q-20 0 -37 15l-235 225l-236 -223q-16 -16 -37 -17q-25 0 -41 21q-14 14 -14 37q0 25 18 41l267 268q12 16 43 16z" />
<glyph unicode="&#x2da;" horiz-adv-x="1085" d="M780 1409q0 -49 -18.5 -93t-51 -76t-75.5 -50.5t-92 -18.5t-92 18.5t-76 50.5t-51.5 76t-18.5 93t18.5 93t51.5 76t76 50.5t92 18.5t92 -18.5t75.5 -50.5t51 -76t18.5 -93zM692 1409q0 63 -45 106.5t-104 43.5t-104.5 -43t-45.5 -107q0 -63 45 -106t105 -43q59 0 104 43 t45 106z" />
<glyph unicode="&#x2dc;" horiz-adv-x="1085" d="M866 1432q0 -25 -14 -47.5t-41 -40t-59.5 -26.5t-69.5 -9q-45 0 -80 12t-65.5 27.5t-60.5 28t-64 12.5q-33 0 -51.5 -9.5t-32 -19.5t-24.5 -20.5t-30 -10.5q-23 0 -38 18.5t-17 43.5q0 25 14.5 47t41 38.5t59.5 26.5t69 10q45 0 79 -12t65 -27.5t61.5 -27.5t65.5 -12 q33 0 51 10t31.5 20.5t25 19.5t29.5 9q23 0 38 -18t17 -43z" />
<glyph unicode="&#x2000;" horiz-adv-x="1027" />
<glyph unicode="&#x2001;" horiz-adv-x="2055" />
<glyph unicode="&#x2002;" horiz-adv-x="1027" />
<glyph unicode="&#x2003;" horiz-adv-x="2055" />
<glyph unicode="&#x2004;" horiz-adv-x="685" />
<glyph unicode="&#x2005;" horiz-adv-x="513" />
<glyph unicode="&#x2006;" horiz-adv-x="342" />
<glyph unicode="&#x2007;" horiz-adv-x="342" />
<glyph unicode="&#x2008;" horiz-adv-x="256" />
<glyph unicode="&#x2009;" horiz-adv-x="411" />
<glyph unicode="&#x200a;" horiz-adv-x="114" />
<glyph unicode="&#x2010;" horiz-adv-x="985" d="M831 600q0 -27 -17 -44t-44 -17h-555q-25 0 -43 17t-18 44t18 45.5t43 18.5h555q27 0 44 -18.5t17 -45.5z" />
<glyph unicode="&#x2011;" horiz-adv-x="985" d="M831 600q0 -27 -17 -44t-44 -17h-555q-25 0 -43 17t-18 44t18 45.5t43 18.5h555q27 0 44 -18.5t17 -45.5z" />
<glyph unicode="&#x2012;" horiz-adv-x="985" d="M831 600q0 -27 -17 -44t-44 -17h-555q-25 0 -43 17t-18 44t18 45.5t43 18.5h555q27 0 44 -18.5t17 -45.5z" />
<glyph unicode="&#x2013;" horiz-adv-x="1024" d="M1024 557q0 -27 -18.5 -45t-44.5 -18h-898q-27 0 -45 18t-18 45t18.5 44t44.5 17h898q27 0 45 -17t18 -44z" />
<glyph unicode="&#x2014;" horiz-adv-x="2048" d="M2048 557q0 -27 -18.5 -45t-44.5 -18h-1922q-27 0 -45 18t-18 45t18.5 44t44.5 17h1922q27 0 45 -17t18 -44z" />
<glyph unicode="&#x2018;" horiz-adv-x="370" d="M285 1264q2 -41 -27 -70t-70 -29q-47 0 -74.5 32t-27.5 85t18.5 96t45 74t53 47.5t43.5 16.5q14 0 24.5 -9.5t10.5 -25.5q0 -14 -9.5 -23.5t-21.5 -21t-24.5 -29.5t-16.5 -51q35 -8 55.5 -32.5t20.5 -59.5z" />
<glyph unicode="&#x2019;" horiz-adv-x="370" d="M285 1401q0 -53 -18.5 -96t-45 -74t-53.5 -48.5t-41 -17.5t-25.5 10.5t-11.5 24.5t10.5 24.5t22.5 21.5t24.5 28.5t16.5 50.5q-35 8 -56.5 33.5t-21.5 60.5q0 41 28.5 69t69.5 28q45 2 73 -30t28 -85z" />
<glyph unicode="&#x201a;" horiz-adv-x="370" d="M285 66q0 -53 -18.5 -96t-45 -74t-53.5 -48.5t-41 -17.5t-25.5 10.5t-11.5 24.5t10.5 24.5t22.5 21.5t24.5 28.5t16.5 50.5q-35 8 -56.5 33.5t-21.5 60.5q0 41 28.5 69t69.5 28q45 2 73 -30t28 -85z" />
<glyph unicode="&#x201c;" horiz-adv-x="675" d="M285 1264q2 -41 -27 -70t-70 -29q-47 0 -74.5 32t-27.5 85t18.5 96t45 74t53 47.5t43.5 16.5q14 0 24.5 -9.5t10.5 -25.5q0 -14 -9.5 -23.5t-21.5 -21t-24.5 -29.5t-16.5 -51q35 -8 55.5 -32.5t20.5 -59.5zM588 1264q2 -41 -27 -70t-70 -29q-47 0 -74.5 32t-27.5 85 t18.5 96t45 74t53 47.5t43.5 16.5q14 0 24.5 -9.5t10.5 -25.5q0 -14 -9.5 -23.5t-21.5 -21t-24.5 -29.5t-16.5 -51q35 -8 55.5 -32.5t20.5 -59.5z" />
<glyph unicode="&#x201d;" horiz-adv-x="675" d="M285 1401q0 -53 -18.5 -96t-45 -74t-53.5 -48.5t-41 -17.5t-25.5 10.5t-11.5 24.5t10.5 24.5t22.5 21.5t24.5 28.5t16.5 50.5q-35 8 -56.5 33.5t-21.5 60.5q0 41 28.5 69t69.5 28q45 2 73 -30t28 -85zM588 1401q0 -53 -18.5 -96t-45 -74t-53.5 -48.5t-41 -17.5 t-25.5 10.5t-11.5 24.5t10.5 24.5t22.5 21.5t24.5 28.5t16.5 50.5q-35 8 -56.5 33.5t-21.5 60.5q0 41 28.5 69t69.5 28q45 2 73 -30t28 -85z" />
<glyph unicode="&#x201e;" horiz-adv-x="675" d="M285 66q0 -53 -18.5 -96t-45 -74t-53.5 -48.5t-41 -17.5t-25.5 10.5t-11.5 24.5t10.5 24.5t22.5 21.5t24.5 28.5t16.5 50.5q-35 8 -56.5 33.5t-21.5 60.5q0 41 28.5 69t69.5 28q45 2 73 -30t28 -85zM588 66q0 -53 -18.5 -96t-45 -74t-53.5 -48.5t-41 -17.5t-25.5 10.5 t-11.5 24.5t10.5 24.5t22.5 21.5t24.5 28.5t16.5 50.5q-35 8 -56.5 33.5t-21.5 60.5q0 41 28.5 69t69.5 28q45 2 73 -30t28 -85z" />
<glyph unicode="&#x2022;" horiz-adv-x="1021" d="M817 686q0 -74 -27.5 -137.5t-75.5 -111.5t-111.5 -75.5t-137.5 -27.5t-137.5 27.5t-111.5 75.5t-75.5 111.5t-27.5 137.5t27.5 137.5t75.5 111.5t111.5 75.5t137.5 27.5t137.5 -27.5t111.5 -75.5t75.5 -111.5t27.5 -137.5z" />
<glyph unicode="&#x2026;" horiz-adv-x="1417" d="M1178 -18q-47 0 -81 33.5t-34 80.5q0 49 33.5 83t81.5 34q49 0 82.5 -34t33.5 -83q0 -47 -33.5 -80.5t-82.5 -33.5zM709 -18q-47 0 -81 33.5t-34 80.5q0 49 34 83t81 34t80.5 -34t33.5 -83q0 -47 -33.5 -80.5t-80.5 -33.5zM238 -18q-47 0 -81 33.5t-34 80.5q0 49 33.5 83 t81.5 34q47 0 80.5 -34t33.5 -83q0 -47 -33.5 -80.5t-80.5 -33.5z" />
<glyph unicode="&#x202f;" horiz-adv-x="411" />
<glyph unicode="&#x2030;" horiz-adv-x="1640" d="M1522 207q0 -104 -60.5 -164.5t-158.5 -60.5q-92 0 -155 60t-63 165v135q0 104 62.5 164.5t155.5 60.5q98 0 158.5 -60.5t60.5 -164.5v-135zM555 1151q0 -104 -61.5 -164.5t-155.5 -60.5q-96 0 -157.5 60.5t-61.5 164.5v135q0 104 61.5 164.5t157.5 60.5q94 0 155.5 -60 t61.5 -165v-135zM348 12q-6 -18 -25.5 -27.5t-39.5 -0.5q-18 6 -26.5 24.5t-0.5 38.5l522 1434q8 18 26.5 27.5t37.5 0.5q20 -8 28.5 -25.5t1.5 -37.5zM1008 207q0 -104 -61.5 -164.5t-158.5 -60.5q-92 0 -154.5 60t-62.5 165v135q0 104 62.5 164.5t154.5 60.5 q96 0 158 -60.5t62 -164.5v-135zM1425 348q0 59 -33.5 93t-88.5 34q-53 0 -86 -33.5t-33 -93.5v-147q0 -61 32.5 -95t86.5 -34q55 0 88.5 33.5t33.5 95.5v147zM457 1292q0 61 -33 95t-86 34t-87 -33.5t-34 -95.5v-149q0 -59 34 -93t87 -34t86 33.5t33 93.5v149zM911 348 q0 59 -32.5 93t-90.5 34q-53 0 -84.5 -33.5t-31.5 -93.5v-147q0 -61 32.5 -95t83.5 -34q55 0 89 33.5t34 95.5v147z" />
<glyph unicode="&#x2039;" horiz-adv-x="690" d="M573 184q16 -16 17 -43q0 -25 -17.5 -44t-44.5 -19q-25 0 -45 20l-395 410q-18 18 -18 43t18 43l395 410q18 18 45 18t44.5 -18.5t17.5 -45.5q0 -25 -17 -40l-354 -367z" />
<glyph unicode="&#x203a;" horiz-adv-x="690" d="M621 551q0 -23 -19 -43l-395 -412q-18 -18 -45 -18t-45.5 17.5t-18.5 45.5q0 25 19 43l354 367l-354 364q-18 18 -19 43q0 25 17.5 44.5t44.5 19.5q29 0 47 -18l395 -410q19 -18 19 -43z" />
<glyph unicode="&#x205f;" horiz-adv-x="513" />
<glyph unicode="&#x20ac;" d="M1085 176q0 -23 -22 -49q-76 -82 -176.5 -113.5t-192.5 -31.5q-129 0 -221 38.5t-152.5 110.5t-92 172t-40.5 225h-73q-23 0 -39.5 16.5t-16.5 39.5t16.5 39t39.5 16h69v211h-69q-23 0 -39.5 15.5t-16.5 37.5q0 23 16.5 39t39.5 16h73q8 121 41 222.5t95.5 175.5 t156.5 114.5t224 40.5q98 0 192 -30.5t162 -108.5q23 -29 22 -49q0 -23 -16 -42t-49 -21q-20 0 -34.5 14t-37.5 35q-47 41 -107.5 59t-131.5 18q-186 0 -276.5 -111.5t-104.5 -316.5h434q23 0 38 -16t15 -39t-15.5 -38t-37.5 -15h-439v-211h439q23 0 38 -16.5t15 -38.5 q0 -23 -15.5 -39.5t-37.5 -16.5h-434q14 -213 100 -317.5t270 -104.5q68 0 134.5 19.5t119.5 64.5q27 20 41.5 34t36.5 14q29 2 44 -18.5t15 -43.5z" />
<glyph unicode="&#x2122;" horiz-adv-x="1384" d="M1262 786q0 -18 -14.5 -31.5t-33.5 -13.5q-18 0 -31.5 13.5t-13.5 31.5v457l-168 -354q-12 -29 -43 -29t-45 31l-163 352v-457q0 -18 -14.5 -31.5t-33.5 -13.5q-18 0 -31.5 13.5t-13.5 31.5v637q0 20 13.5 33.5t34.5 13.5q31 0 47 -30l209 -441l206 443q16 29 47 28 q18 0 33 -13t15 -34v-637zM602 1415q0 -20 -14.5 -34.5t-32.5 -14.5h-174v-575q0 -23 -14.5 -36.5t-34.5 -13.5t-33.5 13.5t-13.5 36.5v575h-176q-20 0 -34 14.5t-14 34.5q0 18 13.5 32.5t34.5 14.5h446q18 0 32.5 -14.5t14.5 -32.5z" />
<glyph unicode="&#x25fc;" horiz-adv-x="1034" d="M0 1034h1034v-1034h-1034v1034z" />
</font>
</defs>
</svg>
