<?xml version="1.0" standalone="no"?>
<!DOCTYPE svg PUBLIC "-//W3C//DTD SVG 1.1//EN" "http://www.w3.org/Graphics/SVG/1.1/DTD/svg11.dtd" >
<svg xmlns="http://www.w3.org/2000/svg" xmlns:xlink="http://www.w3.org/1999/xlink" version="1.1">
<metadata></metadata>
<defs>
<font id="chevin_stdmedium" horiz-adv-x="1146" >
<font-face units-per-em="2048" ascent="1536" descent="-512" />
<missing-glyph horiz-adv-x="604" />
<glyph unicode="&#xfb01;" horiz-adv-x="1001" d="M852 78q0 -37 -26.5 -62.5t-63.5 -25.5t-62.5 25.5t-25.5 62.5v878q0 39 25.5 65t62.5 26t63.5 -26t26.5 -65v-878zM606 1413q0 -35 -22.5 -58.5t-57.5 -23.5h-26q-47 0 -77 -12t-47.5 -39t-23.5 -70t-6 -106v-70h129q31 0 53.5 -21.5t22.5 -54.5t-22.5 -55t-53.5 -22 h-129v-803q0 -37 -26.5 -62.5t-63.5 -25.5t-62.5 25.5t-25.5 62.5v803h-59q-31 0 -53.5 22.5t-22.5 54.5q0 33 22.5 54.5t53.5 21.5h59v82q0 80 13.5 148.5t47 119t92 80t150.5 29.5h55q35 0 57.5 -23.5t22.5 -56.5zM879 1366q0 -47 -33 -78t-80 -31t-79 31t-32 78t32 80 t79 33t80 -33t33 -80z" />
<glyph unicode="&#xfb02;" horiz-adv-x="1015" d="M940 66q0 -39 -24.5 -57.5t-63.5 -18.5q-25 0 -54.5 10t-56.5 33q-78 68 -77 190v1172q0 37 25.5 63.5t62.5 26.5q39 0 64.5 -26.5t25.5 -63.5v-1141q0 -61 16 -86t47 -41q35 -18 35 -61zM606 1413q0 -35 -22.5 -58.5t-57.5 -23.5h-26q-47 0 -77 -12t-47.5 -39t-23.5 -70 t-6 -106v-70h129q31 0 53.5 -21.5t22.5 -54.5t-22.5 -55t-53.5 -22h-129v-803q0 -37 -26.5 -62.5t-63.5 -25.5t-62.5 25.5t-25.5 62.5v803h-59q-31 0 -53.5 22.5t-22.5 54.5q0 33 22.5 54.5t53.5 21.5h59v82q0 80 13.5 148.5t47 119t92 80t150.5 29.5h55q35 0 57.5 -23.5 t22.5 -56.5z" />
<glyph horiz-adv-x="0" />
<glyph horiz-adv-x="604" />
<glyph unicode=" "  horiz-adv-x="604" />
<glyph unicode="&#x09;" horiz-adv-x="604" />
<glyph unicode="&#xa0;" horiz-adv-x="604" />
<glyph unicode="!" horiz-adv-x="571" d="M373 506q-4 -43 -20.5 -65.5t-57.5 -22.5q-39 0 -55.5 22.5t-20.5 65.5l-20 901q-2 41 22.5 72.5t73.5 31.5q51 0 76.5 -31.5t21.5 -72.5zM426 113q0 -55 -39 -94t-92 -39q-55 0 -94 38.5t-39 94.5q0 53 39 92t94 39q53 0 92 -39t39 -92z" />
<glyph unicode="&#x22;" horiz-adv-x="733" d="M612 1155q-4 -39 -19 -59.5t-52 -20.5t-53.5 20.5t-20.5 59.5l-18 254q-4 39 18 70.5t74 31.5q49 0 70.5 -31.5t17.5 -70.5zM252 1155q-6 -80 -72 -80q-37 0 -53 20.5t-21 59.5l-16 254q-4 39 17.5 70.5t72.5 31.5q49 0 71.5 -31.5t18.5 -70.5z" />
<glyph unicode="#" horiz-adv-x="1523" d="M1456 1032q0 -35 -24.5 -59.5t-59.5 -24.5h-231l-62 -407h205q35 0 59.5 -24.5t24.5 -59.5t-24.5 -59.5t-59.5 -24.5h-231l-47 -322q-6 -35 -34 -55.5t-63 -13.5q-35 4 -55 32.5t-16 63.5l45 295h-371l-49 -322q-4 -35 -33 -55.5t-63 -13.5q-35 4 -55.5 32.5t-16.5 63.5 l45 295h-207q-35 0 -59.5 24.5t-24.5 59.5t24.5 59.5t59.5 24.5h232l63 407h-207q-35 0 -59.5 24.5t-24.5 59.5t24.5 59.5t59.5 24.5h232l49 324q6 35 34.5 55.5t63.5 15.5q35 -6 54.5 -34.5t15.5 -63.5l-45 -297h370l49 324q4 35 33 55.5t64 15.5q35 -6 55.5 -34.5 t15.5 -63.5l-45 -297h205q35 0 59.5 -24.5t24.5 -59.5zM598 948l-61 -407h372l60 407h-371z" />
<glyph unicode="$" d="M1067 438q0 -199 -119 -314.5t-323 -137.5v-138q0 -31 -22.5 -53t-53.5 -22q-33 0 -54.5 22.5t-21.5 52.5v134q-98 4 -178 17t-154 46q-31 12 -45 35.5t-14 48.5q0 35 22.5 61.5t59.5 26.5q14 0 28.5 -5t34 -13.5t46 -16.5t65.5 -16q35 -8 79 -13.5t103 -5.5 q188 0 275.5 77t87.5 200q0 92 -48.5 141t-150.5 78q-41 12 -95 23.5t-111.5 23.5t-112 26.5t-97.5 35.5q-80 41 -131 114.5t-51 204.5q0 92 28.5 166t79 129t122 90t157.5 47v142q0 29 21.5 52t54.5 23q31 0 53.5 -23.5t22.5 -51.5v-136q78 -2 148.5 -14t135.5 -41 q31 -10 45.5 -33.5t14.5 -48.5q0 -35 -22.5 -61.5t-63.5 -26.5q-25 0 -55.5 14.5t-96.5 28.5q-29 6 -65.5 10t-87.5 4q-145 0 -226.5 -68.5t-81.5 -185.5q0 -98 53.5 -144t149.5 -73q49 -12 108.5 -23t121 -23.5t119 -31t98.5 -44.5q147 -97 147 -310z" />
<glyph unicode="%" horiz-adv-x="1159" d="M563 1153q0 -109 -64.5 -168t-158.5 -59q-96 0 -160.5 59t-64.5 168v131q0 109 64.5 168t160.5 59q94 0 158.5 -59t64.5 -168v-131zM375 18q-8 -23 -30.5 -33t-45.5 -1q-23 10 -33 31.5t-2 45.5l518 1414q10 23 33 33t45 -1q23 -8 33 -30.5t2 -44.5zM1044 209 q0 -109 -64.5 -168t-160.5 -59q-94 0 -158.5 59t-64.5 168v131q0 109 64.5 168t158.5 59q96 0 160.5 -59t64.5 -168v-131zM444 1288q0 55 -28.5 85t-75.5 30t-75.5 -30t-28.5 -85v-141q0 -53 28.5 -83t75.5 -30t75.5 30t28.5 83v141zM926 344q0 53 -29 83t-78 30 q-45 0 -73.5 -30t-28.5 -83v-141q0 -55 28.5 -84t73.5 -29q47 0 77 28.5t30 84.5v141z" />
<glyph unicode="&#x26;" horiz-adv-x="1275" d="M1217 68q0 -37 -27 -62.5t-62 -25.5q-43 0 -71 38l-101 132q-76 -76 -180 -123t-246 -47q-109 0 -189.5 35.5t-133.5 95t-79 136.5t-26 156q0 84 27 152t72 122t100 97t115 80q-59 78 -105.5 161t-46.5 173q0 86 32 147.5t83 100.5t113.5 57t123.5 18q145 0 238 -53 q57 -33 92 -81t35 -85t-25.5 -61.5t-60.5 -24.5q-23 0 -34 10.5t-25 26.5q-20 25 -58 51q-31 23 -69.5 40.5t-90.5 17.5q-31 0 -61.5 -11.5t-55 -33t-40 -53t-15.5 -74.5q0 -33 13.5 -67t34 -65.5t44 -62.5t44.5 -57l374 -488q29 59 43.5 125t18.5 127q4 35 28.5 57.5 t59.5 22.5t60.5 -24.5t25.5 -63.5q-2 -39 -9 -88t-22.5 -101.5t-37 -105.5t-52.5 -100l125 -164q21 -26 21 -57zM518 723q-102 -57 -172 -132t-70 -183q0 -55 17.5 -102.5t50.5 -83.5t82 -56.5t115 -20.5q104 0 181 39t130 101z" />
<glyph unicode="'" horiz-adv-x="387" d="M264 1155q-4 -39 -19.5 -59.5t-49.5 -20.5q-37 0 -53.5 20.5t-20.5 59.5l-19 254q-4 39 18.5 70.5t74.5 31.5q49 0 70.5 -31.5t17.5 -70.5z" />
<glyph unicode="(" horiz-adv-x="606" d="M502 -279q0 -41 -25.5 -66.5t-62.5 -25.5q-20 0 -39 9.5t-35 33.5q-70 111 -117 234t-75.5 250t-41 254t-12.5 247q0 121 12.5 249t41 255t75.5 249t117 232q29 45 74 46q37 0 62.5 -26t25.5 -67q0 -29 -17 -65q-115 -201 -160.5 -424t-45.5 -449q0 -223 46 -447 t160 -425q17 -33 17 -64z" />
<glyph unicode=")" horiz-adv-x="606" d="M512 657q0 -121 -12.5 -247.5t-41 -253.5t-75.5 -250t-115 -234q-16 -25 -35.5 -34t-39.5 -9q-37 0 -63 26t-26 66q0 14 3.5 31t13.5 33q117 201 162 425t45 447q0 225 -45 448.5t-162 424.5q-10 16 -13.5 33.5t-3.5 31.5q0 41 26 67t63 26q45 0 75 -46 q68 -111 115 -232.5t75.5 -248.5t41 -255t12.5 -249z" />
<glyph unicode="*" horiz-adv-x="985" d="M883 1227q12 -41 -7.5 -65.5t-50.5 -31.5l-235 -61l155 -188q20 -25 21.5 -56.5t-33.5 -54.5q-33 -27 -62.5 -16.5t-45.5 39.5l-133 204l-132 -204q-16 -29 -44.5 -39.5t-63.5 16.5q-35 23 -34 54.5t24 56.5l153 188l-235 61q-31 6 -50.5 31t-7.5 66q14 39 44 48t59 -3 l227 -90l-14 243q-4 33 14.5 58.5t59.5 25.5q43 0 61 -25.5t14 -58.5l-14 -243l227 90q29 12 60 3t43 -48z" />
<glyph unicode="+" horiz-adv-x="1126" d="M999 567q0 -35 -24.5 -59.5t-59.5 -24.5h-268v-268q0 -35 -24.5 -60.5t-59.5 -25.5t-59.5 25.5t-24.5 60.5v268h-268q-35 0 -59.5 24.5t-24.5 59.5t24.5 59.5t59.5 24.5h268v269q0 35 24.5 59.5t59.5 24.5t59.5 -25t24.5 -59v-269h268q35 0 59.5 -24.5t24.5 -59.5z" />
<glyph unicode="," horiz-adv-x="514" d="M397 74q0 -84 -25.5 -145.5t-61.5 -102.5t-71.5 -60.5t-56.5 -19.5q-16 0 -30.5 10.5t-14.5 32.5q0 23 16.5 38t36 33.5t38 45t24.5 69.5q-53 4 -89 43t-36 93q0 57 40 96t95 39q63 0 99 -48t36 -124z" />
<glyph unicode="-" horiz-adv-x="1003" d="M860 600q0 -35 -23.5 -58.5t-58.5 -23.5h-551q-35 0 -59.5 23.5t-24.5 58.5t25 59.5t59 24.5h551q35 0 58.5 -24.5t23.5 -59.5z" />
<glyph unicode="." horiz-adv-x="522" d="M393 113q0 -55 -39 -94t-92 -39q-55 0 -94 38.5t-39 94.5q0 53 39 92t94 39q53 0 92 -39t39 -92z" />
<glyph unicode="/" horiz-adv-x="665" d="M143 -98q-10 -35 -39.5 -50.5t-64.5 -5.5t-50.5 42t-4.5 65l524 1636q10 35 42 50.5t64 5.5q35 -10 50.5 -42t5.5 -65z" />
<glyph unicode="0" d="M1047 520q0 -109 -28 -206t-86.5 -170.5t-147.5 -117.5t-212 -44t-212 44t-147 117.5t-86 171t-28 205.5v453q0 109 28 206t86 170.5t147.5 117.5t211.5 44q123 0 212 -44t147.5 -117.5t86.5 -171t28 -205.5v-453zM862 971q0 168 -71.5 269t-217.5 101 q-147 0 -217.5 -101t-70.5 -269v-451q0 -168 70.5 -268t217.5 -100q145 0 217 100t72 268v451z" />
<glyph unicode="1" d="M1028 88q0 -37 -25.5 -62.5t-62.5 -25.5h-729q-37 0 -62.5 25.5t-25.5 62.5q0 35 25.5 60.5t62.5 25.5h344v1086l-350 -240q-31 -20 -66 -13t-55 37q-20 29 -13 65t38 56l481 328q14 8 27.5 13t29.5 5q37 0 64.5 -26.5t27.5 -63.5v-1247h201q37 0 62.5 -25.5t25.5 -60.5z " />
<glyph unicode="2" d="M1016 88q0 -37 -25.5 -62.5t-62.5 -25.5h-719q-41 0 -64.5 24.5t-23.5 63.5q0 74 17.5 137.5t47 116.5t68.5 99t84 85q78 70 165 130.5t159.5 124t120.5 134t48 162.5q0 53 -15 101.5t-47 85t-81 58t-117 21.5t-115.5 -13t-88.5 -34q-27 -14 -45.5 -27.5t-33 -24.5 t-27.5 -17t-30 -6q-35 0 -61.5 24.5t-26.5 63.5q0 18 6.5 35.5t26.5 31.5q76 66 174.5 100.5t224.5 34.5q117 0 200 -37.5t136.5 -99t79 -139.5t25.5 -158q0 -115 -46 -200.5t-116 -155.5t-154 -129.5t-161.5 -120.5t-138 -132t-81.5 -163h609q37 0 62.5 -25.5t25.5 -62.5z " />
<glyph unicode="3" d="M987 408q0 -84 -29.5 -161t-88 -135.5t-148.5 -94t-209 -35.5q-125 0 -218 30.5t-171 108.5q-29 29 -29 65q0 35 22.5 58.5t55.5 23.5q23 0 46.5 -20.5t70.5 -48.5q47 -31 99 -43.5t118 -12.5q74 0 129 21.5t93 60.5t57.5 89.5t19.5 109.5q0 76 -25.5 125t-69.5 79.5 t-102.5 43t-122.5 14.5q-31 0 -62.5 14.5t-31.5 65.5q0 25 9.5 40t23.5 24.5t31.5 12.5t31.5 3q49 2 101.5 14t96.5 40t72.5 74t28.5 116q0 47 -12 93t-43 83t-81 59.5t-124 22.5q-61 0 -112.5 -15.5t-91.5 -40.5q-23 -14 -39.5 -26.5t-28.5 -21.5t-24.5 -15t-26.5 -6 q-29 0 -52.5 21.5t-23.5 60.5q0 41 39 73q51 53 144 93t222 40q119 0 200 -37.5t131 -96t71.5 -130t21.5 -137.5q0 -133 -63.5 -214t-173.5 -122q123 -37 195.5 -121.5t72.5 -244.5z" />
<glyph unicode="4" d="M1049 373q0 -35 -25 -60.5t-59 -25.5h-105v-215q0 -39 -26.5 -64.5t-63.5 -25.5t-63.5 25.5t-26.5 64.5v215h-498q-35 0 -60.5 24.5t-25.5 61.5q0 14 3 24.5t7 20.5l453 1038q14 35 49 49.5t70 -2.5q35 -14 49 -49t-2 -70l-401 -925h356v278q0 39 26.5 64.5t63.5 25.5 t63.5 -25.5t26.5 -64.5v-278h105q35 0 59.5 -25.5t24.5 -60.5z" />
<glyph unicode="5" d="M1004 455q0 -90 -28 -175t-85 -151t-148.5 -106.5t-216.5 -40.5q-92 0 -173 19t-154 73q-41 33 -41 78q0 35 23.5 62.5t60.5 27.5q29 0 51 -21q45 -33 102.5 -53.5t130.5 -20.5q80 0 135.5 26t91 68t51 97t15.5 117q0 156 -70.5 228.5t-189.5 72.5q-53 0 -92 -15.5 t-72 -38.5q-43 -31 -63.5 -53t-52.5 -22q-37 0 -63 25.5t-26 66.5l25 688q2 39 28.5 62.5t61.5 23.5h535q35 0 60.5 -25.5t25.5 -62.5q0 -35 -26 -61.5t-60 -26.5h-455l-16 -459q88 59 202 60q203 0 318 -120t115 -343z" />
<glyph unicode="6" d="M1026 451q0 -109 -34 -196t-94 -147.5t-145 -93t-188 -32.5q-104 0 -187 39.5t-141.5 113.5t-89 175.5t-30.5 224.5q0 135 42 266t109.5 252t153.5 229.5t176 198.5q16 16 32.5 22t33.5 6q41 0 66.5 -27.5t25.5 -64.5q0 -35 -27 -63q-104 -100 -201.5 -231.5 t-154.5 -280.5q49 31 102 45t105 14q88 0 168.5 -27.5t142 -83t98.5 -140t37 -199.5zM842 446q0 143 -77 218t-200 75q-86 0 -149.5 -31.5t-106.5 -66.5q-4 -27 -6 -53.5t-2 -52.5q0 -102 21.5 -176t58.5 -120t85 -67.5t101 -21.5q131 0 203 78.5t72 217.5z" />
<glyph unicode="7" d="M1028 1405q0 -10 -3 -24.5t-7 -26.5l-512 -1313q-14 -35 -49 -51.5t-70 -1.5q-35 14 -51.5 49t-1.5 69l481 1211h-627q-35 0 -60.5 26.5t-25.5 61.5q0 37 26 62.5t60 25.5h752q37 0 62.5 -25.5t25.5 -62.5z" />
<glyph unicode="8" d="M1061 389q0 -90 -34 -164.5t-97.5 -129t-152.5 -84t-202 -29.5q-111 0 -200.5 27.5t-154 79.5t-99.5 127t-35 171q0 76 23.5 133.5t64.5 103.5t98.5 82.5t122.5 67.5q-49 25 -93 56.5t-75.5 73.5t-51 95.5t-19.5 124.5q0 94 32.5 167t89 121t132 72.5t161.5 24.5 q88 0 164 -25.5t131.5 -74.5t87 -119.5t31.5 -159.5q0 -115 -60.5 -192.5t-174.5 -140.5q61 -29 117.5 -63t99.5 -81t68.5 -111.5t25.5 -152.5zM809 1112q0 117 -66.5 175.5t-169.5 58.5q-102 0 -170.5 -58.5t-68.5 -171.5q0 -53 19.5 -92t53 -67.5t79.5 -51t98 -43.5 q94 43 159.5 100.5t65.5 149.5zM877 401q0 63 -26 109.5t-70 79.5t-100 57.5t-118 48.5q-57 -25 -110.5 -51.5t-93.5 -60t-64.5 -77.5t-24.5 -101q0 -123 85 -191t216 -68q141 0 223.5 68.5t82.5 185.5z" />
<glyph unicode="9" d="M1036 956q0 -133 -42 -264t-109.5 -253t-153.5 -231.5t-176 -197.5q-29 -29 -63 -28q-41 0 -68 27.5t-27 64.5q0 35 29 63q102 100 199.5 232.5t154.5 279.5q-49 -31 -102 -45t-105 -14q-90 0 -169.5 27.5t-141 83t-97.5 140.5t-36 199q0 109 34 196t94 147.5t144 93 t187 32.5q104 0 188 -39.5t141.5 -112.5t88 -175.5t30.5 -225.5zM852 956q0 102 -22.5 176t-59.5 120t-85 67.5t-99 21.5q-131 0 -202 -78.5t-71 -218.5q0 -143 76 -216.5t199 -73.5q86 0 150.5 31.5t105.5 66.5q8 47 8 104z" />
<glyph unicode=":" horiz-adv-x="522" d="M393 913q0 -55 -39 -94t-92 -39q-55 0 -94 39t-39 94q0 53 39 92t94 39q53 0 92 -39t39 -92zM393 113q0 -55 -39 -94t-92 -39q-55 0 -94 38.5t-39 94.5q0 53 39 92t94 39q53 0 92 -39t39 -92z" />
<glyph unicode=";" horiz-adv-x="522" d="M393 913q0 -55 -39 -94t-92 -39q-55 0 -94 39t-39 94q0 53 39 92t94 39q53 0 92 -39t39 -92zM401 74q0 -84 -26.5 -145.5t-61 -102.5t-70.5 -60.5t-57 -19.5q-18 0 -32.5 10.5t-14.5 32.5q0 23 16.5 38t36 33.5t38 45t24.5 69.5q-53 4 -88 43t-35 93q0 57 39 96t94 39 q63 0 100 -48t37 -124z" />
<glyph unicode="&#x3c;" horiz-adv-x="1148" d="M1008 145q-14 -29 -46 -38t-61 8l-729 377q-43 23 -43 69q0 23 11.5 41.5t31.5 28.5l729 379q29 16 60.5 6t46.5 -39q16 -29 7 -60.5t-38 -46.5l-600 -309l600 -309q29 -14 38 -46t-7 -61z" />
<glyph unicode="=" horiz-adv-x="1126" d="M999 780q0 -35 -24.5 -59.5t-59.5 -24.5h-704q-35 0 -59.5 24.5t-24.5 59.5t24.5 59.5t59.5 24.5h704q35 0 59.5 -24.5t24.5 -59.5zM999 373q0 -35 -24.5 -59.5t-59.5 -24.5h-704q-35 0 -59.5 24.5t-24.5 59.5t24.5 59.5t59.5 24.5h704q35 0 59.5 -24.5t24.5 -59.5z" />
<glyph unicode="&#x3e;" horiz-adv-x="1148" d="M1020 561q0 -47 -43 -69l-729 -377q-31 -16 -61.5 -7t-45.5 37q-16 29 -7 61t38 46l600 309l-600 309q-29 14 -38 46t7 61q14 29 46 39t61 -6l729 -379q20 -10 31.5 -28.5t11.5 -41.5z" />
<glyph unicode="?" horiz-adv-x="1003" d="M889 1126q0 -68 -16.5 -120t-46 -95t-70.5 -80.5t-90 -76.5q-55 -43 -86 -78t-47.5 -64.5t-20.5 -56.5t-4 -57q0 -35 -23.5 -57.5t-60.5 -22.5t-61.5 22.5t-24.5 63.5q0 45 6 85t25.5 79t54.5 78.5t92 87.5q47 37 82 67.5t58.5 61t36 66.5t12.5 83q0 63 -21.5 108.5 t-55.5 73t-78 41t-87 13.5q-86 0 -140.5 -25t-99.5 -66q-23 -16 -49 -16q-39 0 -62.5 24.5t-23.5 55.5t24.5 58.5t51.5 45.5q66 43 139.5 64.5t175.5 21.5q70 0 142.5 -21.5t132 -68.5t97.5 -120t38 -175zM557 113q0 -55 -39 -94t-92 -39q-55 0 -94 38.5t-39 94.5 q0 53 39 92t94 39q53 0 92 -39t39 -92z" />
<glyph unicode="@" horiz-adv-x="1695" d="M1559 788q0 -92 -27 -177t-76 -150.5t-118.5 -104.5t-155.5 -39q-61 0 -117.5 28t-87.5 110q-94 -133 -250 -133q-55 0 -95 21.5t-65.5 57t-37 82.5t-11.5 97q0 80 25.5 160.5t74 144t118 103.5t155.5 40q61 0 111.5 -9t103.5 -26q29 -10 37 -32.5t4 -45.5l-45 -194 q-6 -33 -12.5 -76t-6.5 -72q0 -74 29 -107.5t78 -33.5q53 0 98 28.5t78 77t51.5 112t18.5 134.5q0 94 -29 184.5t-96.5 160t-177 112.5t-269.5 43q-156 0 -269.5 -61.5t-187 -156.5t-109.5 -212t-36 -227q0 -119 30 -222.5t95.5 -180.5t170 -122t255.5 -45q57 0 106.5 5.5 t94.5 13.5q35 10 53 16t35 6q29 0 43 -18.5t14 -40.5q0 -18 -12 -34.5t-47 -27.5q-61 -16 -129 -26t-158 -10q-178 0 -305 53t-210 146t-122 217t-39 266q0 139 45 278t135.5 250t225.5 180.5t317 69.5q195 0 329 -53.5t216 -140.5t118 -196.5t36 -222.5zM1006 889 q-55 16 -119 16q-51 0 -93 -28.5t-73 -74.5t-47.5 -102.5t-16.5 -111.5q0 -127 95 -127q82 0 134 63.5t72 159.5z" />
<glyph unicode="A" horiz-adv-x="1161" d="M1130 94q12 -53 -18.5 -82.5t-71.5 -29.5q-29 0 -54 17t-36 54q-18 74 -37.5 148.5t-42.5 146.5h-585q-20 -72 -40 -146.5t-40 -148.5q-10 -37 -34 -54t-52 -17q-39 0 -70 29.5t-18 82.5q88 354 195.5 677t236.5 640q27 63 56.5 81.5t60.5 18.5t61.5 -18t58.5 -82 q129 -317 235.5 -640t194.5 -677zM823 516q-55 182 -116.5 354t-128.5 344q-68 -172 -129.5 -344t-116.5 -354h491z" />
<glyph unicode="B" horiz-adv-x="1292" d="M1169 383q0 -84 -23.5 -153.5t-77.5 -121t-141 -80t-214 -28.5h-451q-39 0 -65.5 26.5t-26.5 65.5v1309q0 37 26.5 64.5t65.5 27.5h408q119 0 201.5 -29.5t135 -80t77 -117t24.5 -140.5v-61q0 -111 -51 -184.5t-144 -112.5q121 -37 188.5 -123t67.5 -207v-55zM924 1106 q0 92 -58.5 152.5t-197.5 60.5h-314v-483h224q78 0 141 10t109 34.5t71 65.5t25 101v59zM987 449q0 104 -81 162.5t-226 58.5h-326v-498h357q80 0 133 17.5t85 47t45 71.5t13 91v50z" />
<glyph unicode="C" horiz-adv-x="1124" d="M1044 1321q0 -31 -21.5 -57.5t-64.5 -28.5q-23 0 -38 12.5t-39 28.5q-76 68 -213 67q-180 0 -263 -120.5t-83 -358.5v-237q0 -250 79.5 -363.5t255.5 -113.5q59 0 120 17t110 54q27 18 42 29.5t38 11.5q35 2 57.5 -22.5t22.5 -57.5q0 -16 -8.5 -34.5t-26.5 -32.5 q-35 -37 -79 -62.5t-91 -41t-94.5 -22.5t-90.5 -7q-143 0 -242.5 47t-160.5 131t-89 202.5t-28 262.5v243q0 137 29 255t92.5 204t163.5 135t246 49q94 0 186 -28.5t156 -98.5q18 -14 26 -30.5t8 -32.5z" />
<glyph unicode="D" horiz-adv-x="1323" d="M1188 555q0 -84 -18.5 -181.5t-74 -180t-158.5 -138t-275 -55.5h-400q-39 0 -65.5 26.5t-26.5 65.5v1309q0 37 26.5 64.5t65.5 27.5h400q172 0 275 -55.5t158.5 -138t74 -181t18.5 -182.5v-381zM1004 934q0 72 -13.5 140.5t-51.5 122.5t-107.5 87t-180.5 33h-297v-1145 h297q111 0 180.5 33t107.5 87t51.5 122.5t13.5 140.5v379z" />
<glyph unicode="E" horiz-adv-x="1134" d="M1057 88q0 -37 -25.5 -62.5t-60.5 -25.5h-713q-37 0 -62.5 25.5t-25.5 62.5v1317q0 35 25.5 61.5t62.5 26.5h682q37 0 63.5 -26.5t26.5 -61.5q0 -37 -26.5 -62.5t-63.5 -25.5h-586v-486h533q35 0 60.5 -25.5t25.5 -60.5t-25.5 -60.5t-60.5 -25.5h-533v-483h617 q35 0 60.5 -25.5t25.5 -62.5z" />
<glyph unicode="F" horiz-adv-x="1038" d="M1012 1405q0 -37 -25.5 -62.5t-62.5 -25.5h-570v-486h477q35 0 59.5 -25.5t24.5 -60.5t-24.5 -60.5t-59.5 -25.5h-477v-585q0 -39 -26.5 -65.5t-65.5 -26.5t-65.5 26.5t-26.5 65.5v1331q0 35 25.5 61.5t62.5 26.5h666q37 0 62.5 -26.5t25.5 -61.5z" />
<glyph unicode="G" horiz-adv-x="1259" d="M1141 492q0 -109 -28 -202t-87 -162t-150.5 -107.5t-218.5 -38.5q-143 0 -242.5 46t-160.5 131t-89 202.5t-28 263.5v243q0 137 29 255t92.5 204t164.5 135t247 49q94 0 187 -27.5t159 -99.5q35 -31 35 -67q0 -31 -21.5 -56.5t-64.5 -25.5q-23 -2 -40.5 11.5t-41.5 29.5 q-84 68 -213 67q-180 0 -264 -120.5t-84 -358.5v-237q0 -250 79.5 -363.5t255.5 -113.5q162 0 234 91t72 246v109h-246q-35 0 -59.5 25.5t-24.5 60.5t24.5 60.5t59.5 25.5h336q37 0 62.5 -25.5t25.5 -66.5v-184v0z" />
<glyph unicode="H" horiz-adv-x="1384" d="M1214 74q0 -39 -26.5 -65.5t-63.5 -26.5q-41 0 -66.5 26.5t-25.5 65.5v575h-678v-575q0 -39 -26.5 -65.5t-65.5 -26.5t-65.5 26.5t-26.5 65.5v1345q0 37 26.5 64.5t65.5 27.5t65.5 -27.5t26.5 -64.5v-602h678v602q0 37 25.5 64.5t66.5 27.5q37 0 63.5 -27.5t26.5 -64.5 v-1345v0z" />
<glyph unicode="I" horiz-adv-x="524" d="M354 74q0 -39 -26.5 -65.5t-65.5 -26.5t-65.5 26.5t-26.5 65.5v1345q0 37 26.5 64.5t65.5 27.5t65.5 -27.5t26.5 -64.5v-1345v0z" />
<glyph unicode="J" horiz-adv-x="897" d="M752 530q0 -127 -27 -228t-86 -172t-152.5 -109.5t-228.5 -38.5q-47 0 -91 4t-85 12q-39 8 -56.5 32.5t-17.5 53.5q0 35 22.5 61.5t63.5 26.5q12 0 24.5 -3t41.5 -7q45 -6 98 -6q170 0 239.5 87t69.5 287v889q0 37 27 64.5t65 27.5q37 0 65 -27.5t28 -64.5v-889v0z" />
<glyph unicode="K" horiz-adv-x="1165" d="M1118 117q14 -29 11 -53.5t-16 -43t-35.5 -28.5t-45.5 -10t-43 11t-35 38q-98 176 -205.5 347t-224.5 339l-170 -205v-438q0 -39 -26.5 -65.5t-65.5 -26.5t-65.5 26.5t-26.5 65.5v1345q0 37 26.5 64.5t65.5 27.5t65.5 -27.5t26.5 -64.5v-659l578 719q29 33 72 32 q31 0 57 -22q29 -23 32 -60.5t-20 -66.5l-426 -504q260 -362 471 -741z" />
<glyph unicode="L" horiz-adv-x="1071" d="M1055 88q0 -37 -25.5 -62.5t-62.5 -25.5h-709q-37 0 -62.5 25.5t-25.5 62.5v1331q0 37 26.5 64.5t65.5 27.5t65.5 -27.5t26.5 -64.5v-1243h613q37 0 62.5 -25.5t25.5 -62.5z" />
<glyph unicode="M" horiz-adv-x="1607" d="M1438 68q0 -35 -26 -60.5t-60 -25.5q-35 0 -60.5 25.5t-25.5 60.5v1032l-379 -807q-12 -27 -35 -40t-49 -13q-27 0 -49.5 13t-34.5 40l-379 805v-1032q0 -35 -25.5 -59.5t-60.5 -24.5t-59.5 24.5t-24.5 59.5v1359q0 37 24.5 61.5t63.5 24.5q35 0 55.5 -13t34.5 -42 l457 -958l459 962q16 31 38.5 41t47.5 10q39 0 63.5 -25.5t24.5 -60.5v-1357v0z" />
<glyph unicode="N" horiz-adv-x="1368" d="M1198 68q0 -35 -24.5 -60.5t-65.5 -25.5q-29 0 -51.5 11t-36.5 34l-680 1103v-1062q0 -35 -25.5 -60.5t-60.5 -25.5t-59.5 25.5t-24.5 60.5v1357q0 35 24.5 60.5t65.5 25.5q61 0 90 -51l678 -1100v1065q0 35 25.5 60.5t60.5 25.5t59.5 -25.5t24.5 -60.5v-1357v0z" />
<glyph unicode="O" horiz-adv-x="1296" d="M1159 535q0 -104 -25.5 -204t-86 -177.5t-157.5 -124.5t-241 -47q-145 0 -242.5 47t-158 124.5t-86 177t-25.5 204.5v423q0 104 25.5 204t86 177.5t158 124.5t242.5 47q143 0 240.5 -47t158 -124.5t86 -177t25.5 -204.5v-423zM975 958q0 80 -16.5 150t-54.5 122 t-100.5 81.5t-154.5 29.5q-94 0 -156.5 -29.5t-100.5 -81.5t-54 -122t-16 -150v-423q0 -80 16 -151t54 -123t100.5 -81.5t156.5 -29.5q92 0 154.5 29.5t100.5 81.5t54.5 123t16.5 151v423z" />
<glyph unicode="P" horiz-adv-x="1210" d="M1124 985q0 -86 -30.5 -158.5t-88 -125t-141.5 -81t-190 -28.5h-320v-518q0 -39 -26.5 -65.5t-65.5 -26.5t-65.5 26.5t-26.5 65.5v1327q0 37 26.5 64.5t65.5 27.5h391q131 0 221.5 -36t145.5 -93t79.5 -129t24.5 -145v-105zM942 1087q0 39 -14.5 81t-48 75t-92 54.5 t-146.5 21.5h-287v-559h314q72 0 124 18.5t85.5 50t49 72.5t15.5 88v98z" />
<glyph unicode="Q" horiz-adv-x="1296" d="M1196 -41q-23 -25 -55.5 -29t-61.5 25l-123 115q-57 -41 -132.5 -64.5t-174.5 -23.5q-145 0 -242.5 47t-158 124.5t-86 177t-25.5 204.5v423q0 104 25.5 204t86 177.5t158 124.5t242.5 47q143 0 240.5 -47t158 -124.5t86 -177t25.5 -204.5v-423q0 -94 -20.5 -184.5 t-69.5 -164.5l123 -110q31 -27 29 -59.5t-25 -57.5zM977 958q0 80 -16.5 150t-54.5 122t-101.5 81.5t-155.5 29.5q-94 0 -156.5 -29.5t-100.5 -80.5t-54 -122t-16 -151v-423q0 -80 16 -151t54 -123t100.5 -81.5t156.5 -29.5q55 0 98.5 13t77.5 36l-65 61q-25 23 -24 52.5 t24 52.5q18 20 44.5 24t49.5 -14l68 -58q29 43 42 99.5t13 118.5v423z" />
<glyph unicode="R" horiz-adv-x="1241" d="M1130 113q12 -27 9.5 -50.5t-17 -42t-35 -28.5t-43.5 -10q-25 0 -46 12t-33 41q-76 147 -159 291.5t-177 289.5h-275v-542q0 -39 -26.5 -65.5t-65.5 -26.5t-65.5 26.5t-26.5 65.5v1327q0 37 26.5 64.5t65.5 27.5h389q125 0 214 -29.5t147.5 -82t86 -124t27.5 -155.5v-88 q0 -61 -18 -119.5t-55 -107t-93.5 -85t-134.5 -55.5q86 -135 161.5 -267t143.5 -267zM942 1102q0 43 -15.5 83t-50 69.5t-91 48t-136.5 18.5h-295v-535h293q78 0 133.5 19.5t91 51.5t53 73t17.5 84v88z" />
<glyph unicode="S" horiz-adv-x="1181" d="M1087 440q0 -111 -37.5 -196.5t-108.5 -144t-169 -88t-217 -29.5q-117 0 -211 14t-182 51q-31 12 -45.5 34.5t-14.5 49.5q0 35 22.5 61.5t59.5 26.5q14 0 28.5 -5t34 -13t46 -16.5t65.5 -16.5q35 -8 79 -13t104 -5q188 0 275 75.5t87 198.5q0 94 -48 142t-150 77 q-41 14 -95.5 24.5t-111 22.5t-110.5 26.5t-97 35.5q-82 41 -133.5 114.5t-51.5 204.5q0 104 37 186t101.5 138.5t152.5 86t191 29.5q96 0 180 -12t162 -45q31 -10 45 -33.5t14 -48.5q0 -35 -22.5 -62.5t-63.5 -27.5q-23 0 -54.5 15.5t-96.5 29.5q-29 6 -66 10t-88 4 q-145 0 -226 -68.5t-81 -185.5q0 -98 52 -143t151 -72q51 -14 111.5 -25t120.5 -24.5t116.5 -31t97.5 -46.5q72 -47 109.5 -120.5t37.5 -184.5z" />
<glyph unicode="T" horiz-adv-x="1173" d="M1153 1403q0 -37 -26.5 -62.5t-63.5 -25.5h-385v-1241q0 -39 -26.5 -65.5t-65.5 -26.5q-37 0 -64.5 26.5t-27.5 65.5v1241h-388q-37 0 -62.5 25.5t-25.5 62.5t26 63.5t62 26.5h957q37 0 63.5 -26.5t26.5 -63.5z" />
<glyph unicode="U" horiz-adv-x="1296" d="M1159 485q0 -104 -30.5 -195t-93 -160t-159 -108.5t-227.5 -39.5q-133 0 -229 39.5t-159.5 108.5t-93.5 160t-30 195v934q0 39 26.5 65.5t63.5 26.5q41 0 66.5 -26.5t25.5 -65.5v-927q0 -70 17.5 -132.5t56.5 -110.5t101.5 -76t154.5 -28q90 0 152.5 28t100.5 76 t55.5 110.5t17.5 132.5v927q0 37 27.5 64.5t64.5 27.5q41 0 66.5 -27.5t25.5 -64.5v-934v0z" />
<glyph unicode="V" horiz-adv-x="1161" d="M1130 1401q-92 -313 -203.5 -643t-240.5 -684q-16 -51 -45 -71.5t-63 -20.5q-41 0 -68 20.5t-45 73.5q-127 350 -234.5 676.5t-199.5 640.5q-8 27 -2 49t19 37.5t33.5 23.5t41.5 8q27 0 50.5 -17t33.5 -52q80 -272 173 -561t204 -594q111 305 205 596t174 565 q10 35 32.5 49t48.5 14q18 0 37 -8t32 -22.5t18 -34.5t-1 -45z" />
<glyph unicode="W" horiz-adv-x="1777" d="M1741 1425q0 -8 -4 -24q-37 -170 -76 -331t-81 -322.5t-86 -324.5t-93 -335q-14 -49 -43 -77.5t-76 -28.5q-43 0 -73.5 27.5t-45.5 76.5q-78 274 -145.5 531t-128.5 522q-61 -264 -129 -521.5t-146 -531.5q-14 -49 -44.5 -76.5t-73.5 -27.5q-47 0 -76 28.5t-43 77.5 q-49 172 -93 335t-86 324.5t-81 322.5t-76 331q-4 16 -4 24q0 41 29.5 63.5t64.5 22.5q29 0 52.5 -17t33.5 -54q63 -291 133 -570.5t152 -576.5q80 291 148.5 563t127.5 547q10 47 38 77.5t75 30.5t72.5 -29.5t35.5 -78.5q61 -274 129 -546.5t148 -563.5q82 297 151.5 576.5 t133.5 570.5q10 37 33.5 54t52.5 17q35 0 64.5 -22.5t29.5 -63.5z" />
<glyph unicode="X" horiz-adv-x="1118" d="M1106 70q0 -37 -29.5 -62.5t-64.5 -25.5q-47 0 -74 47q-88 150 -182 296t-197 293q-102 -147 -196.5 -293.5t-182.5 -295.5q-14 -25 -33.5 -36t-40.5 -11q-35 0 -64.5 25.5t-29.5 62.5q0 29 13 49q98 168 204.5 331.5t221.5 329.5q-102 147 -194.5 295t-176.5 301 q-10 20 -10 47q0 37 28.5 62.5t63.5 25.5q47 0 76 -49q143 -264 321 -526q88 131 167 261t153 265q14 25 33.5 37t41.5 12q37 0 66 -25.5t29 -64.5q0 -25 -13 -45q-84 -154 -175 -302t-193 -298q113 -166 219 -328.5t205 -330.5q14 -22 14 -47z" />
<glyph unicode="Y" horiz-adv-x="1030" d="M1030 1423q0 -8 -2 -17t-6 -20q-80 -184 -183.5 -392t-232.5 -447v-473q0 -39 -26.5 -65.5t-65.5 -26.5t-65.5 26.5t-26.5 65.5v473q-129 238 -231.5 445.5t-182.5 389.5q-8 16 -8 39q0 41 29.5 65.5t66.5 24.5q23 0 44.5 -13t35.5 -42q66 -154 151 -328t189 -372 q106 199 191.5 373t150.5 327q27 55 78 55q35 0 64.5 -24.5t29.5 -63.5z" />
<glyph unicode="Z" horiz-adv-x="1062" d="M1022 88q0 -37 -25.5 -62.5t-62.5 -25.5h-807q-41 0 -64.5 25.5t-23.5 62.5q0 23 8 44.5t19 41.5l704 1143h-641q-35 0 -60.5 25.5t-25.5 62.5q0 35 25.5 61.5t60.5 26.5h803q41 0 63.5 -25.5t22.5 -62.5q0 -20 -8.5 -41t-18.5 -37l-710 -1151h653q37 0 62.5 -25.5 t25.5 -62.5z" />
<glyph unicode="[" horiz-adv-x="567" d="M471 -289q0 -37 -26.5 -62.5t-63.5 -25.5h-191q-37 0 -62.5 25.5t-25.5 62.5v1886q0 37 26 63t62 26h191q37 0 63.5 -26t26.5 -63q0 -35 -26.5 -60.5t-63.5 -25.5h-94v-1710h94q37 0 63.5 -26.5t26.5 -63.5z" />
<glyph unicode="\" horiz-adv-x="749" d="M758 -20q10 -33 -3.5 -64t-43.5 -43q-33 -12 -65 2t-44 45l-602 1587q-12 33 1 65t46 42q33 12 63.5 -1.5t43.5 -45.5l604 -1587v0z" />
<glyph unicode="]" horiz-adv-x="567" d="M465 -289q0 -37 -26.5 -62.5t-63.5 -25.5h-191q-37 0 -62.5 25.5t-25.5 62.5t25.5 63.5t62.5 26.5h97v1710h-97q-37 0 -62.5 26t-25.5 60q0 37 25.5 63t62.5 26h191q37 0 63.5 -26t26.5 -63v-1886v0z" />
<glyph unicode="^" horiz-adv-x="1024" d="M915 952q18 -29 12.5 -61.5t-34.5 -50.5q-29 -20 -62.5 -13t-52.5 35l-266 420l-266 -420q-18 -29 -52 -36t-61 14q-29 18 -36 51t12 61l317 500q33 53 86 53t86 -53l317 -500v0z" />
<glyph unicode="_" horiz-adv-x="962" d="M1040 -276q0 -35 -22.5 -57.5t-54.5 -22.5h-963q-33 0 -56.5 22.5t-23.5 57.5t23.5 57t56.5 22h963q33 0 55 -22t22 -57z" />
<glyph unicode="`" horiz-adv-x="1085" d="M428 1634q18 10 41 11q47 0 68 -43l153 -283q8 -20 8 -33q0 -20 -11 -35.5t-28 -23.5q-16 -10 -32 -10q-37 0 -62 40l-166 275q-12 14 -12 39q0 16 10.5 34.5t30.5 28.5z" />
<glyph unicode="a" horiz-adv-x="1032" d="M956 66q0 -41 -24.5 -59.5t-63.5 -18.5q-29 0 -58.5 12t-47.5 31q-16 12 -25.5 28.5t-15.5 32.5q-59 -63 -139 -83.5t-148 -20.5q-96 0 -163.5 23.5t-110.5 64.5t-63.5 95t-20.5 118v16q0 63 22.5 117.5t68.5 94.5t116.5 62.5t169.5 22.5h233v49q0 61 -9 107.5t-31.5 77 t-64.5 46t-106 15.5q-72 0 -121 -14.5t-88 -36.5q-35 -18 -63.5 -8t-44 33.5t-11 53t36.5 50.5q61 39 138 55.5t163 16.5q111 0 183.5 -27t115.5 -78t61.5 -129t18.5 -178v-381q0 -61 14.5 -87t43.5 -42q34 -18 34 -59zM686 463h-215q-66 0 -107.5 -13.5t-66.5 -35t-34 -51 t-9 -60.5v-16q0 -33 10 -61.5t34 -50t64.5 -35t102.5 -13.5q104 0 162.5 52t58.5 163v121z" />
<glyph unicode="b" horiz-adv-x="1069" d="M958 408q0 -197 -91 -308.5t-289 -111.5q-76 0 -146 22.5t-125 63.5q-8 -12 -16 -22.5t-19 -20.5q-25 -23 -54.5 -33t-53.5 -10q-37 0 -62.5 18.5t-25.5 59.5t35 59q31 16 44 40.5t13 88.5v1141q0 37 25.5 62.5t62.5 25.5t63.5 -25.5t26.5 -62.5v-445q53 47 121 72 t137 25q100 0 168 -32t110 -89.5t59 -139t17 -182.5v-196zM778 627q0 129 -47 196.5t-164 67.5q-53 0 -113.5 -25.5t-107.5 -83.5v-561q45 -37 98.5 -57.5t108.5 -20.5q121 0 173 64.5t52 187.5v232z" />
<glyph unicode="c" horiz-adv-x="872" d="M805 887q-14 -29 -41 -39t-57 4q-74 41 -177 41q-117 0 -178 -81t-61 -212v-166q0 -137 57.5 -215t175.5 -78q47 0 93.5 9.5t93.5 33.5q31 14 58.5 3t39.5 -40q12 -33 1 -59.5t-38 -40.5q-61 -35 -126.5 -47t-129.5 -12q-106 0 -183 33.5t-126 95t-72.5 144.5t-23.5 181 v144q0 94 25.5 177t75.5 146.5t126 100.5t178 37q63 0 132 -12.5t124 -47.5q29 -16 39 -42.5t-6 -57.5z" />
<glyph unicode="d" horiz-adv-x="1069" d="M993 66q0 -41 -25.5 -59.5t-62.5 -18.5q-25 0 -54.5 10t-53.5 33q-27 23 -35 49q-63 -47 -133 -69.5t-140 -22.5q-201 0 -289.5 107.5t-88.5 307.5v185q0 102 19.5 187t62.5 145.5t112.5 93.5t171.5 33q59 0 124 -18.5t122 -61.5v426q0 39 25.5 64.5t62.5 25.5 q39 0 64.5 -25.5t25.5 -64.5v-1139q0 -63 13.5 -87t43.5 -40q35 -22 35 -61zM723 797q-49 53 -108.5 73.5t-104.5 20.5q-117 0 -168 -71.5t-51 -205.5v-223q0 -123 50 -185.5t175 -62.5q47 0 100.5 20.5t106.5 65.5v568z" />
<glyph unicode="e" horiz-adv-x="1011" d="M915 532q0 -33 -19 -51t-48 -18h-559v-55q0 -123 55 -195t176 -72q88 0 146.5 15.5t109.5 42.5q29 16 57.5 1.5t38.5 -42.5q23 -63 -34 -97q-74 -39 -155 -56t-169 -17q-111 0 -187.5 34.5t-124.5 94t-69.5 138.5t-21.5 167v190q0 88 22.5 167t71.5 138.5t125 94.5 t184 35q113 0 189.5 -35t123.5 -93.5t67.5 -137.5t20.5 -165v-84zM741 639q0 121 -49 190.5t-174 69.5q-123 0 -176 -70.5t-53 -189.5v-35h452v35z" />
<glyph unicode="f" horiz-adv-x="645" d="M692 1411q0 -35 -23.5 -57.5t-58.5 -22.5h-55q-63 0 -103 -14t-63.5 -44t-33 -77t-9.5 -113v-49h170q33 0 55.5 -22.5t22.5 -55.5q0 -31 -22.5 -53t-55.5 -22h-170v-803q0 -39 -26.5 -64.5t-63.5 -25.5t-62.5 25.5t-25.5 64.5v803h-59q-31 0 -53.5 22.5t-22.5 52.5 q0 33 22.5 55.5t53.5 22.5h59v49q0 94 18.5 170t61.5 129.5t113.5 82t175.5 28.5h73q35 0 58.5 -23.5t23.5 -58.5z" />
<glyph unicode="g" horiz-adv-x="1048" d="M903 76q0 -96 -22.5 -179t-71.5 -143.5t-128 -94.5t-192 -34q-74 0 -146.5 11.5t-131.5 37.5q-23 10 -38 28.5t-15 43.5q0 35 25.5 59.5t62.5 16.5q23 -6 46 -13.5t50 -13.5t60.5 -11t76.5 -5q135 0 190.5 76.5t55.5 212.5v57q-59 -41 -129 -61.5t-125 -20.5 q-102 0 -171 29.5t-111 86t-60 136.5t-18 178v135q0 98 19.5 179t62.5 138.5t112.5 89.5t169.5 32q61 0 129 -23t127 -76l2 41q0 27 25.5 42.5t54.5 15.5q41 0 65.5 -26t24.5 -65v-880zM725 788q-53 57 -113.5 79t-105.5 22q-117 0 -166 -66.5t-49 -193.5v-176 q0 -125 46 -188.5t165 -63.5q45 0 108.5 19.5t114.5 64.5v503z" />
<glyph unicode="h" horiz-adv-x="1087" d="M944 78q0 -39 -25.5 -64.5t-62.5 -25.5t-63.5 25.5t-26.5 64.5v577q0 49 -8 89t-29.5 70t-59.5 46.5t-98 16.5q-88 0 -150.5 -35t-96.5 -94v-670q0 -39 -27 -64.5t-64 -25.5t-62.5 25.5t-25.5 64.5v1315q0 39 26 64.5t62 25.5q37 0 64 -25.5t27 -64.5v-445 q51 47 121.5 73t164.5 26q96 0 161 -29t102.5 -79t54 -118.5t16.5 -148.5v-594v0z" />
<glyph unicode="i" horiz-adv-x="468" d="M346 1366q0 -47 -32.5 -78t-80.5 -31q-47 0 -78.5 31t-31.5 78t31.5 80t78.5 33t80 -33t33 -80zM324 78q0 -39 -27 -64.5t-64 -25.5t-62.5 25.5t-25.5 64.5v878q0 39 26 65t62 26q37 0 64 -26t27 -65v-878z" />
<glyph unicode="j" horiz-adv-x="468" d="M324 12q0 -387 -349 -387q-37 0 -57 23.5t-20 54.5t20.5 53.5t56.5 24.5q43 2 74 13t52.5 37t31.5 67t10 104v952q0 39 27 64.5t63 25.5q41 0 66 -26.5t25 -63.5v-942zM123 1366q0 47 31.5 79t78.5 32t79 -32t32 -79t-31.5 -78t-79.5 -31q-47 0 -78.5 31t-31.5 78z" />
<glyph unicode="k" horiz-adv-x="956" d="M913 111q12 -27 8.5 -49.5t-16 -39t-33 -25.5t-41.5 -9q-23 0 -43 12t-32 41q-59 121 -133 239.5t-152 227.5l-147 -148v-282q0 -39 -27 -64.5t-64 -25.5t-62.5 25.5t-25.5 64.5v1315q0 39 26 64.5t62 25.5q37 0 64 -25.5t27 -64.5v-815l438 446q25 23 58.5 21.5 t58.5 -23.5q23 -23 22.5 -56.5t-24.5 -56.5l-281 -280q88 -121 169.5 -252t147.5 -266z" />
<glyph unicode="l" horiz-adv-x="491" d="M416 66q0 -41 -25.5 -59.5t-64.5 -18.5q-23 0 -53.5 11t-55.5 32q-80 70 -80 192v1170q0 39 26.5 64.5t63.5 25.5t63.5 -25.5t26.5 -64.5v-1139q0 -63 16.5 -87t47.5 -40q35 -22 35 -61z" />
<glyph unicode="m" horiz-adv-x="1701" d="M1559 78q0 -39 -27 -64.5t-64 -25.5t-63.5 25.5t-26.5 64.5v577q0 49 -8 90t-29.5 70t-57.5 45.5t-93 16.5q-90 0 -148.5 -37t-91.5 -95q6 -35 6 -71v-596q0 -39 -26.5 -64.5t-63.5 -25.5t-63.5 25.5t-26.5 64.5v577q0 49 -8 90t-29.5 70t-57.5 45.5t-93 16.5 q-86 0 -143.5 -33t-92.5 -88v-678q0 -39 -25.5 -64.5t-62.5 -25.5t-63.5 25.5t-26.5 64.5v690q0 61 -17.5 87t-45.5 42q-35 18 -35 59t24.5 59.5t63.5 18.5q25 0 55.5 -11t54.5 -32q27 -25 43 -59q53 53 129 84t181 31q109 0 175 -36t101 -100q53 63 133 99.5t191 36.5 q96 0 159.5 -28t102.5 -78t54.5 -118.5t15.5 -148.5v-596v0z" />
<glyph unicode="n" horiz-adv-x="1120" d="M977 78q0 -39 -26.5 -64.5t-65.5 -25.5q-37 0 -63.5 25.5t-26.5 64.5v577q0 49 -8.5 89t-30 70t-58 46.5t-96.5 16.5q-88 0 -150.5 -35t-99.5 -94v-670q0 -39 -25.5 -64.5t-62.5 -25.5t-63.5 25.5t-26.5 64.5v690q0 61 -17.5 87t-45.5 42q-35 18 -35 59t24.5 59.5 t63.5 18.5q25 0 55.5 -11t54.5 -32q33 -35 45 -67q53 59 132 91t190 32q96 0 160.5 -29t102.5 -79t54.5 -118.5t16.5 -148.5l2 -594v0z" />
<glyph unicode="o" horiz-adv-x="1046" d="M934 412q0 -88 -23.5 -165t-73 -134.5t-127 -91t-188.5 -33.5q-109 0 -186.5 33.5t-127.5 91t-73.5 134.5t-23.5 165v211q0 88 23.5 164.5t73.5 134t128 91.5t186 34q111 0 188.5 -34t127 -91.5t73 -134t23.5 -164.5v-211zM756 621q0 121 -54.5 190.5t-179.5 69.5 q-123 0 -177 -70t-54 -190v-209q0 -121 54 -190.5t177 -69.5q125 0 179.5 69.5t54.5 190.5v209z" />
<glyph unicode="p" horiz-adv-x="1069" d="M958 446q0 -102 -19 -187t-63.5 -145.5t-115 -93t-170.5 -32.5q-57 0 -122 18.5t-122 61.5v-353q0 -39 -25.5 -64.5t-64.5 -25.5q-37 0 -62.5 25.5t-25.5 64.5v1065q0 61 -14.5 87t-42.5 42q-35 18 -35 60q0 41 24.5 59.5t63.5 18.5q25 0 53.5 -10.5t54.5 -32.5 q20 -23 37 -50q61 47 131 70t138 23q203 0 291.5 -108t88.5 -306v-187zM778 643q0 123 -50 185.5t-175 62.5q-47 0 -100.5 -20.5t-106.5 -63.5v-569q49 -53 108.5 -74t104.5 -21q117 0 168 73t51 204v223z" />
<glyph unicode="q" horiz-adv-x="1069" d="M993 969q0 -41 -35 -60q-31 -16 -44 -40.5t-13 -88.5v-1065q0 -39 -25.5 -64.5t-62.5 -25.5q-39 0 -64.5 25.5t-25.5 64.5v369q-53 -47 -120.5 -71.5t-137.5 -24.5q-100 0 -168 31.5t-110 89t-59 139.5t-17 182v197q0 197 91 308.5t290 111.5q76 0 145.5 -23t124.5 -63 q8 12 16 22t19 21q25 23 54.5 33t53.5 10q37 0 62.5 -18.5t25.5 -59.5zM723 813q-45 37 -98.5 57.5t-110.5 20.5q-119 0 -171 -64.5t-52 -187.5v-231q0 -129 47 -197t164 -68q53 0 113.5 26t107.5 83v561z" />
<glyph unicode="r" horiz-adv-x="798" d="M793 948q0 -37 -22.5 -63.5t-63.5 -26.5q-27 0 -49.5 7t-75.5 7q-33 0 -68 -6t-66.5 -26.5t-57 -56t-38.5 -95.5v-610q0 -39 -25.5 -64.5t-62.5 -25.5t-63.5 25.5t-26.5 64.5v690q0 61 -17.5 87t-45.5 42q-35 18 -35 59q0 78 90 78q59 0 102 -40t62 -87q33 45 70.5 73 t75.5 42t73 18t63 4q31 0 64 -5t58.5 -16t42 -29.5t16.5 -45.5z" />
<glyph unicode="s" horiz-adv-x="892" d="M809 303q0 -80 -29.5 -139.5t-82 -98t-124 -58t-155.5 -19.5q-102 0 -167 11t-124 34q-33 10 -44 40.5t-1 59.5q10 33 40 46.5t62 0.5q47 -18 99.5 -28.5t136.5 -10.5q113 0 165 43t52 113q0 49 -24.5 76.5t-65.5 44t-93.5 26t-105.5 21.5q-51 12 -98 28.5t-84 47 t-59.5 79t-22.5 121.5q0 74 26.5 131.5t74.5 95.5t111.5 58.5t137.5 20.5q86 0 146.5 -11.5t119.5 -34.5q33 -10 44.5 -39.5t0.5 -60.5q-10 -29 -37.5 -43t-60.5 -4q-53 20 -99 30.5t-106 10.5q-94 0 -141 -41t-47 -104q0 -43 21.5 -69t57.5 -42t83 -26.5t98 -20.5 q53 -10 106.5 -26.5t95.5 -48.5t67.5 -83t25.5 -131z" />
<glyph unicode="t" horiz-adv-x="690" d="M668 82q0 -35 -22.5 -58.5t-57.5 -23.5h-62q-106 0 -174.5 31.5t-108.5 90t-56.5 140.5t-16.5 182v437h-59q-33 0 -55.5 22.5t-22.5 52.5q0 33 22.5 55.5t55.5 22.5h59v211q0 37 25.5 63.5t64.5 26.5q37 0 62.5 -26.5t25.5 -63.5v-211h191q33 0 55 -22.5t22 -55.5 q0 -31 -22.5 -53t-54.5 -22h-191l2 -435q0 -78 7.5 -131t29 -86.5t59 -49t99.5 -15.5h43q35 0 57.5 -23.5t22.5 -58.5z" />
<glyph unicode="u" horiz-adv-x="1120" d="M1047 66q0 -41 -27 -59.5t-64 -18.5q-25 0 -55.5 11t-52.5 32q-20 16 -31.5 35.5t-19.5 39.5q-53 -57 -131 -87.5t-185 -30.5q-96 0 -159.5 28.5t-103.5 78.5t-56.5 118t-16.5 147v596q0 39 27 65t61 26q39 0 65 -26t26 -65v-577q0 -51 8 -92t29.5 -70t59.5 -44t97 -15 q92 0 153.5 37.5t94.5 99.5v661q0 39 26.5 65t63.5 26t63.5 -27t26.5 -64v-702q0 -63 16.5 -87t47.5 -40q37 -22 37 -61z" />
<glyph unicode="v" horiz-adv-x="948" d="M903 934q-72 -211 -151.5 -428t-165.5 -428q-23 -55 -52.5 -72.5t-64.5 -17.5q-39 0 -67.5 17.5t-51.5 72.5q-82 211 -160.5 430t-146.5 430q-14 49 15.5 79t68.5 30q25 0 45.5 -14.5t30.5 -43.5q59 -184 126.5 -379.5t139.5 -386.5q72 190 141.5 385t128.5 379 q10 31 33 45.5t47 14.5q41 0 70.5 -31t13.5 -82z" />
<glyph unicode="w" horiz-adv-x="1449" d="M1403 948q-55 -215 -118.5 -442t-133.5 -438q-14 -43 -45 -61.5t-68 -18.5t-67.5 18.5t-42.5 61.5q-55 174 -105.5 343t-97.5 343q-47 -174 -97 -344t-106 -342q-12 -43 -42.5 -61.5t-67.5 -18.5t-68 18.5t-45 61.5q-68 211 -132.5 438t-117.5 442q-10 45 17.5 72 t64.5 27q27 0 49.5 -14.5t30.5 -49.5q47 -182 99 -371.5t110 -375.5q57 186 107.5 363t97.5 368q8 35 31.5 57.5t70.5 22.5q45 0 67.5 -23t30.5 -57q49 -190 98.5 -367.5t108.5 -363.5q55 186 107.5 375.5t99.5 371.5q8 35 30.5 49.5t51.5 14.5q35 0 63.5 -27t18.5 -72z" />
<glyph unicode="x" horiz-adv-x="917" d="M854 119q14 -27 11 -50.5t-17 -42t-34.5 -28.5t-43.5 -10q-25 0 -45 11t-35 40q-49 94 -109.5 180t-125.5 172q-66 -86 -128.5 -175t-109.5 -181q-27 -47 -74 -47q-23 0 -42 9t-32.5 26.5t-16.5 40t9 47.5q59 111 135 215t152 202q-72 94 -139.5 189.5t-120.5 202.5 q-12 27 -9 49t17.5 39.5t35 28t42.5 10.5q25 0 46.5 -12.5t35.5 -39.5q43 -86 94 -164.5t111 -154.5q57 78 111.5 156.5t97.5 164.5q12 27 32.5 38.5t42.5 11.5q20 0 40 -9.5t32 -26t16.5 -38t-8.5 -45.5q-53 -104 -120.5 -201.5t-139.5 -189.5q80 -102 155 -203.5 t134 -214.5z" />
<glyph unicode="y" horiz-adv-x="929" d="M610 143q-45 -129 -95 -225t-110.5 -159.5t-134 -96.5t-166.5 -37q-47 -4 -71.5 24.5t-24.5 63.5q0 31 19.5 56.5t62.5 29.5q82 2 153.5 44t137.5 165q-51 125 -100.5 251t-94.5 246t-82.5 229.5t-66.5 201.5q-8 25 -3 45t18.5 34.5t31.5 23t37 8.5q27 0 48 -14.5 t32 -47.5q51 -156 117.5 -347.5t148.5 -406.5l254 756q10 33 33.5 46.5t46.5 13.5q43 0 72.5 -33t13.5 -86z" />
<glyph unicode="z" horiz-adv-x="868" d="M827 954q0 -33 -24 -69l-522 -725h467q35 0 57 -22.5t22 -57.5q0 -33 -22.5 -56.5t-56.5 -23.5h-623q-29 0 -55.5 23.5t-26.5 64.5q0 33 16 51l529 733h-430q-33 0 -56.5 24t-23.5 58q0 33 23.5 56.5t56.5 23.5h585q29 0 56.5 -19.5t27.5 -60.5z" />
<glyph unicode="{" horiz-adv-x="647" d="M555 -285q0 -39 -22.5 -64.5t-63.5 -25.5h-14q-59 0 -111.5 22.5t-90.5 65.5t-60.5 106.5t-22.5 145.5q0 57 12.5 115.5t27.5 116t27.5 113t12.5 104.5q0 94 -37 130t-70 36h-10q-33 0 -52.5 22.5t-19.5 52.5q0 33 19.5 54.5t52.5 21.5h10q16 0 35 8.5t35 27.5t26.5 51 t10.5 81t-12.5 103.5t-27.5 111.5t-27.5 115.5t-12.5 116.5q0 82 22.5 145t60.5 106t90 66t112 23h14q41 0 63.5 -26t22.5 -63t-22.5 -62.5t-57.5 -25.5h-10q-43 0 -78 -43t-35 -129q0 -53 12.5 -107t28 -107.5t27.5 -109t12 -110.5q0 -88 -33.5 -149.5t-95.5 -91.5v-11 q61 -31 95 -92t34 -149q0 -57 -12 -112.5t-27.5 -109t-28 -107.5t-12.5 -108q0 -86 35 -129t78 -43h10q35 0 57.5 -25.5t22.5 -60.5z" />
<glyph unicode="|" horiz-adv-x="483" d="M334 -283q0 -41 -26.5 -66.5t-65.5 -25.5t-65.5 25.5t-26.5 66.5v1880q0 39 26.5 66t65.5 27t65.5 -27t26.5 -66v-1880v0z" />
<glyph unicode="}" horiz-adv-x="647" d="M586 655q0 -31 -19.5 -53t-50.5 -22h-12q-33 0 -70 -36t-37 -130q0 -49 12.5 -104.5t28 -113t27.5 -115.5t12 -116q0 -82 -22.5 -145.5t-60.5 -106.5t-90 -65.5t-111 -22.5h-15q-39 0 -62.5 25.5t-23.5 64.5q0 35 22.5 60.5t57.5 25.5h10q45 0 78 43t33 129 q0 53 -12.5 107.5t-25.5 108t-25.5 108.5t-12.5 113q0 178 129 241v11q-129 63 -129 241q0 55 12.5 110.5t25.5 109t25.5 107.5t12.5 107q0 86 -33 129t-78 43h-10q-35 0 -57.5 26t-22.5 62q0 37 23.5 63t62.5 26h15q59 0 111 -23t90 -66t60.5 -106.5t22.5 -144.5 q0 -57 -12 -116t-27.5 -116t-28 -111.5t-12.5 -103.5t10.5 -81t27 -51t34.5 -27.5t35 -8.5h12q31 0 50.5 -21.5t19.5 -54.5z" />
<glyph unicode="~" horiz-adv-x="1114" d="M989 596q0 -37 -22.5 -66.5t-59.5 -50t-83 -32t-93 -11.5q-57 0 -100 14.5t-81 33t-74 32.5t-79 14q-39 0 -62.5 -10t-42 -21.5t-34.5 -21.5t-41 -10q-39 0 -65.5 26.5t-26.5 65.5q0 37 22.5 66.5t59.5 50t83 32t93 11.5q55 0 98 -15.5t81 -33t75 -32.5t80 -15 q39 0 62.5 10t42 22.5t34.5 22.5t41 10q39 0 65.5 -27.5t26.5 -64.5z" />
<glyph unicode="&#xa1;" horiz-adv-x="550" d="M198.022 520.031q4 42.9971 20.499 65.4961q16.499 22.498 57.4961 22.498q38.998 0 55.4971 -22.498q16.499 -22.499 20.499 -65.4961l19.998 -900.945q2 -40.998 -22.498 -72.4961q-24.499 -31.498 -73.4961 -31.498q-50.9961 0 -76.4951 31.498 q-25.498 31.498 -21.498 72.4961zM145.026 913.007q0 54.9971 38.9971 93.9941q38.998 38.998 91.9941 38.998q54.9971 0 93.9951 -38.498q38.9971 -38.4971 38.9971 -94.4941q0 -52.9971 -38.9971 -91.9941q-38.998 -38.998 -93.9951 -38.998q-52.9961 0 -91.9941 38.998 q-38.9971 38.9971 -38.9971 91.9941z" />
<glyph unicode="&#xa2;" horiz-adv-x="872" d="M805 885q-14 -29 -41 -39t-57 6q-39 20 -81 30.5t-96 10.5q-117 0 -178 -81t-61 -214v-164q0 -137 57.5 -215t175.5 -78q47 0 93.5 9.5t93.5 33.5q31 14 58.5 3t39.5 -40q12 -33 1 -59.5t-38 -40.5q-41 -23 -85 -36t-89 -17v-107q0 -31 -22.5 -52t-53.5 -21t-53.5 21.5 t-22.5 51.5v105q-88 10 -151.5 48t-104 97.5t-60 137t-19.5 167.5v142q0 86 20.5 163.5t62.5 138t105 101.5t147 53v105q0 31 23 53.5t53 22.5q31 0 53.5 -22.5t22.5 -53.5v-107q96 -6 174 -53q29 -16 39 -41.5t-6 -58.5z" />
<glyph unicode="&#xa3;" d="M1067 88q0 -37 -25.5 -62.5t-60.5 -25.5h-815q-35 0 -60.5 24.5t-25.5 63.5q0 23 10 37t27.5 25.5t38 20.5t43.5 22q51 27 90 87t39 175q-2 41 -12.5 79.5t-26.5 75.5h-96q-33 0 -55.5 22.5t-22.5 55.5t22.5 55.5t55.5 22.5h51q-25 66 -44.5 136.5t-19.5 152.5t28 162.5 t87 144t150.5 103.5t218.5 40q78 0 148.5 -9t148.5 -38q68 -25 67 -84q0 -39 -22.5 -63.5t-61.5 -24.5q-16 0 -32.5 6t-57.5 17q-41 10 -83 15t-95 5q-86 0 -146.5 -25.5t-97.5 -65.5t-53.5 -89t-16.5 -96q0 -76 22 -145.5t50 -141.5h324q33 0 55.5 -22.5t22.5 -55.5 t-22.5 -55.5t-55.5 -22.5h-281q14 -35 23.5 -74.5t9.5 -80.5q2 -90 -29.5 -159t-85.5 -122h586q35 0 60.5 -25.5t25.5 -60.5z" />
<glyph unicode="&#xa4;" horiz-adv-x="1421" d="M285 487q-47 66 -75 143t-28 165q0 176 105 309l-160 162q-23 23 -23 55.5t25 58.5q25 25 57.5 25t57.5 -23l157 -161q66 49 145 76.5t167 27.5q86 0 163.5 -27.5t143.5 -76.5l158 159q23 23 56.5 23t59.5 -27q23 -23 23 -56.5t-23 -55.5l-157 -158q51 -66 78.5 -144.5 t27.5 -166.5t-27.5 -167t-76.5 -145l155 -153q25 -23 24 -56.5t-24 -56.5q-27 -27 -59.5 -28t-56.5 24l-156 156q-66 -49 -143.5 -77t-165.5 -28q-90 0 -169 27.5t-145 77.5l-155 -156q-25 -25 -57.5 -24t-57.5 24q-27 27 -26 59.5t24 57.5zM319 795q0 -82 31 -154t84 -125 t125 -84t154 -31t152.5 31t123.5 84t84 125t31 154t-31 152.5t-84 123.5t-123.5 84t-152.5 31t-154 -31t-125 -84t-84 -123.5t-31 -152.5z" />
<glyph unicode="&#xa5;" d="M1090 1423q0 -16 -11 -37q-51 -121 -114.5 -255t-139.5 -283h138q33 0 55 -22.5t22 -53.5q0 -33 -22.5 -55.5t-54.5 -22.5h-220l-77 -147v-45h297q33 0 55 -22.5t22 -55.5q0 -31 -22.5 -53.5t-54.5 -22.5h-297v-274q0 -39 -27 -65.5t-66 -26.5q-41 0 -66.5 26.5 t-25.5 65.5v274h-299q-31 0 -53.5 22.5t-22.5 53.5q0 33 23 55.5t53 22.5h299v45q-20 37 -40.5 74.5t-39.5 72.5h-219q-31 0 -53.5 22.5t-22.5 55.5q0 31 23 53.5t53 22.5h142q-78 150 -141.5 283t-114.5 251q-8 16 -9 39q0 41 30 65.5t67 24.5q23 0 44 -13t36 -42 q66 -154 150.5 -328t188.5 -372q104 199 190.5 373t152.5 327q27 55 77 55q35 0 65 -24.5t30 -63.5z" />
<glyph unicode="&#xa6;" horiz-adv-x="483" d="M334 969q0 -39 -26.5 -65.5t-65.5 -26.5t-65.5 26.5t-26.5 65.5v628q0 37 26.5 64t65.5 27t65.5 -27t26.5 -64v-628zM334 -104q0 -39 -26.5 -66t-65.5 -27t-65.5 27t-26.5 66v626q0 39 26.5 65.5t65.5 26.5t65.5 -26.5t26.5 -65.5v-626z" />
<glyph unicode="&#xa7;" horiz-adv-x="1114" d="M1018 526q0 -98 -37 -168.5t-98 -117.5q35 -37 57.5 -88.5t22.5 -122.5q0 -102 -37 -177t-98.5 -122t-140.5 -69.5t-161 -22.5q-66 0 -133 11t-127 32q-78 29 -78 86q0 31 20.5 56t57.5 25q20 0 39 -9t57 -21q33 -10 71 -17.5t85 -7.5q117 0 196 52.5t79 166.5 q0 74 -43 113t-119 68q-39 14 -89 28.5t-102.5 30.5t-100.5 33.5t-83 36.5q-72 41 -113 105.5t-41 166.5q0 98 37 169t97 118q-35 37 -56.5 88t-21.5 123q0 102 36.5 175.5t98 121t139.5 70t160 22.5q70 0 136.5 -9.5t123.5 -31.5q80 -29 80 -84q0 -35 -20.5 -59.5 t-57.5 -24.5q-20 0 -39.5 9t-54.5 19t-74 18.5t-86 8.5q-57 0 -107.5 -13.5t-87 -40t-57 -67.5t-20.5 -98q0 -74 42 -113t119 -65q39 -14 89.5 -29.5t102.5 -32t100 -34t83 -35.5q72 -41 113 -106t41 -167zM850 514q0 53 -22.5 87t-61.5 55.5t-88 37t-103 31.5 q-51 16 -103 33.5t-99 40.5q-47 -31 -75 -79t-28 -114q0 -53 22.5 -86t60.5 -55.5t88.5 -38.5t103.5 -33q51 -16 103 -31.5t100 -39.5q47 31 74.5 78.5t27.5 113.5z" />
<glyph unicode="&#xa8;" horiz-adv-x="1085" d="M272 1372q0 43 30 73t73 30t72.5 -30t29.5 -73t-29.5 -71.5t-72.5 -28.5t-73 28.5t-30 71.5zM608 1372q0 43 29 73t72 30t72.5 -30t29.5 -73t-29.5 -71.5t-72.5 -28.5t-72 28.5t-29 71.5z" />
<glyph unicode="&#xa9;" horiz-adv-x="1804" d="M1667 745q0 -158 -60.5 -297t-165 -242.5t-243.5 -163.5t-297 -60t-297 60t-242.5 163.5t-164 243t-60.5 296.5q0 158 60.5 297.5t164 244t242.5 164.5t297 60t297 -60t243.5 -164.5t165 -244t60.5 -297.5zM1532 745q0 131 -49 246t-135 201t-201 136t-246 50t-245.5 -50 t-200.5 -136t-135.5 -200.5t-49.5 -246.5q0 -131 49.5 -245.5t135.5 -200.5t200.5 -135t245.5 -49t246 49t201 135t135 200.5t49 245.5zM1139 420q0 -41 -39 -58q-51 -23 -102.5 -31.5t-98.5 -8.5q-84 0 -146.5 28.5t-102.5 78.5t-59.5 117.5t-19.5 145.5v109 q0 74 20.5 141.5t62.5 117.5t103.5 80.5t141.5 30.5q47 0 97.5 -8t101.5 -30q41 -20 41 -58q0 -27 -17.5 -47t-46.5 -20q-14 0 -28 6q-35 16 -71 22t-71 6q-90 0 -145 -65.5t-55 -175.5v-109q0 -113 47 -177t151 -64q39 0 76 7t72 23q10 4 26 4q29 0 45.5 -20t16.5 -45z" />
<glyph unicode="&#xaa;" horiz-adv-x="876" d="M801 666q0 -35 -20.5 -50.5t-55.5 -15.5q-25 0 -48.5 9t-39.5 26q-23 16 -33 47q-47 -51 -112.5 -66.5t-120.5 -15.5q-156 0 -225.5 71.5t-69.5 176.5v14q0 106 74.5 175t236.5 69h186v39q0 98 -32.5 148t-134.5 50q-59 0 -99.5 -12t-70.5 -31q-31 -16 -57.5 -5.5 t-37.5 32.5q-10 20 -6 44t31 40q51 31 114.5 45t133.5 14q90 0 150.5 -22.5t96 -65.5t51 -106.5t15.5 -145.5v-311q0 -51 11.5 -69.5t33.5 -32.5q29 -16 29 -51zM573 987h-172q-104 0 -139 -39t-35 -88v-14q0 -53 35 -90t133 -37q86 0 132 43t46 129v96z" />
<glyph unicode="&#xab;" horiz-adv-x="1265" d="M598 217q23 -25 23 -60.5t-27 -58.5q-25 -25 -58.5 -23.5t-58.5 25.5l-385 400q-25 25 -24 57q0 33 24 57l385 398q25 27 58.5 26.5t58.5 -22.5q27 -25 27 -59.5t-23 -61.5l-330 -338l330 -340v0zM1145 217q23 -25 23 -60.5t-27 -58.5q-25 -25 -58.5 -23.5t-58.5 25.5 l-385 400q-25 25 -24 57q0 33 24 57l385 398q25 27 58.5 26.5t58.5 -22.5q27 -25 27 -59.5t-23 -61.5l-330 -338l330 -340v0z" />
<glyph unicode="&#xac;" horiz-adv-x="1167" d="M1044 510q0 -35 -25.5 -59.5t-60.5 -24.5t-59.5 24.5t-24.5 59.5v186h-667q-35 0 -59.5 24.5t-24.5 59.5t24.5 59.5t59.5 24.5h751q35 0 60.5 -24.5t25.5 -59.5v-270v0z" />
<glyph unicode="&#xad;" horiz-adv-x="1003" d="M860 600q0 -35 -23.5 -58.5t-58.5 -23.5h-551q-35 0 -59.5 23.5t-24.5 58.5t25 59.5t59 24.5h551q35 0 58.5 -24.5t23.5 -59.5z" />
<glyph unicode="&#xae;" horiz-adv-x="1804" d="M1667 745q0 -158 -60.5 -297t-165 -242.5t-243.5 -163.5t-297 -60t-297 60t-242.5 163.5t-164 243t-60.5 296.5q0 158 60.5 297.5t164 244t242.5 164.5t297 60t297 -60t243.5 -164.5t165 -244t60.5 -297.5zM1532 745q0 131 -49 246t-135 201t-201 136t-246 50t-245.5 -50 t-200.5 -136t-135.5 -200.5t-49.5 -246.5q0 -131 49.5 -245.5t135.5 -200.5t200.5 -135t245.5 -49t246 49t201 135t135 200.5t49 245.5zM1186 889q0 -66 -39 -122t-119 -79l139 -262q8 -16 9 -29q0 -29 -20.5 -48t-49.5 -19q-41 0 -59 39l-156 301h-127v-273 q0 -29 -19.5 -48t-48.5 -19t-47 19.5t-18 47.5v699q0 29 18.5 48t46.5 19h226q74 0 124 -19.5t80.5 -50t45 -69.5t14.5 -80v-55zM1051 938q0 16 -6.5 35.5t-21.5 35t-41 25.5t-67 10h-151v-258h145q41 0 69 10.5t44 27t22.5 35t6.5 36.5v43z" />
<glyph unicode="&#xaf;" horiz-adv-x="1085" d="M823 1389q0 -33 -22.5 -55.5t-55.5 -22.5h-405q-33 0 -55.5 22.5t-22.5 55.5t22.5 55t55.5 22h405q33 0 55.5 -22t22.5 -55z" />
<glyph unicode="&#xb0;" horiz-adv-x="831" d="M760 1169q0 -72 -26.5 -134t-74 -108t-110 -73t-133.5 -27q-72 0 -134.5 27t-109.5 73t-73.5 108.5t-26.5 133.5q0 72 26.5 134.5t73.5 108.5t109.5 72.5t134.5 26.5t134 -26.5t109.5 -72.5t74 -108.5t26.5 -134.5zM614 1169q0 41 -15 77t-43 62.5t-63.5 42t-76.5 15.5 t-77 -15.5t-63.5 -42t-43 -62.5t-15.5 -77t15.5 -77.5t43 -63.5t63.5 -42t77 -15t76.5 15t63.5 42t43 63.5t15 77.5z" />
<glyph unicode="&#xb1;" horiz-adv-x="1126" d="M999 801q0 -35 -24.5 -59.5t-59.5 -24.5h-268v-268q0 -35 -24.5 -61t-59.5 -26t-59.5 26t-24.5 61v268h-268q-35 0 -59.5 24.5t-24.5 59.5t24.5 59.5t59.5 24.5h268v268q0 35 24.5 59.5t59.5 24.5t59.5 -24.5t24.5 -59.5v-268h268q35 0 59.5 -24.5t24.5 -59.5zM999 84 q0 -35 -24.5 -59.5t-59.5 -24.5h-704q-35 0 -59.5 24.5t-24.5 59.5t24.5 59.5t59.5 24.5h704q35 0 59.5 -24.5t24.5 -59.5z" />
<glyph unicode="&#xb2;" horiz-adv-x="921" d="M725 668q0 -23 -16.5 -39.5t-38.5 -16.5h-418q-25 0 -40 15.5t-15 40.5q0 59 19.5 107t48 86t62 66.5t62.5 51.5q39 31 78 59.5t70.5 59t51 66.5t19.5 79q0 59 -34.5 103.5t-112.5 44.5q-37 0 -63.5 -7.5t-51.5 -19.5q-29 -14 -44 -28.5t-38 -14.5t-39 16.5t-16 38.5 q0 25 20 43q92 80 236 80q70 0 119 -22.5t80.5 -58.5t46 -82t14.5 -93q0 -53 -16.5 -96t-44 -78t-62.5 -63.5t-72 -55.5q-72 -53 -131 -103t-77 -122h348q23 0 39 -17t16 -40z" />
<glyph unicode="&#xb3;" horiz-adv-x="921" d="M725 854q0 -49 -17.5 -94t-52 -81t-88 -56.5t-123.5 -20.5q-72 0 -127 17.5t-102 64.5q-18 18 -18 43q0 23 14 37t37 14q16 0 27.5 -11t41.5 -30q29 -18 57.5 -25t65.5 -7q86 0 128 47t42 112q0 82 -53 113t-129 33q-16 0 -36.5 9t-20.5 42t20.5 42t38.5 9q29 2 58.5 9 t54 22.5t40 41t15.5 64.5q0 27 -7 52.5t-23.5 46t-44 33t-70.5 12.5q-35 0 -65 -8.5t-52 -20.5q-25 -16 -38 -29.5t-34 -13.5q-18 0 -33.5 14.5t-15.5 38.5q0 23 25 45q31 33 85 55.5t132 22.5q70 0 118 -22.5t77.5 -56.5t42 -76t12.5 -80q0 -74 -33 -121t-92 -74 q66 -23 104.5 -72t38.5 -141z" />
<glyph unicode="&#xb4;" horiz-adv-x="1085" d="M657 1634q20 -10 30.5 -28.5t10.5 -34.5q0 -25 -12 -39l-166 -275q-25 -41 -61 -40q-16 0 -33 10q-16 8 -27.5 23.5t-11.5 35.5q0 12 8 33l154 283q20 43 67 43q23 -1 41 -11z" />
<glyph unicode="&#xb5;" horiz-adv-x="1120" d="M1047 66q0 -41 -27 -59.5t-64 -18.5q-25 0 -55.5 11t-52.5 32q-20 16 -31.5 35.5t-19.5 39.5q-53 -57 -131 -87.5t-185 -30.5q-55 0 -93 14t-64 37v-354q0 -37 -26 -64t-65 -27q-35 0 -61.5 27t-26.5 64v1271q0 39 27 65t61 26q39 0 65 -26t26 -65v-577q0 -51 8 -92 t29.5 -70t59.5 -44t97 -15q92 0 153.5 37.5t94.5 99.5v661q0 39 26.5 65t63.5 26t63.5 -27t26.5 -64v-702q0 -63 16.5 -87t47.5 -40q37 -22 37 -61z" />
<glyph unicode="&#xb6;" horiz-adv-x="1333" d="M1262 1419q0 -33 -22.5 -56.5t-57.5 -23.5h-84v-1577q0 -39 -28 -65.5t-64 -26.5q-39 0 -66 27t-27 65v1577h-229v-1577q0 -39 -26.5 -65.5t-65.5 -26.5q-37 0 -64.5 27t-27.5 65v961q-78 4 -146.5 36t-120 84t-81 120.5t-29.5 146.5q0 82 30.5 152.5t85 123t126 83 t153.5 30.5h664q35 0 57.5 -22.5t22.5 -57.5z" />
<glyph unicode="&#xb7;" horiz-adv-x="497" d="M362 604q0 -51 -34.5 -86t-85.5 -35q-49 0 -84 35t-35 86t35 85t84 34q51 0 85.5 -34t34.5 -85z" />
<glyph unicode="&#xb8;" horiz-adv-x="1085" d="M731 -242q0 -78 -62.5 -124t-176.5 -46q-137 0 -138 54q0 39 99 39q74 0 107.5 23.5t33.5 59.5q0 41 -29.5 57.5t-89.5 20.5q-41 4 -57.5 16.5t-14.5 43.5l9 106h96v-86q123 0 173 -46t50 -118z" />
<glyph unicode="&#xb9;" horiz-adv-x="921" d="M741 668q0 -23 -16 -39.5t-39 -16.5h-422q-23 0 -40 16.5t-17 39.5t17.5 39t39.5 16h195v616l-197 -135q-18 -12 -40.5 -8t-37.5 25q-12 18 -7 40.5t26 34.5l278 191q14 12 35 12q25 0 41 -17.5t16 -39.5v-719h113q23 0 39 -16t16 -39z" />
<glyph unicode="&#xba;" horiz-adv-x="901" d="M791 948q0 -72 -19.5 -135t-60.5 -110.5t-105.5 -75t-154.5 -27.5t-155 27.5t-105.5 75t-60 111t-19.5 134.5v172q0 72 19.5 135.5t60 111.5t105 75.5t155.5 27.5q90 0 154.5 -27.5t105.5 -75.5t60.5 -111.5t19.5 -135.5v-172zM639 1120q0 98 -44 153.5t-144 55.5 t-143.5 -55t-43.5 -154v-172q0 -98 43 -153.5t144 -55.5q100 0 144 55.5t44 153.5v172z" />
<glyph unicode="&#xbb;" horiz-adv-x="1265" d="M651 557q0 -29 -24 -57l-385 -400q-25 -25 -60 -25.5t-59 23.5q-25 23 -26 59t24 60l328 340l-328 338q-25 27 -24 61.5t26 59.5q25 23 59.5 22.5t59.5 -26.5l385 -398q24 -28 24 -57zM1198 557q0 -29 -24 -57l-385 -400q-25 -25 -60 -25.5t-59 23.5q-25 23 -26 59t24 60 l328 340l-328 338q-25 27 -24 61.5t26 59.5q25 23 59.5 22.5t59.5 -26.5l385 -398q24 -28 24 -57z" />
<glyph unicode="&#xbc;" horiz-adv-x="921" d="M715 731q0 -23 -14.5 -37t-36.5 -14h-392q-23 0 -37 14.5t-14 36.5q0 23 14.5 37t36.5 14h181v568l-181 -123q-18 -12 -39.5 -7t-31.5 21q-12 18 -8 38.5t22 33.5l258 174q14 12 33 12q23 0 38 -15.5t15 -37.5v-664h105q23 0 37 -14t14 -37zM840 524q0 -23 -14.5 -37 t-37.5 -14h-655q-23 0 -37 14.5t-14 36.5q0 23 14.5 37t36.5 14h655q23 0 37.5 -14t14.5 -37zM698 -225q0 -23 -14 -38.5t-35 -15.5h-51v-110q0 -23 -15.5 -38t-37.5 -15q-23 0 -38 15t-15 38v110h-263q-23 0 -37 14.5t-14 39.5q0 8 2 13t4 9l242 559q10 20 29.5 28.5 t40.5 -1.5q23 -10 31 -29.5t-3 -40.5l-213 -489h181v145q0 23 15 37t38 14t38 -14t15 -37v-145h51q20 0 34.5 -14.5t14.5 -34.5z" />
<glyph unicode="&#xbd;" horiz-adv-x="921" d="M715 731q0 -23 -14.5 -37t-36.5 -14h-392q-23 0 -37 14.5t-14 36.5q0 23 14.5 37t36.5 14h181v568l-181 -123q-18 -12 -39.5 -7t-31.5 21q-12 18 -8 38.5t22 33.5l258 174q14 12 33 12q23 0 38 -15.5t15 -37.5v-664h105q23 0 37 -14t14 -37zM840 524q0 -23 -14.5 -37 t-37.5 -14h-655q-23 0 -37 14.5t-14 36.5q0 23 14.5 37t36.5 14h655q23 0 37.5 -14t14.5 -37zM709 -379q0 -23 -14.5 -38t-37.5 -15h-387q-23 0 -37 15.5t-14 37.5q0 55 18.5 99t45 78t57.5 60.5t57 49.5q37 29 73 55.5t65.5 55t48 60.5t18.5 73q0 55 -32.5 96t-104.5 41 q-35 0 -59.5 -7.5t-47.5 -17.5q-29 -14 -42 -27.5t-31 -13.5q-23 0 -38.5 14.5t-15.5 36.5q0 27 19 39q82 76 219 76q63 0 108.5 -20.5t74 -54t43 -76.5t14.5 -86q0 -49 -15.5 -88t-41 -72t-58.5 -60.5t-66 -52.5q-68 -49 -122 -95t-70 -112h321q23 0 37.5 -14t14.5 -37z " />
<glyph unicode="&#xbe;" horiz-adv-x="921" d="M719 901q0 -45 -16.5 -87t-49 -73.5t-82 -51t-112.5 -19.5q-68 0 -119 16t-94 59q-16 14 -17 39q0 20 13.5 35t33.5 15q16 0 26.5 -11.5t39.5 -29.5q45 -29 113 -29q78 0 116.5 43t38.5 104q0 78 -48 105.5t-120 30.5q-16 0 -33.5 9t-17.5 38t18.5 39t34.5 10 q27 0 54.5 7t50 21.5t38 38t15.5 58.5q0 51 -29.5 92t-107.5 41q-61 0 -107 -29q-23 -14 -35 -25.5t-30 -11.5t-31.5 12.5t-13.5 34.5q0 25 20 43q29 29 80 50.5t121 21.5q66 0 110 -20.5t71.5 -52t38.5 -69.5t11 -75q0 -70 -30.5 -113t-83.5 -67q59 -23 96 -69t37 -130z M840 524q0 -23 -14.5 -37t-37.5 -14h-655q-23 0 -37 14.5t-14 36.5q0 23 14.5 37t36.5 14h655q23 0 37.5 -14t14.5 -37zM702 -225q0 -23 -14 -38.5t-37 -15.5h-51v-110q0 -23 -15.5 -38t-37.5 -15q-23 0 -37 15t-14 38v110h-263q-23 0 -38 14.5t-15 39.5q0 8 3 13t5 9 l242 559q10 20 29.5 28.5t40.5 -1.5q20 -10 29.5 -29.5t-1.5 -40.5l-213 -489h181v145q0 23 14 37t37 14t38 -14t15 -37v-145h51q23 0 37 -14.5t14 -34.5z" />
<glyph unicode="&#xbf;" horiz-adv-x="935" d="M112.055 -99.9316q0 67.9961 16.499 119.993t45.9971 94.9941t70.4951 80.4951q40.998 37.498 89.9951 76.4951q54.9961 42.9971 85.9941 77.9951t47.4971 64.4961t20.499 56.4971q4 26.998 4 56.9961q0 34.998 23.498 57.4971q23.499 22.498 60.4961 22.498 q36.998 0 61.4971 -22.498q24.498 -22.499 24.498 -63.4961q0 -44.998 -5.99902 -84.9951q-6 -39.998 -25.499 -78.9951q-19.499 -38.998 -54.4971 -78.4951q-34.9971 -39.498 -91.9941 -87.4951q-46.9971 -36.998 -81.9951 -67.4961q-34.9971 -30.498 -58.4961 -60.9961 t-35.998 -66.4961q-12.499 -35.9971 -12.499 -82.9941q0 -62.9971 21.499 -108.494q21.498 -45.4971 55.4961 -72.9951t77.9951 -40.998q43.998 -13.499 86.9951 -13.499q85.9951 0 140.491 24.999q54.4971 24.998 99.4941 65.9961q22.998 15.999 48.9971 15.999 q38.9971 0 62.4961 -24.499q23.499 -24.498 23.499 -55.4961q0 -30.999 -24.499 -58.4971q-24.498 -27.498 -51.4971 -45.4971q-65.9961 -42.9971 -139.491 -64.4961t-175.489 -21.499q-69.9961 0 -142.491 21.499q-72.4961 21.499 -131.992 68.4961t-97.4941 119.992 q-37.9971 72.9961 -37.9971 174.989zM444.034 913.007q0 54.9971 38.9971 93.9941q38.998 38.998 91.9951 38.998q54.9961 0 93.9941 -38.498q38.9971 -38.4971 38.9971 -94.4941q0 -52.9971 -38.9971 -91.9941q-38.998 -38.998 -93.9941 -38.998 q-52.9971 0 -91.9951 38.998q-38.9971 38.9971 -38.9971 91.9941z" />
<glyph unicode="&#xc0;" horiz-adv-x="1161" d="M1130 94q12 -53 -18.5 -82.5t-71.5 -29.5q-29 0 -54 17t-36 54q-18 74 -37.5 148.5t-42.5 146.5h-585q-20 -72 -40 -146.5t-40 -148.5q-10 -37 -34 -54t-52 -17q-39 0 -70 29.5t-18 82.5q88 354 195.5 677t236.5 640q27 63 56.5 81.5t60.5 18.5t61.5 -18t58.5 -82 q129 -317 235.5 -640t194.5 -677zM823 516q-55 182 -116.5 354t-128.5 344q-68 -172 -129.5 -344t-116.5 -354h491zM467 2042q18 10 41 11q47 0 68 -43l153 -283q8 -20 8 -33q0 -20 -11 -35.5t-28 -23.5q-16 -10 -32 -10q-37 0 -62 40l-166 275q-12 14 -12 39 q0 16 10.5 34.5t30.5 28.5z" />
<glyph unicode="&#xc1;" horiz-adv-x="1161" d="M1130 94q12 -53 -18.5 -82.5t-71.5 -29.5q-29 0 -54 17t-36 54q-18 74 -37.5 148.5t-42.5 146.5h-585q-20 -72 -40 -146.5t-40 -148.5q-10 -37 -34 -54t-52 -17q-39 0 -70 29.5t-18 82.5q88 354 195.5 677t236.5 640q27 63 56.5 81.5t60.5 18.5t61.5 -18t58.5 -82 q129 -317 235.5 -640t194.5 -677zM823 516q-55 182 -116.5 354t-128.5 344q-68 -172 -129.5 -344t-116.5 -354h491zM684 2042q20 -10 30.5 -28.5t10.5 -34.5q0 -25 -12 -39l-166 -275q-25 -41 -61 -40q-16 0 -33 10q-16 8 -27.5 23.5t-11.5 35.5q0 12 8 33l154 283 q20 43 67 43q23 -1 41 -11z" />
<glyph unicode="&#xc2;" horiz-adv-x="1161" d="M1130 94q12 -53 -18.5 -82.5t-71.5 -29.5q-29 0 -54 17t-36 54q-18 74 -37.5 148.5t-42.5 146.5h-585q-20 -72 -40 -146.5t-40 -148.5q-10 -37 -34 -54t-52 -17q-39 0 -70 29.5t-18 82.5q88 354 195.5 677t236.5 640q27 63 56.5 81.5t60.5 18.5t61.5 -18t58.5 -82 q129 -317 235.5 -640t194.5 -677zM823 516q-55 182 -116.5 354t-128.5 344q-68 -172 -129.5 -344t-116.5 -354h491zM576 2044q33 -2 55 -22l250 -242q27 -25 26 -53q0 -29 -18 -49q-23 -25 -51 -25q-27 0 -47 19l-215 192l-215 -192q-23 -16 -45 -17q-33 0 -54 27 q-18 18 -18 47t27 53l249 240q23 22 56 22z" />
<glyph unicode="&#xc3;" horiz-adv-x="1161" d="M1130 94q12 -53 -18.5 -82.5t-71.5 -29.5q-29 0 -54 17t-36 54q-18 74 -37.5 148.5t-42.5 146.5h-585q-20 -72 -40 -146.5t-40 -148.5q-10 -37 -34 -54t-52 -17q-39 0 -70 29.5t-18 82.5q88 354 195.5 677t236.5 640q27 63 56.5 81.5t60.5 18.5t61.5 -18t58.5 -82 q129 -317 235.5 -640t194.5 -677zM823 516q-55 182 -116.5 354t-128.5 344q-68 -172 -129.5 -344t-116.5 -354h491zM912 1850q0 -33 -16.5 -59.5t-44 -45t-63.5 -30t-73 -11.5q-45 0 -79 12.5t-64.5 29t-59 28.5t-63.5 12q-31 0 -49.5 -9t-31.5 -21.5t-26.5 -21.5t-34.5 -9 q-29 0 -48 22.5t-19 57.5q0 33 16.5 59.5t44 45t63.5 29.5t72 11q45 0 79 -12t65 -28.5t59.5 -29t63.5 -12.5q31 0 49 9.5t31.5 20.5t25.5 21.5t35 10.5q29 0 48.5 -23.5t19.5 -56.5z" />
<glyph unicode="&#xc4;" horiz-adv-x="1161" d="M1130 94q12 -53 -18.5 -82.5t-71.5 -29.5q-29 0 -54 17t-36 54q-18 74 -37.5 148.5t-42.5 146.5h-585q-20 -72 -40 -146.5t-40 -148.5q-10 -37 -34 -54t-52 -17q-39 0 -70 29.5t-18 82.5q88 354 195.5 677t236.5 640q27 63 56.5 81.5t60.5 18.5t61.5 -18t58.5 -82 q129 -317 235.5 -640t194.5 -677zM823 516q-55 182 -116.5 354t-128.5 344q-68 -172 -129.5 -344t-116.5 -354h491zM309 1792q0 43 30 73t73 30t72.5 -30t29.5 -73t-29.5 -71.5t-72.5 -28.5t-73 28.5t-30 71.5zM645 1792q0 43 29 73t72 30t72.5 -30t29.5 -73t-29.5 -71.5 t-72.5 -28.5t-72 28.5t-29 71.5z" />
<glyph unicode="&#xc5;" horiz-adv-x="1161" d="M1130 94q12 -53 -18.5 -82.5t-71.5 -29.5q-29 0 -54 17t-36 54q-18 74 -37.5 148.5t-42.5 146.5h-585q-20 -72 -40 -146.5t-40 -148.5q-10 -37 -34 -54t-52 -17q-39 0 -70 29.5t-18 82.5q88 354 195.5 677t236.5 640q27 63 56.5 81.5t60.5 18.5t61.5 -18t58.5 -82 q129 -317 235.5 -640t194.5 -677zM823 516q-55 182 -116.5 354t-128.5 344q-68 -172 -129.5 -344t-116.5 -354h491zM819 1825q0 -51 -18.5 -95t-51 -76t-76.5 -50t-93 -18t-93 18t-77 50t-51.5 76t-18.5 95q0 49 18.5 93t51.5 77t77 51.5t93 18.5t93 -18.5t76.5 -51.5 t51 -77t18.5 -93zM719 1825q0 59 -41 99t-98 40t-98.5 -39.5t-41.5 -99.5q0 -59 41 -99t99 -40q57 0 98 40t41 99z" />
<glyph unicode="&#xc6;" horiz-adv-x="1804" d="M1726 88q0 -37 -25.5 -62.5t-62.5 -25.5h-667q-35 0 -60.5 25.5t-25.5 62.5v258h-527q-39 -76 -77.5 -150.5t-75.5 -150.5q-14 -29 -36 -41t-46 -12q-41 0 -67.5 25.5t-26.5 64.5q0 23 10 43q158 317 332 634.5t368 645.5q23 41 54.5 64.5t78.5 23.5h736q37 0 63.5 -26.5 t26.5 -61.5q0 -37 -26.5 -62.5t-63.5 -25.5h-539v-486h487q35 0 59.5 -25.5t24.5 -60.5t-24.5 -60.5t-59.5 -25.5h-487v-483h569q37 0 62.5 -25.5t25.5 -62.5zM885 1288q-119 -197 -227.5 -389t-213.5 -385h441v774z" />
<glyph unicode="&#xc7;" horiz-adv-x="1124" d="M1044 1321q0 -31 -21.5 -57.5t-64.5 -28.5q-23 0 -38 12.5t-39 28.5q-76 68 -213 67q-180 0 -263 -120.5t-83 -358.5v-237q0 -250 79.5 -363.5t255.5 -113.5q59 0 120 17t110 54q27 18 42 29.5t38 11.5q35 2 57.5 -22.5t22.5 -57.5q0 -16 -8.5 -34.5t-26.5 -32.5 q-66 -70 -155 -99.5t-173 -33.5v-66q123 0 174 -47t51 -119q0 -78 -63.5 -124t-177.5 -46q-68 0 -104 12.5t-36 42.5q0 23 26 31t75 8q74 0 107.5 23.5t33.5 58.5q0 41 -29.5 58.5t-89.5 21.5q-41 4 -57 15.5t-12 44.5l4 90q-123 10 -208 61t-139.5 134t-78 195.5 t-23.5 248.5v243q0 137 29 255t92.5 204t163.5 135t246 49q94 0 186 -28.5t156 -98.5q18 -14 26 -30.5t8 -32.5z" />
<glyph unicode="&#xc8;" horiz-adv-x="1134" d="M1057 88q0 -37 -25.5 -62.5t-60.5 -25.5h-713q-37 0 -62.5 25.5t-25.5 62.5v1317q0 35 25.5 61.5t62.5 26.5h682q37 0 63.5 -26.5t26.5 -61.5q0 -37 -26.5 -62.5t-63.5 -25.5h-586v-486h533q35 0 60.5 -25.5t25.5 -60.5t-25.5 -60.5t-60.5 -25.5h-533v-483h617 q35 0 60.5 -25.5t25.5 -62.5zM496 2044q18 10 41 11q47 0 68 -43l153 -283q8 -20 8 -33q0 -20 -11 -35.5t-28 -23.5q-16 -10 -32 -10q-37 0 -62 40l-166 275q-12 14 -12 39q0 16 10.5 34.5t30.5 28.5z" />
<glyph unicode="&#xc9;" horiz-adv-x="1134" d="M1057 88q0 -37 -25.5 -62.5t-60.5 -25.5h-713q-37 0 -62.5 25.5t-25.5 62.5v1317q0 35 25.5 61.5t62.5 26.5h682q37 0 63.5 -26.5t26.5 -61.5q0 -37 -26.5 -62.5t-63.5 -25.5h-586v-486h533q35 0 60.5 -25.5t25.5 -60.5t-25.5 -60.5t-60.5 -25.5h-533v-483h617 q35 0 60.5 -25.5t25.5 -62.5zM729 2042q20 -10 30.5 -28.5t10.5 -34.5q0 -25 -12 -39l-166 -275q-25 -41 -61 -40q-16 0 -33 10q-16 8 -27.5 23.5t-11.5 35.5q0 12 8 33l154 283q20 43 67 43q23 -1 41 -11z" />
<glyph unicode="&#xca;" horiz-adv-x="1134" d="M1057 88q0 -37 -25.5 -62.5t-60.5 -25.5h-713q-37 0 -62.5 25.5t-25.5 62.5v1317q0 35 25.5 61.5t62.5 26.5h682q37 0 63.5 -26.5t26.5 -61.5q0 -37 -26.5 -62.5t-63.5 -25.5h-586v-486h533q35 0 60.5 -25.5t25.5 -60.5t-25.5 -60.5t-60.5 -25.5h-533v-483h617 q35 0 60.5 -25.5t25.5 -62.5zM600 2044q33 -2 55 -22l250 -242q27 -25 26 -53q0 -29 -18 -49q-23 -25 -51 -25q-27 0 -47 19l-215 192l-215 -192q-23 -16 -45 -17q-33 0 -54 27q-18 18 -18 47t27 53l249 240q23 22 56 22z" />
<glyph unicode="&#xcb;" horiz-adv-x="1134" d="M1057 88q0 -37 -25.5 -62.5t-60.5 -25.5h-713q-37 0 -62.5 25.5t-25.5 62.5v1317q0 35 25.5 61.5t62.5 26.5h682q37 0 63.5 -26.5t26.5 -61.5q0 -37 -26.5 -62.5t-63.5 -25.5h-586v-486h533q35 0 60.5 -25.5t25.5 -60.5t-25.5 -60.5t-60.5 -25.5h-533v-483h617 q35 0 60.5 -25.5t25.5 -62.5zM319 1792q0 43 30 73t73 30t72.5 -30t29.5 -73t-29.5 -71.5t-72.5 -28.5t-73 28.5t-30 71.5zM655 1792q0 43 29 73t72 30t72.5 -30t29.5 -73t-29.5 -71.5t-72.5 -28.5t-72 28.5t-29 71.5z" />
<glyph unicode="&#xcc;" horiz-adv-x="524" d="M354 74q0 -39 -26.5 -65.5t-65.5 -26.5t-65.5 26.5t-26.5 65.5v1345q0 37 26.5 64.5t65.5 27.5t65.5 -27.5t26.5 -64.5v-1345v0zM164 2044q18 10 41 11q47 0 68 -43l153 -283q8 -20 8 -33q0 -20 -11 -35.5t-28 -23.5q-16 -10 -32 -10q-37 0 -62 40l-166 275 q-12 14 -12 39q0 16 10.5 34.5t30.5 28.5z" />
<glyph unicode="&#xcd;" horiz-adv-x="524" d="M354 74q0 -39 -26.5 -65.5t-65.5 -26.5t-65.5 26.5t-26.5 65.5v1345q0 37 26.5 64.5t65.5 27.5t65.5 -27.5t26.5 -64.5v-1345v0zM374 2042q20 -10 30.5 -28.5t10.5 -34.5q0 -25 -12 -39l-166 -275q-25 -41 -61 -40q-16 0 -33 10q-16 8 -27.5 23.5t-11.5 35.5q0 12 8 33 l154 283q20 43 67 43q23 -1 41 -11z" />
<glyph unicode="&#xce;" horiz-adv-x="524" d="M354 74q0 -39 -26.5 -65.5t-65.5 -26.5t-65.5 26.5t-26.5 65.5v1345q0 37 26.5 64.5t65.5 27.5t65.5 -27.5t26.5 -64.5v-1345v0zM267 2044q33 -2 55 -22l250 -242q27 -25 26 -53q0 -29 -18 -49q-23 -25 -51 -25q-27 0 -47 19l-215 192l-215 -192q-23 -16 -45 -17 q-33 0 -54 27q-18 18 -18 47t27 53l249 240q23 22 56 22z" />
<glyph unicode="&#xcf;" horiz-adv-x="524" d="M354 74q0 -39 -26.5 -65.5t-65.5 -26.5t-65.5 26.5t-26.5 65.5v1345q0 37 26.5 64.5t65.5 27.5t65.5 -27.5t26.5 -64.5v-1345v0zM-4 1792q0 43 30 73t73 30t72.5 -30t29.5 -73t-29.5 -71.5t-72.5 -28.5t-73 28.5t-30 71.5zM332 1792q0 43 29 73t72 30t72.5 -30t29.5 -73 t-29.5 -71.5t-72.5 -28.5t-72 28.5t-29 71.5z" />
<glyph unicode="&#xd0;" horiz-adv-x="1359" d="M1223 555q0 -84 -18.5 -181.5t-74 -180t-159 -138t-275.5 -55.5h-399q-39 0 -65.5 26.5t-26.5 65.5v555h-90q-37 0 -61.5 25.5t-24.5 60.5t24.5 60.5t61.5 25.5h90v582q0 37 26.5 64.5t65.5 27.5h399q172 0 275.5 -55.5t159 -138t74 -181t18.5 -182.5v-381zM1038 934 q0 72 -13 140.5t-51 122.5t-107.5 87t-180.5 33h-297v-498h203q35 0 60.5 -25.5t25.5 -60.5t-25.5 -60.5t-60.5 -25.5h-203v-475h297q111 0 180.5 33t107.5 87t51 122.5t13 140.5v379z" />
<glyph unicode="&#xd1;" horiz-adv-x="1368" d="M1198 68q0 -35 -24.5 -60.5t-65.5 -25.5q-29 0 -51.5 11t-36.5 34l-680 1103v-1062q0 -35 -25.5 -60.5t-60.5 -25.5t-59.5 25.5t-24.5 60.5v1357q0 35 24.5 60.5t65.5 25.5q61 0 90 -51l678 -1100v1065q0 35 25.5 60.5t60.5 25.5t59.5 -25.5t24.5 -60.5v-1357v0z M1016 1850q0 -33 -16.5 -59.5t-44 -45t-63.5 -30t-73 -11.5q-45 0 -79 12.5t-64.5 29t-59 28.5t-63.5 12q-31 0 -49.5 -9t-31.5 -21.5t-26.5 -21.5t-34.5 -9q-29 0 -48 22.5t-19 57.5q0 33 16.5 59.5t44 45t63.5 29.5t72 11q45 0 79 -12t65 -28.5t59.5 -29t63.5 -12.5 q31 0 49 9.5t31.5 20.5t25.5 21.5t35 10.5q29 0 48.5 -23.5t19.5 -56.5z" />
<glyph unicode="&#xd2;" horiz-adv-x="1296" d="M1159 535q0 -104 -25.5 -204t-86 -177.5t-157.5 -124.5t-241 -47q-145 0 -242.5 47t-158 124.5t-86 177t-25.5 204.5v423q0 104 25.5 204t86 177.5t158 124.5t242.5 47q143 0 240.5 -47t158 -124.5t86 -177t25.5 -204.5v-423zM975 958q0 80 -16.5 150t-54.5 122 t-100.5 81.5t-154.5 29.5q-94 0 -156.5 -29.5t-100.5 -81.5t-54 -122t-16 -150v-423q0 -80 16 -151t54 -123t100.5 -81.5t156.5 -29.5q92 0 154.5 29.5t100.5 81.5t54.5 123t16.5 151v423zM563 2044q18 10 41 11q47 0 68 -43l153 -283q8 -20 8 -33q0 -20 -11 -35.5 t-28 -23.5q-16 -10 -32 -10q-37 0 -62 40l-166 275q-12 14 -12 39q0 16 10.5 34.5t30.5 28.5z" />
<glyph unicode="&#xd3;" horiz-adv-x="1296" d="M1159 535q0 -104 -25.5 -204t-86 -177.5t-157.5 -124.5t-241 -47q-145 0 -242.5 47t-158 124.5t-86 177t-25.5 204.5v423q0 104 25.5 204t86 177.5t158 124.5t242.5 47q143 0 240.5 -47t158 -124.5t86 -177t25.5 -204.5v-423zM975 958q0 80 -16.5 150t-54.5 122 t-100.5 81.5t-154.5 29.5q-94 0 -156.5 -29.5t-100.5 -81.5t-54 -122t-16 -150v-423q0 -80 16 -151t54 -123t100.5 -81.5t156.5 -29.5q92 0 154.5 29.5t100.5 81.5t54.5 123t16.5 151v423zM743 2042q20 -10 30.5 -28.5t10.5 -34.5q0 -25 -12 -39l-166 -275q-25 -41 -61 -40 q-16 0 -33 10q-16 8 -27.5 23.5t-11.5 35.5q0 12 8 33l154 283q20 43 67 43q23 -1 41 -11z" />
<glyph unicode="&#xd4;" horiz-adv-x="1296" d="M1159 535q0 -104 -25.5 -204t-86 -177.5t-157.5 -124.5t-241 -47q-145 0 -242.5 47t-158 124.5t-86 177t-25.5 204.5v423q0 104 25.5 204t86 177.5t158 124.5t242.5 47q143 0 240.5 -47t158 -124.5t86 -177t25.5 -204.5v-423zM975 958q0 80 -16.5 150t-54.5 122 t-100.5 81.5t-154.5 29.5q-94 0 -156.5 -29.5t-100.5 -81.5t-54 -122t-16 -150v-423q0 -80 16 -151t54 -123t100.5 -81.5t156.5 -29.5q92 0 154.5 29.5t100.5 81.5t54.5 123t16.5 151v423zM645 2044q33 -2 55 -22l250 -242q27 -25 26 -53q0 -29 -18 -49q-23 -25 -51 -25 q-27 0 -47 19l-215 192l-215 -192q-23 -16 -45 -17q-33 0 -54 27q-18 18 -18 47t27 53l249 240q23 22 56 22z" />
<glyph unicode="&#xd5;" horiz-adv-x="1296" d="M1159 535q0 -104 -25.5 -204t-86 -177.5t-157.5 -124.5t-241 -47q-145 0 -242.5 47t-158 124.5t-86 177t-25.5 204.5v423q0 104 25.5 204t86 177.5t158 124.5t242.5 47q143 0 240.5 -47t158 -124.5t86 -177t25.5 -204.5v-423zM975 958q0 80 -16.5 150t-54.5 122 t-100.5 81.5t-154.5 29.5q-94 0 -156.5 -29.5t-100.5 -81.5t-54 -122t-16 -150v-423q0 -80 16 -151t54 -123t100.5 -81.5t156.5 -29.5q92 0 154.5 29.5t100.5 81.5t54.5 123t16.5 151v423zM977 1850q0 -33 -16.5 -59.5t-44 -45t-63.5 -30t-73 -11.5q-45 0 -79 12.5t-64.5 29 t-59 28.5t-63.5 12q-31 0 -49.5 -9t-31.5 -21.5t-26.5 -21.5t-34.5 -9q-29 0 -48 22.5t-19 57.5q0 33 16.5 59.5t44 45t63.5 29.5t72 11q45 0 79 -12t65 -28.5t59.5 -29t63.5 -12.5q31 0 49 9.5t31.5 20.5t25.5 21.5t35 10.5q29 0 48.5 -23.5t19.5 -56.5z" />
<glyph unicode="&#xd6;" horiz-adv-x="1296" d="M1159 535q0 -104 -25.5 -204t-86 -177.5t-157.5 -124.5t-241 -47q-145 0 -242.5 47t-158 124.5t-86 177t-25.5 204.5v423q0 104 25.5 204t86 177.5t158 124.5t242.5 47q143 0 240.5 -47t158 -124.5t86 -177t25.5 -204.5v-423zM975 958q0 80 -16.5 150t-54.5 122 t-100.5 81.5t-154.5 29.5q-94 0 -156.5 -29.5t-100.5 -81.5t-54 -122t-16 -150v-423q0 -80 16 -151t54 -123t100.5 -81.5t156.5 -29.5q92 0 154.5 29.5t100.5 81.5t54.5 123t16.5 151v423zM372 1792q0 43 30 73t73 30t72.5 -30t29.5 -73t-29.5 -71.5t-72.5 -28.5t-73 28.5 t-30 71.5zM708 1792q0 43 29 73t72 30t72.5 -30t29.5 -73t-29.5 -71.5t-72.5 -28.5t-72 28.5t-29 71.5z" />
<glyph unicode="&#xd7;" horiz-adv-x="907" d="M764 258q-25 -25 -59.5 -25t-59.5 25l-190 191l-193 -191q-25 -25 -58.5 -25t-60.5 25q-25 23 -24.5 58.5t24.5 60.5l193 190l-193 191q-25 27 -24.5 60.5t24.5 58.5q27 27 61 26.5t58 -26.5l193 -191l190 191q25 27 59.5 26.5t59.5 -26.5q25 -25 24.5 -59t-24.5 -60 l-191 -191l191 -190q25 -25 25 -60.5t-25 -58.5z" />
<glyph unicode="&#xd8;" horiz-adv-x="1296" d="M1159 535q0 -104 -25.5 -204t-86 -177.5t-157.5 -124.5t-241 -47q-145 0 -252 53l-32 -76q-10 -23 -34 -32t-46 1q-23 10 -32 34t1 46l41 94q-86 80 -122 195t-36 238v423q0 104 25.5 204t86 177.5t158 124.5t242.5 47q76 0 138.5 -14t111.5 -39l33 72q10 23 33.5 32 t48.5 -1q23 -10 31 -34t-3 -46l-38 -92q86 -80 120.5 -194t34.5 -237v-423zM829 1298q-72 43 -180 43q-94 0 -156.5 -29.5t-100.5 -81.5t-54 -122t-16 -150v-423q0 -66 14 -126.5t49 -103.5zM975 958q0 66 -14.5 125.5t-47.5 102.5l-444 -993q68 -43 180 -43 q92 0 154.5 29.5t100.5 81.5t54.5 123t16.5 151v423z" />
<glyph unicode="&#xd9;" horiz-adv-x="1296" d="M1159 485q0 -104 -30.5 -195t-93 -160t-159 -108.5t-227.5 -39.5q-133 0 -229 39.5t-159.5 108.5t-93.5 160t-30 195v934q0 39 26.5 65.5t63.5 26.5q41 0 66.5 -26.5t25.5 -65.5v-927q0 -70 17.5 -132.5t56.5 -110.5t101.5 -76t154.5 -28q90 0 152.5 28t100.5 76 t55.5 110.5t17.5 132.5v927q0 37 27.5 64.5t64.5 27.5q41 0 66.5 -27.5t25.5 -64.5v-934v0zM532 2044q18 10 41 11q47 0 68 -43l153 -283q8 -20 8 -33q0 -20 -11 -35.5t-28 -23.5q-16 -10 -32 -10q-37 0 -62 40l-166 275q-12 14 -12 39q0 16 10.5 34.5t30.5 28.5z" />
<glyph unicode="&#xda;" horiz-adv-x="1296" d="M1159 485q0 -104 -30.5 -195t-93 -160t-159 -108.5t-227.5 -39.5q-133 0 -229 39.5t-159.5 108.5t-93.5 160t-30 195v934q0 39 26.5 65.5t63.5 26.5q41 0 66.5 -26.5t25.5 -65.5v-927q0 -70 17.5 -132.5t56.5 -110.5t101.5 -76t154.5 -28q90 0 152.5 28t100.5 76 t55.5 110.5t17.5 132.5v927q0 37 27.5 64.5t64.5 27.5q41 0 66.5 -27.5t25.5 -64.5v-934v0zM772 2042q20 -10 30.5 -28.5t10.5 -34.5q0 -25 -12 -39l-166 -275q-25 -41 -61 -40q-16 0 -33 10q-16 8 -27.5 23.5t-11.5 35.5q0 12 8 33l154 283q20 43 67 43q23 -1 41 -11z" />
<glyph unicode="&#xdb;" horiz-adv-x="1296" d="M1159 485q0 -104 -30.5 -195t-93 -160t-159 -108.5t-227.5 -39.5q-133 0 -229 39.5t-159.5 108.5t-93.5 160t-30 195v934q0 39 26.5 65.5t63.5 26.5q41 0 66.5 -26.5t25.5 -65.5v-927q0 -70 17.5 -132.5t56.5 -110.5t101.5 -76t154.5 -28q90 0 152.5 28t100.5 76 t55.5 110.5t17.5 132.5v927q0 37 27.5 64.5t64.5 27.5q41 0 66.5 -27.5t25.5 -64.5v-934v0zM641 2044q33 -2 55 -22l250 -242q27 -25 26 -53q0 -29 -18 -49q-23 -25 -51 -25q-27 0 -47 19l-215 192l-215 -192q-23 -16 -45 -17q-33 0 -54 27q-18 18 -18 47t27 53l249 240 q23 22 56 22z" />
<glyph unicode="&#xdc;" horiz-adv-x="1296" d="M1159 485q0 -104 -30.5 -195t-93 -160t-159 -108.5t-227.5 -39.5q-133 0 -229 39.5t-159.5 108.5t-93.5 160t-30 195v934q0 39 26.5 65.5t63.5 26.5q41 0 66.5 -26.5t25.5 -65.5v-927q0 -70 17.5 -132.5t56.5 -110.5t101.5 -76t154.5 -28q90 0 152.5 28t100.5 76 t55.5 110.5t17.5 132.5v927q0 37 27.5 64.5t64.5 27.5q41 0 66.5 -27.5t25.5 -64.5v-934v0zM374 1792q0 43 30 73t73 30t72.5 -30t29.5 -73t-29.5 -71.5t-72.5 -28.5t-73 28.5t-30 71.5zM710 1792q0 43 29 73t72 30t72.5 -30t29.5 -73t-29.5 -71.5t-72.5 -28.5t-72 28.5 t-29 71.5z" />
<glyph unicode="&#xdd;" horiz-adv-x="1030" d="M1030 1423q0 -8 -2 -17t-6 -20q-80 -184 -183.5 -392t-232.5 -447v-473q0 -39 -26.5 -65.5t-65.5 -26.5t-65.5 26.5t-26.5 65.5v473q-129 238 -231.5 445.5t-182.5 389.5q-8 16 -8 39q0 41 29.5 65.5t66.5 24.5q23 0 44.5 -13t35.5 -42q66 -154 151 -328t189 -372 q106 199 191.5 373t150.5 327q27 55 78 55q35 0 64.5 -24.5t29.5 -63.5zM639 2044q20 -10 30.5 -28.5t10.5 -34.5q0 -25 -12 -39l-166 -275q-25 -41 -61 -40q-16 0 -33 10q-16 8 -27.5 23.5t-11.5 35.5q0 12 8 33l154 283q20 43 67 43q23 -1 41 -11z" />
<glyph unicode="&#xde;" horiz-adv-x="1210" d="M1124 643q0 -86 -30.5 -158.5t-88 -125t-141.5 -81t-190 -28.5h-320v-518q0 -39 -26.5 -65.5t-65.5 -26.5t-65.5 26.5t-26.5 65.5v1839q0 39 26.5 65.5t65.5 26.5t65.5 -26.5t26.5 -65.5v-420h299q131 0 221.5 -36t145.5 -93t79.5 -129t24.5 -145v-105zM942 745 q0 39 -14.5 81t-48 75t-92 54.5t-146.5 21.5h-287v-559h314q72 0 124 18.5t85.5 50t49 72.5t15.5 88v98z" />
<glyph unicode="&#xdf;" horiz-adv-x="1167" d="M1055 336q0 -90 -32 -154.5t-87 -107.5t-130 -63.5t-159 -20.5q-70 0 -120 7t-99 26q-35 10 -45 41.5t0 60.5q8 16 26.5 31.5t47.5 11.5q43 -10 85 -17.5t107 -7.5q113 0 173.5 47.5t60.5 143.5q0 61 -29 99t-74 61.5t-103.5 40t-115.5 36.5q-78 29 -123 75t-45 124 q0 61 28 97t67.5 58.5t88 39t88.5 39t67.5 57.5t27.5 96q0 94 -54.5 134t-134.5 40q-121 0 -184 -84t-63 -266v-1020q0 -41 -27 -65.5t-64 -24.5q-35 0 -61.5 24.5t-26.5 65.5v1020q0 131 31 227.5t88.5 160t136 93t177.5 29.5q76 0 140 -20.5t111.5 -61.5t74 -101.5 t26.5 -142.5q0 -78 -26.5 -127t-67.5 -79.5t-87.5 -49t-87 -34t-67.5 -34t-27 -50.5q0 -49 47.5 -74t112.5 -41q61 -16 120.5 -39t105.5 -59.5t74 -95t28 -146.5z" />
<glyph unicode="&#xe0;" horiz-adv-x="1034" d="M956 66q0 -41 -24.5 -59.5t-63.5 -18.5q-29 0 -58.5 12t-47.5 31q-16 12 -25.5 28.5t-15.5 32.5q-59 -63 -139 -83.5t-148 -20.5q-96 0 -163.5 23.5t-110.5 64.5t-63.5 95t-20.5 118v16q0 63 22.5 117.5t68.5 94.5t116.5 62.5t169.5 22.5h233v49q0 61 -9 107.5t-31.5 77 t-64.5 46t-106 15.5q-72 0 -121 -14.5t-88 -36.5q-35 -18 -63.5 -8t-44 33.5t-11 53t36.5 50.5q61 39 138 55.5t163 16.5q111 0 183.5 -27t115.5 -78t61.5 -129t18.5 -178v-381q0 -61 14.5 -87t43.5 -42q34 -18 34 -59zM686 463h-215q-66 0 -107.5 -13.5t-66.5 -35t-34 -51 t-9 -60.5v-16q0 -33 10 -61.5t34 -50t64.5 -35t102.5 -13.5q104 0 162.5 52t58.5 163v121zM377 1634q18 10 41 11q47 0 68 -43l153 -283q8 -20 8 -33q0 -20 -11 -35.5t-28 -23.5q-16 -10 -32 -10q-37 0 -62 40l-166 275q-12 14 -12 39q0 16 10.5 34.5t30.5 28.5z" />
<glyph unicode="&#xe1;" horiz-adv-x="1034" d="M956 66q0 -41 -24.5 -59.5t-63.5 -18.5q-29 0 -58.5 12t-47.5 31q-16 12 -25.5 28.5t-15.5 32.5q-59 -63 -139 -83.5t-148 -20.5q-96 0 -163.5 23.5t-110.5 64.5t-63.5 95t-20.5 118v16q0 63 22.5 117.5t68.5 94.5t116.5 62.5t169.5 22.5h233v49q0 61 -9 107.5t-31.5 77 t-64.5 46t-106 15.5q-72 0 -121 -14.5t-88 -36.5q-35 -18 -63.5 -8t-44 33.5t-11 53t36.5 50.5q61 39 138 55.5t163 16.5q111 0 183.5 -27t115.5 -78t61.5 -129t18.5 -178v-381q0 -61 14.5 -87t43.5 -42q34 -18 34 -59zM686 463h-215q-66 0 -107.5 -13.5t-66.5 -35t-34 -51 t-9 -60.5v-16q0 -33 10 -61.5t34 -50t64.5 -35t102.5 -13.5q104 0 162.5 52t58.5 163v121zM622 1634q20 -10 30.5 -28.5t10.5 -34.5q0 -25 -12 -39l-166 -275q-25 -41 -61 -40q-16 0 -33 10q-16 8 -27.5 23.5t-11.5 35.5q0 12 8 33l154 283q20 43 67 43q23 -1 41 -11z" />
<glyph unicode="&#xe2;" horiz-adv-x="1034" d="M956 66q0 -41 -24.5 -59.5t-63.5 -18.5q-29 0 -58.5 12t-47.5 31q-16 12 -25.5 28.5t-15.5 32.5q-59 -63 -139 -83.5t-148 -20.5q-96 0 -163.5 23.5t-110.5 64.5t-63.5 95t-20.5 118v16q0 63 22.5 117.5t68.5 94.5t116.5 62.5t169.5 22.5h233v49q0 61 -9 107.5t-31.5 77 t-64.5 46t-106 15.5q-72 0 -121 -14.5t-88 -36.5q-35 -18 -63.5 -8t-44 33.5t-11 53t36.5 50.5q61 39 138 55.5t163 16.5q111 0 183.5 -27t115.5 -78t61.5 -129t18.5 -178v-381q0 -61 14.5 -87t43.5 -42q34 -18 34 -59zM686 463h-215q-66 0 -107.5 -13.5t-66.5 -35t-34 -51 t-9 -60.5v-16q0 -33 10 -61.5t34 -50t64.5 -35t102.5 -13.5q104 0 162.5 52t58.5 163v121zM496 1634q33 -2 55 -22l250 -242q27 -25 26 -53q0 -29 -18 -49q-23 -25 -51 -25q-27 0 -47 19l-215 192l-215 -192q-23 -16 -45 -17q-33 0 -54 27q-18 18 -18 47t27 53l249 240 q23 22 56 22z" />
<glyph unicode="&#xe3;" horiz-adv-x="1034" d="M956 66q0 -41 -24.5 -59.5t-63.5 -18.5q-29 0 -58.5 12t-47.5 31q-16 12 -25.5 28.5t-15.5 32.5q-59 -63 -139 -83.5t-148 -20.5q-96 0 -163.5 23.5t-110.5 64.5t-63.5 95t-20.5 118v16q0 63 22.5 117.5t68.5 94.5t116.5 62.5t169.5 22.5h233v49q0 61 -9 107.5t-31.5 77 t-64.5 46t-106 15.5q-72 0 -121 -14.5t-88 -36.5q-35 -18 -63.5 -8t-44 33.5t-11 53t36.5 50.5q61 39 138 55.5t163 16.5q111 0 183.5 -27t115.5 -78t61.5 -129t18.5 -178v-381q0 -61 14.5 -87t43.5 -42q34 -18 34 -59zM686 463h-215q-66 0 -107.5 -13.5t-66.5 -35t-34 -51 t-9 -60.5v-16q0 -33 10 -61.5t34 -50t64.5 -35t102.5 -13.5q104 0 162.5 52t58.5 163v121zM826 1440q0 -33 -16.5 -59.5t-44 -45t-63.5 -30t-73 -11.5q-45 0 -79 12.5t-64.5 29t-59 28.5t-63.5 12q-31 0 -49.5 -9t-31.5 -21.5t-26.5 -21.5t-34.5 -9q-29 0 -48 22.5t-19 57.5 q0 33 16.5 59.5t44 45t63.5 29.5t72 11q45 0 79 -12t65 -28.5t59.5 -29t63.5 -12.5q31 0 49 9.5t31.5 20.5t25.5 21.5t35 10.5q29 0 48.5 -23.5t19.5 -56.5z" />
<glyph unicode="&#xe4;" horiz-adv-x="1034" d="M956 66q0 -41 -24.5 -59.5t-63.5 -18.5q-29 0 -58.5 12t-47.5 31q-16 12 -25.5 28.5t-15.5 32.5q-59 -63 -139 -83.5t-148 -20.5q-96 0 -163.5 23.5t-110.5 64.5t-63.5 95t-20.5 118v16q0 63 22.5 117.5t68.5 94.5t116.5 62.5t169.5 22.5h233v49q0 61 -9 107.5t-31.5 77 t-64.5 46t-106 15.5q-72 0 -121 -14.5t-88 -36.5q-35 -18 -63.5 -8t-44 33.5t-11 53t36.5 50.5q61 39 138 55.5t163 16.5q111 0 183.5 -27t115.5 -78t61.5 -129t18.5 -178v-381q0 -61 14.5 -87t43.5 -42q34 -18 34 -59zM686 463h-215q-66 0 -107.5 -13.5t-66.5 -35t-34 -51 t-9 -60.5v-16q0 -33 10 -61.5t34 -50t64.5 -35t102.5 -13.5q104 0 162.5 52t58.5 163v121zM227 1372q0 43 30 73t73 30t72.5 -30t29.5 -73t-29.5 -71.5t-72.5 -28.5t-73 28.5t-30 71.5zM563 1372q0 43 29 73t72 30t72.5 -30t29.5 -73t-29.5 -71.5t-72.5 -28.5t-72 28.5 t-29 71.5z" />
<glyph unicode="&#xe5;" horiz-adv-x="1034" d="M956 66q0 -41 -24.5 -59.5t-63.5 -18.5q-29 0 -58.5 12t-47.5 31q-16 12 -25.5 28.5t-15.5 32.5q-59 -63 -139 -83.5t-148 -20.5q-96 0 -163.5 23.5t-110.5 64.5t-63.5 95t-20.5 118v16q0 63 22.5 117.5t68.5 94.5t116.5 62.5t169.5 22.5h233v49q0 61 -9 107.5t-31.5 77 t-64.5 46t-106 15.5q-72 0 -121 -14.5t-88 -36.5q-35 -18 -63.5 -8t-44 33.5t-11 53t36.5 50.5q61 39 138 55.5t163 16.5q111 0 183.5 -27t115.5 -78t61.5 -129t18.5 -178v-381q0 -61 14.5 -87t43.5 -42q34 -18 34 -59zM686 463h-215q-66 0 -107.5 -13.5t-66.5 -35t-34 -51 t-9 -60.5v-16q0 -33 10 -61.5t34 -50t64.5 -35t102.5 -13.5q104 0 162.5 52t58.5 163v121zM725 1415q0 -51 -18.5 -95t-51 -76t-76.5 -50t-93 -18t-93 18t-77 50t-51.5 76t-18.5 95q0 49 18.5 93t51.5 77t77 51.5t93 18.5t93 -18.5t76.5 -51.5t51 -77t18.5 -93zM625 1415 q0 59 -41 99t-98 40t-98.5 -39.5t-41.5 -99.5q0 -59 41 -99t99 -40q57 0 98 40t41 99z" />
<glyph unicode="&#xe6;" horiz-adv-x="1587" d="M1493 532q0 -31 -20.5 -50t-49.5 -19h-559v-55q2 -123 56.5 -195t177.5 -72q86 0 144 15.5t110 42.5q29 16 57.5 1.5t38.5 -42.5q23 -63 -35 -97q-74 -39 -154.5 -56t-168.5 -17q-121 0 -199 42t-125 111q-27 -47 -64.5 -76.5t-82 -46t-92.5 -23.5t-93 -7 q-96 0 -163.5 23.5t-110.5 64.5t-63.5 95t-20.5 118v16q0 63 22.5 117.5t68.5 93.5t116.5 61.5t169.5 22.5h233v51q0 61 -9 107.5t-31.5 77t-64.5 46t-106 15.5q-72 0 -121 -14.5t-88 -36.5q-37 -20 -66.5 -8t-43.5 39q-12 23 -6 51t34 47q61 39 138 55.5t163 16.5 q123 0 196 -34t112 -98q47 59 118.5 95.5t178.5 36.5q113 0 189.5 -35t123.5 -93.5t68.5 -137.5t21.5 -165v-84zM1317 639q0 121 -49 190.5t-174 69.5q-123 0 -176.5 -70.5t-53.5 -189.5v-39h453v39zM686 463h-215q-66 0 -107.5 -13.5t-66.5 -35t-34 -51t-9 -60.5v-16 q0 -33 10 -61.5t34 -50t64.5 -35t102.5 -13.5q104 0 162.5 52t58.5 163v121z" />
<glyph unicode="&#xe7;" horiz-adv-x="872" d="M805 887q-14 -29 -41 -39t-57 4q-74 41 -177 41q-117 0 -178 -81t-61 -212v-164q0 -139 57.5 -217t175.5 -78q47 0 93.5 9.5t93.5 33.5q31 16 58.5 4t39.5 -41q12 -33 1 -58.5t-38 -39.5q-53 -29 -109.5 -43t-111.5 -16v-66q121 0 171 -47t50 -119q0 -78 -62.5 -124 t-174.5 -46q-139 0 -140 54q0 41 99 41q74 0 107.5 23.5t33.5 57.5q0 41 -30 57.5t-89 20.5q-41 4 -57.5 16.5t-12.5 45.5l7 88q-90 10 -155 48t-106.5 97.5t-61 137t-19.5 169.5v142q0 94 25.5 177t75.5 146.5t126 100.5t178 37q63 0 132 -12.5t124 -47.5q29 -16 39 -42.5 t-6 -57.5z" />
<glyph unicode="&#xe8;" horiz-adv-x="1011" d="M915 532q0 -33 -19 -51t-48 -18h-559v-55q0 -123 55 -195t176 -72q88 0 146.5 15.5t109.5 42.5q29 16 57.5 1.5t38.5 -42.5q23 -63 -34 -97q-74 -39 -155 -56t-169 -17q-111 0 -187.5 34.5t-124.5 94t-69.5 138.5t-21.5 167v190q0 88 22.5 167t71.5 138.5t125 94.5 t184 35q113 0 189.5 -35t123.5 -93.5t67.5 -137.5t20.5 -165v-84zM741 639q0 121 -49 190.5t-174 69.5q-123 0 -176 -70.5t-53 -189.5v-35h452v35zM412 1634q18 10 41 11q47 0 68 -43l153 -283q8 -20 8 -33q0 -20 -11 -35.5t-28 -23.5q-16 -10 -32 -10q-37 0 -62 40 l-166 275q-12 14 -12 39q0 16 10.5 34.5t30.5 28.5z" />
<glyph unicode="&#xe9;" horiz-adv-x="1011" d="M915 532q0 -33 -19 -51t-48 -18h-559v-55q0 -123 55 -195t176 -72q88 0 146.5 15.5t109.5 42.5q29 16 57.5 1.5t38.5 -42.5q23 -63 -34 -97q-74 -39 -155 -56t-169 -17q-111 0 -187.5 34.5t-124.5 94t-69.5 138.5t-21.5 167v190q0 88 22.5 167t71.5 138.5t125 94.5 t184 35q113 0 189.5 -35t123.5 -93.5t67.5 -137.5t20.5 -165v-84zM741 639q0 121 -49 190.5t-174 69.5q-123 0 -176 -70.5t-53 -189.5v-35h452v35zM634 1634q20 -10 30.5 -28.5t10.5 -34.5q0 -25 -12 -39l-166 -275q-25 -41 -61 -40q-16 0 -33 10q-16 8 -27.5 23.5 t-11.5 35.5q0 12 8 33l154 283q20 43 67 43q23 -1 41 -11z" />
<glyph unicode="&#xea;" horiz-adv-x="1011" d="M915 532q0 -33 -19 -51t-48 -18h-559v-55q0 -123 55 -195t176 -72q88 0 146.5 15.5t109.5 42.5q29 16 57.5 1.5t38.5 -42.5q23 -63 -34 -97q-74 -39 -155 -56t-169 -17q-111 0 -187.5 34.5t-124.5 94t-69.5 138.5t-21.5 167v190q0 88 22.5 167t71.5 138.5t125 94.5 t184 35q113 0 189.5 -35t123.5 -93.5t67.5 -137.5t20.5 -165v-84zM741 639q0 121 -49 190.5t-174 69.5q-123 0 -176 -70.5t-53 -189.5v-35h452v35zM518 1634q33 -2 55 -22l250 -242q27 -25 26 -53q0 -29 -18 -49q-23 -25 -51 -25q-27 0 -47 19l-215 192l-215 -192 q-23 -16 -45 -17q-33 0 -54 27q-18 18 -18 47t27 53l249 240q23 22 56 22z" />
<glyph unicode="&#xeb;" horiz-adv-x="1011" d="M915 532q0 -33 -19 -51t-48 -18h-559v-55q0 -123 55 -195t176 -72q88 0 146.5 15.5t109.5 42.5q29 16 57.5 1.5t38.5 -42.5q23 -63 -34 -97q-74 -39 -155 -56t-169 -17q-111 0 -187.5 34.5t-124.5 94t-69.5 138.5t-21.5 167v190q0 88 22.5 167t71.5 138.5t125 94.5 t184 35q113 0 189.5 -35t123.5 -93.5t67.5 -137.5t20.5 -165v-84zM741 639q0 121 -49 190.5t-174 69.5q-123 0 -176 -70.5t-53 -189.5v-35h452v35zM243 1372q0 43 30 73t73 30t72.5 -30t29.5 -73t-29.5 -71.5t-72.5 -28.5t-73 28.5t-30 71.5zM579 1372q0 43 29 73t72 30 t72.5 -30t29.5 -73t-29.5 -71.5t-72.5 -28.5t-72 28.5t-29 71.5z" />
<glyph unicode="&#xec;" horiz-adv-x="468" d="M324 78q0 -39 -27 -64.5t-64 -25.5t-62.5 25.5t-25.5 64.5v878q0 39 26 65t62 26q37 0 64 -26t27 -65v-878v0zM133 1634q18 10 41 11q47 0 68 -43l153 -283q8 -20 8 -33q0 -20 -11 -35.5t-28 -23.5q-16 -10 -32 -10q-37 0 -62 40l-166 275q-12 14 -12 39q0 16 10.5 34.5 t30.5 28.5z" />
<glyph unicode="&#xed;" horiz-adv-x="468" d="M324 78q0 -39 -27 -64.5t-64 -25.5t-62.5 25.5t-25.5 64.5v878q0 39 26 65t62 26q37 0 64 -26t27 -65v-878v0zM350 1634q20 -10 30.5 -28.5t10.5 -34.5q0 -25 -12 -39l-166 -275q-25 -41 -61 -40q-16 0 -33 10q-16 8 -27.5 23.5t-11.5 35.5q0 12 8 33l154 283 q20 43 67 43q23 -1 41 -11z" />
<glyph unicode="&#xee;" horiz-adv-x="468" d="M324 78q0 -39 -27 -64.5t-64 -25.5t-62.5 25.5t-25.5 64.5v878q0 39 26 65t62 26q37 0 64 -26t27 -65v-878v0zM238 1634q33 -2 55 -22l250 -242q27 -25 26 -53q0 -29 -18 -49q-23 -25 -51 -25q-27 0 -47 19l-215 192l-215 -192q-23 -16 -45 -17q-33 0 -54 27 q-18 18 -18 47t27 53l249 240q23 22 56 22z" />
<glyph unicode="&#xef;" horiz-adv-x="468" d="M324 78q0 -39 -27 -64.5t-64 -25.5t-62.5 25.5t-25.5 64.5v878q0 39 26 65t62 26q37 0 64 -26t27 -65v-878v0zM-31 1372q0 43 30 73t73 30t72.5 -30t29.5 -73t-29.5 -71.5t-72.5 -28.5t-73 28.5t-30 71.5zM305 1372q0 43 29 73t72 30t72.5 -30t29.5 -73t-29.5 -71.5 t-72.5 -28.5t-72 28.5t-29 71.5z" />
<glyph unicode="&#xf0;" horiz-adv-x="1132" d="M1030 492q0 -129 -38 -224.5t-102.5 -159t-149.5 -95t-179 -31.5q-102 0 -187 34.5t-145.5 97t-93.5 149.5t-33 194q0 111 40 193.5t104.5 137t144.5 82t158 27.5q115 0 217 -57q-37 92 -93.5 175t-127.5 156l-164 -122q-23 -18 -51.5 -14.5t-44.5 26.5 q-18 23 -14.5 51.5t26.5 46.5l141 107q-23 18 -44 37.5t-46 35.5q-39 31 -39 72q0 39 26.5 65.5t63.5 26.5q33 0 54 -18q35 -27 68.5 -53.5t64.5 -55.5l153 115q23 18 51.5 14t45.5 -26q18 -23 14 -52.5t-27 -46.5l-133 -100q160 -168 250 -364.5t90 -423.5zM850 492 q0 41 -4 80.5t-10 78.5q-57 47 -124 68.5t-141 21.5q-51 0 -102 -18t-93 -54t-67.5 -89.5t-25.5 -122.5q0 -139 73.5 -223t204.5 -84q59 0 111.5 19t92.5 60t62.5 107t22.5 156z" />
<glyph unicode="&#xf1;" horiz-adv-x="1120" d="M977 78q0 -39 -26.5 -64.5t-65.5 -25.5q-37 0 -63.5 25.5t-26.5 64.5v577q0 49 -8.5 89t-30 70t-58 46.5t-96.5 16.5q-88 0 -150.5 -35t-99.5 -94v-670q0 -39 -25.5 -64.5t-62.5 -25.5t-63.5 25.5t-26.5 64.5v690q0 61 -17.5 87t-45.5 42q-35 18 -35 59t24.5 59.5 t63.5 18.5q25 0 55.5 -11t54.5 -32q33 -35 45 -67q53 59 132 91t190 32q96 0 160.5 -29t102.5 -79t54.5 -118.5t16.5 -148.5l2 -594v0zM902 1440q0 -33 -16.5 -59.5t-44 -45t-63.5 -30t-73 -11.5q-45 0 -79 12.5t-64.5 29t-59 28.5t-63.5 12q-31 0 -49.5 -9t-31.5 -21.5 t-26.5 -21.5t-34.5 -9q-29 0 -48 22.5t-19 57.5q0 33 16.5 59.5t44 45t63.5 29.5t72 11q45 0 79 -12t65 -28.5t59.5 -29t63.5 -12.5q31 0 49 9.5t31.5 20.5t25.5 21.5t35 10.5q29 0 48.5 -23.5t19.5 -56.5z" />
<glyph unicode="&#xf2;" horiz-adv-x="1046" d="M934 412q0 -88 -23.5 -165t-73 -134.5t-127 -91t-188.5 -33.5q-109 0 -186.5 33.5t-127.5 91t-73.5 134.5t-23.5 165v211q0 88 23.5 164.5t73.5 134t128 91.5t186 34q111 0 188.5 -34t127 -91.5t73 -134t23.5 -164.5v-211zM756 621q0 121 -54.5 190.5t-179.5 69.5 q-123 0 -177 -70t-54 -190v-209q0 -121 54 -190.5t177 -69.5q125 0 179.5 69.5t54.5 190.5v209zM424 1634q18 10 41 11q47 0 68 -43l153 -283q8 -20 8 -33q0 -20 -11 -35.5t-28 -23.5q-16 -10 -32 -10q-37 0 -62 40l-166 275q-12 14 -12 39q0 16 10.5 34.5t30.5 28.5z" />
<glyph unicode="&#xf3;" horiz-adv-x="1046" d="M934 412q0 -88 -23.5 -165t-73 -134.5t-127 -91t-188.5 -33.5q-109 0 -186.5 33.5t-127.5 91t-73.5 134.5t-23.5 165v211q0 88 23.5 164.5t73.5 134t128 91.5t186 34q111 0 188.5 -34t127 -91.5t73 -134t23.5 -164.5v-211zM756 621q0 121 -54.5 190.5t-179.5 69.5 q-123 0 -177 -70t-54 -190v-209q0 -121 54 -190.5t177 -69.5q125 0 179.5 69.5t54.5 190.5v209zM632 1634q20 -10 30.5 -28.5t10.5 -34.5q0 -25 -12 -39l-166 -275q-25 -41 -61 -40q-16 0 -33 10q-16 8 -27.5 23.5t-11.5 35.5q0 12 8 33l154 283q20 43 67 43q23 -1 41 -11z " />
<glyph unicode="&#xf4;" horiz-adv-x="1046" d="M934 412q0 -88 -23.5 -165t-73 -134.5t-127 -91t-188.5 -33.5q-109 0 -186.5 33.5t-127.5 91t-73.5 134.5t-23.5 165v211q0 88 23.5 164.5t73.5 134t128 91.5t186 34q111 0 188.5 -34t127 -91.5t73 -134t23.5 -164.5v-211zM756 621q0 121 -54.5 190.5t-179.5 69.5 q-123 0 -177 -70t-54 -190v-209q0 -121 54 -190.5t177 -69.5q125 0 179.5 69.5t54.5 190.5v209zM525 1634q33 -2 55 -22l250 -242q27 -25 26 -53q0 -29 -18 -49q-23 -25 -51 -25q-27 0 -47 19l-215 192l-215 -192q-23 -16 -45 -17q-33 0 -54 27q-18 18 -18 47t27 53l249 240 q23 22 56 22z" />
<glyph unicode="&#xf5;" horiz-adv-x="1046" d="M934 412q0 -88 -23.5 -165t-73 -134.5t-127 -91t-188.5 -33.5q-109 0 -186.5 33.5t-127.5 91t-73.5 134.5t-23.5 165v211q0 88 23.5 164.5t73.5 134t128 91.5t186 34q111 0 188.5 -34t127 -91.5t73 -134t23.5 -164.5v-211zM756 621q0 121 -54.5 190.5t-179.5 69.5 q-123 0 -177 -70t-54 -190v-209q0 -121 54 -190.5t177 -69.5q125 0 179.5 69.5t54.5 190.5v209zM865 1440q0 -33 -16.5 -59.5t-44 -45t-63.5 -30t-73 -11.5q-45 0 -79 12.5t-64.5 29t-59 28.5t-63.5 12q-31 0 -49.5 -9t-31.5 -21.5t-26.5 -21.5t-34.5 -9q-29 0 -48 22.5 t-19 57.5q0 33 16.5 59.5t44 45t63.5 29.5t72 11q45 0 79 -12t65 -28.5t59.5 -29t63.5 -12.5q31 0 49 9.5t31.5 20.5t25.5 21.5t35 10.5q29 0 48.5 -23.5t19.5 -56.5z" />
<glyph unicode="&#xf6;" horiz-adv-x="1046" d="M934 412q0 -88 -23.5 -165t-73 -134.5t-127 -91t-188.5 -33.5q-109 0 -186.5 33.5t-127.5 91t-73.5 134.5t-23.5 165v211q0 88 23.5 164.5t73.5 134t128 91.5t186 34q111 0 188.5 -34t127 -91.5t73 -134t23.5 -164.5v-211zM756 621q0 121 -54.5 190.5t-179.5 69.5 q-123 0 -177 -70t-54 -190v-209q0 -121 54 -190.5t177 -69.5q125 0 179.5 69.5t54.5 190.5v209zM252 1372q0 43 30 73t73 30t72.5 -30t29.5 -73t-29.5 -71.5t-72.5 -28.5t-73 28.5t-30 71.5zM588 1372q0 43 29 73t72 30t72.5 -30t29.5 -73t-29.5 -71.5t-72.5 -28.5t-72 28.5 t-29 71.5z" />
<glyph unicode="&#xf7;" horiz-adv-x="1189" d="M715 944q0 -51 -35 -86t-86 -35q-49 0 -84 35t-35 86q0 49 35 84t84 35q51 0 86 -35t35 -84zM1014 569q0 -35 -24.5 -59.5t-59.5 -24.5h-670q-35 0 -59.5 25t-24.5 59q0 35 24.5 59.5t59.5 24.5h670q35 0 59.5 -24.5t24.5 -59.5zM715 197q0 -51 -35 -86t-86 -35 q-49 0 -84 34.5t-35 86.5q0 49 35 83.5t84 34.5q51 0 86 -34.5t35 -83.5z" />
<glyph unicode="&#xf8;" horiz-adv-x="1046" d="M934 412q0 -88 -23.5 -165t-73 -134.5t-127 -91t-188.5 -33.5q-90 0 -166 26l-34 -75q-10 -18 -29 -26.5t-39 1.5q-20 8 -27.5 28.5t0.5 39.5l37 79q-80 57 -116.5 148.5t-36.5 202.5v211q0 88 23.5 164.5t73.5 134t128 91.5t186 34q92 0 168 -27l33 76q10 20 29.5 27 t40.5 -1q20 -10 27 -29.5t-1 -39.5l-37 -80q80 -59 116 -149.5t36 -200.5v-211zM623 866q-41 14 -101 15q-123 0 -177 -70t-54 -190v-209q0 -53 13 -95.5t42 -70.5zM756 621q0 113 -56 167l-276 -620q45 -16 98 -16q125 0 179.5 69.5t54.5 190.5v209z" />
<glyph unicode="&#xf9;" horiz-adv-x="1120" d="M1047 66q0 -41 -27 -59.5t-64 -18.5q-25 0 -55.5 11t-52.5 32q-20 16 -31.5 35.5t-19.5 39.5q-53 -57 -131 -87.5t-185 -30.5q-96 0 -159.5 28.5t-103.5 78.5t-56.5 118t-16.5 147v596q0 39 27 65t61 26q39 0 65 -26t26 -65v-577q0 -51 8 -92t29.5 -70t59.5 -44t97 -15 q92 0 153.5 37.5t94.5 99.5v661q0 39 26.5 65t63.5 26t63.5 -27t26.5 -64v-702q0 -63 16.5 -87t47.5 -40q37 -22 37 -61zM428 1634q18 10 41 11q47 0 68 -43l153 -283q8 -20 8 -33q0 -20 -11 -35.5t-28 -23.5q-16 -10 -32 -10q-37 0 -62 40l-166 275q-12 14 -12 39 q0 16 10.5 34.5t30.5 28.5z" />
<glyph unicode="&#xfa;" horiz-adv-x="1120" d="M1047 66q0 -41 -27 -59.5t-64 -18.5q-25 0 -55.5 11t-52.5 32q-20 16 -31.5 35.5t-19.5 39.5q-53 -57 -131 -87.5t-185 -30.5q-96 0 -159.5 28.5t-103.5 78.5t-56.5 118t-16.5 147v596q0 39 27 65t61 26q39 0 65 -26t26 -65v-577q0 -51 8 -92t29.5 -70t59.5 -44t97 -15 q92 0 153.5 37.5t94.5 99.5v661q0 39 26.5 65t63.5 26t63.5 -27t26.5 -64v-702q0 -63 16.5 -87t47.5 -40q37 -22 37 -61zM657 1634q20 -10 30.5 -28.5t10.5 -34.5q0 -25 -12 -39l-166 -275q-25 -41 -61 -40q-16 0 -33 10q-16 8 -27.5 23.5t-11.5 35.5q0 12 8 33l154 283 q20 43 67 43q23 -1 41 -11z" />
<glyph unicode="&#xfb;" horiz-adv-x="1120" d="M1047 66q0 -41 -27 -59.5t-64 -18.5q-25 0 -55.5 11t-52.5 32q-20 16 -31.5 35.5t-19.5 39.5q-53 -57 -131 -87.5t-185 -30.5q-96 0 -159.5 28.5t-103.5 78.5t-56.5 118t-16.5 147v596q0 39 27 65t61 26q39 0 65 -26t26 -65v-577q0 -51 8 -92t29.5 -70t59.5 -44t97 -15 q92 0 153.5 37.5t94.5 99.5v661q0 39 26.5 65t63.5 26t63.5 -27t26.5 -64v-702q0 -63 16.5 -87t47.5 -40q37 -22 37 -61zM543 1634q33 -2 55 -22l250 -242q27 -25 26 -53q0 -29 -18 -49q-23 -25 -51 -25q-27 0 -47 19l-215 192l-215 -192q-23 -16 -45 -17q-33 0 -54 27 q-18 18 -18 47t27 53l249 240q23 22 56 22z" />
<glyph unicode="&#xfc;" horiz-adv-x="1120" d="M1047 66q0 -41 -27 -59.5t-64 -18.5q-25 0 -55.5 11t-52.5 32q-20 16 -31.5 35.5t-19.5 39.5q-53 -57 -131 -87.5t-185 -30.5q-96 0 -159.5 28.5t-103.5 78.5t-56.5 118t-16.5 147v596q0 39 27 65t61 26q39 0 65 -26t26 -65v-577q0 -51 8 -92t29.5 -70t59.5 -44t97 -15 q92 0 153.5 37.5t94.5 99.5v661q0 39 26.5 65t63.5 26t63.5 -27t26.5 -64v-702q0 -63 16.5 -87t47.5 -40q37 -22 37 -61zM276 1372q0 43 30 73t73 30t72.5 -30t29.5 -73t-29.5 -71.5t-72.5 -28.5t-73 28.5t-30 71.5zM612 1372q0 43 29 73t72 30t72.5 -30t29.5 -73 t-29.5 -71.5t-72.5 -28.5t-72 28.5t-29 71.5z" />
<glyph unicode="&#xfd;" horiz-adv-x="935" d="M610 143q-45 -129 -95 -225t-110.5 -159.5t-134 -96.5t-166.5 -37q-47 -4 -71.5 24.5t-24.5 63.5q0 31 19.5 56.5t62.5 29.5q82 2 153.5 44t137.5 165q-51 125 -100.5 251t-94.5 246t-82.5 229.5t-66.5 201.5q-8 25 -3 45t18.5 34.5t31.5 23t37 8.5q27 0 48 -14.5 t32 -47.5q51 -156 117.5 -347.5t148.5 -406.5l254 756q10 33 33.5 46.5t46.5 13.5q43 0 72.5 -33t13.5 -86zM610 1634q20 -10 30.5 -28.5t10.5 -34.5q0 -25 -12 -39l-166 -275q-25 -41 -61 -40q-16 0 -33 10q-16 8 -27.5 23.5t-11.5 35.5q0 12 8 33l154 283q20 43 67 43 q23 -1 41 -11z" />
<glyph unicode="&#xfe;" horiz-adv-x="1034" d="M924 444q0 -102 -19.5 -187t-63.5 -145.5t-115 -93t-171 -32.5q-55 0 -120.5 18.5t-123.5 61.5v-355q0 -37 -26.5 -62.5t-63.5 -25.5t-62.5 25.5t-25.5 62.5v1714q0 37 25.5 64t62.5 27t63.5 -27t26.5 -64v-450q113 70 234 69q203 0 291 -107.5t88 -305.5v-187zM743 641 q0 123 -50 184.5t-173 61.5q-47 0 -101 -19.5t-108 -62.5v-569q51 -53 109.5 -74t103.5 -21q117 0 168 72t51 205v223z" />
<glyph unicode="&#xff;" horiz-adv-x="929" d="M610 143q-45 -129 -95 -225t-110.5 -159.5t-134 -96.5t-166.5 -37q-47 -4 -71.5 24.5t-24.5 63.5q0 31 19.5 56.5t62.5 29.5q82 2 153.5 44t137.5 165q-51 125 -100.5 251t-94.5 246t-82.5 229.5t-66.5 201.5q-8 25 -3 45t18.5 34.5t31.5 23t37 8.5q27 0 48 -14.5 t32 -47.5q51 -156 117.5 -347.5t148.5 -406.5l254 756q10 33 33.5 46.5t46.5 13.5q43 0 72.5 -33t13.5 -86zM198 1372q0 43 30 73t73 30t72.5 -30t29.5 -73t-29.5 -71.5t-72.5 -28.5t-73 28.5t-30 71.5zM534 1372q0 43 29 73t72 30t72.5 -30t29.5 -73t-29.5 -71.5 t-72.5 -28.5t-72 28.5t-29 71.5z" />
<glyph unicode="&#x131;" horiz-adv-x="468" d="M324 78q0 -39 -27 -64.5t-64 -25.5t-62.5 25.5t-25.5 64.5v878q0 39 26 65t62 26q37 0 64 -26t27 -65v-878v0z" />
<glyph unicode="&#x152;" horiz-adv-x="1941" d="M1864 88q0 -37 -26 -62.5t-60 -25.5h-715q-35 0 -60.5 25.5t-25.5 62.5v14q-49 -49 -127 -84.5t-201 -35.5q-145 0 -242.5 47t-158 125.5t-86 178t-25.5 204.5v421q0 104 25.5 204t86 177.5t158 124.5t242.5 47q121 0 198 -34.5t130 -83.5v12q0 35 25.5 61.5t60.5 26.5 h684q37 0 62.5 -26.5t25.5 -61.5q0 -37 -25.5 -62.5t-62.5 -25.5h-588v-486h535q35 0 60.5 -25.5t25.5 -60.5t-25.5 -60.5t-60.5 -25.5h-535v-483h619q35 0 60.5 -25.5t25.5 -62.5zM977 958q0 80 -16.5 150t-54.5 122t-101.5 81.5t-155.5 29.5q-94 0 -156.5 -29.5 t-100.5 -80.5t-54 -122t-16 -151v-421q0 -80 16 -151t54 -123t100.5 -82.5t156.5 -30.5q92 0 154.5 30.5t101.5 82.5t55.5 123t16.5 151v421z" />
<glyph unicode="&#x153;" horiz-adv-x="1654" d="M1561 532q0 -33 -19.5 -51t-48.5 -18h-559v-55q0 -123 54 -195t177 -72q88 0 146.5 14.5t109.5 43.5q31 14 58.5 0.5t38.5 -41.5q10 -29 1.5 -54.5t-36.5 -42.5q-74 -39 -155 -56t-171 -17q-117 0 -192.5 41t-118.5 110q-47 -70 -126 -110.5t-198 -40.5 q-109 0 -186.5 33.5t-127.5 91t-73.5 134.5t-23.5 165v211q0 88 23.5 164.5t73.5 134t128 91.5t186 34q121 0 200 -42t124 -112q45 70 120.5 112t192.5 42q113 0 189.5 -35t124 -93.5t68 -136t20.5 -166.5v-84zM1386 641q0 119 -50 189.5t-175 70.5q-121 0 -174 -71.5 t-53 -190.5v-35h452v37zM756 621q0 121 -54.5 190.5t-179.5 69.5q-123 0 -177 -70t-54 -190v-209q0 -121 54 -190.5t177 -69.5q125 0 179.5 69.5t54.5 190.5v209z" />
<glyph unicode="&#x178;" horiz-adv-x="1030" d="M1030 1423q0 -8 -2 -17t-6 -20q-80 -184 -183.5 -392t-232.5 -447v-473q0 -39 -26.5 -65.5t-65.5 -26.5t-65.5 26.5t-26.5 65.5v473q-129 238 -231.5 445.5t-182.5 389.5q-8 16 -8 39q0 41 29.5 65.5t66.5 24.5q23 0 44.5 -13t35.5 -42q66 -154 151 -328t189 -372 q106 199 191.5 373t150.5 327q27 55 78 55q35 0 64.5 -24.5t29.5 -63.5zM243 1792q0 43 30 73t73 30t72.5 -30t29.5 -73t-29.5 -71.5t-72.5 -28.5t-73 28.5t-30 71.5zM579 1792q0 43 29 73t72 30t72.5 -30t29.5 -73t-29.5 -71.5t-72.5 -28.5t-72 28.5t-29 71.5z" />
<glyph unicode="&#x2c6;" horiz-adv-x="1085" d="M543 1634q33 -2 55 -22l250 -242q27 -25 26 -53q0 -29 -18 -49q-23 -25 -51 -25q-27 0 -47 19l-215 192l-215 -192q-23 -16 -45 -17q-33 0 -54 27q-18 18 -18 47t27 53l249 240q23 22 56 22z" />
<glyph unicode="&#x2da;" horiz-adv-x="1085" d="M782 1415q0 -51 -18.5 -95t-51 -76t-76.5 -50t-93 -18t-93 18t-77 50t-51.5 76t-18.5 95q0 49 18.5 93t51.5 77t77 51.5t93 18.5t93 -18.5t76.5 -51.5t51 -77t18.5 -93zM682 1415q0 59 -41 99t-98 40t-98.5 -39.5t-41.5 -99.5q0 -59 41 -99t99 -40q57 0 98 40t41 99z" />
<glyph unicode="&#x2dc;" horiz-adv-x="1085" d="M879 1440q0 -33 -16.5 -59.5t-44 -45t-63.5 -30t-73 -11.5q-45 0 -79 12.5t-64.5 29t-59 28.5t-63.5 12q-31 0 -49.5 -9t-31.5 -21.5t-26.5 -21.5t-34.5 -9q-29 0 -48 22.5t-19 57.5q0 33 16.5 59.5t44 45t63.5 29.5t72 11q45 0 79 -12t65 -28.5t59.5 -29t63.5 -12.5 q31 0 49 9.5t31.5 20.5t25.5 21.5t35 10.5q29 0 48.5 -23.5t19.5 -56.5z" />
<glyph unicode="&#x2000;" horiz-adv-x="1032" />
<glyph unicode="&#x2001;" horiz-adv-x="2065" />
<glyph unicode="&#x2002;" horiz-adv-x="1032" />
<glyph unicode="&#x2003;" horiz-adv-x="2065" />
<glyph unicode="&#x2004;" horiz-adv-x="688" />
<glyph unicode="&#x2005;" horiz-adv-x="516" />
<glyph unicode="&#x2006;" horiz-adv-x="344" />
<glyph unicode="&#x2007;" horiz-adv-x="344" />
<glyph unicode="&#x2008;" horiz-adv-x="258" />
<glyph unicode="&#x2009;" horiz-adv-x="413" />
<glyph unicode="&#x200a;" horiz-adv-x="114" />
<glyph unicode="&#x2010;" horiz-adv-x="1003" d="M860 600q0 -35 -23.5 -58.5t-58.5 -23.5h-551q-35 0 -59.5 23.5t-24.5 58.5t25 59.5t59 24.5h551q35 0 58.5 -24.5t23.5 -59.5z" />
<glyph unicode="&#x2011;" horiz-adv-x="1003" d="M860 600q0 -35 -23.5 -58.5t-58.5 -23.5h-551q-35 0 -59.5 23.5t-24.5 58.5t25 59.5t59 24.5h551q35 0 58.5 -24.5t23.5 -59.5z" />
<glyph unicode="&#x2012;" horiz-adv-x="1003" d="M860 600q0 -35 -23.5 -58.5t-58.5 -23.5h-551q-35 0 -59.5 23.5t-24.5 58.5t25 59.5t59 24.5h551q35 0 58.5 -24.5t23.5 -59.5z" />
<glyph unicode="&#x2013;" horiz-adv-x="1024" d="M1024 567q0 -35 -24.5 -59.5t-59.5 -24.5h-856q-35 0 -59.5 24.5t-24.5 59.5t24.5 59.5t59.5 24.5h856q35 0 59.5 -24.5t24.5 -59.5z" />
<glyph unicode="&#x2014;" horiz-adv-x="2048" d="M2048 567q0 -35 -24.5 -59.5t-59.5 -24.5h-1880q-35 0 -59.5 24.5t-24.5 59.5t24.5 59.5t59.5 24.5h1880q35 0 59.5 -24.5t24.5 -59.5z" />
<glyph unicode="&#x2018;" horiz-adv-x="421" d="M332 1217q2 -51 -34 -85t-85 -34q-53 0 -88 39t-35 102t23.5 114.5t56.5 87.5t65.5 55.5t49.5 19.5q16 0 29.5 -12.5t13.5 -30.5t-11.5 -28.5t-27 -25t-28.5 -34t-19 -56.5q41 -10 65.5 -40.5t24.5 -71.5z" />
<glyph unicode="&#x2019;" horiz-adv-x="421" d="M332 1374q0 -63 -23.5 -114.5t-55.5 -87t-64.5 -55t-49.5 -19.5q-16 0 -29.5 12t-13.5 31q0 18 11.5 28.5t25.5 23.5t28.5 33.5t20.5 55.5q-41 10 -66.5 42t-25.5 73q0 51 35 85t84 34q55 0 89 -39.5t34 -102.5z" />
<glyph unicode="&#x201a;" horiz-adv-x="421" d="M332 80q0 -63 -24.5 -114.5t-56.5 -86.5t-64.5 -54.5t-49.5 -19.5q-16 0 -29.5 11.5t-13.5 29.5t11.5 28.5t25.5 25t29.5 34t21.5 56.5q-41 10 -66.5 41.5t-25.5 72.5q0 49 36 83t85 34q53 0 87 -39t34 -102z" />
<glyph unicode="&#x201c;" horiz-adv-x="776" d="M332 1217q2 -51 -34 -85t-85 -34q-53 0 -88 39t-35 102t23.5 114.5t56.5 87.5t65.5 55.5t49.5 19.5q16 0 29.5 -12.5t13.5 -30.5t-11.5 -28.5t-27 -25t-28.5 -34t-19 -56.5q41 -10 65.5 -40.5t24.5 -71.5zM686 1217q2 -51 -34 -85t-85 -34q-53 0 -88 39t-35 102 t23.5 114.5t56.5 87.5t65.5 55.5t49.5 19.5q16 0 29.5 -12.5t13.5 -30.5t-11.5 -28.5t-27 -25t-28.5 -34t-19 -56.5q41 -10 65.5 -40.5t24.5 -71.5z" />
<glyph unicode="&#x201d;" horiz-adv-x="776" d="M332 1374q0 -63 -23.5 -114.5t-55.5 -87t-64.5 -55t-49.5 -19.5q-16 0 -29.5 12t-13.5 31q0 18 11.5 28.5t25.5 23.5t28.5 33.5t20.5 55.5q-41 10 -66.5 42t-25.5 73q0 51 35 85t84 34q55 0 89 -39.5t34 -102.5zM686 1374q0 -63 -23.5 -114.5t-55.5 -87t-64.5 -55 t-49.5 -19.5q-16 0 -29.5 12t-13.5 31q0 18 11.5 28.5t25.5 23.5t28.5 33.5t20.5 55.5q-41 10 -66.5 42t-25.5 73q0 51 35 85t84 34q55 0 89 -39.5t34 -102.5z" />
<glyph unicode="&#x201e;" horiz-adv-x="774" d="M332 80q0 -63 -24.5 -114.5t-56.5 -86.5t-64.5 -54.5t-49.5 -19.5q-16 0 -29.5 11.5t-13.5 29.5t11.5 28.5t25.5 25t29.5 34t21.5 56.5q-41 10 -66.5 41.5t-25.5 72.5q0 49 36 83t85 34q53 0 87 -39t34 -102zM684 80q0 -63 -24.5 -114.5t-56.5 -86.5t-64.5 -54.5 t-49.5 -19.5q-16 0 -29.5 11.5t-13.5 29.5t11.5 28.5t25.5 25t29.5 34t21.5 56.5q-41 10 -66.5 41.5t-25.5 72.5q0 49 36 83t85 34q53 0 87 -39t34 -102z" />
<glyph unicode="&#x2022;" horiz-adv-x="1021" d="M817 686q0 -74 -27.5 -137.5t-75.5 -111.5t-111.5 -75.5t-137.5 -27.5t-137.5 27.5t-111.5 75.5t-75.5 111.5t-27.5 137.5t27.5 137.5t75.5 111.5t111.5 75.5t137.5 27.5t137.5 -27.5t111.5 -75.5t75.5 -111.5t27.5 -137.5z" />
<glyph unicode="&#x2026;" horiz-adv-x="1564" d="M1298 -18q-59 0 -101 40.5t-42 100.5q0 59 42 101t101 42t100.5 -42t41.5 -101t-41.5 -100t-100.5 -41zM782 -18q-59 0 -101 40.5t-42 100.5q0 59 42 101t101 42t100.5 -42t41.5 -101t-41.5 -100t-100.5 -41zM264 -18q-59 0 -100 40.5t-41 100.5q0 59 41 101t100 42 t101.5 -42t42.5 -101t-42.5 -100t-101.5 -41z" />
<glyph unicode="&#x202f;" horiz-adv-x="413" />
<glyph unicode="&#x2030;" horiz-adv-x="1687" d="M1573 209q0 -109 -64.5 -168t-160.5 -59q-94 0 -160 59t-66 168v131q0 109 65.5 168t160.5 59q96 0 160.5 -59t64.5 -168v-131zM563 1153q0 -109 -64.5 -168t-158.5 -59q-96 0 -160.5 59t-64.5 168v131q0 109 64.5 168t160.5 59q94 0 158.5 -59t64.5 -168v-131zM375 18 q-8 -23 -30.5 -33t-45.5 -1q-23 10 -33 31.5t-2 45.5l518 1414q10 23 33 33t45 -1q23 -8 33 -30.5t2 -44.5zM1044 209q0 -109 -64.5 -168t-160.5 -59q-94 0 -158.5 59t-64.5 168v131q0 109 64.5 168t158.5 59q96 0 160.5 -59t64.5 -168v-131zM1454 344q0 53 -29.5 83 t-76.5 30t-76 -30t-29 -83v-141q0 -55 28.5 -84t76.5 -29q47 0 76.5 28.5t29.5 84.5v141zM444 1288q0 55 -28.5 85t-75.5 30t-75.5 -30t-28.5 -85v-141q0 -53 28.5 -83t75.5 -30t75.5 30t28.5 83v141zM926 344q0 53 -29 83t-78 30q-45 0 -73.5 -30t-28.5 -83v-141 q0 -55 28.5 -84t73.5 -29q47 0 77 28.5t30 84.5v141z" />
<glyph unicode="&#x2039;" horiz-adv-x="718" d="M598 217q23 -25 23 -60.5t-27 -58.5q-25 -25 -58.5 -23.5t-58.5 25.5l-385 400q-25 25 -24 57q0 33 24 57l385 398q25 27 58.5 26.5t58.5 -22.5q27 -25 27 -59.5t-23 -61.5l-330 -338l330 -340v0z" />
<glyph unicode="&#x203a;" horiz-adv-x="718" d="M651 557q0 -29 -24 -57l-385 -400q-25 -25 -60 -25.5t-59 23.5q-25 23 -26 59t24 60l328 340l-328 338q-25 27 -24 61.5t26 59.5q25 23 59.5 22.5t59.5 -26.5l385 -398q24 -28 24 -57z" />
<glyph unicode="&#x205f;" horiz-adv-x="516" />
<glyph unicode="&#x20ac;" d="M1083 182q0 -37 -32 -69q-37 -35 -81 -60.5t-91.5 -41t-94.5 -22.5t-90 -7q-129 0 -221 37.5t-153.5 107.5t-95.5 168t-44 219h-61q-29 0 -49.5 20.5t-20.5 49.5t20.5 48t49.5 19h55v185h-55q-29 0 -49.5 19t-20.5 48t20.5 49.5t49.5 20.5h61q10 117 44 216t97.5 171 t157.5 111.5t223 39.5q94 0 185.5 -29.5t156.5 -95.5q35 -39 35 -67q0 -29 -21.5 -55.5t-64.5 -28.5q-23 0 -38 12.5t-40 30.5q-84 66 -213 65q-160 0 -240.5 -95t-96.5 -275h372q29 0 48.5 -20.5t19.5 -49.5t-19.5 -48t-48.5 -19h-379v-185h379q29 0 48.5 -19.5t19.5 -47.5 q0 -29 -19.5 -49.5t-48.5 -20.5h-372q16 -186 95 -275t234 -89q61 0 120.5 17t109.5 54q27 18 43 29.5t39 11.5q35 2 56 -22.5t21 -57.5z" />
<glyph unicode="&#x2122;" horiz-adv-x="1413" d="M1290 795q0 -23 -16.5 -38.5t-38.5 -15.5q-23 0 -38 15.5t-15 38.5v417l-154 -319q-14 -35 -51 -35q-16 0 -30.5 9.5t-22.5 25.5l-150 319v-417q0 -23 -16.5 -38.5t-38.5 -15.5q-23 0 -38 15.5t-15 38.5v620q0 25 16 40t39 15q39 0 55 -34l203 -422l201 422q16 35 55 34 q23 0 39 -15t16 -40v-620zM610 1405q0 -23 -16 -40t-39 -17h-162v-547q0 -27 -16.5 -43.5t-40.5 -16.5q-25 0 -41 16.5t-16 43.5v547h-160q-25 0 -41.5 17t-16.5 40t16.5 40t41.5 17h436q23 0 39 -17t16 -40z" />
<glyph unicode="&#x25fc;" horiz-adv-x="1044" d="M0 1044h1044v-1044h-1044v1044z" />
</font>
</defs>
</svg>
