<?xml version="1.0" standalone="no"?>
<!DOCTYPE svg PUBLIC "-//W3C//DTD SVG 1.1//EN" "http://www.w3.org/Graphics/SVG/1.1/DTD/svg11.dtd" >
<svg xmlns="http://www.w3.org/2000/svg" xmlns:xlink="http://www.w3.org/1999/xlink" version="1.1">
<metadata></metadata>
<defs>
<font id="pf_dintext_stdregular" horiz-adv-x="1024" >
<font-face units-per-em="2048" ascent="1536" descent="-512" />
<missing-glyph horiz-adv-x="458" />
<glyph unicode="fj" horiz-adv-x="978" d="M45 1016h125v164q0 327 352 327q213 0 326 -131l-115 -114q-75 88 -221 88q-172 0 -172 -166v-168h494v-1153q0 -123 -80.5 -200t-208.5 -77h-62v154q60 0 62 2q56 2 87.5 36.5t31.5 96.5v993h-324v-868h-170v868h-125v148z" />
<glyph unicode="ffj" horiz-adv-x="1488" d="M834 1184v-168h493v-1153q0 -123 -80.5 -200t-208.5 -77h-61v154q59 0 61 2q56 2 87.5 36.5t31.5 96.5v993h-323v-868h-170v868h-324v-868h-170v868h-125v148h125v123q0 327 352 327q130 0 221 -49q90 90 273 90q212 0 325 -131l-114 -114q-75 88 -221 88 q-172 0 -172 -166zM512 1309q-172 0 -172 -166v-127h324v164q0 53 8 92q-66 37 -160 37z" />
<glyph unicode="&#xfb00;" horiz-adv-x="1064" d="M926 1497h129v-156h-113q-61 0 -84.5 -35t-23.5 -96v-194h213v-148h-213v-868h-170v868h-324v-868h-170v868h-125v148h125v123q0 327 352 327q122 0 209 -43q71 74 195 74zM340 1143v-127h324v215q0 29 2 43q-59 35 -154 35q-172 0 -172 -166z" />
<glyph unicode="&#xfb01;" horiz-adv-x="978" d="M834 0h-170v868h-324v-868h-170v868h-125v148h125v164q0 327 352 327q213 0 326 -131l-115 -114q-75 88 -221 88q-172 0 -172 -166v-168h494v-1016z" />
<glyph unicode="&#xfb02;" horiz-adv-x="1026" d="M987 0h-72q-249 0 -249 236v1087q-80 27 -154 27q-172 0 -172 -166v-168h219v-148h-219v-868h-170v868h-125v148h125v164q0 327 352 327q152 0 312 -69v-1188q0 -96 104 -96h49v-154z" />
<glyph unicode="&#xfb03;" horiz-adv-x="1488" d="M1327 0h-170v868h-323v-868h-170v868h-324v-868h-170v868h-125v148h125v123q0 327 352 327q130 0 221 -49q90 90 273 90q212 0 325 -131l-114 -114q-75 88 -221 88q-172 0 -172 -166v-168h493v-1016zM512 1309q-172 0 -172 -166v-127h324v164q0 53 8 92q-66 37 -160 37z " />
<glyph unicode="&#xfb04;" horiz-adv-x="1517" d="M522 1466q130 0 221 -49q90 90 273 90q151 0 311 -69v-1188q0 -96 105 -96h49v-154h-72q-250 0 -250 236v1087q-80 27 -153 27q-172 0 -172 -166v-168h215v-148h-215v-868h-170v868h-324v-868h-170v868h-125v148h125v123q0 327 352 327zM512 1309q-172 0 -172 -166v-127 h324v164q0 53 8 92q-66 37 -160 37z" />
<glyph unicode="ft" horiz-adv-x="1048" d="M664 870l-324 -2v-868h-170v868h-125v148h125v215q0 130 73 198t189 68h121v-156h-104q-61 0 -85 -35t-24 -96v-194h324v252h167v-252h156v-146h-156v-591q0 -127 101 -127h88v-152h-121q-106 0 -170.5 62.5t-64.5 175.5v632z" />
<glyph horiz-adv-x="0" />
<glyph horiz-adv-x="682" />
<glyph unicode=" "  horiz-adv-x="458" />
<glyph unicode="&#x09;" horiz-adv-x="458" />
<glyph unicode="&#xa0;" horiz-adv-x="458" />
<glyph unicode="!" horiz-adv-x="493" d="M328 1425l-21 -1063h-123l-18 1063h162zM342 0h-184v201h184v-201z" />
<glyph unicode="&#x22;" horiz-adv-x="632" d="M504 1012h-131v413h131v-413zM256 1012h-131v413h131v-413z" />
<glyph unicode="#" d="M31 442v117h205l43 311h-189v117h205l59 434h125l-59 -434h231l60 434h125l-60 -434h203v-117h-219l-43 -311h203v-117h-220l-59 -442h-125l59 442h-231l-59 -442h-125l59 442h-188zM403 870l-43 -311h232l43 311h-232z" />
<glyph unicode="$" d="M475 -238v228q-111 6 -216.5 48t-186.5 116q17 20 50.5 67t49.5 68q131 -121 303 -139v483q-80 22 -141.5 51.5t-116 73.5t-84 109t-29.5 147q0 166 101.5 276.5t269.5 122.5v168h103v-170q88 -8 173 -37.5t148 -75.5q-13 -22 -40.5 -71t-41.5 -70q-114 77 -239 94v-467 q73 -20 126 -40.5t102.5 -53t79.5 -73t48 -99t18 -133.5q0 -169 -102.5 -274.5t-271.5 -120.5v-228h-103zM774 383q0 92 -53 142.5t-143 80.5v-454q93 13 144.5 74t51.5 157zM283 1010q0 -132 192 -197v442q-86 -11 -139 -74.5t-53 -170.5z" />
<glyph unicode="%" horiz-adv-x="1613" d="M1507 240q0 -114 -77.5 -181t-188.5 -67t-188.5 67t-77.5 181v374q0 111 78 178.5t188 67.5t188 -67.5t78 -178.5v-374zM1374 248v358q0 60 -36.5 94.5t-96.5 34.5t-96.5 -34.5t-36.5 -94.5v-358q0 -62 36 -96.5t97 -34.5t97 34.5t36 96.5zM639 811q0 -114 -77.5 -181 t-188.5 -67t-189 67t-78 181v375q0 111 78 178.5t189 67.5q110 0 188 -67.5t78 -178.5v-375zM506 819v359q0 60 -36.5 94.5t-96.5 34.5t-96.5 -34.5t-36.5 -94.5v-359q0 -62 36 -96.5t97 -34.5t97 34.5t36 96.5zM1307 1460l-873 -1495h-125l871 1495h127z" />
<glyph unicode="&#x26;" horiz-adv-x="1302" d="M1044 0l-122 154q-173 -166 -373 -166q-195 0 -298.5 101.5t-103.5 252.5q0 134 69.5 239t223.5 203q-24 29 -61 80q-52 68 -78.5 124.5t-26.5 121.5q0 147 96.5 240.5t278.5 93.5q192 0 334 -125l-104 -121q-71 56 -124 73t-130 17q-92 0 -137.5 -48.5t-45.5 -125.5 q0 -44 15 -75t59 -93q49 -65 193.5 -253t220.5 -290q68 117 96 248l160 -24q-50 -210 -154 -355q24 -30 99 -127t114 -145h-201zM827 276q-34 45 -94 123.5t-110 144.5t-95 124q-213 -130 -213 -316q0 -91 62.5 -149t177.5 -58q70 0 145.5 40t126.5 91z" />
<glyph unicode="'" horiz-adv-x="493" d="M303 1012h-129v413h129v-413z" />
<glyph unicode="(" horiz-adv-x="593" d="M487 -246q-168 181 -275.5 406.5t-107.5 464.5q0 127 30 252t84 234.5t119 203.5t144 180l94 -57q-131 -171 -208.5 -385.5t-77.5 -417.5q0 -215 77.5 -429t206.5 -386z" />
<glyph unicode=")" horiz-adv-x="593" d="M127 -246l-86 66q130 171 207.5 385.5t77.5 429.5q0 203 -77 417.5t-208 385.5l92 57q168 -182 273.5 -403.5t105.5 -466.5q0 -239 -108.5 -464t-276.5 -407z" />
<glyph unicode="*" horiz-adv-x="739" d="M455 1090l159 -185q-84 -67 -114 -88l-127 213l-129 -215q-12 10 -53 40t-62 48l160 187q-38 9 -116 30.5t-116 30.5l39 133l228 -96l-21 246h139l-20 -246q194 81 227 96l39 -135z" />
<glyph unicode="+" d="M963 537h-385v-394h-132v394h-387v131h387v389h132v-389h385v-131z" />
<glyph unicode="," horiz-adv-x="516" d="M350 4l-114 -235h-105l66 231h-58v227h211v-223z" />
<glyph unicode="-" horiz-adv-x="802" d="M696 471h-590v154h590v-154z" />
<glyph unicode="." horiz-adv-x="497" d="M354 0h-211v227h211v-227z" />
<glyph unicode="/" horiz-adv-x="649" d="M645 1485l-514 -1571h-133l514 1571h133z" />
<glyph unicode="0" d="M909 389q0 -124 -56.5 -217t-145.5 -138.5t-195 -45.5t-195 45.5t-145.5 138.5t-56.5 217v647q0 123 56.5 216.5t146 139.5t194.5 46t194.5 -46t146 -139.5t56.5 -216.5v-647zM741 401v623q0 114 -62.5 181t-166.5 67q-105 0 -167 -66.5t-62 -181.5v-623q0 -115 62 -181 t167 -66q104 0 166.5 66.5t62.5 180.5z" />
<glyph unicode="1" d="M612 1425v-1425h-168v1249l-186 -135l2 178l182 133h170z" />
<glyph unicode="2" d="M901 0h-799v168l553 698q80 103 80 203q0 87 -56 146t-161 59q-90 0 -153.5 -61t-77.5 -160l-172 24q24 163 138 260t269 97q173 0 283 -94.5t110 -266.5q0 -66 -27.5 -141.5t-76.5 -136.5l-498 -629h588v-166z" />
<glyph unicode="3" d="M924 430q0 -196 -119.5 -319t-310.5 -123q-53 0 -102 9.5t-97 32.5t-85.5 57.5t-65.5 88t-40 121.5l166 25q20 -88 81.5 -133.5t146.5 -45.5q115 0 184.5 80t69.5 201q0 117 -68 184.5t-176 67.5h-102v147h83q107 0 176.5 64t69.5 164q0 99 -65.5 163t-163.5 64 q-74 0 -136.5 -49t-84.5 -135l-168 22q28 141 137 231.5t252 90.5q101 0 179.5 -31t125.5 -85t70.5 -121.5t23.5 -145.5q0 -191 -176 -303q101 -58 148 -143.5t47 -178.5z" />
<glyph unicode="4" d="M963 217h-119v-217h-166v217h-619v164l490 1044h186l-495 -1050h438v420h166v-420h119v-158z" />
<glyph unicode="5" d="M913 541v-90q0 -132 -45.5 -234.5t-142 -164.5t-231.5 -62q-339 0 -400 307l168 29q18 -95 79 -141t153 -46q251 0 251 353q0 52 -5 93.5t-20.5 83.5t-40.5 70.5t-68 46t-101 17.5q-124 0 -203 -127h-166v749h744v-159h-586v-398q64 57 123 76t133 19q170 0 264 -115 t94 -307z" />
<glyph unicode="6" d="M922 430q0 -89 -23.5 -163.5t-63 -125t-93 -86t-113 -51.5t-123.5 -16q-182 0 -289.5 110t-107.5 316q0 154 75 303l369 708h186l-317 -620l6 -2q55 24 131 24q159 0 261 -116t102 -281zM743 418q0 123 -66 193.5t-167 70.5q-94 0 -164 -71.5t-70 -192.5 q0 -126 63.5 -200.5t170.5 -74.5q103 0 168 75.5t65 199.5z" />
<glyph unicode="7" d="M909 1251l-493 -1251h-189l498 1260h-444v-213h-168v378h796v-174z" />
<glyph unicode="8" d="M940 408q0 -183 -125 -301.5t-303 -118.5t-303 118.5t-125 301.5q0 102 54 193.5t147 133.5q-88 42 -131 122.5t-43 176.5q0 169 115.5 286.5t285.5 117.5q183 0 292 -115t109 -289q0 -93 -45 -172t-123 -127q95 -38 145 -129.5t50 -197.5zM745 1038q0 110 -69.5 175 t-163.5 65q-95 0 -164 -65t-69 -175q0 -108 68.5 -169.5t164.5 -61.5q95 0 164 61t69 170zM772 410q0 108 -77.5 181t-182.5 73t-183.5 -73t-78.5 -181q0 -109 79 -186t183 -77t182 77t78 186z" />
<glyph unicode="9" d="M104 987q0 115 34.5 204t94 141t132.5 78t157 26q75 0 145.5 -27.5t127.5 -79.5t91 -134.5t34 -184.5q0 -131 -54 -236l-399 -776h-186l331 639l-6 2q-24 -15 -63.5 -24t-73.5 -9q-163 0 -264 106.5t-101 274.5zM272 1006q0 -123 68.5 -194t169.5 -71t167 71t66 194 q0 126 -63 200t-170 74q-104 0 -171 -75.5t-67 -198.5z" />
<glyph unicode=":" horiz-adv-x="487" d="M342 0h-211v227h211v-227zM342 584h-211v227h211v-227z" />
<glyph unicode=";" horiz-adv-x="487" d="M348 584h-211v227h211v-227zM348 4l-115 -235h-104l66 231h-58v227h211v-223z" />
<glyph unicode="&#x3c;" d="M922 274v-145l-834 414v123l834 415v-145l-668 -332z" />
<glyph unicode="=" d="M963 731h-904v137h904v-137zM963 338h-904v137h904v-137z" />
<glyph unicode="&#x3e;" d="M90 129v145l668 330l-668 332v145l834 -415v-123z" />
<glyph unicode="?" horiz-adv-x="1017" d="M936 1059q-2 -59 -16.5 -108t-44.5 -94t-52.5 -71.5t-66.5 -72.5q-36 -36 -53.5 -56.5t-41 -52t-33.5 -62t-10 -63.5v-102h-178v106q0 138 105 246q7 7 36.5 37t41 43.5t36.5 42t37 47.5t27 45t21 50t6 48q0 27 -6 54.5t-22 59t-41 55t-68 39.5t-97 16q-59 0 -108.5 -28 t-79.5 -70.5t-47 -83t-21 -74.5l-174 30q31 131 99 221t157 131.5t195 41.5q179 0 289 -106.5t110 -268.5zM618 0h-184v201h184v-201z" />
<glyph unicode="@" horiz-adv-x="1693" d="M1110 854v-317q0 -59 33.5 -95t81.5 -36q221 0 221 380q0 124 -48.5 227t-128.5 169.5t-180.5 102.5t-207.5 36q-182 0 -331 -83.5t-233 -228.5t-84 -321q0 -293 179.5 -471t474.5 -178q125 0 222 20.5t202 71.5l43 -119q-238 -92 -457 -92q-172 0 -319.5 54 t-254.5 151.5t-168 242.5t-61 320q0 158 58.5 297.5t160.5 240.5t247.5 159.5t311.5 58.5q199 0 362.5 -84.5t258 -235.5t94.5 -338q0 -109 -21 -195.5t-56 -143t-84 -94t-102.5 -53t-113.5 -15.5q-50 0 -117.5 35.5t-84.5 93.5h-11q-25 -46 -89.5 -76.5t-141.5 -30.5 q-120 0 -198.5 60t-78.5 172q0 96 65 161.5t185 65.5h242v90q0 63 -47 96t-135 33q-90 0 -174 -80l-95 78q47 55 123 89t158 34q147 0 223 -57t76 -195zM610 547q0 -53 43.5 -86t126.5 -33q97 0 149 36t52 107v88h-213q-158 0 -158 -112z" />
<glyph unicode="A" horiz-adv-x="1224" d="M1212 0h-190l-115 328h-592l-114 -328h-189l523 1425h155zM856 483l-137 400l-105 303h-6l-100 -295l-141 -408h489z" />
<glyph unicode="B" horiz-adv-x="1224" d="M1147 395q0 -176 -114.5 -285.5t-278.5 -109.5h-598v1425h538q202 0 311 -101.5t109 -270.5q0 -96 -53.5 -185t-161.5 -127v-6q79 -19 137 -74t84.5 -124t26.5 -142zM672 1268h-336v-461h336q126 0 194 65t68 166q0 100 -68.5 165t-193.5 65zM702 651h-366v-485h366 q128 0 196.5 70.5t68.5 173.5q0 102 -68.5 171.5t-196.5 69.5z" />
<glyph unicode="C" horiz-adv-x="1112" d="M913 373l168 -82q-54 -144 -176.5 -223.5t-292.5 -79.5q-124 0 -222 42t-159 115.5t-93 167.5t-32 203v393q0 107 32 200.5t93 167t159 116.5t222 43q168 0 289 -80.5t178 -220.5l-168 -76q-36 93 -113.5 148t-183.5 55t-182.5 -53t-111.5 -133.5t-35 -174.5v-371 q0 -97 35 -179.5t111.5 -136.5t182.5 -54t184.5 57.5t114.5 155.5z" />
<glyph unicode="D" horiz-adv-x="1265" d="M156 1425h467q167 0 293.5 -65t191.5 -199q35 -71 45 -168.5t10 -255.5q0 -174 -9.5 -276t-41.5 -178q-124 -283 -524 -283h-432v1425zM983 571v273q0 114 -26.5 196.5t-77 129.5t-115.5 68.5t-150 21.5h-278v-1094h278q369 0 369 405z" />
<glyph unicode="E" horiz-adv-x="1112" d="M1057 0h-901v1425h901v-165h-721v-461h614v-158h-614v-475h721v-166z" />
<glyph unicode="F" horiz-adv-x="1073" d="M1057 1260h-721v-472h614v-157h-614v-631h-180v1425h901v-165z" />
<glyph unicode="G" horiz-adv-x="1224" d="M612 147q137 0 231.5 102t94.5 238v113h-301v164h481v-277q0 -219 -142 -360t-366 -141q-126 0 -224.5 42.5t-159 116t-91.5 168t-31 203.5v393q0 107 30.5 200.5t89.5 167.5t156 116.5t220 42.5q168 0 289 -80.5t178 -220.5l-168 -76q-36 93 -115 148t-186 55 q-80 0 -142 -30.5t-99 -82t-55.5 -114.5t-18.5 -134v-383q0 -98 35 -180t111.5 -136.5t182.5 -54.5z" />
<glyph unicode="H" horiz-adv-x="1302" d="M1147 0h-180v641h-631v-641h-180v1425h180v-626h631v626h180v-1425z" />
<glyph unicode="I" horiz-adv-x="493" d="M336 0h-180v1425h180v-1425z" />
<glyph unicode="J" horiz-adv-x="956" d="M817 1425v-970q0 -127 -33.5 -219.5t-94.5 -145.5t-137 -77.5t-171 -24.5q-105 0 -198.5 40t-153.5 107l118 133q41 -41 107.5 -75.5t120.5 -34.5q56 0 99.5 12.5t82 44t59.5 92.5t21 150v968h180z" />
<glyph unicode="K" horiz-adv-x="1265" d="M1253 0h-209l-434 723l-274 -330v-393h-180v1425h182v-772l6 2l262 320l375 450h209l-465 -561z" />
<glyph unicode="L" horiz-adv-x="1112" d="M1057 0h-901v1425h180v-1259h721v-166z" />
<glyph unicode="M" horiz-adv-x="1531" d="M1399 0h-180v1016l-7 -4l-110 -269l-246 -532h-158l-249 549l-107 256l-6 -4v-1012h-180v1425h180l301 -665l141 -332h6l142 330l297 667h176v-1425z" />
<glyph unicode="N" horiz-adv-x="1378" d="M1227 0h-176l-521 803l-188 311l-6 -2v-1112h-180v1425h178l502 -776l206 -342l7 4v1114h178v-1425z" />
<glyph unicode="O" horiz-adv-x="1218" d="M608 1436q231 0 369.5 -148t138.5 -379v-393q0 -242 -138 -385t-370 -143q-124 0 -222 42t-159 115.5t-93 167.5t-32 203v393q0 107 32 200.5t93 167t159 116.5t222 43zM610 1266q-106 0 -182.5 -53t-111.5 -133.5t-35 -174.5v-379q0 -97 35 -179.5t111.5 -136.5 t182.5 -54q148 0 237 104.5t89 265.5v379q0 154 -89 257.5t-237 103.5z" />
<glyph unicode="P" horiz-adv-x="1171" d="M1149 993q0 -76 -30 -150t-84.5 -134.5t-140.5 -98t-187 -37.5h-371v-573h-180v1425h522q92 0 174 -25t149.5 -75t107.5 -135.5t40 -196.5zM961 999q0 126 -77 193.5t-202 67.5h-346v-521h354q128 0 199.5 78.5t71.5 181.5z" />
<glyph unicode="Q" horiz-adv-x="1224" d="M610 1436q231 0 369.5 -148t138.5 -379v-393q0 -156 -59 -274l186 -150l-98 -123l-182 146q-136 -127 -355 -127q-124 0 -222 42t-159 115.5t-93 167.5t-32 203v393q0 107 32 200.5t93 167t159 116.5t222 43zM612 1262q-106 0 -182.5 -53t-111.5 -133.5t-35 -174.5v-371 q0 -97 35 -179.5t111.5 -136.5t182.5 -54q121 0 205 71l-199 160l105 121l184 -150q31 88 31 168v371q0 154 -89 257.5t-237 103.5z" />
<glyph unicode="R" horiz-adv-x="1224" d="M1130 0h-200l-273 627h-321v-627h-180v1425h581q176 0 294 -109t118 -280q0 -143 -83.5 -246t-223.5 -145zM969 1036q0 116 -71 174t-193 58h-369v-484h360q121 0 197 67t76 185z" />
<glyph unicode="S" horiz-adv-x="1114" d="M1063 406q0 -193 -141 -305.5t-371 -112.5q-142 0 -291.5 50.5t-255.5 143.5l115 146q84 -81 198 -124.5t242 -43.5q144 0 231 61t87 187q0 47 -18.5 83.5t-45 59t-74.5 41.5t-88 28.5t-104 22.5q-174 34 -245 62q-158 64 -199 205q-17 57 -17 128q0 126 66 219 t171.5 138t235.5 45q284 0 457 -137l-101 -154q-171 115 -356 115q-141 0 -218 -59.5t-77 -166.5q0 -37 11 -66t36.5 -52t55 -39.5t80 -32t97.5 -26.5t120 -25q48 -10 80 -18t77.5 -23.5t76 -33.5t64 -48t54 -66t34 -88t13.5 -114z" />
<glyph unicode="T" horiz-adv-x="995" d="M993 1268h-405v-1268h-180v1268h-406v157h991v-157z" />
<glyph unicode="U" horiz-adv-x="1265" d="M961 1425h180v-909q0 -242 -138 -385t-370 -143q-124 0 -222 42t-159 115.5t-93 167.5t-32 203v909h178v-895q0 -97 35.5 -179.5t112 -136.5t182.5 -54q152 0 239 96.5t87 273.5v895z" />
<glyph unicode="V" horiz-adv-x="1112" d="M551 307l10 2q19 65 58.5 196t58.5 197l223 723h199l-473 -1425h-148l-473 1425h197l227 -727z" />
<glyph unicode="W" horiz-adv-x="1685" d="M840 1090l-9 -3l-92 -352l-198 -735h-158l-358 1425h196l160 -698l86 -385l8 -2l94 383l195 702h147l201 -714l98 -373h7q12 56 36 182.5t37 184.5l164 720h197l-361 -1425h-155l-193 709z" />
<glyph unicode="X" horiz-adv-x="1071" d="M1073 0h-201l-337 592l-336 -592h-201l438 731l-409 694h200l308 -555l309 555h200l-409 -694z" />
<glyph unicode="Y" horiz-adv-x="1040" d="M1032 1425l-428 -860v-565h-172v565l-428 860h191l198 -395l127 -272l133 284l193 383h186z" />
<glyph unicode="Z" horiz-adv-x="1034" d="M969 0h-901v158l694 1110h-668v157h875v-143l-699 -1116h699v-166z" />
<glyph unicode="[" horiz-adv-x="534" d="M496 -215h-346v1645h346v-115h-193v-1415h193v-115z" />
<glyph unicode="\" horiz-adv-x="649" d="M512 -86l-514 1571h133l514 -1571h-133z" />
<glyph unicode="]" horiz-adv-x="534" d="M399 -215h-344v115h191v1415h-191v115h344v-1645z" />
<glyph unicode="^" d="M193 672h-146l414 751h123l415 -751h-145l-332 604z" />
<glyph unicode="_" d="M1024 -264h-1024v123h1024v-123z" />
<glyph unicode="`" horiz-adv-x="1005" d="M711 1169l-109 -41l-205 353l166 51z" />
<glyph unicode="a" horiz-adv-x="987" d="M475 1026q410 0 410 -328v-698h-170v88l-2 2q-28 -45 -104 -73.5t-177 -28.5q-169 0 -264.5 83.5t-95.5 217.5q0 127 84 213t239 86h320v114q0 84 -56 125t-178 41q-166 0 -241 -88l-107 113q56 65 146 99t196 34zM231 299q0 -74 56 -116t166 -42q262 0 262 189v119h-279 q-98 0 -151.5 -39.5t-53.5 -110.5z" />
<glyph unicode="b" horiz-adv-x="1015" d="M932 522q0 -85 -8 -155.5t-32 -143t-63 -122.5t-105.5 -81.5t-154.5 -31.5q-191 0 -276 125h-4v-113h-168v1487h168v-586h4q114 125 276 125q355 0 363 -504zM758 508q0 56 -4.5 100t-19 93t-39 81.5t-69 54t-104.5 21.5q-59 0 -102.5 -22.5t-68 -56t-39 -82.5t-19 -92.5 t-4.5 -96.5q0 -367 233 -367q61 0 106 24t69.5 59t38.5 87.5t18 96.5t4 100z" />
<glyph unicode="c" horiz-adv-x="882" d="M852 131q-143 -143 -334 -143q-72 0 -137.5 17.5t-125 57.5t-103.5 99t-69.5 147.5t-25.5 196.5q0 109 25.5 197.5t69.5 148t103.5 99.5t125 57.5t137.5 17.5q188 0 332 -141l-109 -123q-42 47 -99 74.5t-116 27.5q-145 0 -223 -89.5t-78 -268.5q0 -178 78 -268.5 t223 -90.5q60 0 117 30.5t98 74.5z" />
<glyph unicode="d" horiz-adv-x="1015" d="M907 0h-168v98l-6 2q-117 -112 -284 -112q-85 0 -148.5 27.5t-102.5 72.5t-63 112.5t-32.5 138.5t-8.5 159q0 84 10 156t37.5 142.5t70.5 119.5t114 79.5t163 30.5q77 0 143 -26t103 -76h4v563h168v-1487zM739 508q0 54 -4 96.5t-18 92.5t-37.5 83t-67 55.5t-102.5 22.5 q-61 0 -106 -21.5t-70 -54t-40 -81.5t-19.5 -93t-4.5 -100q0 -64 4 -110t18 -95t38.5 -79.5t68 -50t103.5 -19.5q58 0 102 23t69 58t40.5 84.5t20.5 93.5t5 95z" />
<glyph unicode="e" horiz-adv-x="985" d="M909 451h-653v-17q0 -126 68.5 -208.5t193.5 -82.5q51 0 116 26.5t114 70.5l108 -121q-137 -131 -346 -131q-67 0 -124.5 13t-115.5 48t-98.5 91.5t-66 149.5t-25.5 214q0 116 26 208t67.5 150t98 96.5t114 54t118.5 15.5q173 0 289 -120t116 -326v-131zM496 868 q-104 0 -168.5 -72.5t-71.5 -203.5h477q-6 134 -69 205t-168 71z" />
<glyph unicode="f" horiz-adv-x="571" d="M553 868h-213v-868h-170v868h-125v148h125v215q0 130 73 198t189 68h121v-156h-104q-61 0 -85 -35t-24 -96v-194h213v-148z" />
<glyph unicode="g" horiz-adv-x="1046" d="M907 18q0 -111 -35.5 -196.5t-97.5 -137.5t-139.5 -78t-167.5 -26q-205 0 -328 117l101 137q42 -37 108 -64.5t123 -27.5q118 0 192 67t74 187v119h-4q-112 -125 -276 -125q-84 0 -148.5 28t-104.5 74t-65.5 111.5t-35 133.5t-9.5 148q0 87 8 158t32.5 145.5t65 125 t110 82.5t163.5 32q76 0 148 -33.5t112 -91.5h4v113h170v-998zM268 508q0 -63 4 -108.5t17.5 -94t38 -78.5t68 -49.5t104.5 -19.5q237 0 237 350q0 36 -1 63.5t-6.5 66t-14.5 67.5t-26.5 60t-41.5 51t-60.5 33t-82.5 13q-61 0 -106 -22t-69.5 -55t-38.5 -83.5t-18 -94 t-4 -99.5z" />
<glyph unicode="h" horiz-adv-x="1036" d="M920 0h-168v608q0 124 -51 188t-173 64q-104 0 -174.5 -69t-70.5 -183v-608h-168v1487h168v-598h6q52 66 126 101.5t156 35.5q154 0 251.5 -91t97.5 -261v-674z" />
<glyph unicode="i" horiz-adv-x="458" d="M313 1257h-168v168h168v-168zM313 0h-168v1016h168v-1016z" />
<glyph unicode="j" horiz-adv-x="497" d="M336 1257h-170v168h170v-168zM336 1016v-1153q0 -126 -67.5 -201.5t-192.5 -75.5h-90v154h61q56 2 87.5 37t31.5 98v1141h170z" />
<glyph unicode="k" horiz-adv-x="1036" d="M1022 0h-195l-335 510l-185 -203v-307h-168v1487h168v-961h6l439 490h198l-346 -383z" />
<glyph unicode="l" horiz-adv-x="497" d="M461 0h-72q-250 0 -250 236v1251h168v-1237q0 -96 105 -96h49v-154z" />
<glyph unicode="m" horiz-adv-x="1673" d="M1556 0h-167v608q0 124 -54 190t-180 66q-103 0 -168 -70t-65 -186v-608h-170v608q0 124 -54.5 190t-179.5 66q-103 0 -168 -70t-65 -186v-608h-170v1016h170v-125h4q50 65 124.5 100t157.5 35q185 0 301 -145h2q134 145 334 145q153 0 250.5 -93t97.5 -257v-676z" />
<glyph unicode="n" horiz-adv-x="1036" d="M920 0h-168v608q0 125 -52.5 188.5t-179.5 63.5q-103 0 -170 -68.5t-67 -183.5v-608h-168v1018h168v-129h6q52 65 131 101t162 36q152 0 245 -90.5t93 -261.5v-674z" />
<glyph unicode="o" horiz-adv-x="1052" d="M539 1024q109 0 195.5 -44t139.5 -126q70 -110 70 -311q0 -262 -63 -369q-52 -89 -148 -137.5t-217 -48.5q-110 0 -197 39t-139 114q-76 116 -76 363q0 184 52 291q51 109 151 169t232 60zM532 872q-75 0 -133.5 -37.5t-89.5 -105.5q-34 -71 -37 -227q0 -153 31 -221 q30 -67 85.5 -103.5t129.5 -36.5q85 0 148.5 45t91.5 136q16 56 16 215q0 124 -26 188q-28 73 -85 110t-131 37z" />
<glyph unicode="p" horiz-adv-x="1021" d="M115 1016h168v-113l6 -2q108 125 276 125q84 0 149 -29.5t105 -77t65 -115.5t34.5 -137.5t9.5 -150.5q0 -84 -10 -156t-37.5 -142.5t-71 -119.5t-114.5 -79.5t-163 -30.5q-159 0 -245 102h-4v-496h-168v1422zM283 506q0 -54 4 -96.5t18 -92.5t37.5 -83t67 -55.5 t102.5 -22.5q61 0 106 21.5t70 54t40 81.5t19.5 93t4.5 100q0 46 -2.5 81.5t-9.5 79.5t-23 75.5t-40.5 60t-64 43t-90.5 14.5q-239 0 -239 -354z" />
<glyph unicode="q" horiz-adv-x="1046" d="M115 492q0 534 393 534q74 0 140.5 -34t105.5 -95h4v119h168v-1428h-168v525h-4q-114 -125 -285 -125q-70 0 -126 19.5t-93.5 56t-64 82t-41.5 105t-21.5 117t-7.5 124.5zM289 506q0 -56 4 -100t18.5 -93t39 -81.5t69 -54t104.5 -21.5q59 0 103 22.5t68.5 56t39 82.5 t19 92.5t4.5 96.5q0 366 -234 366q-61 0 -106 -24t-69 -58.5t-38.5 -87t-18 -96.5t-3.5 -100z" />
<glyph unicode="r" horiz-adv-x="747" d="M754 983l-72 -162q-59 39 -143 39q-103 0 -167.5 -64t-64.5 -182v-614h-168v1016h168v-129h8q52 75 117 107t150 32q110 0 172 -43z" />
<glyph unicode="s" horiz-adv-x="935" d="M862 301q0 -140 -111.5 -226.5t-287.5 -86.5q-253 0 -424 147l102 129q143 -125 330 -125q97 0 160 41t63 117q0 72 -57.5 101.5t-175.5 41.5q-49 5 -82.5 10.5t-80.5 17t-78 30.5t-60.5 47.5t-44.5 72t-15 99.5q0 138 108 223.5t263 85.5q218 0 363 -111l-91 -135 q-136 90 -272 90q-96 0 -151.5 -40.5t-55.5 -108.5q0 -45 33 -73t90.5 -42t155.5 -24q47 -5 88.5 -15t85 -31t74.5 -51t51 -77.5t20 -106.5z" />
<glyph unicode="t" horiz-adv-x="630" d="M549 0h-121q-106 0 -170.5 62.5t-64.5 175.5v632h-121v146h121v252h167v-252h156v-146h-156v-591q0 -127 101 -127h88v-152z" />
<glyph unicode="u" horiz-adv-x="1052" d="M920 0h-168v115h-7q-49 -63 -122.5 -95t-155.5 -32q-165 0 -258.5 86t-93.5 268v674h168v-610q0 -138 49.5 -198.5t183.5 -60.5q101 0 168.5 72t67.5 187v610h168v-1016z" />
<glyph unicode="v" horiz-adv-x="925" d="M465 236h8q81 246 107 335q25 72 74 223t73 222h186l-374 -1016h-148l-377 1016h185q24 -71 73 -221.5t74 -221.5z" />
<glyph unicode="w" horiz-adv-x="1472" d="M1047 242h10q20 70 65 245l148 529h186l-326 -1016h-159l-152 489l-88 283l-82 -280l-151 -492h-162l-324 1016h185l153 -535l66 -227h8q11 39 33.5 113.5t31.5 107.5l168 541h156l164 -535z" />
<glyph unicode="x" horiz-adv-x="948" d="M918 0h-203l-240 395l-239 -395h-203l346 520l-330 496h201l225 -381l225 381h203l-332 -498z" />
<glyph unicode="y" horiz-adv-x="897" d="M897 1016l-436 -1231q-28 -79 -72 -124t-89 -58t-107 -13h-87v148h84q44 0 75 26t52 89l56 167l-373 996h186l162 -461l105 -319h6l104 317l158 463h176z" />
<glyph unicode="z" horiz-adv-x="888" d="M819 0h-749v139l553 729h-523v148h719v-146l-549 -714h549v-156z" />
<glyph unicode="{" horiz-adv-x="534" d="M518 -211h-139q-81 0 -135 60.5t-54 158.5v285q0 112 -40 182.5t-119 79.5v104q78 10 118.5 86t40.5 181v278q0 99 54 160t135 61h139v-110h-84q-35 0 -57 -28.5t-29.5 -66t-7.5 -83.5v-256q0 -62 -17.5 -113.5t-44 -82.5t-50 -49t-42.5 -24v-6q19 -6 42.5 -24t50 -48.5 t44 -81t17.5 -110.5v-266q0 -46 7.5 -83.5t29.5 -66t57 -28.5h84v-109z" />
<glyph unicode="|" horiz-adv-x="417" d="M276 -332h-133v1798h133v-1798z" />
<glyph unicode="}" horiz-adv-x="534" d="M510 555q-79 -9 -118.5 -79.5t-39.5 -182.5v-285q0 -98 -53.5 -158.5t-134.5 -60.5h-141v109h86q49 0 71.5 52.5t22.5 125.5v266q0 60 17 110.5t43 81t49.5 48.5t43.5 24v6q-20 6 -43.5 24t-49.5 49t-43 82.5t-17 113.5v256q0 33 -0.5 51t-5.5 46t-14 43t-28 26.5 t-46 11.5h-86v102h135q95 0 144.5 -58.5t49.5 -154.5v-278q0 -106 40.5 -181.5t117.5 -85.5v-104z" />
<glyph unicode="~" d="M977 639q-60 -96 -123.5 -141t-153.5 -45q-36 0 -88.5 21t-97 45.5t-97.5 45.5t-91 21q-36 0 -63 -13.5t-44.5 -32t-48.5 -59.5l-117 80q104 176 275 176q42 0 95.5 -21t96 -45.5t93.5 -45.5t89 -21q46 0 78 28t80 95z" />
<glyph unicode="&#xa1;" horiz-adv-x="493" d="M172 -422l10 1063h144l8 -1063h-162zM158 1004h184v-201h-184v201z" />
<glyph unicode="&#xa2;" d="M594 -240h-92v234q-80 10 -148 45t-122.5 95t-85.5 155.5t-31 216.5t31 216.5t85.5 156t122 95.5t148.5 46v211h92v-205q177 -8 313 -141l-108 -123q-40 45 -94 72t-111 30v-717q113 6 205 105l110 -121q-135 -135 -315 -143v-228zM283 506q0 -150 56.5 -238t162.5 -112 v700q-219 -49 -219 -350z" />
<glyph unicode="&#xa3;" d="M90 602v139h141q-9 35 -33 101t-37.5 120t-13.5 105q0 96 44 178.5t132 135.5t203 53q148 0 236.5 -39t175.5 -156l-147 -104q-93 141 -269 141q-68 0 -126 -53.5t-58 -155.5q0 -67 38 -181t44 -145h325v-139h-311q-7 -271 -125 -446h627v-156h-846v131q170 223 178 471 h-178z" />
<glyph unicode="&#xa4;" horiz-adv-x="1138" d="M291 653q0 -113 79 -192.5t193 -79.5q115 0 195 79.5t80 192.5q0 115 -80 195t-195 80q-114 0 -193 -80.5t-79 -194.5zM223 895l-141 139q18 18 100 101l140 -140q119 78 243 78q125 0 244 -78l137 140l101 -103l-140 -137q78 -119 78 -242q0 -119 -78 -241 q113 -108 140 -136l-101 -102l-137 139q-115 -80 -244 -80q-128 0 -243 80l-140 -139q-12 13 -30.5 31.5t-40.5 40t-29 28.5l141 138q-78 122 -78 241q0 123 78 242z" />
<glyph unicode="&#xa5;" d="M510 748h10l283 677h180l-309 -684h244v-110h-297l-23 -53v-144h320v-110h-320v-324h-164v324h-317v110h317v144l-20 53h-297v110h241l-319 684h178z" />
<glyph unicode="&#xa6;" horiz-adv-x="417" d="M276 623h-133v843h133v-843zM143 504h133v-836h-133v836z" />
<glyph unicode="&#xa7;" horiz-adv-x="954" d="M901 584q0 -127 -86 -222q70 -98 70 -188q0 -146 -109.5 -238t-292.5 -92q-112 0 -217.5 44t-169.5 116l97 107q113 -121 290 -121q238 0 238 182q0 69 -62.5 115t-189.5 88q-180 59 -263 130.5t-83 201.5q0 120 96 223q-80 87 -80 192q0 139 105 227.5t262 88.5 q213 0 354 -123l-92 -119q-122 96 -266 96q-95 0 -148 -43t-53 -114q0 -49 33 -85t86 -58.5t117 -43t128 -48.5t117 -65t86 -101t33 -150zM348 850q-76 -50 -76 -131q0 -44 30 -79.5t81 -60.5t103 -44t113.5 -40.5t94.5 -39.5q60 50 60 131q0 29 -7.5 52t-27 42.5t-39 34 t-56.5 30.5t-65 26.5t-80 27.5q-44 14 -131 51z" />
<glyph unicode="&#xa8;" horiz-adv-x="1005" d="M772 1223h-180v180h180v-180zM403 1223h-180v180h180v-180z" />
<glyph unicode="&#xa9;" horiz-adv-x="1644" d="M1010 498l123 -58q-37 -95 -114.5 -147.5t-184.5 -52.5q-150 0 -233 94t-83 235v238q0 89 34.5 162t107.5 119.5t174 46.5q107 0 183.5 -53t112.5 -146l-120 -53q-24 58 -69.5 92.5t-104.5 34.5q-90 0 -139.5 -61.5t-49.5 -147.5v-223q0 -87 49.5 -151.5t139.5 -64.5 q61 0 106 37t68 99zM827 -16q-204 0 -367 93t-254 256t-91 365q0 152 55 286t149.5 228.5t226.5 149.5t281 55q150 0 282.5 -55t227.5 -150t150 -228.5t55 -285.5q0 -151 -55 -283.5t-150 -227t-227.5 -149t-282.5 -54.5zM827 1292q-164 0 -297.5 -77t-209.5 -213t-76 -304 q0 -124 44.5 -233.5t122 -187.5t185.5 -123t231 -45q250 0 417 168.5t167 420.5q0 168 -76 304t-209.5 213t-298.5 77z" />
<glyph unicode="&#xaa;" horiz-adv-x="694" d="M342 1249q289 0 289 -219v-459h-135v86q-73 -94 -193 -94q-119 0 -182.5 56t-63.5 149q0 85 60 143t170 58h209v63q0 96 -150 96q-108 0 -164 -59l-86 84q40 46 106 71t140 25zM186 774q0 -44 35.5 -68t104.5 -24q170 0 170 111v65h-181q-61 0 -95 -22t-34 -62z" />
<glyph unicode="&#xab;" horiz-adv-x="940" d="M862 94h-160l-260 381l260 381h160l-252 -381zM510 94h-160l-260 381l260 381h160l-254 -381z" />
<glyph unicode="&#xac;" d="M963 668l-2 -525h-132v394h-770v131h904z" />
<glyph unicode="&#xad;" horiz-adv-x="802" d="M696 471h-590v154h590v-154z" />
<glyph unicode="&#xae;" horiz-adv-x="1146" d="M999 1008q0 -183 -122.5 -303.5t-305.5 -120.5q-182 0 -305 121t-123 303q0 184 123 307t305 123q183 0 305.5 -123t122.5 -307zM918 1008q0 152 -99.5 252t-247.5 100t-247 -100t-99 -252q0 -149 99 -249t247 -100t247.5 100t99.5 249zM686 760l-104 207h-86v-207h-84 v495h204q63 0 105.5 -39t42.5 -102q0 -46 -26 -81.5t-70 -53.5l114 -219h-96zM604 1180h-108v-136h106q34 0 56 19t22 51q0 66 -76 66z" />
<glyph unicode="&#xaf;" horiz-adv-x="1005" d="M809 1229h-549v153h549v-153z" />
<glyph unicode="&#xb0;" horiz-adv-x="788" d="M668 1163q0 -114 -80.5 -194t-194.5 -80t-194 80t-80 194t80 194.5t194 80.5t194.5 -80.5t80.5 -194.5zM557 1163q0 68 -47.5 116t-116.5 48q-67 0 -115.5 -48.5t-48.5 -115.5t48.5 -115.5t115.5 -48.5q69 0 116.5 48t47.5 116z" />
<glyph unicode="&#xb1;" d="M961 596h-375v-356h-131v356h-377v131h377v356h131v-356h375v-131zM961 0h-883v131h883v-131z" />
<glyph unicode="&#xb2;" horiz-adv-x="636" d="M582 756h-535v116l354 410q50 56 50 107q0 43 -33.5 73.5t-91.5 30.5q-53 0 -91 -36.5t-47 -94.5l-135 18q15 105 93 169.5t182 64.5q115 0 189.5 -58.5t74.5 -164.5q0 -41 -18.5 -88t-51.5 -84q-258 -292 -297 -338h357v-125z" />
<glyph unicode="&#xb3;" horiz-adv-x="645" d="M594 1018q0 -119 -80 -194.5t-207 -75.5q-97 0 -170.5 49t-93.5 157l133 19q12 -52 48 -79.5t85 -27.5q66 0 107 42.5t41 105.5t-39.5 98t-102.5 35h-77v113h65q63 0 103 33t40 85q0 50 -38.5 83.5t-94.5 33.5q-41 0 -79 -29.5t-52 -79.5l-133 19q20 92 94.5 151.5 t169.5 59.5q133 0 201 -67.5t68 -168.5q0 -112 -101 -174q58 -36 85.5 -86t27.5 -102z" />
<glyph unicode="&#xb4;" horiz-adv-x="1005" d="M504 1128l-109 41l148 363l166 -51z" />
<glyph unicode="&#xb5;" horiz-adv-x="1069" d="M944 0h-168v115h-6q-49 -63 -123.5 -95t-157.5 -32q-97 0 -176 55l-6 -2v-451h-168v1426h168v-610q0 -123 54.5 -186.5t181.5 -63.5q102 0 167.5 67.5t65.5 182.5v610h168v-1016z" />
<glyph unicode="&#xb6;" horiz-adv-x="1153" d="M483 -168v832h-80q-99 0 -172.5 55.5t-108 139.5t-34.5 181q0 77 23 147.5t67 128.5t115.5 93t161.5 35h596v-133h-88v-1479h-152v1479h-174v-1479h-154z" />
<glyph unicode="&#xb7;" horiz-adv-x="487" d="M348 434h-211v228h211v-228z" />
<glyph unicode="&#xb8;" horiz-adv-x="882" d="M451 82l92 -8l-49 -154q56 -3 98 -20.5t64 -44t32 -53.5t10 -54q0 -29 -11.5 -57t-35.5 -54.5t-69 -42.5t-105 -16q-97 0 -178 37l35 88q71 -31 143 -31q40 0 68 21t28 53q0 38 -32 60t-86 22h-29l-41 43z" />
<glyph unicode="&#xb9;" horiz-adv-x="555" d="M371 1610v-854h-135v710l-119 -77v135l125 86h129z" />
<glyph unicode="&#xba;" horiz-adv-x="727" d="M371 1247q163 0 237 -112q49 -69 49 -205q0 -167 -47 -244q-76 -123 -254 -123q-162 0 -235 103q-55 80 -55 239q0 123 36 189q35 73 105.5 113t163.5 40zM367 1130q-47 0 -84.5 -23t-57.5 -63q-24 -52 -24 -141q0 -96 20 -137q40 -84 137 -84q113 0 152 109 q12 37 12 135q0 76 -18 116q-37 88 -137 88z" />
<glyph unicode="&#xbb;" horiz-adv-x="940" d="M252 94h-160l252 381l-252 381h160l260 -381zM604 94h-160l254 381l-254 381h160l260 -381z" />
<glyph unicode="&#xbc;" horiz-adv-x="1613" d="M434 1425v-854h-135v711l-119 -78v135l125 86h129zM1243 1460l-872 -1495h-125l870 1495h127zM1466 127h-73v-127h-136v127h-393v111l318 616h147l-315 -608h243v241h136v-241h73v-119z" />
<glyph unicode="&#xbd;" horiz-adv-x="1613" d="M383 1425v-854h-135v711l-119 -78v135l125 86h129zM1180 1460l-873 -1495h-125l871 1495h127zM1438 0h-535v117l354 409q50 56 50 107q0 43 -33.5 73.5t-91.5 30.5q-53 0 -91 -36.5t-47 -94.5l-135 19q15 105 93 169t182 64q115 0 189.5 -58.5t74.5 -164.5 q0 -41 -18.5 -88t-51.5 -84q-258 -292 -297 -338h357v-125z" />
<glyph unicode="&#xbe;" horiz-adv-x="1613" d="M643 834q0 -119 -80 -195t-207 -76q-46 0 -86.5 11t-77.5 34t-63.5 64.5t-36.5 97.5l133 18q12 -52 48 -79t85 -27q66 0 107 42t41 105t-39 98.5t-102 35.5h-78v112h65q63 0 103.5 33.5t40.5 85.5q0 50 -39 83.5t-95 33.5q-41 0 -79 -29.5t-52 -79.5l-133 19 q20 92 94.5 151.5t169.5 59.5q133 0 201 -67.5t68 -168.5q0 -112 -101 -174q58 -36 85.5 -86t27.5 -102zM1384 1460l-872 -1495h-125l870 1495h127zM1599 127h-73v-127h-135v127h-394v111l318 616h147l-315 -608h244v241h135v-241h73v-119z" />
<glyph unicode="&#xbf;" horiz-adv-x="919" d="M41 -53q2 59 16.5 108t44.5 94t52.5 71.5t66.5 72.5q35 36 53 56t41 52t33 62t10 63v103h179v-107q0 -138 -105 -246q-7 -7 -36.5 -37t-41 -43.5t-36.5 -42t-37 -47.5t-27 -45t-21 -50t-6 -48q0 -34 10.5 -69t34.5 -71.5t73 -59.5t116 -23q59 0 108.5 28t79.5 70.5t47 83 t21 74.5l174 -31q-31 -131 -99 -221t-157 -131t-195 -41q-179 0 -289 106.5t-110 268.5zM358 1006h185v-201h-185v201z" />
<glyph unicode="&#xc0;" horiz-adv-x="1224" d="M1212 0h-190l-115 328h-592l-114 -328h-189l523 1425h155zM856 483l-137 400l-105 303h-6l-100 -295l-141 -408h489zM674 1597l-76 -86l-348 211l121 125z" />
<glyph unicode="&#xc1;" horiz-adv-x="1224" d="M1212 0h-190l-115 328h-592l-114 -328h-189l523 1425h155zM856 483l-137 400l-105 303h-6l-100 -295l-141 -408h489zM588 1511l-76 86l303 250l121 -125z" />
<glyph unicode="&#xc2;" horiz-adv-x="1224" d="M1212 0h-190l-115 328h-592l-114 -328h-189l523 1425h155zM856 483l-137 400l-105 303h-6l-100 -295l-141 -408h489zM907 1516l-293 176l-295 -179l-59 78l307 262h109l293 -258z" />
<glyph unicode="&#xc3;" horiz-adv-x="1224" d="M1212 0h-190l-115 328h-592l-114 -328h-189l523 1425h155zM856 483l-137 400l-105 303h-6l-100 -295l-141 -408h489zM471 1780q52 0 146.5 -48.5t127.5 -48.5q64 0 125 93l107 -60q-86 -182 -219 -182q-51 0 -143 43t-130 43q-35 0 -62.5 -18t-66.5 -64l-106 59 q41 86 100 134.5t121 48.5z" />
<glyph unicode="&#xc4;" horiz-adv-x="1224" d="M1212 0h-190l-115 328h-592l-114 -328h-189l523 1425h155zM856 483l-137 400l-105 303h-6l-100 -295l-141 -408h489zM885 1577h-180v180h180v-180zM516 1577h-180v180h180v-180z" />
<glyph unicode="&#xc5;" horiz-adv-x="1224" d="M1212 0h-190l-115 328h-592l-114 -328h-189l523 1425h155zM856 483l-137 400l-105 303h-6l-100 -295l-141 -408h489zM612 1462q-84 0 -143 59t-59 142t59 142t143 59q83 0 142 -59t59 -142t-59 -142t-142 -59zM612 1776q-47 0 -79.5 -33.5t-32.5 -79.5q0 -47 32.5 -80 t79.5 -33t80 33t33 80q0 46 -33 79.5t-80 33.5z" />
<glyph unicode="&#xc6;" horiz-adv-x="2000" d="M1909 0h-903v418h-531l-266 -418h-189l910 1425h979v-165h-721v-461h614v-158h-614v-475h721v-166zM1006 1253l-433 -680h433v680z" />
<glyph unicode="&#xc7;" horiz-adv-x="1112" d="M913 373l168 -82q-54 -142 -174.5 -222t-288.5 -81l-20 -68q56 -3 98 -20.5t64 -44t32.5 -53.5t10.5 -54q0 -29 -11.5 -57t-35.5 -54.5t-69 -42.5t-105 -16q-98 0 -179 37l35 88q71 -31 144 -31q40 0 68 21t28 53q0 38 -32.5 60t-86.5 22h-29l-41 43l37 123 q-137 17 -233.5 93t-141.5 186t-45 243v393q0 107 32 200.5t93 167t159 116.5t222 43q168 0 289 -80.5t178 -220.5l-168 -76q-36 93 -113.5 148t-183.5 55t-182.5 -53t-111.5 -133.5t-35 -174.5v-371q0 -97 35 -179.5t111.5 -136.5t182.5 -54t184.5 57.5t114.5 155.5z" />
<glyph unicode="&#xc8;" horiz-adv-x="1112" d="M1057 0h-901v1425h901v-165h-721v-461h614v-158h-614v-475h721v-166zM711 1597l-76 -86l-348 211l121 125z" />
<glyph unicode="&#xc9;" horiz-adv-x="1112" d="M1057 0h-901v1425h901v-165h-721v-461h614v-158h-614v-475h721v-166zM547 1511l-76 86l303 250l121 -125z" />
<glyph unicode="&#xca;" horiz-adv-x="1112" d="M1057 0h-901v1425h901v-165h-721v-461h614v-158h-614v-475h721v-166zM907 1516l-293 176l-295 -179l-59 78l307 262h109l293 -258z" />
<glyph unicode="&#xcb;" horiz-adv-x="1112" d="M1057 0h-901v1425h901v-165h-721v-461h614v-158h-614v-475h721v-166zM874 1571h-180v180h180v-180zM506 1571h-180v180h180v-180z" />
<glyph unicode="&#xcc;" horiz-adv-x="493" d="M336 0h-180v1425h180v-1425zM334 1597l-76 -86l-348 211l121 125z" />
<glyph unicode="&#xcd;" horiz-adv-x="493" d="M336 0h-180v1425h180v-1425zM256 1511l-76 86l303 250l121 -125z" />
<glyph unicode="&#xce;" horiz-adv-x="493" d="M336 0h-180v1425h180v-1425zM543 1516l-293 176l-295 -179l-59 78l307 262h108l293 -258z" />
<glyph unicode="&#xcf;" horiz-adv-x="493" d="M336 0h-180v1425h180v-1425zM526 1571h-180v180h180v-180zM158 1571h-181v180h181v-180z" />
<glyph unicode="&#xd0;" horiz-adv-x="1265" d="M12 672v129h144v624h467q167 0 293.5 -65t191.5 -199q35 -71 45 -168.5t10 -255.5q0 -174 -9.5 -276t-41.5 -178q-124 -283 -524 -283h-432v672h-144zM983 571v273q0 114 -26.5 196.5t-77 129.5t-115.5 68.5t-150 21.5h-278v-459h215v-129h-215v-506h278q369 0 369 405z " />
<glyph unicode="&#xd1;" horiz-adv-x="1378" d="M1227 0h-176l-521 803l-188 311l-6 -2v-1112h-180v1425h178l502 -776l206 -342l7 4v1114h178v-1425zM553 1780q52 0 146.5 -48.5t127.5 -48.5q64 0 125 93l107 -60q-86 -182 -219 -182q-51 0 -143 43t-130 43q-35 0 -62.5 -18t-66.5 -64l-106 59q41 86 100 134.5 t121 48.5z" />
<glyph unicode="&#xd2;" horiz-adv-x="1218" d="M608 1436q231 0 369.5 -148t138.5 -379v-393q0 -242 -138 -385t-370 -143q-124 0 -222 42t-159 115.5t-93 167.5t-32 203v393q0 107 32 200.5t93 167t159 116.5t222 43zM610 1266q-106 0 -182.5 -53t-111.5 -133.5t-35 -174.5v-379q0 -97 35 -179.5t111.5 -136.5 t182.5 -54q148 0 237 104.5t89 265.5v379q0 154 -89 257.5t-237 103.5zM735 1597l-76 -86l-348 211l121 125z" />
<glyph unicode="&#xd3;" horiz-adv-x="1218" d="M608 1436q231 0 369.5 -148t138.5 -379v-393q0 -242 -138 -385t-370 -143q-124 0 -222 42t-159 115.5t-93 167.5t-32 203v393q0 107 32 200.5t93 167t159 116.5t222 43zM610 1266q-106 0 -182.5 -53t-111.5 -133.5t-35 -174.5v-379q0 -97 35 -179.5t111.5 -136.5 t182.5 -54q148 0 237 104.5t89 265.5v379q0 154 -89 257.5t-237 103.5zM604 1511l-76 86l303 250l121 -125z" />
<glyph unicode="&#xd4;" horiz-adv-x="1218" d="M608 1436q231 0 369.5 -148t138.5 -379v-393q0 -242 -138 -385t-370 -143q-124 0 -222 42t-159 115.5t-93 167.5t-32 203v393q0 107 32 200.5t93 167t159 116.5t222 43zM610 1266q-106 0 -182.5 -53t-111.5 -133.5t-35 -174.5v-379q0 -97 35 -179.5t111.5 -136.5 t182.5 -54q148 0 237 104.5t89 265.5v379q0 154 -89 257.5t-237 103.5zM903 1516l-293 176l-295 -179l-59 78l307 262h109l293 -258z" />
<glyph unicode="&#xd5;" horiz-adv-x="1218" d="M608 1436q231 0 369.5 -148t138.5 -379v-393q0 -242 -138 -385t-370 -143q-124 0 -222 42t-159 115.5t-93 167.5t-32 203v393q0 107 32 200.5t93 167t159 116.5t222 43zM610 1266q-106 0 -182.5 -53t-111.5 -133.5t-35 -174.5v-379q0 -97 35 -179.5t111.5 -136.5 t182.5 -54q148 0 237 104.5t89 265.5v379q0 154 -89 257.5t-237 103.5zM483 1780q52 0 147 -48.5t128 -48.5q64 0 125 93l106 -60q-86 -182 -219 -182q-51 0 -142.5 43t-129.5 43q-35 0 -62.5 -18t-66.5 -64l-107 59q41 86 100 134.5t121 48.5z" />
<glyph unicode="&#xd6;" horiz-adv-x="1218" d="M608 1436q231 0 369.5 -148t138.5 -379v-393q0 -242 -138 -385t-370 -143q-124 0 -222 42t-159 115.5t-93 167.5t-32 203v393q0 107 32 200.5t93 167t159 116.5t222 43zM610 1266q-106 0 -182.5 -53t-111.5 -133.5t-35 -174.5v-379q0 -97 35 -179.5t111.5 -136.5 t182.5 -54q148 0 237 104.5t89 265.5v379q0 154 -89 257.5t-237 103.5zM874 1577h-180v180h180v-180zM506 1577h-180v180h180v-180z" />
<glyph unicode="&#xd7;" d="M932 893l-330 -332l336 -336l-92 -92l-336 336l-332 -332l-92 92l332 332l-334 334l92 92l334 -332l330 330z" />
<glyph unicode="&#xd8;" horiz-adv-x="1218" d="M608 1436q197 0 332 -113l74 109l88 -60l-88 -129q102 -136 102 -334v-393q0 -242 -138 -385t-370 -143q-225 0 -358 133l-86 -125l-86 59l102 152q-78 130 -78 309v393q0 107 32 200.5t93 167t159 116.5t222 43zM936 905q0 94 -35 172l-545 -798q88 -123 254 -123 q148 0 237 104.5t89 265.5v379zM610 1266q-106 0 -182.5 -53t-111.5 -133.5t-35 -174.5v-379q0 -77 20 -141l537 786q-92 95 -228 95z" />
<glyph unicode="&#xd9;" horiz-adv-x="1265" d="M961 1425h180v-909q0 -242 -138 -385t-370 -143q-124 0 -222 42t-159 115.5t-93 167.5t-32 203v909h178v-895q0 -97 35.5 -179.5t112 -136.5t182.5 -54q152 0 239 96.5t87 273.5v895zM719 1597l-76 -86l-348 211l121 125z" />
<glyph unicode="&#xda;" horiz-adv-x="1265" d="M961 1425h180v-909q0 -242 -138 -385t-370 -143q-124 0 -222 42t-159 115.5t-93 167.5t-32 203v909h178v-895q0 -97 35.5 -179.5t112 -136.5t182.5 -54q152 0 239 96.5t87 273.5v895zM588 1511l-76 86l303 250l121 -125z" />
<glyph unicode="&#xdb;" horiz-adv-x="1265" d="M961 1425h180v-909q0 -242 -138 -385t-370 -143q-124 0 -222 42t-159 115.5t-93 167.5t-32 203v909h178v-895q0 -97 35.5 -179.5t112 -136.5t182.5 -54q152 0 239 96.5t87 273.5v895zM926 1516l-293 176l-295 -179l-59 78l307 262h108l293 -258z" />
<glyph unicode="&#xdc;" horiz-adv-x="1265" d="M961 1425h180v-909q0 -242 -138 -385t-370 -143q-124 0 -222 42t-159 115.5t-93 167.5t-32 203v909h178v-895q0 -97 35.5 -179.5t112 -136.5t182.5 -54q152 0 239 96.5t87 273.5v895zM909 1577h-180v180h180v-180zM541 1577h-181v180h181v-180z" />
<glyph unicode="&#xdd;" horiz-adv-x="1040" d="M1032 1425l-428 -860v-565h-172v565l-428 860h191l198 -395l127 -272l133 284l193 383h186zM471 1511l-76 86l303 250l121 -125z" />
<glyph unicode="&#xde;" horiz-adv-x="1171" d="M156 0l-2 1419h182v-258h342q92 0 174 -25t149.5 -75t107.5 -135.5t40 -196.5q0 -76 -30 -150t-84.5 -134.5t-140.5 -98t-187 -37.5h-371v-309h-180zM961 735q0 126 -77 193t-202 67h-346v-520h354q128 0 199.5 78.5t71.5 181.5z" />
<glyph unicode="&#xdf;" horiz-adv-x="1058" d="M952 473q0 -72 -13 -138.5t-43.5 -129.5t-76.5 -109t-117 -74t-159 -28h-78v145h74q65 0 112 27.5t73 76t38 106.5t12 128q0 54 -12 103.5t-36.5 92t-68 68t-100.5 25.5h-72v145h64q82 0 134 63t52 150q-2 96 -53.5 161t-159.5 65q-62 0 -107 -22t-68 -59.5t-33.5 -77.5 t-10.5 -85v-1106h-168v1098q0 182 108.5 289.5t288.5 107.5q87 0 159 -30.5t117.5 -81t70 -113t24.5 -129.5q0 -92 -41.5 -177.5t-120.5 -121.5q107 -29 159 -133.5t52 -235.5z" />
<glyph unicode="&#xe0;" horiz-adv-x="987" d="M475 1026q410 0 410 -328v-698h-170v88l-2 2q-28 -45 -104 -73.5t-177 -28.5q-169 0 -264.5 83.5t-95.5 217.5q0 127 84 213t239 86h320v114q0 84 -56 125t-178 41q-166 0 -241 -88l-107 113q56 65 146 99t196 34zM231 299q0 -74 56 -116t166 -42q262 0 262 189v119h-279 q-98 0 -151.5 -39.5t-53.5 -110.5zM588 1169l-109 -41l-205 353l166 51z" />
<glyph unicode="&#xe1;" horiz-adv-x="987" d="M475 1026q410 0 410 -328v-698h-170v88l-2 2q-28 -45 -104 -73.5t-177 -28.5q-169 0 -264.5 83.5t-95.5 217.5q0 127 84 213t239 86h320v114q0 84 -56 125t-178 41q-166 0 -241 -88l-107 113q56 65 146 99t196 34zM231 299q0 -74 56 -116t166 -42q262 0 262 189v119h-279 q-98 0 -151.5 -39.5t-53.5 -110.5zM571 1128l-108 41l147 363l166 -51z" />
<glyph unicode="&#xe2;" horiz-adv-x="987" d="M475 1026q410 0 410 -328v-698h-170v88l-2 2q-28 -45 -104 -73.5t-177 -28.5q-169 0 -264.5 83.5t-95.5 217.5q0 127 84 213t239 86h320v114q0 84 -56 125t-178 41q-166 0 -241 -88l-107 113q56 65 146 99t196 34zM231 299q0 -74 56 -116t166 -42q262 0 262 189v119h-279 q-98 0 -151.5 -39.5t-53.5 -110.5zM768 1133l-272 217l-275 -220l-80 78l308 314h108l293 -310z" />
<glyph unicode="&#xe3;" horiz-adv-x="987" d="M475 1026q410 0 410 -328v-698h-170v88l-2 2q-28 -45 -104 -73.5t-177 -28.5q-169 0 -264.5 83.5t-95.5 217.5q0 127 84 213t239 86h320v114q0 84 -56 125t-178 41q-166 0 -241 -88l-107 113q56 65 146 99t196 34zM231 299q0 -74 56 -116t166 -42q262 0 262 189v119h-279 q-98 0 -151.5 -39.5t-53.5 -110.5zM367 1432q52 0 146.5 -48.5t127.5 -48.5q65 0 125 92l106 -59q-86 -182 -219 -182q-51 0 -142.5 43t-129.5 43q-35 0 -62.5 -18t-66.5 -64l-107 59q41 86 100.5 134.5t121.5 48.5z" />
<glyph unicode="&#xe4;" horiz-adv-x="987" d="M475 1026q410 0 410 -328v-698h-170v88l-2 2q-28 -45 -104 -73.5t-177 -28.5q-169 0 -264.5 83.5t-95.5 217.5q0 127 84 213t239 86h320v114q0 84 -56 125t-178 41q-166 0 -241 -88l-107 113q56 65 146 99t196 34zM231 299q0 -74 56 -116t166 -42q262 0 262 189v119h-279 q-98 0 -151.5 -39.5t-53.5 -110.5zM778 1223h-180v180h180v-180zM410 1223h-181v180h181v-180z" />
<glyph unicode="&#xe5;" horiz-adv-x="987" d="M475 1026q410 0 410 -328v-698h-170v88l-2 2q-28 -45 -104 -73.5t-177 -28.5q-169 0 -264.5 83.5t-95.5 217.5q0 127 84 213t239 86h320v114q0 84 -56 125t-178 41q-166 0 -241 -88l-107 113q56 65 146 99t196 34zM231 299q0 -74 56 -116t166 -42q262 0 262 189v119h-279 q-98 0 -151.5 -39.5t-53.5 -110.5zM520 1118q-85 0 -144 59t-59 142t59 142t144 59q83 0 142 -59t59 -142t-59 -142t-142 -59zM520 1432q-47 0 -79.5 -33.5t-32.5 -79.5q0 -47 32.5 -80t79.5 -33t80 33t33 80q0 46 -33 79.5t-80 33.5z" />
<glyph unicode="&#xe6;" horiz-adv-x="1636" d="M1569 453h-666q0 -107 37 -177q34 -64 96 -98.5t146 -34.5q53 0 118 26t113 69l107 -121q-135 -129 -334 -129q-247 0 -359 159q-49 -78 -145.5 -118.5t-228.5 -40.5q-169 0 -265 83.5t-96 217.5q0 126 84.5 212.5t239.5 86.5h319v114q0 84 -56 125t-177 41 q-167 0 -242 -88l-106 113q56 65 146 99t196 34q264 0 362 -125q114 125 295 125q173 0 294.5 -120.5t121.5 -323.5v-129zM252 299q0 -74 55.5 -116t165.5 -42q262 0 262 189v123h-278q-97 0 -151 -41.5t-54 -112.5zM1397 590q-4 136 -69.5 208t-172.5 72q-108 0 -177 -73.5 t-75 -206.5h494z" />
<glyph unicode="&#xe7;" horiz-adv-x="882" d="M852 131q-143 -143 -334 -143h-4l-20 -68q56 -3 98 -20.5t64 -44t32 -53.5t10 -54q0 -29 -11.5 -57t-35.5 -54.5t-69 -42.5t-105 -16q-97 0 -178 37l35 88q71 -31 143 -31q40 0 68 21t28 53q0 38 -32 60t-86 22h-29l-41 43l39 125q-77 14 -141 50t-116 96t-81 153 t-29 211q0 109 25.5 197.5t69.5 148t103.5 99.5t125 57.5t137.5 17.5q188 0 332 -141l-109 -123q-42 47 -99 74.5t-116 27.5q-145 0 -223 -89.5t-78 -268.5q0 -178 78 -268.5t223 -90.5q60 0 117 30.5t98 74.5z" />
<glyph unicode="&#xe8;" horiz-adv-x="985" d="M909 451h-653v-17q0 -126 68.5 -208.5t193.5 -82.5q51 0 116 26.5t114 70.5l108 -121q-137 -131 -346 -131q-67 0 -124.5 13t-115.5 48t-98.5 91.5t-66 149.5t-25.5 214q0 116 26 208t67.5 150t98 96.5t114 54t118.5 15.5q173 0 289 -120t116 -326v-131zM496 868 q-104 0 -168.5 -72.5t-71.5 -203.5h477q-6 134 -69 205t-168 71zM602 1169l-108 -41l-205 353l166 51z" />
<glyph unicode="&#xe9;" horiz-adv-x="985" d="M909 451h-653v-17q0 -126 68.5 -208.5t193.5 -82.5q51 0 116 26.5t114 70.5l108 -121q-137 -131 -346 -131q-67 0 -124.5 13t-115.5 48t-98.5 91.5t-66 149.5t-25.5 214q0 116 26 208t67.5 150t98 96.5t114 54t118.5 15.5q173 0 289 -120t116 -326v-131zM496 868 q-104 0 -168.5 -72.5t-71.5 -203.5h477q-6 134 -69 205t-168 71zM522 1128l-108 41l147 363l166 -51z" />
<glyph unicode="&#xea;" horiz-adv-x="985" d="M909 451h-653v-17q0 -126 68.5 -208.5t193.5 -82.5q51 0 116 26.5t114 70.5l108 -121q-137 -131 -346 -131q-67 0 -124.5 13t-115.5 48t-98.5 91.5t-66 149.5t-25.5 214q0 116 26 208t67.5 150t98 96.5t114 54t118.5 15.5q173 0 289 -120t116 -326v-131zM496 868 q-104 0 -168.5 -72.5t-71.5 -203.5h477q-6 134 -69 205t-168 71zM788 1133l-272 217l-274 -220l-80 78l307 314h109l292 -310z" />
<glyph unicode="&#xeb;" horiz-adv-x="985" d="M909 451h-653v-17q0 -126 68.5 -208.5t193.5 -82.5q51 0 116 26.5t114 70.5l108 -121q-137 -131 -346 -131q-67 0 -124.5 13t-115.5 48t-98.5 91.5t-66 149.5t-25.5 214q0 116 26 208t67.5 150t98 96.5t114 54t118.5 15.5q173 0 289 -120t116 -326v-131zM496 868 q-104 0 -168.5 -72.5t-71.5 -203.5h477q-6 134 -69 205t-168 71zM793 1223h-181v180h181v-180zM424 1223h-180v180h180v-180z" />
<glyph unicode="&#xec;" horiz-adv-x="409" d="M295 0h-180v1014h180v-1014zM303 1169l-108 -41l-205 353l166 51z" />
<glyph unicode="&#xed;" horiz-adv-x="409" d="M295 0h-180v1014h180v-1014zM266 1128l-108 41l147 363l166 -51z" />
<glyph unicode="&#xee;" horiz-adv-x="626" d="M406 0h-181v1014h181v-1014zM586 1133l-273 217l-274 -220l-80 78l307 314h109l293 -310z" />
<glyph unicode="&#xef;" horiz-adv-x="466" d="M326 0h-181v1014h181v-1014zM508 1223h-180v180h180v-180zM139 1223h-180v180h180v-180z" />
<glyph unicode="&#xf0;" horiz-adv-x="1005" d="M838 178q-57 -95 -150.5 -142.5t-206.5 -47.5q-227 0 -329 153q-82 123 -76 363q3 150 49 241q53 110 150 170t227 60q66 0 145 -34.5t119 -100.5h8q-2 87 -20.5 176t-55.5 137l-127 -90l-47 67l119 87q-80 96 -281 137l29 137q125 -10 224.5 -56.5t158.5 -113.5l156 115 l55 -70l-154 -111q39 -60 63 -129t33.5 -160.5t12 -158t2.5 -186.5q0 -88 -26 -222.5t-78 -220.5zM500 823q-75 0 -133.5 -37.5t-90.5 -105.5q-32 -71 -32 -178q0 -83 5 -132t23 -89q29 -66 85.5 -103t131.5 -37q85 0 149.5 45.5t92.5 135.5q23 70 23 182q0 102 -29 172 q-28 72 -89 109.5t-136 37.5z" />
<glyph unicode="&#xf1;" horiz-adv-x="1036" d="M920 0h-168v608q0 125 -52.5 188.5t-179.5 63.5q-103 0 -170 -68.5t-67 -183.5v-608h-168v1018h168v-129h6q52 65 131 101t162 36q152 0 245 -90.5t93 -261.5v-674zM352 1432q52 0 147 -48.5t128 -48.5q65 0 125 92l106 -59q-86 -182 -219 -182q-51 0 -142.5 43 t-129.5 43q-35 0 -62.5 -18t-66.5 -64l-107 59q41 86 100 134.5t121 48.5z" />
<glyph unicode="&#xf2;" horiz-adv-x="1052" d="M539 1024q109 0 195.5 -44t139.5 -126q70 -110 70 -311q0 -262 -63 -369q-52 -89 -148 -137.5t-217 -48.5q-110 0 -197 39t-139 114q-76 116 -76 363q0 184 52 291q51 109 151 169t232 60zM532 872q-75 0 -133.5 -37.5t-89.5 -105.5q-34 -71 -37 -227q0 -153 31 -221 q30 -67 85.5 -103.5t129.5 -36.5q85 0 148.5 45t91.5 136q16 56 16 215q0 124 -26 188q-28 73 -85 110t-131 37zM625 1169l-109 -41l-205 353l166 51z" />
<glyph unicode="&#xf3;" horiz-adv-x="1052" d="M539 1024q109 0 195.5 -44t139.5 -126q70 -110 70 -311q0 -262 -63 -369q-52 -89 -148 -137.5t-217 -48.5q-110 0 -197 39t-139 114q-76 116 -76 363q0 184 52 291q51 109 151 169t232 60zM532 872q-75 0 -133.5 -37.5t-89.5 -105.5q-34 -71 -37 -227q0 -153 31 -221 q30 -67 85.5 -103.5t129.5 -36.5q85 0 148.5 45t91.5 136q16 56 16 215q0 124 -26 188q-28 73 -85 110t-131 37zM580 1128l-109 41l147 363l166 -51z" />
<glyph unicode="&#xf4;" horiz-adv-x="1052" d="M539 1024q109 0 195.5 -44t139.5 -126q70 -110 70 -311q0 -262 -63 -369q-52 -89 -148 -137.5t-217 -48.5q-110 0 -197 39t-139 114q-76 116 -76 363q0 184 52 291q51 109 151 169t232 60zM532 872q-75 0 -133.5 -37.5t-89.5 -105.5q-34 -71 -37 -227q0 -153 31 -221 q30 -67 85.5 -103.5t129.5 -36.5q85 0 148.5 45t91.5 136q16 56 16 215q0 124 -26 188q-28 73 -85 110t-131 37zM795 1133l-273 217l-274 -220l-80 78l307 314h109l293 -310z" />
<glyph unicode="&#xf5;" horiz-adv-x="1052" d="M539 1024q109 0 195.5 -44t139.5 -126q70 -110 70 -311q0 -262 -63 -369q-52 -89 -148 -137.5t-217 -48.5q-110 0 -197 39t-139 114q-76 116 -76 363q0 184 52 291q51 109 151 169t232 60zM532 872q-75 0 -133.5 -37.5t-89.5 -105.5q-34 -71 -37 -227q0 -153 31 -221 q30 -67 85.5 -103.5t129.5 -36.5q85 0 148.5 45t91.5 136q16 56 16 215q0 124 -26 188q-28 73 -85 110t-131 37zM403 1432q52 0 147 -48.5t128 -48.5q65 0 125 92l106 -59q-86 -182 -219 -182q-51 0 -142.5 43t-129.5 43q-35 0 -62.5 -18t-66.5 -64l-107 59q41 86 100 134.5 t121 48.5z" />
<glyph unicode="&#xf6;" horiz-adv-x="1052" d="M539 1024q109 0 195.5 -44t139.5 -126q70 -110 70 -311q0 -262 -63 -369q-52 -89 -148 -137.5t-217 -48.5q-110 0 -197 39t-139 114q-76 116 -76 363q0 184 52 291q51 109 151 169t232 60zM532 872q-75 0 -133.5 -37.5t-89.5 -105.5q-34 -71 -37 -227q0 -153 31 -221 q30 -67 85.5 -103.5t129.5 -36.5q85 0 148.5 45t91.5 136q16 56 16 215q0 124 -26 188q-28 73 -85 110t-131 37zM793 1223h-181v180h181v-180zM424 1223h-180v180h180v-180z" />
<glyph unicode="&#xf7;" d="M637 969q0 -47 -35 -82t-82 -35q-49 0 -83 34.5t-34 82.5t34 82t83 34q47 0 82 -34.5t35 -81.5zM981 537h-924v129h924v-129zM520 352q48 0 82.5 -33.5t34.5 -80.5q0 -49 -34.5 -83t-82.5 -34q-50 0 -83.5 33.5t-33.5 83.5q0 47 34 80.5t83 33.5z" />
<glyph unicode="&#xf8;" horiz-adv-x="1052" d="M539 1024q135 0 241 -72l86 121l78 -55l-94 -131l24 -33q70 -110 70 -311q0 -262 -63 -369q-52 -89 -148 -137.5t-217 -48.5q-151 0 -252 67l-76 -106l-75 57l82 115q-10 10 -15 20q-76 116 -76 363q0 184 52 291q51 109 151 169t232 60zM748 725q-5 5 -5 8l-381 -536 q62 -56 156 -56q85 0 148.5 45t91.5 136q16 56 16 215q0 124 -26 188zM532 872q-75 0 -133.5 -37.5t-89.5 -105.5q-34 -71 -37 -227q0 -153 31 -221v-5l383 541q-61 55 -154 55z" />
<glyph unicode="&#xf9;" horiz-adv-x="1052" d="M920 0h-168v115h-7q-49 -63 -122.5 -95t-155.5 -32q-165 0 -258.5 86t-93.5 268v674h168v-610q0 -138 49.5 -198.5t183.5 -60.5q101 0 168.5 72t67.5 187v610h168v-1016zM608 1169l-108 -41l-205 353l166 51z" />
<glyph unicode="&#xfa;" horiz-adv-x="1052" d="M920 0h-168v115h-7q-49 -63 -122.5 -95t-155.5 -32q-165 0 -258.5 86t-93.5 268v674h168v-610q0 -138 49.5 -198.5t183.5 -60.5q101 0 168.5 72t67.5 187v610h168v-1016zM543 1128l-109 41l148 363l166 -51z" />
<glyph unicode="&#xfb;" horiz-adv-x="1052" d="M920 0h-168v115h-7q-49 -63 -122.5 -95t-155.5 -32q-165 0 -258.5 86t-93.5 268v674h168v-610q0 -138 49.5 -198.5t183.5 -60.5q101 0 168.5 72t67.5 187v610h168v-1016zM788 1133l-272 217l-274 -220l-80 78l307 314h109l292 -310z" />
<glyph unicode="&#xfc;" horiz-adv-x="1052" d="M920 0h-168v115h-7q-49 -63 -122.5 -95t-155.5 -32q-165 0 -258.5 86t-93.5 268v674h168v-610q0 -138 49.5 -198.5t183.5 -60.5q101 0 168.5 72t67.5 187v610h168v-1016zM772 1223h-180v180h180v-180zM403 1223h-180v180h180v-180z" />
<glyph unicode="&#xfd;" horiz-adv-x="897" d="M897 1016l-436 -1231q-28 -79 -72 -124t-89 -58t-107 -13h-87v148h84q44 0 75 26t52 89l56 167l-373 996h186l162 -461l105 -319h6l104 317l158 463h176zM492 1128l-109 41l147 363l166 -51z" />
<glyph unicode="&#xfe;" horiz-adv-x="1052" d="M115 1425h168v-522l6 -2q108 125 276 125q84 0 149 -29.5t105 -77t65 -115.5t34.5 -137.5t9.5 -150.5q0 -84 -10 -156t-37.5 -142.5t-71 -119.5t-114.5 -79.5t-163 -30.5q-76 0 -130.5 22.5t-114.5 79.5h-4v-496h-168v1831zM283 506q0 -53 4.5 -96.5t19 -92.5t39 -82.5 t68 -56t102.5 -22.5q61 0 105.5 21.5t69 53.5t39 81.5t18.5 93.5t4 100q0 45 -3 81.5t-11 80t-24.5 75.5t-41.5 60t-65 42.5t-91 14.5q-59 0 -103 -23t-68.5 -57.5t-39 -85t-18.5 -93.5t-4 -95z" />
<glyph unicode="&#xff;" horiz-adv-x="897" d="M897 1016l-436 -1231q-28 -79 -72 -124t-89 -58t-107 -13h-87v148h84q44 0 75 26t52 89l56 167l-373 996h186l162 -461l105 -319h6l104 317l158 463h176zM743 1223h-180v180h180v-180zM375 1223h-180v180h180v-180z" />
<glyph unicode="&#x152;" horiz-adv-x="1660" d="M1606 0h-891q-59 -12 -123 -12q-124 0 -222 42t-159 115.5t-93 167.5t-32 203v393q0 107 32 200.5t93 167t159 116.5t222 43q45 0 113 -11h901v-165h-721v-461h614v-158h-614v-475h721v-166zM594 156q58 0 111 18v1073q-55 19 -111 19q-80 0 -144.5 -30.5t-104 -82 t-60.5 -115t-21 -133.5v-379q0 -97 35.5 -179.5t112 -136.5t182.5 -54z" />
<glyph unicode="&#x153;" horiz-adv-x="1695" d="M510 1024q109 0 196.5 -43.5t141.5 -124.5v-2q59 89 147 130.5t185 41.5q173 0 294 -120.5t121 -323.5v-129h-665q0 -107 37 -177q71 -133 241 -133q53 0 118.5 26t113.5 69l106 -121q-135 -129 -334 -129q-250 0 -364 172q-57 -86 -147 -129t-197 -43q-229 0 -334 153 q-82 122 -82 363q0 194 45 291q50 109 148 169t229 60zM1423 590q-4 136 -69 208t-172 72q-108 0 -177 -73.5t-75 -206.5h493zM508 872q-75 0 -132.5 -37.5t-88.5 -105.5q-31 -70 -31 -227q0 -149 33 -221q31 -67 88 -103.5t131 -36.5q85 0 146.5 45t88.5 136q15 52 15 182 q0 147 -31 221q-30 73 -87.5 110t-131.5 37z" />
<glyph unicode="&#x178;" horiz-adv-x="1040" d="M1032 1425l-428 -860v-565h-172v565l-428 860h191l198 -395l127 -272l133 284l193 383h186zM795 1577h-181v180h181v-180zM426 1577h-180v180h180v-180z" />
<glyph unicode="&#x2c6;" horiz-adv-x="1005" d="M788 1133l-272 217l-274 -220l-80 78l307 314h109l292 -310z" />
<glyph unicode="&#x2dc;" horiz-adv-x="1005" d="M365 1432q52 0 146.5 -48.5t127.5 -48.5q65 0 125 92l106 -59q-86 -182 -219 -182q-51 0 -142.5 43t-129.5 43q-35 0 -62.5 -18t-66.5 -64l-107 59q41 86 100.5 134.5t121.5 48.5z" />
<glyph unicode="&#x2000;" horiz-adv-x="932" />
<glyph unicode="&#x2001;" horiz-adv-x="1864" />
<glyph unicode="&#x2002;" horiz-adv-x="932" />
<glyph unicode="&#x2003;" horiz-adv-x="1864" />
<glyph unicode="&#x2004;" horiz-adv-x="621" />
<glyph unicode="&#x2005;" horiz-adv-x="466" />
<glyph unicode="&#x2006;" horiz-adv-x="310" />
<glyph unicode="&#x2007;" horiz-adv-x="310" />
<glyph unicode="&#x2008;" horiz-adv-x="233" />
<glyph unicode="&#x2009;" horiz-adv-x="372" />
<glyph unicode="&#x200a;" horiz-adv-x="103" />
<glyph unicode="&#x2010;" horiz-adv-x="802" d="M696 471h-590v154h590v-154z" />
<glyph unicode="&#x2011;" horiz-adv-x="802" d="M696 471h-590v154h590v-154z" />
<glyph unicode="&#x2012;" horiz-adv-x="802" d="M696 471h-590v154h590v-154z" />
<glyph unicode="&#x2013;" horiz-adv-x="1042" d="M1004 469h-963v158h963v-158z" />
<glyph unicode="&#x2014;" horiz-adv-x="1679" d="M1638 471h-1597v158h1597v-158z" />
<glyph unicode="&#x2018;" horiz-adv-x="450" d="M119 1274l114 235h105l-66 -231h58v-227h-211v223z" />
<glyph unicode="&#x2019;" horiz-adv-x="450" d="M338 1286l-115 -235h-104l65 231h-57v227h211v-223z" />
<glyph unicode="&#x201a;" horiz-adv-x="516" d="M350 4l-114 -235h-84l65 231h-57v227h190v-223z" />
<glyph unicode="&#x201c;" horiz-adv-x="628" d="M57 1274l115 235h104l-65 -231h57v-227h-211v223zM350 1274l115 235h104l-65 -231h57v-227h-211v223z" />
<glyph unicode="&#x201d;" horiz-adv-x="628" d="M590 1286l-115 -235h-104l65 231h-57v227h211v-223zM297 1286l-115 -235h-104l65 231h-57v227h211v-223z" />
<glyph unicode="&#x201e;" horiz-adv-x="829" d="M664 4l-115 -235h-105l66 231h-57v227h211v-223zM371 4l-115 -235h-104l65 231h-57v227h211v-223z" />
<glyph unicode="&#x2022;" horiz-adv-x="835" d="M692 547q0 -111 -79 -189.5t-191 -78.5t-190 78.5t-78 189.5t78 189.5t190 78.5t191 -78.5t79 -189.5z" />
<glyph unicode="&#x2026;" horiz-adv-x="1656" d="M381 0h-211v227h211v-227zM920 0h-211v227h211v-227zM1473 0h-211v227h211v-227z" />
<glyph unicode="&#x202f;" horiz-adv-x="372" />
<glyph unicode="&#x2030;" horiz-adv-x="2254" d="M1507 240q0 -114 -77.5 -181t-188.5 -67t-188.5 67t-77.5 181v374q0 111 78 178.5t188 67.5t188 -67.5t78 -178.5v-374zM1374 248v358q0 60 -36.5 94.5t-96.5 34.5t-96.5 -34.5t-36.5 -94.5v-358q0 -62 36 -96.5t97 -34.5t97 34.5t36 96.5zM639 811q0 -114 -77.5 -181 t-188.5 -67t-189 67t-78 181v375q0 111 78 178.5t189 67.5q110 0 188 -67.5t78 -178.5v-375zM506 819v359q0 60 -36.5 94.5t-96.5 34.5t-96.5 -34.5t-36.5 -94.5v-359q0 -62 36 -96.5t97 -34.5t97 34.5t36 96.5zM1307 1460l-873 -1495h-125l871 1495h127zM2148 240 q0 -114 -77.5 -181t-188.5 -67t-188.5 67t-77.5 181v374q0 111 78 178.5t188 67.5t188 -67.5t78 -178.5v-374zM2015 248v358q0 60 -36.5 94.5t-96.5 34.5t-96.5 -34.5t-36.5 -94.5v-358q0 -62 36 -96.5t97 -34.5t97 34.5t36 96.5z" />
<glyph unicode="&#x2039;" horiz-adv-x="614" d="M514 94h-160l-260 381l260 381h160l-252 -381z" />
<glyph unicode="&#x203a;" horiz-adv-x="614" d="M252 94h-160l252 381l-252 381h160l260 -381z" />
<glyph unicode="&#x2044;" horiz-adv-x="180" d="M588 1460l-873 -1495h-125l871 1495h127z" />
<glyph unicode="&#x205f;" horiz-adv-x="466" />
<glyph unicode="&#x2070;" horiz-adv-x="643" d="M590 995q0 -114 -77.5 -180.5t-188.5 -66.5t-189 66.5t-78 180.5v375q0 111 78 178.5t189 67.5q110 0 188 -67.5t78 -178.5v-375zM457 1004v358q0 60 -36.5 94.5t-96.5 34.5q-61 0 -97.5 -35t-36.5 -94v-358q0 -62 36.5 -97t97.5 -35t97 35t36 97z" />
<glyph unicode="&#x2074;" horiz-adv-x="659" d="M631 883h-74v-127h-135v127h-393v110l317 617h148l-316 -609h244v242h135v-242h74v-118z" />
<glyph unicode="&#x2075;" horiz-adv-x="628" d="M580 1083v-53q0 -124 -73 -202t-208 -78q-229 0 -272 204l135 21q12 -56 48.5 -83.5t88.5 -27.5q147 0 147 191q0 164 -137 164q-73 0 -123 -72h-127v463h502v-121h-373v-189q60 39 150 39q116 0 179 -69.5t63 -186.5z" />
<glyph unicode="&#x2076;" horiz-adv-x="636" d="M592 1018q0 -68 -23 -121t-63 -85t-89 -48t-104 -16q-121 0 -193.5 67.5t-72.5 194.5q0 87 49 182l240 418h149l-194 -355q32 7 57 7q107 0 175.5 -71t68.5 -173zM453 1012q0 64 -39 100.5t-97 36.5q-54 0 -94.5 -37t-40.5 -100q0 -68 36 -107t99 -39q59 0 97.5 40.5 t38.5 105.5z" />
<glyph unicode="&#x2077;" horiz-adv-x="581" d="M563 1491l-319 -735h-148l318 729h-250v-125h-135v250h534v-119z" />
<glyph unicode="&#x2078;" horiz-adv-x="645" d="M608 1006q0 -112 -83.5 -185t-202.5 -73t-203 73t-84 185q0 56 29 108t83 82q-94 52 -94 172q0 105 77 176.5t192 71.5q123 0 196.5 -70.5t73.5 -177.5q0 -109 -92 -170q54 -29 81 -81t27 -111zM475 1008q0 56 -45.5 93.5t-107.5 37.5q-60 0 -107 -38t-47 -93 q0 -57 47 -98.5t107 -41.5q61 0 107 41t46 99zM457 1370q0 57 -40.5 91t-94.5 34t-95 -34t-41 -91q0 -56 40.5 -88.5t95.5 -32.5t95 32.5t40 88.5z" />
<glyph unicode="&#x2079;" horiz-adv-x="628" d="M43 1339q0 138 80.5 207.5t200.5 69.5q106 0 186 -70t80 -192q0 -77 -35 -142l-260 -458h-150l203 360q-23 -6 -59 -6q-109 0 -177.5 65t-68.5 166zM178 1352q0 -64 39.5 -101t97.5 -37t97 37t39 101q0 66 -36.5 105.5t-99.5 39.5q-59 0 -98 -40.5t-39 -104.5z" />
<glyph unicode="&#x207a;" horiz-adv-x="665" d="M635 1067h-248v-229h-108v229h-248v102h248v226h108v-226h248v-102z" />
<glyph unicode="&#x207b;" horiz-adv-x="522" d="M463 1028h-404v117h404v-117z" />
<glyph unicode="&#x207c;" horiz-adv-x="665" d="M635 950h-604v109h604v-109zM635 1180h-604v106h604v-106z" />
<glyph unicode="&#x207d;" horiz-adv-x="387" d="M389 662l-74 -54q-258 251 -258 522q0 145 69.5 278.5t180.5 242.5l86 -45q-88 -105 -139 -228.5t-51 -240.5q0 -123 50.5 -248t135.5 -227z" />
<glyph unicode="&#x207e;" horiz-adv-x="387" d="M86 608l-78 54q86 104 137.5 228.5t51.5 246.5q0 117 -50.5 241.5t-138.5 227.5l82 45q113 -109 183.5 -242.5t70.5 -278.5q0 -142 -72.5 -276t-185.5 -246z" />
<glyph unicode="&#x207f;" horiz-adv-x="741" d="M653 571h-135v400q0 71 -38.5 110t-108.5 39q-66 0 -108 -40.5t-42 -108.5v-400h-135v670h135v-82q72 90 187 90q100 0 172.5 -63t72.5 -170v-445z" />
<glyph unicode="&#x2080;" horiz-adv-x="643" d="M590 55q0 -114 -77.5 -181t-188.5 -67t-189 67t-78 181v375q0 111 78 178.5t189 67.5q110 0 188 -67.5t78 -178.5v-375zM457 63v359q0 60 -36.5 94.5t-96.5 34.5q-61 0 -97.5 -35t-36.5 -94v-359q0 -62 36.5 -96.5t97.5 -34.5t97 34.5t36 96.5z" />
<glyph unicode="&#x2081;" horiz-adv-x="555" d="M371 670v-854h-135v710l-119 -77v135l125 86h129z" />
<glyph unicode="&#x2082;" horiz-adv-x="636" d="M582 -184h-535v116l354 410q50 56 50 107q0 43 -33.5 73.5t-91.5 30.5q-53 0 -91 -36.5t-47 -94.5l-135 18q15 105 93 169.5t182 64.5q115 0 189.5 -58.5t74.5 -164.5q0 -41 -18.5 -88t-51.5 -84q-258 -292 -297 -338h357v-125z" />
<glyph unicode="&#x2083;" horiz-adv-x="645" d="M594 78q0 -119 -80 -195t-207 -76q-46 0 -86.5 11t-77.5 34t-63.5 64.5t-36.5 97.5l133 19q12 -52 48 -79.5t85 -27.5q66 0 107 42.5t41 105.5t-39.5 98t-102.5 35h-77v112h65q63 0 103 33.5t40 85.5q0 50 -38.5 83.5t-94.5 33.5q-41 0 -79 -29.5t-52 -79.5l-133 19 q20 92 94.5 151.5t169.5 59.5q133 0 201 -67.5t68 -168.5q0 -112 -101 -174q58 -36 85.5 -86t27.5 -102z" />
<glyph unicode="&#x2084;" horiz-adv-x="659" d="M631 -57h-74v-127h-135v127h-393v110l317 617h148l-316 -609h244v242h135v-242h74v-118z" />
<glyph unicode="&#x2085;" horiz-adv-x="628" d="M580 143v-53q0 -124 -73 -202t-208 -78q-229 0 -272 204l135 21q12 -56 48.5 -83.5t88.5 -27.5q147 0 147 191q0 164 -137 164q-73 0 -123 -72h-127v463h502v-121h-373v-189q60 39 150 39q116 0 179 -69.5t63 -186.5z" />
<glyph unicode="&#x2086;" horiz-adv-x="636" d="M592 78q0 -68 -23 -121t-63 -85t-89 -48.5t-104 -16.5q-121 0 -193.5 68t-72.5 195q0 87 49 182l240 418h149l-194 -355q31 7 57 7q107 0 175.5 -71t68.5 -173zM453 72q0 64 -39 100.5t-97 36.5q-54 0 -94.5 -37t-40.5 -100q0 -68 36 -107t99 -39q59 0 97.5 40.5 t38.5 105.5z" />
<glyph unicode="&#x2087;" horiz-adv-x="581" d="M563 551l-319 -735h-148l318 729h-250v-125h-135v250h534v-119z" />
<glyph unicode="&#x2088;" horiz-adv-x="645" d="M608 66q0 -112 -83.5 -185.5t-202.5 -73.5t-203 73.5t-84 185.5q0 56 29 108t83 82q-94 52 -94 172q0 105 77 176.5t192 71.5q123 0 196.5 -70.5t73.5 -177.5q0 -109 -92 -170q54 -29 81 -81t27 -111zM475 68q0 56 -45.5 93.5t-107.5 37.5q-60 0 -107 -38t-47 -93 q0 -57 47 -98.5t107 -41.5q61 0 107 41t46 99zM457 430q0 57 -40.5 91t-94.5 34t-95 -34t-41 -91q0 -56 40.5 -88.5t95.5 -32.5t95 32.5t40 88.5z" />
<glyph unicode="&#x2089;" horiz-adv-x="628" d="M43 399q0 138 80.5 207.5t200.5 69.5q106 0 186 -70t80 -192q0 -77 -35 -142l-260 -458h-150l203 360q-23 -6 -59 -6q-109 0 -177.5 65t-68.5 166zM178 412q0 -64 39.5 -101t97.5 -37t97 37t39 101q0 66 -36.5 105.5t-99.5 39.5q-59 0 -98 -40.5t-39 -104.5z" />
<glyph unicode="&#x208a;" horiz-adv-x="665" d="M635 127h-248v-229h-108v229h-248v102h248v226h108v-226h248v-102z" />
<glyph unicode="&#x208b;" horiz-adv-x="522" d="M463 88h-404v117h404v-117z" />
<glyph unicode="&#x208c;" horiz-adv-x="665" d="M635 10h-604v109h604v-109zM635 240h-604v106h604v-106z" />
<glyph unicode="&#x208d;" horiz-adv-x="387" d="M389 -217l-74 -53q-258 251 -258 522q0 145 69.5 278t180.5 242l86 -45q-88 -105 -139 -228.5t-51 -240.5q0 -123 50.5 -248t135.5 -227z" />
<glyph unicode="&#x208e;" horiz-adv-x="387" d="M86 -270l-78 53q86 104 137.5 228.5t51.5 246.5q0 117 -50.5 241.5t-138.5 227.5l82 45q113 -109 183.5 -242t70.5 -278q0 -142 -72.5 -276t-185.5 -246z" />
<glyph unicode="&#x20ac;" d="M727 768h-430v-115h430v-110h-430v-54q0 -155 76.5 -249.5t206.5 -94.5q100 0 164 47t122 148l152 -88q-156 -264 -440 -264q-217 0 -338 141t-121 373v41h-90v110h90v115h-90v111h90v47q0 141 53.5 256t159.5 184.5t246 69.5q157 0 268 -71.5t162 -207.5l-166 -67 q-35 88 -104 136t-158 48q-94 0 -160 -52t-94.5 -130.5t-28.5 -173.5v-39h430v-111z" />
<glyph unicode="&#x2122;" horiz-adv-x="1728" d="M1610 598h-129l-2 520l-203 -399h-109l-204 399v-520h-127v825h127l264 -528l258 528h125v-825zM713 1307h-254v-707h-129v707h-254v118h637v-118z" />
<glyph unicode="&#x2153;" horiz-adv-x="1613" d="M1196 1460l-872 -1495h-125l870 1495h127zM397 1425v-854h-135v711l-119 -78v135l125 86h129zM1468 262q0 -119 -79.5 -194.5t-206.5 -75.5q-46 0 -86.5 11t-77.5 34t-63.5 64.5t-36.5 97.5l133 18q12 -52 48 -79t85 -27q66 0 106.5 42t40.5 105t-39 98t-102 35h-78v113 h66q63 0 103 33.5t40 85.5q0 50 -38.5 83t-94.5 33q-41 0 -79 -29t-52 -79l-133 18q20 92 94.5 151.5t169.5 59.5q133 0 200.5 -67t67.5 -168q0 -112 -100 -174q58 -36 85 -86.5t27 -102.5z" />
<glyph unicode="&#x2154;" horiz-adv-x="1613" d="M1325 1460l-872 -1495h-125l870 1495h127zM571 571h-534v117l354 410q49 55 49 106q0 43 -33.5 74t-91.5 31q-52 0 -90 -36t-47 -95l-135 18q15 105 93 169.5t181 64.5q115 0 190 -59t75 -165q0 -41 -18.5 -88t-51.5 -84q-258 -292 -297 -338h356v-125zM1577 262 q0 -119 -80 -194.5t-207 -75.5q-46 0 -86.5 11t-77.5 34t-63.5 64.5t-36.5 97.5l133 18q12 -52 48 -79t85 -27q66 0 107 42t41 105t-39.5 98t-102.5 35h-77v113h65q63 0 103.5 33.5t40.5 85.5q0 50 -39 83t-95 33q-41 0 -79 -29t-52 -79l-133 18q20 92 94.5 151.5 t169.5 59.5q133 0 201 -67t68 -168q0 -112 -101 -174q58 -36 85.5 -86.5t27.5 -102.5z" />
<glyph unicode="&#x2155;" horiz-adv-x="1613" d="M1188 1460l-873 -1495h-125l871 1495h127zM399 1425v-854h-135v711l-119 -78v135l125 86h129zM1466 328v-54q0 -124 -72.5 -202t-207.5 -78q-230 0 -273 205l136 20q23 -110 137 -110q147 0 147 190q0 164 -137 164q-73 0 -123 -72h-127v463h502v-121h-373v-188 q60 39 150 39q116 0 178.5 -69.5t62.5 -186.5z" />
<glyph unicode="&#x2156;" horiz-adv-x="1613" d="M1307 1460l-873 -1495h-125l871 1495h127zM569 571h-534v117l354 410q49 55 49 106q0 43 -33.5 74t-91.5 31q-52 0 -90 -36t-47 -95l-135 18q15 105 93 169.5t181 64.5q115 0 190 -59t75 -165q0 -41 -18.5 -88t-51.5 -84q-258 -292 -297 -338h356v-125zM1579 328v-54 q0 -124 -73 -202t-208 -78q-229 0 -272 205l135 20q23 -110 137 -110q148 0 148 190q0 164 -137 164q-73 0 -123 -72h-127v463h502v-121h-373v-188q60 39 149 39q116 0 179 -69.5t63 -186.5z" />
<glyph unicode="&#x2157;" horiz-adv-x="1613" d="M1286 1460l-872 -1495h-125l870 1495h127zM586 834q0 -119 -80 -195t-207 -76q-46 0 -86.5 11t-77.5 34t-63.5 64.5t-36.5 97.5l133 18q12 -52 48 -79t85 -27q66 0 107 42t41 105t-39.5 98.5t-102.5 35.5h-78v112h66q63 0 103 33.5t40 85.5q0 50 -38.5 83.5t-94.5 33.5 q-41 0 -79 -29.5t-52 -79.5l-133 19q20 92 94.5 151.5t169.5 59.5q133 0 200.5 -67t67.5 -169q0 -112 -100 -174q58 -36 85.5 -86t27.5 -102zM1579 328v-54q0 -124 -73 -202t-208 -78q-229 0 -272 205l135 20q23 -110 137 -110q148 0 148 190q0 164 -137 164q-73 0 -123 -72 h-127v463h502v-121h-373v-188q60 39 149 39q116 0 179 -69.5t63 -186.5z" />
<glyph unicode="&#x2158;" horiz-adv-x="1613" d="M1329 1460l-872 -1495h-125l870 1495h127zM614 698h-73v-127h-135v127h-394v111l318 616h147l-315 -608h244v242h135v-242h73v-119zM1599 328v-54q0 -124 -72.5 -202t-207.5 -78q-229 0 -272 205l135 20q23 -110 137 -110q147 0 147 190q0 164 -137 164q-73 0 -123 -72 h-127v463h502v-121h-373v-188q60 39 150 39q116 0 178.5 -69.5t62.5 -186.5z" />
<glyph unicode="&#x2159;" horiz-adv-x="1613" d="M1257 1460l-872 -1495h-125l870 1495h127zM399 1425v-854h-135v711l-119 -78v135l125 86h129zM1468 262q0 -90 -40.5 -152.5t-101.5 -90t-136 -27.5q-121 0 -193.5 67.5t-72.5 194.5q0 87 49 182l239 418h150l-195 -354q27 6 58 6q107 0 175 -71t68 -173zM1329 256 q0 64 -38.5 100.5t-96.5 36.5q-54 0 -94.5 -37t-40.5 -100q0 -68 36 -106.5t99 -38.5q59 0 97 40t38 105z" />
<glyph unicode="&#x215a;" horiz-adv-x="1613" d="M1356 1460l-873 -1495h-125l871 1495h127zM588 899v-53q0 -124 -73 -202.5t-208 -78.5q-229 0 -272 205l135 21q12 -56 48.5 -83.5t88.5 -27.5q148 0 148 190q0 164 -138 164q-73 0 -122 -71h-127v462h501v-120h-372v-189q60 39 149 39q116 0 179 -69.5t63 -186.5z M1579 262q0 -68 -23 -121t-63 -85t-89 -48t-104 -16q-121 0 -193.5 67.5t-72.5 194.5q0 87 49 182l240 418h150l-195 -354q27 6 57 6q107 0 175.5 -71t68.5 -173zM1440 256q0 64 -38.5 100.5t-96.5 36.5q-55 0 -95.5 -37t-40.5 -100q0 -67 36.5 -106t99.5 -39q59 0 97 40 t38 105z" />
<glyph unicode="&#x215b;" horiz-adv-x="1613" d="M1206 1460l-872 -1495h-125l870 1495h127zM389 1425v-854h-135v711l-119 -78v135l125 86h129zM1477 250q0 -112 -84 -185t-203 -73t-203 73t-84 185q0 56 29.5 108t83.5 82q-94 52 -94 172q0 105 76.5 176.5t191.5 71.5q123 0 196.5 -70.5t73.5 -177.5q0 -109 -92 -170 q54 -29 81.5 -81t27.5 -111zM1343 252q0 56 -45.5 93.5t-107.5 37.5q-60 0 -107 -38t-47 -93q0 -57 47 -98t107 -41q61 0 107 40.5t46 98.5zM1325 614q0 57 -40.5 91t-94.5 34t-94.5 -34t-40.5 -91q0 -56 40 -88t95 -32t95 32t40 88z" />
<glyph unicode="&#x215c;" horiz-adv-x="1613" d="M1300 1460l-872 -1495h-125l871 1495h126zM584 834q0 -119 -80 -195t-207 -76q-46 0 -86.5 11t-77.5 34t-63.5 64.5t-36.5 97.5l133 18q12 -52 48 -79t85 -27q66 0 106.5 42t40.5 105t-39 98.5t-102 35.5h-78v112h66q63 0 103 33.5t40 85.5q0 50 -38.5 83.5t-94.5 33.5 q-41 0 -79 -29.5t-52 -79.5l-133 19q20 92 94.5 151.5t169.5 59.5q133 0 200.5 -67t67.5 -169q0 -112 -100 -174q58 -36 85.5 -86t27.5 -102zM1579 250q0 -112 -84 -185t-203 -73t-202.5 73t-83.5 185q0 56 29 108t83 82q-94 52 -94 172q0 105 76.5 176.5t191.5 71.5 q123 0 197 -70.5t74 -177.5q0 -51 -24.5 -96t-68.5 -74q54 -29 81.5 -81t27.5 -111zM1446 252q0 56 -46 93.5t-108 37.5q-60 0 -106.5 -38t-46.5 -93q0 -57 46.5 -98t106.5 -41q61 0 107.5 40.5t46.5 98.5zM1427 614q0 57 -40.5 91t-94.5 34t-94.5 -34t-40.5 -91 q0 -56 40 -88t95 -32t95 32t40 88z" />
<glyph unicode="&#x215d;" horiz-adv-x="1613" d="M1305 1460l-873 -1495h-125l871 1495h127zM578 899v-53q0 -124 -73 -202.5t-208 -78.5q-229 0 -272 205l135 21q12 -56 48.5 -83.5t88.5 -27.5q147 0 147 190q0 164 -137 164q-74 0 -123 -71h-127v462h502v-120h-373v-189q60 39 150 39q116 0 179 -69.5t63 -186.5z M1587 250q0 -112 -84 -185t-203 -73t-202.5 73t-83.5 185q0 56 29 108t83 82q-94 52 -94 172q0 105 76.5 176.5t191.5 71.5q123 0 197 -70.5t74 -177.5q0 -109 -92 -170q54 -29 81 -81t27 -111zM1454 252q0 56 -46 93.5t-108 37.5q-60 0 -106.5 -38t-46.5 -93 q0 -57 46.5 -98t106.5 -41q61 0 107.5 40.5t46.5 98.5zM1436 614q0 57 -41 91t-95 34t-94.5 -34t-40.5 -91q0 -56 40 -88t95 -32t95.5 32t40.5 88z" />
<glyph unicode="&#x215e;" horiz-adv-x="1613" d="M1249 1460l-872 -1495h-125l870 1495h127zM565 1307l-319 -736h-148l318 729h-250v-124h-135v249h534v-118zM1581 250q0 -112 -84 -185t-203 -73t-202.5 73t-83.5 185q0 56 29 108t83 82q-94 52 -94 172q0 105 76.5 176.5t191.5 71.5q123 0 197 -70.5t74 -177.5 q0 -109 -92 -170q54 -29 81 -81t27 -111zM1448 252q0 56 -46 93.5t-108 37.5q-60 0 -106.5 -38t-46.5 -93q0 -57 46.5 -98t106.5 -41q61 0 107.5 40.5t46.5 98.5zM1430 614q0 57 -41 91t-95 34t-94.5 -34t-40.5 -91q0 -56 40 -88t95 -32t95.5 32t40.5 88z" />
<glyph unicode="&#x2190;" horiz-adv-x="1720" d="M414 723h1181v-131l-1181 2l299 -297l-95 -92l-450 452l450 455l95 -92z" />
<glyph unicode="&#x2191;" horiz-adv-x="993" d="M571 1176v-1174h-131v1174l-295 -291l-92 94l453 451l455 -451l-93 -94z" />
<glyph unicode="&#x2192;" horiz-adv-x="1720" d="M170 723h1182l-299 297l94 92l450 -455l-450 -452l-94 92l299 297l-1182 -2v131z" />
<glyph unicode="&#x2193;" horiz-adv-x="993" d="M571 1432v-1182l297 299l93 -94l-455 -451l-453 451l92 94l297 -299l-2 1182h131z" />
<glyph unicode="&#x2196;" horiz-adv-x="1720" d="M895 1188l-422 2l1096 -1098l-90 -92l-1096 1098l2 -420h-133l2 639l639 2z" />
<glyph unicode="&#x2198;" horiz-adv-x="1720" d="M924 131l422 -2l-1096 1098l90 92l1096 -1098l-2 420h133l-2 -639l-639 -2z" />
<glyph unicode="&#x21a9;" horiz-adv-x="1720" d="M614 1020l-299 -297h994q204 0 204 221v164q0 192 -204 192h-152v127h162q170 0 248 -88.5t78 -238.5v-156q0 -165 -89 -258.5t-264 -93.5l-977 2l299 -297l-94 -92l-450 452l450 455z" />
<glyph unicode="&#x21aa;" horiz-adv-x="1695" d="M1401 723l-299 297l94 92l451 -455l-451 -452l-94 92l299 297l-977 -2q-175 0 -263.5 93.5t-88.5 258.5v156q0 150 77.5 238.5t247.5 88.5h162v-127h-151q-205 0 -205 -192v-164q0 -101 48.5 -161t156.5 -60h993z" />
<glyph unicode="&#x21b3;" horiz-adv-x="1720" d="M362 1417v-694h1047l-299 297l94 92l451 -455l-451 -452l-94 92l299 297l-1180 -2v825h133z" />
<glyph unicode="&#x21b5;" horiz-adv-x="1720" d="M1460 723v694h133v-825l-1179 2l299 -297l-95 -92l-450 452l450 455l95 -92l-299 -297h1046z" />
<glyph unicode="&#x21de;" horiz-adv-x="993" d="M571 1176l2 -406h226v-131h-226v-156h226v-131h-226v-352h-133v352h-225v131h225v156h-225v131h225l2 406l-297 -291l-92 94l453 451l455 -451l-93 -94z" />
<glyph unicode="&#x21df;" horiz-adv-x="993" d="M573 659l-2 -411l297 297l93 -94l-455 -451l-453 451l92 94l297 -297l-2 411h-225v132h225v155h-225v131h225v353h133v-353h226v-131h-226v-155h226v-132h-226z" />
<glyph unicode="&#x21e0;" horiz-adv-x="1720" d="M780 592v131h164v-131h-164zM1083 592v131h166v-131h-166zM1389 592v131h165v-131h-165zM371 723h272v-131l-272 2l303 -297l-94 -92l-451 452l451 455l94 -92z" />
<glyph unicode="&#x21e1;" horiz-adv-x="993" d="M436 776h131v-164h-131v164zM436 473h131v-166h-131v166zM436 168h131v-166h-131v166zM567 1182v-269h-131l2 269l-297 -299l-92 94l453 450l454 -450l-92 -94z" />
<glyph unicode="&#x21e2;" horiz-adv-x="1720" d="M903 723v-131h-164v131h164zM600 723v-131h-166v131h166zM295 723v-131h-166v131h166zM1040 723h273l-303 297l94 92l450 -455l-450 -452l-94 92l303 297l-273 -2v131z" />
<glyph unicode="&#x21e3;" horiz-adv-x="993" d="M567 653h-131v164h131v-164zM567 956h-131v166h131v-166zM567 1262h-131v165h131v-165zM567 516v-268l297 299l92 -94l-454 -451l-453 451l92 94l297 -299l-2 268h131z" />
<glyph unicode="&#x21e4;" horiz-adv-x="1720" d="M287 213h-133v891h133v-891zM662 723h1009v-131l-1009 2l299 -297l-95 -92l-450 452l450 455l95 -92z" />
<glyph unicode="&#x21e5;" horiz-adv-x="1720" d="M1673 213h-133v891h133v-891zM156 723h1009l-299 297l95 92l450 -455l-450 -452l-95 92l299 297l-1009 -2v131z" />
<glyph unicode="&#x21e7;" horiz-adv-x="1720" d="M492 651h-379l757 776l758 -776h-379v-651h-757v651zM1374 750l-504 522l-503 -522h235v-641h539v641h233z" />
<glyph unicode="&#x21ea;" horiz-adv-x="1720" d="M471 -385v385h758v-385h-758zM1120 -109h-538v-165h538v165zM471 651h-379l758 776l758 -776h-379v-444h-758v444zM1354 750l-504 522l-504 -522h236v-431h538v431h234z" />
<glyph unicode="&#x2303;" horiz-adv-x="1628" d="M328 741l-107 107l592 592l594 -592l-104 -107l-490 490z" />
<glyph unicode="&#x2318;" horiz-adv-x="1732" d="M426 1004h145v147q0 61 -42.5 104t-102.5 43q-63 0 -106.5 -42t-43.5 -105t43 -105t107 -42zM1153 1151v-147h147q62 0 105 43t43 104t-43 104t-105 43t-104.5 -42t-42.5 -105zM571 276v148h-145q-64 0 -107 -43.5t-43 -104.5q0 -63 43 -106t107 -43q61 0 103 43t42 106z M1300 424h-147v-148q0 -63 42.5 -106t104.5 -43t105 43t43 106q0 60 -43.5 104t-104.5 44zM715 565h295v297h-295v-297zM1153 862v-297h147q139 0 214 -83t75 -206q0 -124 -75 -207t-214 -83q-134 0 -212 83.5t-78 206.5v148h-295v-148q0 -122 -75.5 -206t-213.5 -84 q-132 0 -212.5 83t-80.5 207q0 122 79.5 205.5t213.5 83.5h145v297h-145q-119 0 -206 86t-87 203q0 122 83 206.5t210 84.5q139 0 214 -82.5t75 -208.5v-147h295v147q0 122 81.5 206.5t208.5 84.5q135 0 212 -83.5t77 -207.5q0 -115 -85 -202t-204 -87h-147z" />
<glyph unicode="&#x2324;" horiz-adv-x="1628" d="M328 504l-107 106l592 623l594 -623l-104 -106l-490 520zM221 1425h1188v-149h-1188v149z" />
<glyph unicode="&#x2325;" horiz-adv-x="2433" d="M90 1243v150h580l583 -1246h1074v-147h-1194l-584 1243h-459zM1081 1243v150h1246v-150h-1246z" />
<glyph unicode="&#x2326;" horiz-adv-x="2328" d="M2230 711l-690 -711h-1343v1423h1343zM1462 141l561 570l-561 569h-1124v-1139h1124zM1257 293l-319 319l-315 -319l-101 100l318 318l-318 319l101 100l315 -317l319 317l101 -100l-318 -319l318 -318z" />
<glyph unicode="&#x232b;" horiz-adv-x="2385" d="M848 0l-690 711l690 712h1343v-1423h-1343zM365 711l561 -570h1124v1139h-1124zM1430 612l-320 -319l-100 100l317 318l-317 319l100 100l320 -317l315 317l100 -100l-317 -319l317 -318l-100 -100z" />
<glyph unicode="&#x235f;" horiz-adv-x="1646" d="M1542 709h-2q0 -196 -97 -362.5t-264 -263.5t-364 -97q-196 0 -362 97t-262.5 264t-96.5 364q0 196 97 362.5t264 263.5t364 97q196 0 362.5 -97t263.5 -264t97 -364zM1419 709q0 123 -48 235t-128.5 192.5t-192.5 128.5t-235 48t-235 -48t-192.5 -128.5t-128.5 -192.5 t-48 -235q0 -164 81 -303t220 -219.5t303 -80.5q123 0 235 48t192.5 128.5t128.5 192.5t48 234zM1298 848l-231 -232l53 -346l-321 156l-289 -156l43 338l-242 240l334 65l154 304l164 -299z" />
<glyph unicode="&#x23cf;" horiz-adv-x="1748" d="M135 465h1438v-279h-1438v279zM854 1362l719 -719h-1438z" />
<glyph unicode="&#x25a0;" horiz-adv-x="1792" d="M1548 1378v-1296h-1296v1296h1296z" />
<glyph unicode="&#x25a1;" horiz-adv-x="1722" d="M293 1296v-1175h1163v1175h-1163zM1577 0h-1407v1419h1407v-1419z" />
<glyph unicode="&#x25b2;" horiz-adv-x="1679" d="M881 1079l718 -719h-1437z" />
<glyph unicode="&#x25b6;" horiz-adv-x="1218" d="M283 0v1436l718 -717z" />
<glyph unicode="&#x25bc;" horiz-adv-x="1679" d="M1599 1079l-718 -719l-719 719h1437z" />
<glyph unicode="&#x25c0;" horiz-adv-x="1218" d="M926 1436v-1436l-719 719z" />
<glyph unicode="&#x25ca;" horiz-adv-x="1085" d="M963 647l-353 -686h-141q-81 159 -356 686q55 108 178 345t178 345h143zM782 647l-243 494l-242 -492q190 -375 244 -489q41 81 120.5 243.5t120.5 243.5z" />
<glyph unicode="&#x25cf;" horiz-adv-x="1726" d="M1524 731q0 -128 -52 -247.5t-139 -207.5t-207 -141t-249 -53q-130 0 -250.5 52t-208 139.5t-139.5 207.5t-52 250q0 105 34 204.5t95.5 178.5t142 139t178.5 92.5t200 32.5q169 0 318.5 -87.5t239 -237.5t89.5 -322z" />
<glyph unicode="&#x25fc;" horiz-adv-x="1013" d="M0 1014h1014v-1014h-1014v1014z" />
<glyph unicode="&#x2602;" horiz-adv-x="1597" d="M829 1423q111 0 230 -57.5t214.5 -149.5t157 -218t62.5 -253q-33 37 -81.5 58.5t-102.5 21.5q-102 0 -176 -80h-5q-49 80 -153 80q-57 0 -127 -28v-623q0 -86 -54 -138t-149 -52q-89 0 -144 50.5t-55 149.5v27h97v-27q0 -55 26.5 -82.5t71.5 -27.5q104 0 104 114v607 q-52 24 -106 24q-91 0 -174 -76q-68 80 -178 80q-112 0 -183 -80l-2 2q0 126 62.5 252.5t158.5 219t216 150.5t231 58v64h59v-66zM1493 745l2 -2z" />
<glyph unicode="&#x2605;" horiz-adv-x="1667" d="M1593 874l-354 -354l80 -528l-490 239l-438 -239l66 514l-371 368l510 99l233 463l252 -457z" />
<glyph unicode="&#x2606;" horiz-adv-x="1716" d="M1606 887l-361 -361l80 -530l-491 240l-447 -244l68 522l-375 373l520 100l231 461l254 -457zM1184 547l305 303l-436 88l-219 395l-201 -401l-434 -82l313 -313l-55 -443l377 203l421 -203z" />
<glyph unicode="&#x2610;" horiz-adv-x="1722" d="M293 1296v-1175h1163v1175h-1163zM1577 0h-1407v1419h1407v-1419z" />
<glyph unicode="&#x2611;" horiz-adv-x="1740" d="M1415 1212l23 -20q-100 -74 -238 -260.5t-243 -364t-177 -321.5q-107 -20 -151 -43q-40 153 -110 329.5t-122 212.5q32 27 74.5 39.5t75.5 12.5q24 0 61 -57.5t70 -149t45 -176.5q83 139 194 288t248 293t250 217zM293 1296v-1175h1163v1175h-1163zM1577 0h-1407v1419 h1407v-1419z" />
<glyph unicode="&#x2612;" horiz-adv-x="1740" d="M866 809l387 393l97 -96l-387 -387l393 -393l-101 -97l-391 394l-391 -398l-94 101l389 389l-389 389l96 98zM293 1296v-1175h1163v1175h-1163zM1577 0h-1407v1419h1407v-1419z" />
<glyph unicode="&#x2794;" horiz-adv-x="1507" d="M868 121l-301 -4l484 483h-1008v219h1006l-484 481h305l590 -589z" />
<glyph unicode="&#xe000;" horiz-adv-x="989" d="M895 389q0 -124 -56.5 -217t-145.5 -138.5t-195 -45.5t-195 45.5t-146 138.5t-57 217v647q0 123 57 216.5t146.5 139.5t194.5 46t194.5 -46t146 -139.5t56.5 -216.5v-647zM727 401v623q0 114 -62.5 181t-166.5 67q-105 0 -167.5 -66.5t-62.5 -181.5v-623 q0 -115 62.5 -181t167.5 -66q104 0 166.5 66.5t62.5 180.5z" />
<glyph unicode="&#xe001;" horiz-adv-x="854" d="M551 1425v-1425h-168v1249l-186 -135l2 178l182 133h170z" />
<glyph unicode="&#xe002;" horiz-adv-x="978" d="M883 0h-799v168l553 698q80 103 80 203q0 87 -56 146t-161 59q-90 0 -154 -61t-78 -160l-172 24q24 163 138.5 260t269.5 97q173 0 283 -94.5t110 -266.5q0 -66 -27.5 -141.5t-76.5 -136.5l-498 -629h588v-166z" />
<glyph unicode="&#xe003;" horiz-adv-x="991" d="M901 430q0 -196 -119.5 -319t-310.5 -123q-67 0 -127.5 16t-115 50.5t-93 96.5t-53.5 146l166 25q20 -88 81 -133.5t146 -45.5q115 0 184.5 80t69.5 201q0 117 -68 184.5t-176 67.5h-102v147h84q107 0 176.5 64t69.5 164q0 99 -66 163t-164 64q-74 0 -136.5 -49 t-84.5 -135l-168 22q28 141 137 231.5t252 90.5q101 0 179.5 -31t125.5 -85t71 -121.5t24 -145.5q0 -191 -176 -303q101 -58 147.5 -143.5t46.5 -178.5z" />
<glyph unicode="&#xe004;" horiz-adv-x="1013" d="M958 217h-118v-217h-166v217h-619v164l490 1044h186l-495 -1050h438v420h166v-420h118v-158z" />
<glyph unicode="&#xe005;" horiz-adv-x="968" d="M879 541v-90q0 -132 -46 -234.5t-142.5 -164.5t-231.5 -62q-339 0 -400 307l168 29q18 -95 79 -141t153 -46q252 0 252 353q0 66 -9.5 116.5t-33.5 97t-73 72t-120 25.5q-124 0 -203 -127h-166v749h744v-159h-586v-398q64 57 123 76t133 19q170 0 264.5 -115.5 t94.5 -306.5z" />
<glyph unicode="&#xe006;" horiz-adv-x="978" d="M899 430q0 -89 -23.5 -163.5t-63 -125t-93 -86t-113 -51.5t-123.5 -16q-182 0 -289.5 110t-107.5 316q0 152 76 303l368 708h187l-318 -620l7 -2q56 24 131 24q159 0 260.5 -116t101.5 -281zM721 418q0 123 -66.5 193.5t-167.5 70.5q-94 0 -163.5 -71.5t-69.5 -192.5 q0 -126 63 -200.5t170 -74.5q104 0 169 75.5t65 199.5z" />
<glyph unicode="&#xe007;" horiz-adv-x="894" d="M854 1251l-494 -1251h-188l498 1260h-445v-213h-168v378h797v-174z" />
<glyph unicode="&#xe008;" horiz-adv-x="991" d="M924 408q0 -183 -125 -301.5t-303 -118.5t-303 118.5t-125 301.5q0 102 54 194t146 133q-88 42 -131 122.5t-43 176.5q0 169 116 286.5t286 117.5q183 0 292 -115t109 -289q0 -93 -45 -172t-123 -127q95 -38 145 -129.5t50 -197.5zM729 1038q0 110 -69.5 175t-163.5 65 q-95 0 -164.5 -65t-69.5 -175q0 -108 69 -169.5t165 -61.5q95 0 164 61t69 170zM756 410q0 108 -77.5 181t-182.5 73t-184 -73t-79 -181q0 -109 79.5 -186t183.5 -77t182 77t78 186z" />
<glyph unicode="&#xe009;" horiz-adv-x="968" d="M80 987q0 115 34.5 204t94 141t132.5 78t157 26q75 0 145 -27.5t127 -79.5t91 -134.5t34 -184.5q0 -133 -53 -236l-400 -776h-186l332 639l-6 2q-24 -14 -64 -23.5t-74 -9.5q-163 0 -263.5 106.5t-100.5 274.5zM248 1006q0 -123 68 -194t169 -71t167.5 71t66.5 194 q0 126 -63.5 200t-170.5 74q-104 0 -170.5 -75.5t-66.5 -198.5z" />
<glyph unicode="&#xe00a;" horiz-adv-x="991" d="M31 442v117h205l43 311h-189v117h205l59 434h125l-59 -434h231l60 434h125l-60 -434h203v-117h-219l-43 -311h203v-117h-220l-59 -442h-125l59 442h-231l-59 -442h-125l59 442h-188zM403 870l-43 -311h232l43 311h-232z" />
<glyph unicode="&#xe00b;" horiz-adv-x="956" d="M434 -238v228q-111 6 -216.5 48t-186.5 116q17 20 50.5 67t49.5 68q131 -121 303 -139v483q-80 22 -141.5 51.5t-116 73.5t-84 109t-29.5 147q0 166 101.5 276.5t269.5 122.5v168h103v-170q88 -8 173 -37.5t148 -75.5q-13 -22 -40.5 -71t-41.5 -70q-114 77 -239 94v-467 q73 -20 126 -40.5t102.5 -53t79.5 -73t48 -99t18 -133.5q0 -169 -102.5 -274.5t-271.5 -120.5v-228h-103zM733 383q0 92 -53 142.5t-143 80.5v-454q93 13 144.5 74t51.5 157zM242 1010q0 -132 192 -197v442q-86 -11 -139 -74.5t-53 -170.5z" />
<glyph unicode="&#xe00c;" horiz-adv-x="1001" d="M707 768h-431v-115h431v-110h-431v-54q0 -155 76.5 -249.5t206.5 -94.5q100 0 164.5 47t122.5 148l151 -88q-156 -264 -440 -264q-217 0 -338 141t-121 373v41h-90v110h90v115h-90v111h90v47q0 141 53.5 256t159.5 184.5t246 69.5q157 0 268 -71.5t162 -207.5l-166 -67 q-35 88 -104 136t-158 48q-94 0 -160 -52t-94.5 -130.5t-28.5 -173.5v-39h431v-111z" />
<glyph unicode="&#xe00e;" horiz-adv-x="974" d="M90 602v139h141q-9 35 -33 101t-37.5 120t-13.5 105q0 96 44 178.5t132 135.5t203 53q148 0 236.5 -39t175.5 -156l-147 -104q-93 141 -269 141q-68 0 -126 -53.5t-58 -155.5q0 -67 38 -181t44 -145h325v-139h-311q-7 -271 -125 -446h627v-156h-846v131q170 223 178 471 h-178z" />
<glyph unicode="&#xe00f;" d="M594 -240h-92v234q-80 10 -148 45t-122.5 95t-85.5 155.5t-31 216.5t31 216.5t85.5 156t122 95.5t148.5 46v211h92v-205q177 -8 313 -141l-108 -123q-40 45 -94 72t-111 30v-717q113 6 205 105l110 -121q-135 -135 -315 -143v-228zM283 506q0 -150 56.5 -238t162.5 -112 v700q-219 -49 -219 -350z" />
<glyph unicode="&#xe010;" horiz-adv-x="978" d="M489 748h11l282 677h181l-310 -684h244v-110h-297l-22 -53v-144h319v-110h-319v-324h-164v324h-318v110h318v144l-21 53h-297v110h242l-320 684h179z" />
<glyph unicode="&#xe024;" d="M909 389q0 -124 -56.5 -217.5t-145.5 -139.5t-195 -46t-195 46t-145.5 139.5t-56.5 217.5v240q0 93 33 170t88 126t126.5 76t149.5 27t149.5 -27t126.5 -76t88 -126t33 -170v-240zM741 401v215q0 114 -62.5 180t-166.5 66q-105 0 -167 -65.5t-62 -180.5v-215 q0 -115 62 -182t167 -67q104 0 166.5 67t62.5 182z" />
<glyph unicode="&#xe025;" d="M158 0v154h266v686l-186 -135l2 178l182 133h170v-862h272v-154h-706z" />
<glyph unicode="&#xe026;" d="M295 700l-166 48q42 133 153 206.5t253 73.5q73 0 135.5 -15.5t115 -48t83 -91t30.5 -136.5q0 -162 -197 -315l-340 -264h558v-158h-799v156l479 387q48 38 83.5 89t35.5 97q0 64 -51 101.5t-136 37.5q-83 0 -148.5 -45t-88.5 -123z" />
<glyph unicode="&#xe027;" d="M891 80q0 -185 -115.5 -300.5t-302.5 -115.5q-65 0 -123 15t-111.5 47.5t-91 91.5t-51.5 139l162 25q19 -82 78 -122t141 -40q111 0 177.5 72t66.5 184q0 108 -65 170.5t-169 62.5h-102v142h84q103 0 170.5 59.5t67.5 151.5q0 90 -64 146t-158 56q-72 0 -131.5 -42.5 t-81.5 -121.5l-163 21q25 135 130.5 221t245.5 86q99 0 175 -29t121 -80t68 -115t23 -138q0 -56 -13 -106t-51.5 -100t-100.5 -77q67 -26 110.5 -80t58.5 -109t15 -114z" />
<glyph unicode="&#xe028;" d="M930 0h-113v-322h-166v322h-577v154l465 862h184l-473 -864h401v393h166v-393h113v-152z" />
<glyph unicode="&#xe029;" d="M909 184v-84q0 -125 -44 -221.5t-137.5 -154.5t-225.5 -58q-332 0 -387 291l164 29q15 -79 76 -124.5t147 -45.5q73 0 122 25t74 72.5t35 101t10 124.5q0 57 -12 105.5t-37.5 89t-70.5 63.5t-105 23q-125 0 -194 -111h-166v707h723v-154h-566v-364q59 51 116 67.5 t130 16.5q165 0 256.5 -108.5t91.5 -289.5z" />
<glyph unicode="&#xe02a;" d="M907 403q0 -104 -34 -186t-91.5 -130.5t-128 -73.5t-149.5 -25q-178 0 -282.5 103.5t-104.5 297.5q0 143 71 285l361 665h184l-307 -581q1 0 1 -1t1 -1q60 24 127 24q156 0 254 -109.5t98 -267.5zM731 393q0 115 -63.5 180.5t-159.5 65.5q-91 0 -158 -66.5t-67 -179.5 q0 -116 61 -185t164 -69q99 0 161 70t62 184z" />
<glyph unicode="&#xe02b;" d="M899 850l-477 -1174h-186l481 1180h-426v-201h-166v361h774v-166z" />
<glyph unicode="&#xe02c;" d="M926 381q0 -172 -120.5 -283.5t-293.5 -111.5q-175 0 -295.5 111.5t-120.5 283.5q0 96 51 181.5t140 125.5q-85 42 -125.5 117t-40.5 166q0 159 112.5 269t278.5 110q178 0 283.5 -108t105.5 -271q0 -88 -42.5 -162t-115.5 -121q89 -36 136 -122t47 -185zM762 383 q0 100 -75.5 169t-174.5 69q-101 0 -177.5 -69t-76.5 -169t77 -171t177 -71q99 0 174.5 71t75.5 171zM735 975q0 100 -66.5 160.5t-156.5 60.5q-91 0 -158 -60.5t-67 -160.5q0 -101 66.5 -159t158.5 -58q91 0 157 57.5t66 159.5z" />
<glyph unicode="&#xe02d;" d="M115 604q0 110 33 193.5t90.5 132.5t128.5 73.5t153 24.5q73 0 141 -26t123.5 -75t89 -127.5t33.5 -174.5q0 -122 -51 -219l-389 -730h-184l323 598l-2 2q-44 -30 -135 -30q-160 0 -257 100t-97 258zM281 621q0 -114 65.5 -179t163.5 -65q96 0 159.5 65t63.5 179 q0 118 -60.5 187t-162.5 69q-100 0 -164.5 -70.5t-64.5 -185.5z" />
<glyph unicode="&#xe02e;" d="M86 377v98h184l37 264h-168v101h185l53 368h112l-53 -368h207l53 368h113l-53 -368h182v-101h-197l-39 -264h183v-98h-197l-53 -377h-113l53 377h-208l-54 -377h-112l53 377h-168zM420 739l-39 -264h209l39 264h-209z" />
<glyph unicode="&#xe02f;" d="M477 -203v195q-100 5 -196 41t-166 100l92 119q125 -107 270 -121v406q-332 93 -332 325q0 138 92 231.5t240 108.5v141h96v-143q169 -17 291 -98l-78 -123q-97 66 -213 82v-391q63 -17 111 -36t92 -47t72 -63t44.5 -84t16.5 -110q0 -137 -95 -228t-241 -110v-195h-96z M745 328q0 75 -47 117.5t-125 68.5v-381q80 14 126 65t46 130zM307 858q0 -104 170 -166v373q-74 -11 -122 -65.5t-48 -141.5z" />
<glyph unicode="&#xe030;" d="M717 651h-387v-94h387v-98h-387v-43q0 -129 68 -209t184 -80q89 0 146 40t110 126l139 -76q-69 -111 -164.5 -169t-232.5 -58q-197 0 -305.5 119t-108.5 317v33h-80v98h80v94h-80v99h80v36q0 186 111.5 310.5t302.5 124.5q141 0 240.5 -61.5t146.5 -178.5l-150 -57 q-32 75 -93.5 115t-141.5 40q-84 0 -142.5 -44t-84 -109.5t-25.5 -145.5v-30h387v-99z" />
<glyph unicode="&#xe032;" d="M131 510v123h125q0 1 -31 84q-45 119 -45 190q0 126 102 218t259 92q116 0 187.5 -38t148.5 -122l-111 -94q-90 118 -246 118q-62 0 -113 -44t-51 -130q0 -57 41 -170q25 -68 33 -104h293v-123h-281q-7 -226 -108 -373h557v-137h-760v115q147 191 158 395h-158z" />
<glyph unicode="&#xe033;" d="M586 -121h-86v197q-71 11 -131.5 42t-110 82.5t-78 131.5t-28.5 180q0 102 28.5 182.5t78 132t110 82t131.5 41.5v180h86v-174q162 -8 282 -122l-100 -109q-34 37 -84 61t-98 29v-604q50 4 100 30t82 62l102 -108q-118 -114 -284 -123v-193zM305 512q0 -123 51 -197.5 t144 -95.5v588q-94 -21 -144.5 -95t-50.5 -200z" />
<glyph unicode="&#xe034;" d="M514 637h6l254 575h164l-276 -579h217v-98h-265l-20 -43v-121h285v-97h-285v-274h-152v274h-286v97h286v121l-20 43h-266v98h217l-287 579h164z" />
<glyph unicode="&#xe059;" horiz-adv-x="1452" d="M1346 205q0 -97 -70.5 -154t-171.5 -57q-100 0 -170 57t-70 154v317q0 96 70 153.5t170 57.5q101 0 171.5 -57.5t70.5 -153.5v-317zM586 690q0 -99 -70 -156t-170 -57q-102 0 -172 57t-70 156v318q0 95 70.5 152t171.5 57q100 0 170 -57t70 -152v-318zM1178 1241 l-785 -1270h-117l783 1270h119zM1223 213v303q0 49 -33 78t-86 29q-52 0 -83.5 -29t-31.5 -78v-303q0 -52 31.5 -81.5t83.5 -29.5q53 0 86 29.5t33 81.5zM463 696v305q0 49 -32.5 77t-84.5 28q-53 0 -85 -28t-32 -77v-305q0 -52 31.5 -80t85.5 -28q52 0 84.5 28.5t32.5 79.5 z" />
<glyph unicode="&#xe06c;" horiz-adv-x="694" d="M342 1249q289 0 289 -219v-459h-135v86q-73 -94 -193 -94q-119 0 -182.5 56t-63.5 149q0 85 60 143t170 58h209v63q0 96 -150 96q-108 0 -164 -59l-86 84q40 46 106 71t140 25zM186 774q0 -44 35.5 -68t104.5 -24q170 0 170 111v65h-181q-61 0 -95 -22t-34 -62z" />
<glyph unicode="&#xe06d;" horiz-adv-x="700" d="M649 918q0 -56 -5.5 -102.5t-22.5 -95t-44 -82t-74 -54.5t-110 -21q-116 0 -182 94v-86h-133v973h133v-370q70 75 182 75q59 0 104.5 -19t73 -50.5t45.5 -75.5t25 -89t8 -97zM510 907q0 34 -2.5 61t-12 57t-25 49.5t-44 32.5t-66.5 13q-149 0 -149 -213q0 -225 149 -225 q39 0 67.5 14.5t44 36t24.5 53.5t11.5 59.5t2.5 61.5z" />
<glyph unicode="&#xe06f;" horiz-adv-x="700" d="M633 571h-135v86q-77 -94 -183 -94q-59 0 -105 19.5t-74 51.5t-46 77t-24.5 91t-6.5 99q0 55 7 102.5t26.5 94t50 79t80.5 52.5t115 20q95 0 160 -57v352h135v-973zM498 907q0 213 -150 213q-48 0 -79.5 -18t-46 -52t-19 -66t-4.5 -77q0 -34 2.5 -60.5t11.5 -57.5 t24 -51.5t43.5 -34t67.5 -13.5q150 0 150 217z" />
<glyph unicode="&#xe070;" horiz-adv-x="679" d="M633 860h-445q0 -76 44.5 -126t125.5 -50q33 0 77 18t81 48l86 -93q-103 -94 -250 -94q-47 0 -87.5 9t-81.5 32.5t-69.5 60.5t-46.5 98.5t-18 141.5q0 94 27 164t72.5 107.5t95 55t104.5 17.5q122 0 203.5 -79.5t81.5 -215.5v-94zM342 1128q-62 0 -103.5 -42t-50.5 -115 h306q-7 76 -47.5 116.5t-104.5 40.5z" />
<glyph unicode="&#xe071;" horiz-adv-x="679" d="M633 860h-445q0 -76 44.5 -126t125.5 -50q33 0 77 18t81 48l86 -93q-103 -94 -250 -94q-47 0 -87.5 9t-81.5 32.5t-69.5 60.5t-46.5 98.5t-18 141.5q0 94 27 164t72.5 107.5t95 55t104.5 17.5q122 0 203.5 -79.5t81.5 -215.5v-94zM342 1128q-62 0 -103.5 -42t-50.5 -115 h306q-7 76 -47.5 116.5t-104.5 40.5zM426 1362l-90 -31l-156 268l133 39z" />
<glyph unicode="&#xe073;" horiz-adv-x="714" d="M641 571h-135v400q0 74 -31.5 112.5t-103.5 38.5q-67 0 -115.5 -41.5t-48.5 -109.5v-400h-133v973h133v-375q80 80 188 80t177 -60.5t69 -174.5v-443z" />
<glyph unicode="&#xe074;" horiz-adv-x="317" d="M227 571h-137v670h137v-670zM227 1376h-137v127h137v-127z" />
<glyph unicode="&#xe077;" horiz-adv-x="344" d="M326 571h-58q-180 0 -180 162v811h133v-803q0 -51 62 -51h43v-119z" />
<glyph unicode="&#xe078;" horiz-adv-x="1155" d="M1077 571h-135v400q0 71 -38 110t-111 39q-64 0 -105 -40t-41 -109v-400h-139v400q0 72 -37 110.5t-111 38.5q-66 0 -106.5 -40t-40.5 -109v-400h-137v670h137v-70q73 78 184 78q121 0 207 -86q77 86 225 86q94 0 171 -63.5t77 -169.5v-445z" />
<glyph unicode="&#xe079;" horiz-adv-x="727" d="M371 1247q163 0 237 -112q49 -69 49 -205q0 -167 -47 -244q-76 -123 -254 -123q-162 0 -235 103q-55 80 -55 239q0 123 36 189q35 73 105.5 113t163.5 40zM367 1130q-47 0 -84.5 -23t-57.5 -63q-24 -52 -24 -141q0 -96 20 -137q40 -84 137 -84q113 0 152 109 q12 37 12 135q0 76 -18 116q-37 88 -137 88z" />
<glyph unicode="&#xe07c;" horiz-adv-x="516" d="M530 1217l-55 -123q-54 28 -104 28q-66 0 -107 -38t-41 -109v-404h-133v670h131v-92q72 100 185 100q74 -3 124 -32z" />
<glyph unicode="&#xe07d;" horiz-adv-x="665" d="M618 768q0 -92 -83.5 -148.5t-212.5 -56.5q-165 0 -299 107l81 100q107 -92 230 -92q62 0 104.5 23.5t42.5 70.5q0 74 -141 86q-40 4 -66.5 7.5t-64 11.5t-61.5 21t-47 32t-34.5 48t-11.5 66q0 99 73 152t194 53q147 0 266 -78l-64 -98q-101 60 -198 60q-65 0 -99 -25 t-34 -64q0 -18 10 -30.5t39.5 -20t40.5 -9.5t53 -7q9 -1 14 -2q43 -5 77 -12t71.5 -22t62.5 -36.5t41.5 -56.5t15.5 -80z" />
<glyph unicode="&#xe07e;" horiz-adv-x="421" d="M387 571h-94q-75 0 -121.5 43.5t-46.5 118.5v395h-84v113h84v162h133v-162h107v-113h-107v-368q0 -72 57 -72h72v-117z" />
<glyph unicode="&#xe0d8;" horiz-adv-x="593" d="M487 -184q-168 181 -275.5 406t-107.5 464q0 127 30 252t84 234.5t119 203.5t144 180l94 -57q-131 -171 -208.5 -385.5t-77.5 -417.5q0 -215 77.5 -429t206.5 -386z" />
<glyph unicode="&#xe0d9;" horiz-adv-x="593" d="M127 -184l-86 65q130 171 207.5 385.5t77.5 429.5q0 203 -77 417.5t-208 385.5l92 57q168 -182 273.5 -403.5t105.5 -466.5q0 -124 -31 -248.5t-86.5 -235t-122 -205.5t-145.5 -181z" />
<glyph unicode="&#xe0da;" horiz-adv-x="802" d="M696 532h-590v154h590v-154z" />
<glyph unicode="&#xe0db;" horiz-adv-x="534" d="M496 -154h-346v1645h346v-115h-193v-1415h193v-115z" />
<glyph unicode="&#xe0dc;" horiz-adv-x="534" d="M399 -154h-344v115h191v1415h-191v115h344v-1645z" />
<glyph unicode="&#xe0dd;" horiz-adv-x="534" d="M518 -150h-139q-81 0 -135 61t-54 159v284q0 112 -40 182.5t-119 79.5v105q78 10 118.5 85.5t40.5 180.5v279q0 99 54 160t135 61h139v-111h-84q-35 0 -57 -28.5t-29.5 -66t-7.5 -83.5v-256q0 -62 -17.5 -113.5t-44 -82t-50 -48.5t-42.5 -24v-6q19 -6 42.5 -24t50 -49 t44 -81.5t17.5 -110.5v-266q0 -46 7.5 -83.5t29.5 -66t57 -28.5h84v-109z" />
<glyph unicode="&#xe0de;" horiz-adv-x="534" d="M510 616q-79 -9 -118.5 -79.5t-39.5 -182.5v-284q0 -98 -53.5 -159t-134.5 -61h-141v109h86q49 0 71.5 52.5t22.5 125.5v266q0 60 17 110.5t43 81.5t49.5 49t43.5 24v6q-20 6 -43.5 24t-49.5 48.5t-43 82t-17 113.5v256q0 33 -0.5 51t-5.5 46t-14 43t-28 26.5t-46 11.5 h-86v103h135q95 0 144.5 -58.5t49.5 -154.5v-279q0 -106 40 -181t118 -85v-105z" />
<glyph unicode="&#xe0df;" horiz-adv-x="1042" d="M1004 530h-963v158h963v-158z" />
<glyph unicode="&#xe0e0;" horiz-adv-x="1679" d="M1638 532h-1597v158h1597v-158z" />
<glyph unicode="&#xe0e1;" horiz-adv-x="493" d="M172 -360l10 1062h144l8 -1062h-162zM158 1065h184v-201h-184v201z" />
<glyph unicode="&#xe0e2;" horiz-adv-x="919" d="M41 8q2 59 16.5 108t44.5 94t52.5 71.5t66.5 72.5q35 36 53 56.5t41 52t33 62t10 63.5v102h179v-106q0 -138 -105 -246q-7 -7 -36.5 -37t-41 -43.5t-36.5 -42t-37 -47.5t-27 -45t-21 -50t-6 -48q0 -27 6 -54.5t22 -59t41 -55t68 -39.5t97 -16q59 0 108.5 28t79.5 70.5 t47 83t21 74.5l174 -30q-31 -131 -99 -221t-157 -131.5t-195 -41.5q-179 0 -289 106.5t-110 268.5zM358 1067h185v-201h-185v201z" />
<glyph unicode="&#xe0e3;" horiz-adv-x="940" d="M862 156h-160l-260 381l260 381h160l-252 -381zM510 156h-160l-260 381l260 381h160l-254 -381z" />
<glyph unicode="&#xe0e4;" horiz-adv-x="940" d="M252 156h-160l252 381l-252 381h160l260 -381zM604 156h-160l254 381l-254 381h160l260 -381z" />
<glyph unicode="&#xe0fb;" horiz-adv-x="1038" d="M819 0l-90 104q-135 -112 -287 -112q-161 0 -246 78t-85 196q0 96 53.5 173.5t167.5 148.5q-119 128 -119 231q0 113 78.5 185.5t228.5 72.5q66 0 142.5 -26.5t140.5 -77.5l-105 -113q-58 41 -102.5 54.5t-95.5 13.5q-64 0 -94.5 -29.5t-30.5 -75.5q0 -41 55 -110 l305 -371q45 82 64 166l157 -23q-38 -167 -118 -272l186 -213h-205zM449 141q46 0 96.5 23t87.5 55l-211 258q-146 -82 -146 -205q0 -58 45 -94.5t128 -36.5z" />
<glyph unicode="&#xe0fc;" horiz-adv-x="393" d="M276 1065l-16 -803h-127l-16 803h159zM289 0h-178v182h178v-182z" />
<glyph unicode="&#xe0fd;" horiz-adv-x="811" d="M750 782q0 -61 -24.5 -114t-60 -91t-71 -72t-60 -70.5t-24.5 -72.5v-90h-174v95q0 108 110 215q38 36 60 60.5t42.5 60.5t20.5 67q0 24 -5.5 45.5t-21 45.5t-50 38t-84.5 14q-147 0 -179 -184l-170 31q20 151 120.5 231t244.5 80q146 0 236 -82t90 -207zM510 0h-178v182 h178v-182z" />
<glyph unicode="&#xe0fe;" horiz-adv-x="993" d="M989 0h-186l-88 236h-439l-90 -236h-182l420 1065h143zM664 385l-99 264l-73 178l-62 -172l-102 -270h336z" />
<glyph unicode="&#xe0ff;" horiz-adv-x="976" d="M922 303q0 -135 -94 -219t-228 -84h-483v1065h438q165 0 253.5 -79t88.5 -210q0 -148 -137 -223q79 -31 120.5 -101t41.5 -149zM559 469h-266v-313h266q92 0 140.5 45.5t48.5 111.5t-48.5 111t-140.5 45zM537 915h-244v-297h244q89 0 136.5 41.5t47.5 106.5t-47.5 107 t-136.5 42z" />
<glyph unicode="&#xe100;" horiz-adv-x="886" d="M723 311l154 -73q-47 -117 -149 -181.5t-241 -64.5q-100 0 -179 32t-128.5 87t-75.5 126t-26 152v287q0 108 44 196t138.5 144.5t226.5 56.5q275 0 381 -229l-149 -94q-33 70 -93.5 115.5t-136.5 45.5q-113 0 -175 -71t-62 -170v-269q0 -102 62 -175.5t175 -73.5 q77 0 140 43t94 116z" />
<glyph unicode="&#xe101;" horiz-adv-x="1009" d="M117 1065h379q304 0 405 -223q22 -50 28.5 -118.5t6.5 -182.5q0 -233 -37 -318q-27 -64 -70 -108.5t-100 -69t-119 -35t-139 -10.5h-354v1065zM760 430v197q0 282 -271 282h-196v-753h196q271 0 271 274z" />
<glyph unicode="&#xe102;" horiz-adv-x="886" d="M850 0h-733v1065h733v-156h-557v-297h475v-149h-475v-307h557v-156z" />
<glyph unicode="&#xe103;" horiz-adv-x="856" d="M850 909h-557v-305h475v-149h-475v-455h-176v1065h733v-156z" />
<glyph unicode="&#xe104;" horiz-adv-x="976" d="M487 141q100 0 169 69t69 159v65h-236v154h412v-219q0 -165 -116.5 -272t-297.5 -107q-102 0 -182 32t-129.5 88t-74.5 126.5t-25 152.5v287q0 108 44.5 196t139.5 144.5t227 56.5q136 0 236 -66t151 -180l-163 -67q-27 68 -86 109.5t-138 41.5q-113 0 -175 -71t-62 -170 v-279q0 -102 62 -176t175 -74z" />
<glyph unicode="&#xe105;" horiz-adv-x="1038" d="M922 0h-174v463h-455v-463h-176v1065h176v-453h455v453h174v-1065z" />
<glyph unicode="&#xe106;" horiz-adv-x="393" d="M285 0h-176v1065h176v-1065z" />
<glyph unicode="&#xe107;" horiz-adv-x="761" d="M662 1065v-733q0 -340 -369 -340q-170 0 -287 127l129 108q79 -75 154 -75q43 0 75.5 8t62 28t45 60.5t15.5 99.5v717h175z" />
<glyph unicode="&#xe108;" horiz-adv-x="1026" d="M1022 0h-203l-332 512l-194 -219v-293h-174v1065h180v-530l174 198l295 332h213l-381 -426z" />
<glyph unicode="&#xe109;" horiz-adv-x="886" d="M850 0h-733v1065h176v-909h557v-156z" />
<glyph unicode="&#xe10a;" horiz-adv-x="1222" d="M948 678l-10 -2l-70 -158l-178 -366h-141l-189 389l-61 139l-6 -2v-678h-172v1065h166l239 -498l101 -207l94 205l235 500h164v-1065h-172v678z" />
<glyph unicode="&#xe10b;" horiz-adv-x="1099" d="M985 0h-162l-409 594l-121 176v-770h-174v1065h164l395 -573l135 -199v772h172v-1065z" />
<glyph unicode="&#xe10c;" horiz-adv-x="972" d="M485 1073q189 0 301.5 -111.5t112.5 -285.5v-287q0 -181 -113 -289t-301 -108q-196 0 -303.5 114t-107.5 283v287q0 108 44.5 196t139.5 144.5t227 56.5zM487 913q-113 0 -176 -71.5t-63 -169.5v-275q0 -102 63 -176t176 -74q107 0 171.5 71t64.5 179v275 q0 102 -65 171.5t-171 69.5z" />
<glyph unicode="&#xe10d;" horiz-adv-x="937" d="M924 735q0 -58 -24 -114.5t-67 -103t-112 -75t-152 -28.5h-276v-414h-176v1065h432q75 0 140.5 -19.5t119 -58t84.5 -103.5t31 -149zM743 739q0 83 -51.5 126.5t-138.5 43.5h-260v-340h266q90 0 137 50.5t47 119.5z" />
<glyph unicode="&#xe10e;" horiz-adv-x="997" d="M487 1073q189 0 301.5 -111.5t112.5 -285.5v-287q0 -114 -41 -192l148 -111l-99 -115l-143 107q-110 -86 -279 -86q-100 0 -179 32t-128.5 87t-75.5 126t-26 152v287q0 108 44 196t138.5 144.5t226.5 56.5zM489 911q-113 0 -175 -71t-62 -170v-269q0 -102 62 -175.5 t175 -73.5q73 0 132 34q-26 18 -79.5 58t-70.5 53l104 113l138 -103q14 47 14 94v269q0 101 -65.5 171t-172.5 70z" />
<glyph unicode="&#xe10f;" horiz-adv-x="976" d="M915 0h-188l-195 451h-239v-451h-174v1065h497q133 0 220.5 -84.5t87.5 -216.5q0 -101 -59.5 -179t-159.5 -114zM750 764q0 75 -50 113t-129 38h-278v-315h272q84 0 134.5 44t50.5 120z" />
<glyph unicode="&#xe110;" horiz-adv-x="915" d="M862 299q0 -143 -114 -225t-302 -82q-251 0 -432 133l95 137q69 -51 159.5 -79.5t180.5 -28.5q239 0 239 145q0 74 -52 110t-167 48q-204 23 -296.5 94.5t-92.5 208.5q0 139 102.5 226t280.5 87q222 0 375 -104l-86 -144q-138 86 -297 86q-84 0 -142.5 -40t-58.5 -113 q0 -71 59.5 -104.5t198.5 -51.5q182 -24 269 -97t81 -206z" />
<glyph unicode="&#xe111;" horiz-adv-x="808" d="M807 915h-315v-915h-175v915h-315v150h805v-150z" />
<glyph unicode="&#xe112;" horiz-adv-x="1009" d="M743 1065h175v-676q0 -181 -112 -289t-300 -108q-100 0 -180 32t-130 87t-76 126t-26 152v676h172v-664q0 -101 63.5 -175t176.5 -74q110 0 173.5 65t63.5 184v664z" />
<glyph unicode="&#xe113;" horiz-adv-x="909" d="M446 268h11l73 240l181 557h188l-379 -1065h-137l-379 1065h184l183 -561z" />
<glyph unicode="&#xe114;" horiz-adv-x="1343" d="M672 764h-8l-80 -289l-133 -475h-150l-287 1065h189l114 -481l64 -279h4l80 293l133 467h141l138 -483l79 -289h7l65 293l107 479h188l-291 -1065h-147l-131 467z" />
<glyph unicode="&#xe115;" horiz-adv-x="917" d="M920 0h-207l-254 424l-254 -424h-207l354 545l-329 520h204l232 -395l231 395h205l-330 -520z" />
<glyph unicode="&#xe116;" horiz-adv-x="862" d="M858 1065l-344 -643v-422h-176v422l-336 643h184l160 -305l84 -166l90 174l156 297h182z" />
<glyph unicode="&#xe117;" horiz-adv-x="825" d="M780 0h-733v135l522 780h-501v150h712v-127l-526 -782h526v-156z" />
<glyph unicode="&#xe119;" horiz-adv-x="1325" d="M1284 0h-709q-36 -8 -96 -8q-199 0 -306 113.5t-107 283.5v287q0 80 26 150.5t75.5 126t130 88t181.5 32.5q36 0 86 -8h719v-156h-563v-297h479v-149h-479v-307h563v-156zM481 147q33 0 68 9v749q-46 8 -68 8q-115 0 -178 -71.5t-63 -169.5v-275q0 -102 63 -176t178 -74z " />
<glyph unicode="&#xe11b;" horiz-adv-x="862" d="M858 1065l-344 -643v-422h-176v422l-336 643h184l160 -305l84 -166l90 174l156 297h182zM702 1223h-180v180h180v-180zM334 1223h-180v180h180v-180z" />
<glyph unicode="&#xe11c;" horiz-adv-x="993" d="M989 0h-186l-88 236h-439l-90 -236h-182l420 1065h143zM664 385l-99 264l-73 178l-62 -172l-102 -270h336zM563 1169l-108 -41l-205 353l166 51z" />
<glyph unicode="&#xe11d;" horiz-adv-x="993" d="M989 0h-186l-88 236h-439l-90 -236h-182l420 1065h143zM664 385l-99 264l-73 178l-62 -172l-102 -270h336zM559 1128l-108 41l147 363l166 -51z" />
<glyph unicode="&#xe11e;" horiz-adv-x="993" d="M989 0h-186l-88 236h-439l-90 -236h-182l420 1065h143zM664 385l-99 264l-73 178l-62 -172l-102 -270h336zM762 1133l-273 217l-274 -220l-80 78l307 314h109l293 -310z" />
<glyph unicode="&#xe11f;" horiz-adv-x="993" d="M989 0h-186l-88 236h-439l-90 -236h-182l420 1065h143zM664 385l-99 264l-73 178l-62 -172l-102 -270h336zM356 1432q52 0 147 -48.5t128 -48.5q65 0 125 92l106 -59q-86 -182 -219 -182q-51 0 -142.5 43t-129.5 43q-35 0 -62.5 -18t-66.5 -64l-107 59q41 86 100 134.5 t121 48.5z" />
<glyph unicode="&#xe120;" horiz-adv-x="993" d="M989 0h-186l-88 236h-439l-90 -236h-182l420 1065h143zM664 385l-99 264l-73 178l-62 -172l-102 -270h336zM766 1223h-180v180h180v-180zM397 1223h-180v180h180v-180z" />
<glyph unicode="&#xe121;" horiz-adv-x="993" d="M989 0h-186l-88 236h-439l-90 -236h-182l420 1065h143zM664 385l-99 264l-73 178l-62 -172l-102 -270h336zM494 1118q-85 0 -144 59t-59 142t59 142t144 59q83 0 141.5 -59t58.5 -142t-58.5 -142t-141.5 -59zM494 1432q-47 0 -80 -33.5t-33 -79.5q0 -47 33 -80t80 -33 t79.5 33t32.5 80q0 46 -32.5 79.5t-79.5 33.5z" />
<glyph unicode="&#xe122;" horiz-adv-x="1597" d="M1522 0h-738v301h-395q-34 -49 -97 -150.5t-97 -150.5h-193l711 1065h809v-156h-564v-297h480v-149h-480v-307h564v-156zM784 909l-297 -460h297v460z" />
<glyph unicode="&#xe123;" horiz-adv-x="886" d="M723 311l154 -73q-46 -113 -140.5 -176.5t-224.5 -69.5l-23 -72q56 -3 98 -20.5t64 -44t32.5 -53.5t10.5 -54q0 -29 -11.5 -57t-35.5 -54.5t-69 -42.5t-105 -16q-97 0 -178 37l35 88q71 -31 143 -31q40 0 68 21t28 53q0 38 -32 60t-86 22h-29l-41 43l39 125 q-111 13 -189.5 70.5t-115.5 140t-37 182.5v287q0 108 44 196t138.5 144.5t226.5 56.5q275 0 381 -229l-149 -94q-33 70 -93.5 115.5t-136.5 45.5q-113 0 -175 -71t-62 -170v-269q0 -102 62 -175.5t175 -73.5q77 0 140 43t94 116z" />
<glyph unicode="&#xe124;" horiz-adv-x="886" d="M850 0h-733v1065h733v-156h-557v-297h475v-149h-475v-307h557v-156zM571 1169l-108 -41l-205 353l166 51z" />
<glyph unicode="&#xe125;" horiz-adv-x="886" d="M850 0h-733v1065h733v-156h-557v-297h475v-149h-475v-307h557v-156zM498 1128l-109 41l148 363l165 -51z" />
<glyph unicode="&#xe126;" horiz-adv-x="886" d="M850 0h-733v1065h733v-156h-557v-297h475v-149h-475v-307h557v-156zM758 1133l-273 217l-274 -220l-80 78l307 314h109l293 -310z" />
<glyph unicode="&#xe127;" horiz-adv-x="886" d="M850 0h-733v1065h733v-156h-557v-297h475v-149h-475v-307h557v-156zM752 1223h-181v180h181v-180zM383 1223h-180v180h180v-180z" />
<glyph unicode="&#xe128;" horiz-adv-x="393" d="M285 0h-176v1065h176v-1065zM287 1169l-109 -41l-205 353l166 51z" />
<glyph unicode="&#xe129;" horiz-adv-x="393" d="M285 0h-176v1065h176v-1065zM240 1128l-109 41l148 363l165 -51z" />
<glyph unicode="&#xe12a;" horiz-adv-x="393" d="M285 0h-176v1065h176v-1065zM475 1133l-272 217l-275 -220l-80 78l308 314h108l293 -310z" />
<glyph unicode="&#xe12b;" horiz-adv-x="393" d="M285 0h-176v1065h176v-1065zM469 1223h-180v180h180v-180zM100 1223h-180v180h180v-180z" />
<glyph unicode="&#xe12c;" horiz-adv-x="1009" d="M117 1065h379q304 0 405 -223q22 -50 28.5 -118.5t6.5 -182.5q0 -233 -37 -318q-27 -64 -70 -108.5t-100 -69t-119 -35t-139 -10.5h-354v479h-107v127h107v459zM760 430v197q0 282 -271 282h-196v-303h211v-127h-211v-323h196q271 0 271 274z" />
<glyph unicode="&#xe12d;" horiz-adv-x="1099" d="M985 0h-162l-409 594l-121 176v-770h-174v1065h164l395 -573l135 -199v772h172v-1065zM416 1432q52 0 146.5 -48.5t127.5 -48.5q65 0 125 92l107 -59q-86 -182 -220 -182q-51 0 -142.5 43t-129.5 43q-35 0 -62.5 -18t-66.5 -64l-106 59q41 86 100 134.5t121 48.5z" />
<glyph unicode="&#xe12e;" horiz-adv-x="972" d="M485 1073q189 0 301.5 -111.5t112.5 -285.5v-287q0 -181 -113 -289t-301 -108q-196 0 -303.5 114t-107.5 283v287q0 108 44.5 196t139.5 144.5t227 56.5zM487 913q-113 0 -176 -71.5t-63 -169.5v-275q0 -102 63 -176t176 -74q107 0 171.5 71t64.5 179v275 q0 102 -65 171.5t-171 69.5zM580 1169l-109 -41l-205 353l166 51z" />
<glyph unicode="&#xe12f;" horiz-adv-x="972" d="M485 1073q189 0 301.5 -111.5t112.5 -285.5v-287q0 -181 -113 -289t-301 -108q-196 0 -303.5 114t-107.5 283v287q0 108 44.5 196t139.5 144.5t227 56.5zM487 913q-113 0 -176 -71.5t-63 -169.5v-275q0 -102 63 -176t176 -74q107 0 171.5 71t64.5 179v275 q0 102 -65 171.5t-171 69.5zM516 1128l-108 41l147 363l166 -51z" />
<glyph unicode="&#xe130;" horiz-adv-x="972" d="M485 1073q189 0 301.5 -111.5t112.5 -285.5v-287q0 -181 -113 -289t-301 -108q-196 0 -303.5 114t-107.5 283v287q0 108 44.5 196t139.5 144.5t227 56.5zM487 913q-113 0 -176 -71.5t-63 -169.5v-275q0 -102 63 -176t176 -74q107 0 171.5 71t64.5 179v275 q0 102 -65 171.5t-171 69.5zM756 1133l-273 217l-274 -220l-80 78l307 314h109l293 -310z" />
<glyph unicode="&#xe131;" horiz-adv-x="972" d="M485 1073q189 0 301.5 -111.5t112.5 -285.5v-287q0 -181 -113 -289t-301 -108q-196 0 -303.5 114t-107.5 283v287q0 108 44.5 196t139.5 144.5t227 56.5zM487 913q-113 0 -176 -71.5t-63 -169.5v-275q0 -102 63 -176t176 -74q107 0 171.5 71t64.5 179v275 q0 102 -65 171.5t-171 69.5zM346 1432q52 0 147 -48.5t128 -48.5q64 0 124 92l107 -59q-86 -182 -219 -182q-51 0 -143 43t-130 43q-35 0 -62.5 -18t-66.5 -64l-106 59q41 86 100 134.5t121 48.5z" />
<glyph unicode="&#xe132;" horiz-adv-x="972" d="M485 1073q189 0 301.5 -111.5t112.5 -285.5v-287q0 -181 -113 -289t-301 -108q-196 0 -303.5 114t-107.5 283v287q0 108 44.5 196t139.5 144.5t227 56.5zM487 913q-113 0 -176 -71.5t-63 -169.5v-275q0 -102 63 -176t176 -74q107 0 171.5 71t64.5 179v275 q0 102 -65 171.5t-171 69.5zM764 1223h-180v180h180v-180zM395 1223h-180v180h180v-180z" />
<glyph unicode="&#xe133;" horiz-adv-x="972" d="M485 1073q152 0 265 -82l71 99l88 -76l-78 -107q68 -100 68 -231v-287q0 -181 -113 -289t-301 -108q-162 0 -268 82l-70 -94l-88 71l78 107q-63 97 -63 231v287q0 108 44.5 196t139.5 144.5t227 56.5zM723 672q0 34 -10 76l-394 -535q63 -66 168 -66q107 0 171.5 71 t64.5 179v275zM487 913q-113 0 -176 -71.5t-63 -169.5v-275q0 -44 10 -75l389 532q-62 59 -160 59z" />
<glyph unicode="&#xe134;" horiz-adv-x="1009" d="M743 1065h175v-676q0 -181 -112 -289t-300 -108q-100 0 -180 32t-130 87t-76 126t-26 152v676h172v-664q0 -101 63.5 -175t176.5 -74q110 0 173.5 65t63.5 184v664zM596 1169l-109 -41l-204 353l166 51z" />
<glyph unicode="&#xe135;" horiz-adv-x="1009" d="M743 1065h175v-676q0 -181 -112 -289t-300 -108q-100 0 -180 32t-130 87t-76 126t-26 152v676h172v-664q0 -101 63.5 -175t176.5 -74q110 0 173.5 65t63.5 184v664zM545 1128l-109 41l148 363l166 -51z" />
<glyph unicode="&#xe136;" horiz-adv-x="1009" d="M743 1065h175v-676q0 -181 -112 -289t-300 -108q-100 0 -180 32t-130 87t-76 126t-26 152v676h172v-664q0 -101 63.5 -175t176.5 -74q110 0 173.5 65t63.5 184v664zM780 1133l-272 217l-275 -220l-79 78l307 314h108l293 -310z" />
<glyph unicode="&#xe137;" horiz-adv-x="1009" d="M743 1065h175v-676q0 -181 -112 -289t-300 -108q-100 0 -180 32t-130 87t-76 126t-26 152v676h172v-664q0 -101 63.5 -175t176.5 -74q110 0 173.5 65t63.5 184v664zM784 1223h-180v180h180v-180zM416 1223h-180v180h180v-180z" />
<glyph unicode="&#xe138;" horiz-adv-x="862" d="M858 1065l-344 -643v-422h-176v422l-336 643h184l160 -305l84 -166l90 174l156 297h182zM473 1128l-108 41l147 363l166 -51z" />
<glyph unicode="&#xe139;" horiz-adv-x="933" d="M109 0l-3 1061h179v-187h247q75 0 142 -19.5t121.5 -58t87 -104t32.5 -149.5q0 -57 -24.5 -113.5t-69 -102.5t-114 -75t-152.5 -29h-270v-223h-176zM735 549q0 83 -54.5 126.5t-143.5 43.5h-252v-340h258q92 0 142 51t50 119z" />
<glyph unicode="&#xe177;" horiz-adv-x="393" d="M125 0l14 803h129l17 -803h-160zM113 1065h178v-182h-178v182z" />
<glyph unicode="&#xe178;" horiz-adv-x="811" d="M68 283q3 61 28.5 114t60 90.5t69 71.5t58 70.5t23.5 72.5v91h174v-95q0 -108 -110 -215q-38 -36 -60 -60.5t-42.5 -60.5t-20.5 -67q0 -20 2 -35.5t11 -37t24.5 -36t46 -24.5t71.5 -10q142 0 168 184l170 -31q-18 -152 -115 -231.5t-241 -79.5q-145 0 -231 81.5 t-86 207.5zM307 1065h180v-182h-180v182z" />
<glyph unicode="&#xe23f;" d="M909 389q0 -124 -56.5 -217t-145.5 -138.5t-195 -45.5t-195 45.5t-145.5 138.5t-56.5 217v647q0 123 56.5 216.5t146 139.5t194.5 46t194.5 -46t146 -139.5t56.5 -216.5v-647zM283 401q0 -31 2 -45l391 850q-63 66 -164 66q-105 0 -167 -66.5t-62 -181.5v-623zM741 401 v623q0 29 -2 41l-391 -848q60 -63 164 -63t166.5 66.5t62.5 180.5z" />
<glyph unicode="&#xe2d0;" horiz-adv-x="643" d="M590 811q0 -114 -77.5 -181t-188.5 -67t-189 67t-78 181v375q0 111 78 178.5t189 67.5q110 0 188 -67.5t78 -178.5v-375zM457 819v359q0 60 -36.5 94.5t-96.5 34.5q-61 0 -97.5 -35t-36.5 -94v-359q0 -62 36.5 -96.5t97.5 -34.5t97 34.5t36 96.5z" />
<glyph unicode="&#xe2d1;" horiz-adv-x="555" d="M371 1425v-854h-135v711l-119 -78v135l125 86h129z" />
<glyph unicode="&#xe2d2;" horiz-adv-x="636" d="M582 571h-535v117l354 410q50 56 50 106q0 43 -33.5 74t-91.5 31q-53 0 -91 -36.5t-47 -94.5l-135 18q15 105 93 169.5t182 64.5q115 0 189.5 -59t74.5 -165q0 -41 -18.5 -88t-51.5 -84q-258 -292 -297 -338h357v-125z" />
<glyph unicode="&#xe2d3;" horiz-adv-x="645" d="M594 834q0 -119 -80 -195t-207 -76q-46 0 -86.5 11t-77.5 34t-63.5 64.5t-36.5 97.5l133 18q12 -52 48 -79t85 -27q66 0 107 42t41 105t-39.5 98.5t-102.5 35.5h-77v112h65q63 0 103 33.5t40 85.5q0 50 -38.5 83.5t-94.5 33.5q-41 0 -79 -29.5t-52 -79.5l-133 19 q20 92 94.5 151.5t169.5 59.5q133 0 201 -67.5t68 -168.5q0 -112 -101 -174q58 -36 85.5 -86t27.5 -102z" />
<glyph unicode="&#xe2d4;" horiz-adv-x="659" d="M631 698h-74v-127h-135v127h-393v111l317 616h148l-316 -608h244v242h135v-242h74v-119z" />
<glyph unicode="&#xe2d5;" horiz-adv-x="628" d="M580 899v-53q0 -124 -73 -202.5t-208 -78.5q-229 0 -272 205l135 21q12 -56 48.5 -83.5t88.5 -27.5q147 0 147 190q0 164 -137 164q-74 0 -123 -71h-127v462h502v-120h-373v-189q60 39 150 39q116 0 179 -69.5t63 -186.5z" />
<glyph unicode="&#xe2d6;" horiz-adv-x="636" d="M592 834q0 -68 -23 -121t-63 -85t-89 -48.5t-104 -16.5q-121 0 -193.5 67.5t-72.5 194.5q0 88 49 183l240 417h149l-194 -354q27 6 57 6q107 0 175.5 -70.5t68.5 -172.5zM453 827q0 64 -39 101t-97 37q-54 0 -94.5 -37.5t-40.5 -100.5q0 -68 36 -106.5t99 -38.5 q59 0 97.5 40t38.5 105z" />
<glyph unicode="&#xe2d7;" horiz-adv-x="581" d="M563 1307l-319 -736h-148l318 729h-250v-124h-135v249h534v-118z" />
<glyph unicode="&#xe2d8;" horiz-adv-x="645" d="M608 821q0 -112 -83.5 -185t-202.5 -73t-203 73t-84 185q0 56 29 108.5t83 82.5q-94 52 -94 172q0 105 77 176.5t192 71.5q123 0 196.5 -70.5t73.5 -177.5q0 -109 -92 -170q54 -29 81 -81t27 -112zM475 823q0 56 -45.5 93.5t-107.5 37.5q-60 0 -107 -38t-47 -93 q0 -57 47 -98t107 -41q61 0 107 40.5t46 98.5zM457 1186q0 57 -40.5 91t-94.5 34t-95 -34t-41 -91q0 -56 40.5 -88.5t95.5 -32.5t95 32.5t40 88.5z" />
<glyph unicode="&#xe2d9;" horiz-adv-x="628" d="M43 1155q0 138 80.5 207.5t200.5 69.5q106 0 186 -70.5t80 -192.5q0 -76 -35 -141l-260 -459h-150l203 361q-23 -6 -59 -6q-109 0 -177.5 65t-68.5 166zM178 1167q0 -64 39.5 -100.5t97.5 -36.5t97 36.5t39 100.5q0 66 -36.5 106t-99.5 40q-59 0 -98 -41t-39 -105z" />
<glyph unicode="&#xe2da;" horiz-adv-x="387" d="M389 477l-74 -53q-258 251 -258 522q0 145 69.5 278t180.5 242l86 -45q-88 -105 -139 -228.5t-51 -240.5q0 -123 50.5 -248t135.5 -227z" />
<glyph unicode="&#xe2db;" horiz-adv-x="387" d="M86 424l-78 53q86 104 137.5 228.5t51.5 246.5q0 117 -50.5 241.5t-138.5 227.5l82 45q113 -109 183.5 -242t70.5 -278q0 -142 -72.5 -276t-185.5 -246z" />
<glyph unicode="&#xe2dc;" horiz-adv-x="335" d="M240 586l-78 -150h-92l39 135h-31v158h162v-143z" />
<glyph unicode="&#xe2dd;" horiz-adv-x="323" d="M242 571h-160v158h160v-158z" />
<glyph unicode="&#xe2f4;" horiz-adv-x="643" d="M590 240q0 -114 -77.5 -181t-188.5 -67t-189 67t-78 181v374q0 111 78 178.5t189 67.5q110 0 188 -67.5t78 -178.5v-374zM457 248v358q0 60 -36.5 94.5t-96.5 34.5q-61 0 -97.5 -35t-36.5 -94v-358q0 -62 36.5 -96.5t97.5 -34.5t97 34.5t36 96.5z" />
<glyph unicode="&#xe2f5;" horiz-adv-x="555" d="M371 854v-854h-135v711l-119 -78v135l125 86h129z" />
<glyph unicode="&#xe2f6;" horiz-adv-x="636" d="M582 0h-535v117l354 409q50 56 50 107q0 43 -33.5 73.5t-91.5 30.5q-53 0 -91 -36.5t-47 -94.5l-135 19q15 105 93 169t182 64q115 0 189.5 -58.5t74.5 -164.5q0 -41 -18.5 -88t-51.5 -84q-258 -292 -297 -338h357v-125z" />
<glyph unicode="&#xe2f7;" horiz-adv-x="645" d="M594 262q0 -119 -80 -194.5t-207 -75.5q-46 0 -86.5 11t-77.5 34t-63.5 64.5t-36.5 97.5l133 18q12 -52 48 -79t85 -27q66 0 107 42t41 105t-39.5 98t-102.5 35h-77v113h65q63 0 103 33.5t40 85.5q0 50 -38.5 83t-94.5 33q-41 0 -79 -29t-52 -79l-133 18 q20 92 94.5 151.5t169.5 59.5q133 0 201 -67t68 -168q0 -112 -101 -174q58 -36 85.5 -86.5t27.5 -102.5z" />
<glyph unicode="&#xe2f8;" horiz-adv-x="659" d="M631 127h-74v-127h-135v127h-393v111l317 616h148l-316 -608h244v241h135v-241h74v-119z" />
<glyph unicode="&#xe2f9;" horiz-adv-x="628" d="M580 328v-54q0 -124 -73 -202t-208 -78q-229 0 -272 205l135 20q23 -110 137 -110q147 0 147 190q0 164 -137 164q-73 0 -123 -72h-127v463h502v-121h-373v-188q60 39 150 39q116 0 179 -69.5t63 -186.5z" />
<glyph unicode="&#xe2fa;" horiz-adv-x="636" d="M592 262q0 -68 -23 -121t-63 -85t-89 -48t-104 -16q-121 0 -193.5 67.5t-72.5 194.5q0 87 49 182l240 418h149l-194 -354q27 6 57 6q107 0 175.5 -71t68.5 -173zM453 256q0 64 -39 100.5t-97 36.5q-54 0 -94.5 -37t-40.5 -100q0 -68 36 -106.5t99 -38.5q59 0 97.5 40 t38.5 105z" />
<glyph unicode="&#xe2fb;" horiz-adv-x="581" d="M563 735l-319 -735h-148l318 729h-250v-125h-135v250h534v-119z" />
<glyph unicode="&#xe2fc;" horiz-adv-x="645" d="M608 250q0 -112 -83.5 -185t-202.5 -73t-203 73t-84 185q0 56 29 108t83 82q-94 52 -94 172q0 105 77 176.5t192 71.5q123 0 196.5 -70.5t73.5 -177.5q0 -109 -92 -170q54 -29 81 -81t27 -111zM475 252q0 56 -45.5 93.5t-107.5 37.5q-60 0 -107 -38t-47 -93q0 -57 47 -98 t107 -41q61 0 107 40.5t46 98.5zM457 614q0 57 -40.5 91t-94.5 34t-95 -34t-41 -91q0 -56 40.5 -88t95.5 -32t95 32t40 88z" />
<glyph unicode="&#xe2fd;" horiz-adv-x="628" d="M43 584q0 138 80.5 207t200.5 69q106 0 186 -70t80 -192q0 -76 -35 -141l-260 -459h-150l203 360q-23 -6 -59 -6q-108 0 -177 65t-69 167zM178 596q0 -64 39.5 -100.5t97.5 -36.5t97 36.5t39 100.5q0 66 -36.5 105.5t-99.5 39.5q-59 0 -98 -40.5t-39 -104.5z" />
<glyph unicode="&#xe2fe;" horiz-adv-x="387" d="M389 -94l-74 -53q-258 251 -258 522q0 145 69.5 278t180.5 242l86 -45q-88 -105 -139 -228.5t-51 -240.5q0 -123 50.5 -248t135.5 -227z" />
<glyph unicode="&#xe2ff;" horiz-adv-x="387" d="M86 -147l-78 53q86 104 137.5 228.5t51.5 246.5q0 117 -50.5 241.5t-138.5 227.5l82 45q113 -109 183.5 -242t70.5 -278q0 -142 -72.5 -276t-185.5 -246z" />
<glyph unicode="&#xe300;" horiz-adv-x="335" d="M240 14l-78 -149h-92l39 135h-31v158h162v-144z" />
<glyph unicode="&#xe301;" horiz-adv-x="323" d="M242 0h-160v158h160v-158z" />
<glyph unicode="&#xe360;" horiz-adv-x="845" d="M846 571h-154l-76 211h-389l-75 -211h-154l362 932h125zM573 901l-98 264l-55 144q-7 -18 -28.5 -73.5t-31.5 -86.5l-90 -248h303z" />
<glyph unicode="&#xe361;" horiz-adv-x="845" d="M797 834q0 -117 -81.5 -190t-195.5 -73h-420v932h379q142 0 218.5 -67.5t76.5 -180.5q0 -57 -29.5 -110t-95.5 -90q70 -27 109 -89t39 -132zM485 989h-241v-291h241q81 0 125.5 43t44.5 103q0 61 -44 103t-126 42zM463 1382h-219v-274h219q81 0 125.5 39.5t44.5 99.5 t-44 97.5t-126 37.5z" />
<glyph unicode="&#xe362;" horiz-adv-x="872" d="M100 1503h330q114 0 203 -43t135 -129q25 -51 33 -114.5t8 -161.5q0 -115 -6 -181t-29 -114q-90 -189 -368 -189h-306v932zM666 946v176q0 256 -242 256h-180v-680h180q242 0 242 248z" />
<glyph unicode="&#xe363;" horiz-adv-x="768" d="M735 571h-635v932h635v-125h-491v-274h418v-123h-418v-283h491v-127z" />
<glyph unicode="&#xe364;" horiz-adv-x="899" d="M797 571h-142v410h-411v-410h-144v932h144v-399h411v399h142v-932z" />
<glyph unicode="&#xe365;" horiz-adv-x="339" d="M240 571h-144v932h144v-932z" />
<glyph unicode="&#xe366;" horiz-adv-x="768" d="M735 571h-635v932h144v-805h491v-127z" />
<glyph unicode="&#xe367;" horiz-adv-x="1056" d="M969 571h-142v631l-61 -137l-168 -358h-125l-172 362l-55 125v-623h-144v932h140l209 -444l90 -185q42 88 86 191l204 438h138v-932z" />
<glyph unicode="&#xe368;" horiz-adv-x="950" d="M850 571h-135l-355 519l-114 172v-691h-144v932h138l344 -499l125 -189v688h141v-932z" />
<glyph unicode="&#xe369;" horiz-adv-x="841" d="M420 1511q162 0 259 -97t97 -249v-252q0 -161 -97 -255.5t-259 -94.5q-171 0 -262.5 99.5t-91.5 250.5v252q0 147 92 246.5t262 99.5zM422 1382q-103 0 -159 -65.5t-56 -155.5v-241q0 -95 56 -162.5t159 -67.5q95 0 153 65t58 165v241q0 94 -57.5 157.5t-153.5 63.5z" />
<glyph unicode="&#xe36a;" horiz-adv-x="845" d="M799 571h-162l-191 402h-200v-402h-144v932h406q130 0 210.5 -71t80.5 -187q0 -92 -56.5 -162.5t-148.5 -95.5zM655 1245q0 70 -45.5 103.5t-124.5 33.5h-239v-288h235q76 0 125 40.5t49 110.5z" />
<glyph unicode="&#xe36b;" horiz-adv-x="792" d="M745 831q0 -125 -95 -196.5t-255 -71.5q-217 0 -372 123l86 102q134 -92 286 -92q93 0 148 36t55 99q0 113 -201 144q-169 29 -252.5 87t-83.5 179t88 195.5t242 74.5q189 0 326 -94l-80 -117q-132 78 -254 78q-73 0 -123.5 -35.5t-50.5 -103.5q0 -17 5.5 -32t19 -27 t25 -21.5t34.5 -18t36.5 -13.5t41.5 -12t39 -9t39 -8q153 -31 224.5 -91t71.5 -176z" />
<glyph unicode="&#xe36c;" horiz-adv-x="686" d="M692 1382h-276v-811h-144v811h-276v121h696v-121z" />
<glyph unicode="&#xe374;" horiz-adv-x="768" d="M514 1610l-59 -64l-248 142l92 90zM735 571h-635v932h635v-125h-491v-274h418v-123h-418v-283h491v-127z" />
</font>
</defs>
</svg>
